G04 #@! TF.FileFunction,Copper,L1,Top,Signal*
%FSLAX46Y46*%
G04 Gerber Fmt 4.6, Leading zero omitted, Abs format (unit mm)*
G04 Created by KiCad (PCBNEW 4.0.2-stable) date Thursday, September 29, 2016 'amt' 01:44:10 am*
%MOMM*%
G01*
G04 APERTURE LIST*
%ADD10C,0.100000*%
%ADD11C,1.727200*%
%ADD12O,1.998980X1.998980*%
%ADD13R,1.998980X1.998980*%
%ADD14R,1.270000X0.965200*%
%ADD15R,0.750000X1.000000*%
%ADD16R,1.600000X1.600000*%
%ADD17C,1.600000*%
%ADD18R,1.727200X1.727200*%
%ADD19O,1.727200X1.727200*%
%ADD20R,1.000000X0.900000*%
%ADD21R,1.600200X2.600960*%
%ADD22R,0.600000X1.500000*%
%ADD23R,1.900000X0.400000*%
%ADD24R,1.900000X2.000000*%
%ADD25C,1.900000*%
%ADD26R,1.727200X2.032000*%
%ADD27O,1.727200X2.032000*%
%ADD28C,0.685800*%
%ADD29C,0.152400*%
%ADD30C,0.200000*%
G04 APERTURE END LIST*
D10*
G36*
X170138318Y-119924377D02*
X171001918Y-118428577D01*
X172761682Y-119444577D01*
X171898082Y-120940377D01*
X170138318Y-119924377D01*
X170138318Y-119924377D01*
G37*
D11*
X170048018Y-121807982D02*
X170311982Y-121960382D01*
X168778018Y-124007686D02*
X169041982Y-124160086D01*
X167508018Y-126207391D02*
X167771982Y-126359791D01*
X166238018Y-128407095D02*
X166501982Y-128559495D01*
X164968018Y-130606800D02*
X165231982Y-130759200D01*
D12*
X164465000Y-110236000D03*
D13*
X164465000Y-112776000D03*
D14*
X169545000Y-115570000D03*
D15*
X146177000Y-114388000D03*
X146177000Y-112688000D03*
D16*
X154730000Y-126619000D03*
D17*
X154730000Y-124079000D03*
X160230000Y-124079000D03*
X160230000Y-126619000D03*
D18*
X167005000Y-116205000D03*
D19*
X167005000Y-118745000D03*
X164465000Y-116205000D03*
X164465000Y-118745000D03*
X161925000Y-116205000D03*
X161925000Y-118745000D03*
D20*
X151241000Y-121793000D03*
X149241000Y-121793000D03*
D10*
G36*
X143188918Y-121021786D02*
X142325318Y-119525986D01*
X144085082Y-118509986D01*
X144948682Y-120005786D01*
X143188918Y-121021786D01*
X143188918Y-121021786D01*
G37*
D11*
X144775018Y-122041791D02*
X145038982Y-121889391D01*
X146045018Y-124241495D02*
X146308982Y-124089095D01*
X147315018Y-126441200D02*
X147578982Y-126288800D01*
X148585018Y-128640904D02*
X148848982Y-128488504D01*
X149855018Y-130840609D02*
X150118982Y-130688209D01*
D21*
X158750000Y-110213140D03*
X158750000Y-113814860D03*
D22*
X147701000Y-116111000D03*
X148971000Y-116111000D03*
X150241000Y-116111000D03*
X151511000Y-116111000D03*
X152781000Y-116111000D03*
X154051000Y-116111000D03*
X155321000Y-116111000D03*
X155321000Y-110711000D03*
X154051000Y-110711000D03*
X152781000Y-110711000D03*
X151511000Y-110711000D03*
X150241000Y-110711000D03*
X148971000Y-110711000D03*
X147701000Y-110711000D03*
D23*
X147447000Y-118053000D03*
X147447000Y-119253000D03*
X147447000Y-120453000D03*
D20*
X152130000Y-118491000D03*
X150130000Y-118491000D03*
X150130000Y-120015000D03*
X152130000Y-120015000D03*
X149241000Y-123317000D03*
X151241000Y-123317000D03*
D24*
X156210000Y-119380000D03*
D25*
X158750000Y-119380000D03*
D26*
X160020000Y-131064000D03*
D27*
X157480000Y-131064000D03*
X154940000Y-131064000D03*
D14*
X169545000Y-116776500D03*
X169545000Y-118046500D03*
X169545000Y-114363500D03*
D28*
X145669000Y-120650000D03*
X166497000Y-121920000D03*
X145923000Y-116586000D03*
X156464000Y-112649000D03*
X154178000Y-113919000D03*
X169608500Y-120332500D03*
X167894000Y-111442500D03*
X166624000Y-109855000D03*
X169164000Y-112839500D03*
X154559000Y-119380000D03*
X164465000Y-127127002D03*
X162814000Y-130937004D03*
X162814000Y-128778000D03*
X165988996Y-125222004D03*
X165989000Y-123317000D03*
X168275000Y-121158000D03*
X152400000Y-124841000D03*
X149606000Y-124841000D03*
X150622000Y-132461000D03*
X166624000Y-114046000D03*
X160782006Y-111379000D03*
X162687000Y-111379000D03*
X162687000Y-113411000D03*
X160782000Y-113411000D03*
X161036000Y-121158000D03*
X162052000Y-124587000D03*
X163068000Y-121158000D03*
X163068002Y-123444000D03*
X142366998Y-118237000D03*
X144780000Y-118237000D03*
X143383002Y-116586000D03*
X144780000Y-116586000D03*
X144780000Y-114554000D03*
X149098000Y-113284000D03*
X147701000Y-112649000D03*
X156590996Y-109220000D03*
X154813000Y-109220000D03*
X156591000Y-111125000D03*
X146558000Y-111252000D03*
X148209000Y-109220000D03*
X151638000Y-130302000D03*
X153035000Y-131191000D03*
X156591000Y-125476000D03*
X158877000Y-125476000D03*
X162008000Y-122301000D03*
X159766000Y-122301000D03*
X152019001Y-128143000D03*
X155448012Y-128143000D03*
X147955000Y-121285000D03*
X154559000Y-121793000D03*
X169100500Y-119316500D03*
X165354000Y-121285000D03*
X171196000Y-117284496D03*
X164084000Y-120269000D03*
X153162006Y-109093000D03*
X150621994Y-109093000D03*
X150876000Y-113537996D03*
X153416000Y-118872000D03*
X146939000Y-122555000D03*
X150622000Y-125984000D03*
X150748982Y-128143000D03*
X147574000Y-114173000D03*
D29*
X144780000Y-121965591D02*
X145669000Y-121076591D01*
X145669000Y-121076591D02*
X145669000Y-120650000D01*
X160020000Y-131064000D02*
X160020000Y-129413000D01*
X160020000Y-129413000D02*
X164846000Y-124587000D01*
X164846000Y-124587000D02*
X164846000Y-122682000D01*
X164846000Y-122682000D02*
X165265101Y-122262899D01*
X166154101Y-122262899D02*
X166497000Y-121920000D01*
X165265101Y-122262899D02*
X166154101Y-122262899D01*
X146398000Y-116111000D02*
X145923000Y-116586000D01*
X147701000Y-116111000D02*
X146398000Y-116111000D01*
X156464000Y-112649000D02*
X158750000Y-110363000D01*
X158750000Y-110363000D02*
X158750000Y-110213140D01*
X147701000Y-116111000D02*
X147701000Y-115661000D01*
X147701000Y-115661000D02*
X148731810Y-114630190D01*
X148731810Y-114630190D02*
X153466810Y-114630190D01*
X153466810Y-114630190D02*
X154178000Y-113919000D01*
X144780000Y-121965591D02*
X144825591Y-121920000D01*
X144825591Y-121920000D02*
X149114000Y-121920000D01*
X149114000Y-121920000D02*
X149241000Y-121793000D01*
X149225000Y-123317000D02*
X149241000Y-123317000D01*
X158750000Y-110213140D02*
X164442140Y-110213140D01*
X164442140Y-110213140D02*
X164465000Y-110236000D01*
X149241000Y-121793000D02*
X149241000Y-123317000D01*
X150130000Y-120015000D02*
X150130000Y-120954000D01*
X149291000Y-121793000D02*
X149241000Y-121793000D01*
X150130000Y-120954000D02*
X149291000Y-121793000D01*
X146177000Y-114388000D02*
X146177000Y-114513000D01*
X146177000Y-114513000D02*
X147701000Y-116037000D01*
X147701000Y-116037000D02*
X147701000Y-116111000D01*
X167894000Y-111569500D02*
X167894000Y-111442500D01*
X169164000Y-112839500D02*
X167894000Y-111569500D01*
X166624000Y-111768890D02*
X166624000Y-109855000D01*
X165616890Y-112776000D02*
X166624000Y-111768890D01*
X164465000Y-112776000D02*
X165616890Y-112776000D01*
X168910000Y-120777000D02*
X169545000Y-120142000D01*
X168910000Y-124083886D02*
X168910000Y-120777000D01*
X169291000Y-120142000D02*
X169545000Y-120142000D01*
X168275000Y-121158000D02*
X169291000Y-120142000D01*
X156210000Y-119380000D02*
X154559000Y-119380000D01*
X154559000Y-120015000D02*
X154559000Y-119380000D01*
X160230000Y-124079000D02*
X160865000Y-123444000D01*
X160865000Y-123444000D02*
X161544000Y-123444000D01*
X161544000Y-123444000D02*
X161709101Y-123609101D01*
X161709101Y-123609101D02*
X161709101Y-124244101D01*
X161709101Y-124244101D02*
X162052000Y-124587000D01*
X163156901Y-128435101D02*
X164465000Y-127127002D01*
X162814000Y-128778000D02*
X163156901Y-128435101D01*
X162814000Y-128778000D02*
X162814000Y-130937004D01*
X165989000Y-125222000D02*
X165988996Y-125222004D01*
X165989000Y-123317000D02*
X165989000Y-125222000D01*
X164465000Y-112776000D02*
X164465000Y-113927890D01*
X164465000Y-113927890D02*
X164583110Y-114046000D01*
X164583110Y-114046000D02*
X166624000Y-114046000D01*
X162179006Y-112776000D02*
X160782006Y-111379000D01*
X164465000Y-112776000D02*
X162179006Y-112776000D01*
X160782000Y-113411000D02*
X162687000Y-113411000D01*
X160909000Y-121158000D02*
X161036000Y-121158000D01*
X159766000Y-122301000D02*
X160909000Y-121158000D01*
X160020000Y-122174000D02*
X161036000Y-121158000D01*
X160020000Y-122301000D02*
X160020000Y-122174000D01*
X162008000Y-122301000D02*
X163068000Y-121241000D01*
X163068000Y-121241000D02*
X163068000Y-121158000D01*
X163068002Y-123361002D02*
X163068002Y-123444000D01*
X162008000Y-122301000D02*
X163068002Y-123361002D01*
X144907000Y-115696998D02*
X142366998Y-118237000D01*
X144907000Y-115570000D02*
X144907000Y-115696998D01*
X143383002Y-115950998D02*
X143383002Y-116586000D01*
X144780000Y-114554000D02*
X143383002Y-115950998D01*
X148463000Y-112649000D02*
X149098000Y-113284000D01*
X147701000Y-112649000D02*
X148463000Y-112649000D01*
X147662000Y-112688000D02*
X147701000Y-112649000D01*
X146177000Y-112688000D02*
X147662000Y-112688000D01*
X154813000Y-109220000D02*
X156590996Y-109220000D01*
X155829000Y-113157000D02*
X155829000Y-111887000D01*
X155829000Y-111887000D02*
X156591000Y-111125000D01*
X156486860Y-113814860D02*
X155829000Y-113157000D01*
X158750000Y-113814860D02*
X156486860Y-113814860D01*
X146177000Y-112688000D02*
X146177000Y-111633000D01*
X146177000Y-111633000D02*
X146558000Y-111252000D01*
X147701000Y-110711000D02*
X147701000Y-109728000D01*
X147701000Y-109728000D02*
X148209000Y-109220000D01*
X144907000Y-115570000D02*
X144907000Y-113284000D01*
X144907000Y-117983000D02*
X144907000Y-115570000D01*
X151638000Y-130302000D02*
X152146000Y-130302000D01*
X152146000Y-130302000D02*
X153035000Y-131191000D01*
X154940000Y-131064000D02*
X153162000Y-131064000D01*
X153162000Y-131064000D02*
X153035000Y-131191000D01*
X156591000Y-125476000D02*
X158877000Y-125476000D01*
X160230000Y-124079000D02*
X158877000Y-125432000D01*
X158877000Y-125432000D02*
X158877000Y-125476000D01*
X160230000Y-124079000D02*
X162008000Y-122301000D01*
X147447000Y-119253000D02*
X146177000Y-119253000D01*
X146177000Y-119253000D02*
X144907000Y-117983000D01*
X144907000Y-113284000D02*
X145503000Y-112688000D01*
X145503000Y-112688000D02*
X146177000Y-112688000D01*
X146177000Y-112685000D02*
X146177000Y-112688000D01*
X152130000Y-118491000D02*
X152146000Y-118491000D01*
X152146000Y-118491000D02*
X152527000Y-118110000D01*
X152527000Y-118110000D02*
X157734000Y-118110000D01*
X157734000Y-118110000D02*
X158750000Y-119126000D01*
X158750000Y-119126000D02*
X158750000Y-119380000D01*
X148971000Y-116111000D02*
X149098000Y-116238000D01*
X149098000Y-116238000D02*
X149098000Y-117152000D01*
X149098000Y-117152000D02*
X148197000Y-118053000D01*
X148197000Y-118053000D02*
X147447000Y-118053000D01*
X150241000Y-116111000D02*
X150241000Y-116840000D01*
X150241000Y-116840000D02*
X149225000Y-117856000D01*
X149225000Y-117856000D02*
X149225000Y-120142000D01*
X148914000Y-120453000D02*
X147447000Y-120453000D01*
X149225000Y-120142000D02*
X148914000Y-120453000D01*
X150130000Y-118491000D02*
X150130000Y-118475000D01*
X152654000Y-116238000D02*
X152781000Y-116111000D01*
X150130000Y-118475000D02*
X151384000Y-117221000D01*
X151384000Y-117221000D02*
X152273000Y-117221000D01*
X152273000Y-117221000D02*
X152654000Y-116840000D01*
X152654000Y-116840000D02*
X152654000Y-116238000D01*
X149860000Y-130764409D02*
X150703409Y-130764409D01*
X150703409Y-130764409D02*
X152527000Y-132588000D01*
X152527000Y-132588000D02*
X163195000Y-132588000D01*
X163195000Y-132588000D02*
X165100000Y-130683000D01*
X149860000Y-130764409D02*
X150114000Y-130510409D01*
X150114000Y-130510409D02*
X150114000Y-127635000D01*
X150114000Y-127635000D02*
X150495000Y-127254000D01*
X150495000Y-127254000D02*
X151130001Y-127254000D01*
X151130001Y-127254000D02*
X152019001Y-128143000D01*
X155790911Y-127800101D02*
X155448012Y-128143000D01*
X155790911Y-123024911D02*
X155790911Y-127800101D01*
X153974811Y-122097811D02*
X154432000Y-122555000D01*
X153974811Y-121361189D02*
X153974811Y-122097811D01*
X154432000Y-122555000D02*
X155321000Y-122555000D01*
X159258745Y-120853189D02*
X154482811Y-120853189D01*
X155321000Y-122555000D02*
X155790911Y-123024911D01*
X160147000Y-118745000D02*
X160147000Y-119964934D01*
X160147000Y-119964934D02*
X159258745Y-120853189D01*
X159207190Y-117805190D02*
X160147000Y-118745000D01*
X155295190Y-117805190D02*
X159207190Y-117805190D01*
X154051000Y-116561000D02*
X155295190Y-117805190D01*
X154051000Y-116111000D02*
X154051000Y-116561000D01*
X154482811Y-120853189D02*
X153974811Y-121361189D01*
X164465000Y-118745000D02*
X165862000Y-117348000D01*
X165862000Y-117348000D02*
X168000682Y-117348000D01*
X168000682Y-117348000D02*
X168572182Y-116776500D01*
X168572182Y-116776500D02*
X169545000Y-116776500D01*
X169545000Y-116776500D02*
X169545000Y-118046500D01*
X169545000Y-118046500D02*
X169697400Y-118046500D01*
X169697400Y-118046500D02*
X171335377Y-119684477D01*
X171335377Y-119684477D02*
X171450000Y-119684477D01*
X155321000Y-116111000D02*
X156558000Y-116111000D01*
X164465000Y-118110000D02*
X164465000Y-118745000D01*
X156558000Y-116111000D02*
X156591000Y-116078000D01*
X156591000Y-116078000D02*
X157099000Y-116586000D01*
X161451542Y-117348000D02*
X163703000Y-117348000D01*
X157099000Y-116586000D02*
X160689542Y-116586000D01*
X160689542Y-116586000D02*
X161451542Y-117348000D01*
X163703000Y-117348000D02*
X164465000Y-118110000D01*
X143510000Y-119765886D02*
X145800886Y-119765886D01*
X145800886Y-119765886D02*
X146240502Y-120205502D01*
X146240502Y-120205502D02*
X146240502Y-120967502D01*
X146240502Y-120967502D02*
X146558000Y-121285000D01*
X146558000Y-121285000D02*
X147955000Y-121285000D01*
X164465000Y-118745000D02*
X163195000Y-120015000D01*
X163195000Y-120015000D02*
X160528000Y-120015000D01*
X160528000Y-120015000D02*
X159385000Y-121158000D01*
X159385000Y-121158000D02*
X155678933Y-121158000D01*
X155678933Y-121158000D02*
X155043933Y-121793000D01*
X155043933Y-121793000D02*
X154559000Y-121793000D01*
X166370000Y-128483295D02*
X167458915Y-128483295D01*
X167458915Y-128483295D02*
X168910000Y-127032210D01*
X168910000Y-127032210D02*
X168910000Y-125857000D01*
X168910000Y-125857000D02*
X167563811Y-124510811D01*
X167563811Y-124510811D02*
X167563811Y-119964189D01*
X167563811Y-119964189D02*
X168338500Y-119189500D01*
X168338500Y-119189500D02*
X168973500Y-119189500D01*
X168973500Y-119189500D02*
X169100500Y-119316500D01*
X169545000Y-114363500D02*
X170332400Y-114363500D01*
X170332400Y-114363500D02*
X170624500Y-114655600D01*
X170624500Y-114655600D02*
X170624500Y-116712996D01*
X170624500Y-116712996D02*
X171196000Y-117284496D01*
X169545000Y-114363500D02*
X169545000Y-115570000D01*
X167005000Y-116205000D02*
X167449500Y-116205000D01*
X169291000Y-115570000D02*
X169545000Y-115570000D01*
X167449500Y-116205000D02*
X168052750Y-116808250D01*
X168052750Y-116808250D02*
X169291000Y-115570000D01*
X164541189Y-124383812D02*
X164541189Y-122097811D01*
X164541189Y-122097811D02*
X165354000Y-121285000D01*
X154381187Y-129362189D02*
X159562812Y-129362189D01*
X151942810Y-126923811D02*
X154381187Y-129362189D01*
X150230893Y-126923811D02*
X151942810Y-126923811D01*
X159562812Y-129362189D02*
X164541189Y-124383812D01*
X148590000Y-128564704D02*
X150230893Y-126923811D01*
X155321000Y-110711000D02*
X155321000Y-113411000D01*
X155321000Y-113411000D02*
X157581567Y-115671567D01*
X157581567Y-115671567D02*
X160045433Y-115671567D01*
X160045433Y-115671567D02*
X161036000Y-114681000D01*
X161036000Y-114681000D02*
X164592000Y-114681000D01*
X164592000Y-114681000D02*
X166116000Y-116205000D01*
X166116000Y-116205000D02*
X167005000Y-116205000D01*
X167640000Y-126283591D02*
X167259000Y-125902591D01*
X167259000Y-125902591D02*
X167259000Y-121031000D01*
X164338000Y-120015000D02*
X164084000Y-120269000D01*
X167259000Y-121031000D02*
X166243000Y-120015000D01*
X166243000Y-120015000D02*
X164338000Y-120015000D01*
X163245811Y-114985811D02*
X164465000Y-116205000D01*
X161162256Y-114985811D02*
X163245811Y-114985811D01*
X157455311Y-115976378D02*
X160171689Y-115976378D01*
X154051000Y-110711000D02*
X154051000Y-112572067D01*
X160171689Y-115976378D02*
X161162256Y-114985811D01*
X154051000Y-112572067D02*
X157455311Y-115976378D01*
X164211000Y-124282934D02*
X164211000Y-120650000D01*
X164211000Y-120650000D02*
X164084000Y-120523000D01*
X147574000Y-126619000D02*
X152069065Y-126619000D01*
X154507443Y-129057378D02*
X159436556Y-129057378D01*
X147320000Y-126365000D02*
X147574000Y-126619000D01*
X152069065Y-126619000D02*
X154507443Y-129057378D01*
X159436556Y-129057378D02*
X164211000Y-124282934D01*
X164084000Y-120523000D02*
X164084000Y-120269000D01*
X152679000Y-109093000D02*
X153162006Y-109093000D01*
X151511000Y-110261000D02*
X152679000Y-109093000D01*
X151511000Y-110711000D02*
X151511000Y-110261000D01*
X150241000Y-109473994D02*
X150621994Y-109093000D01*
X150241000Y-110711000D02*
X150241000Y-109473994D01*
X148971000Y-111632996D02*
X150876000Y-113537996D01*
X148971000Y-110711000D02*
X148971000Y-111632996D01*
X151241000Y-121793000D02*
X152527000Y-121793000D01*
X152527000Y-121793000D02*
X153670000Y-120650000D01*
X153670000Y-120650000D02*
X153670000Y-125603000D01*
X153670000Y-125603000D02*
X154686000Y-126619000D01*
X154686000Y-126619000D02*
X154730000Y-126619000D01*
X153416000Y-118872000D02*
X153670000Y-119126000D01*
X153670000Y-119126000D02*
X153670000Y-120650000D01*
X153162000Y-114935000D02*
X155956000Y-114935000D01*
X155956000Y-114935000D02*
X157302189Y-116281189D01*
X157302189Y-116281189D02*
X161467811Y-116281189D01*
X161467811Y-116281189D02*
X161544000Y-116205000D01*
X161544000Y-116205000D02*
X161925000Y-116205000D01*
X153162000Y-114935000D02*
X152237000Y-114935000D01*
X152237000Y-114935000D02*
X151511000Y-115661000D01*
X151511000Y-115661000D02*
X151511000Y-116111000D01*
X152130000Y-120015000D02*
X151477600Y-120015000D01*
X151130000Y-117983000D02*
X151587190Y-117525810D01*
X152984190Y-117525810D02*
X153416000Y-117094000D01*
X151477600Y-120015000D02*
X151130000Y-119667400D01*
X151130000Y-119667400D02*
X151130000Y-117983000D01*
X151587190Y-117525810D02*
X152984190Y-117525810D01*
X153416000Y-117094000D02*
X153416000Y-115189000D01*
X153416000Y-115189000D02*
X153162000Y-114935000D01*
X151241000Y-123317000D02*
X151241000Y-125359868D01*
X151241000Y-125359868D02*
X154633699Y-128752567D01*
X154633699Y-128752567D02*
X159283433Y-128752567D01*
X159283433Y-128752567D02*
X160274000Y-127762000D01*
X160274000Y-126663000D02*
X160230000Y-126619000D01*
X160274000Y-127762000D02*
X160274000Y-126663000D01*
X147574000Y-123190000D02*
X146939000Y-122555000D01*
X147574000Y-124587000D02*
X147574000Y-123190000D01*
X148971000Y-125984000D02*
X147574000Y-124587000D01*
X150622000Y-125984000D02*
X148971000Y-125984000D01*
X157480000Y-131064000D02*
X157480000Y-130911600D01*
X152272982Y-129667000D02*
X150748982Y-128143000D01*
X157480000Y-130911600D02*
X156235400Y-129667000D01*
X156235400Y-129667000D02*
X152272982Y-129667000D01*
X152781000Y-110711000D02*
X152781000Y-112478818D01*
X152781000Y-112478818D02*
X151086818Y-114173000D01*
X151086818Y-114173000D02*
X147574000Y-114173000D01*
D30*
G36*
X149979206Y-108964558D02*
X149978997Y-109203969D01*
X149974986Y-109207980D01*
X149893437Y-109330028D01*
X149893437Y-109330029D01*
X149864799Y-109473994D01*
X149864800Y-109473999D01*
X149864800Y-109669461D01*
X149829827Y-109676042D01*
X149727721Y-109741745D01*
X149659222Y-109841997D01*
X149635123Y-109961000D01*
X149635123Y-111461000D01*
X149656042Y-111572173D01*
X149721745Y-111674279D01*
X149821997Y-111742778D01*
X149941000Y-111766877D01*
X150541000Y-111766877D01*
X150652173Y-111745958D01*
X150754279Y-111680255D01*
X150822778Y-111580003D01*
X150846877Y-111461000D01*
X150846877Y-109961000D01*
X150825958Y-109849827D01*
X150760255Y-109747721D01*
X150743109Y-109736006D01*
X150749314Y-109736011D01*
X150985692Y-109638342D01*
X151166700Y-109457649D01*
X151264782Y-109221442D01*
X151265005Y-108965680D01*
X151181260Y-108763000D01*
X152508749Y-108763000D01*
X152412986Y-108826986D01*
X152412984Y-108826989D01*
X151584849Y-109655123D01*
X151211000Y-109655123D01*
X151099827Y-109676042D01*
X150997721Y-109741745D01*
X150929222Y-109841997D01*
X150905123Y-109961000D01*
X150905123Y-111461000D01*
X150926042Y-111572173D01*
X150991745Y-111674279D01*
X151091997Y-111742778D01*
X151211000Y-111766877D01*
X151811000Y-111766877D01*
X151922173Y-111745958D01*
X152024279Y-111680255D01*
X152092778Y-111580003D01*
X152116877Y-111461000D01*
X152116877Y-110187151D01*
X152175123Y-110128905D01*
X152175123Y-111461000D01*
X152196042Y-111572173D01*
X152261745Y-111674279D01*
X152361997Y-111742778D01*
X152404800Y-111751446D01*
X152404800Y-112322991D01*
X151459980Y-113267810D01*
X151421342Y-113174298D01*
X151240649Y-112993290D01*
X151004442Y-112895208D01*
X150765030Y-112894999D01*
X149511073Y-111641041D01*
X149552778Y-111580003D01*
X149576877Y-111461000D01*
X149576877Y-109961000D01*
X149555958Y-109849827D01*
X149490255Y-109747721D01*
X149390003Y-109679222D01*
X149271000Y-109655123D01*
X148671000Y-109655123D01*
X148559827Y-109676042D01*
X148457721Y-109741745D01*
X148389222Y-109841997D01*
X148365123Y-109961000D01*
X148365123Y-111461000D01*
X148386042Y-111572173D01*
X148451745Y-111674279D01*
X148551997Y-111742778D01*
X148619350Y-111756418D01*
X148623437Y-111776962D01*
X148651858Y-111819497D01*
X148704986Y-111899010D01*
X150233197Y-113427220D01*
X150232989Y-113665316D01*
X150287317Y-113796800D01*
X148106862Y-113796800D01*
X147938649Y-113628294D01*
X147702442Y-113530212D01*
X147446680Y-113529989D01*
X147210302Y-113627658D01*
X147029294Y-113808351D01*
X146931212Y-114044558D01*
X146930989Y-114300320D01*
X147028658Y-114536698D01*
X147209351Y-114717706D01*
X147445558Y-114815788D01*
X147701320Y-114816011D01*
X147937698Y-114718342D01*
X148107135Y-114549200D01*
X148280773Y-114549200D01*
X147774849Y-115055123D01*
X147401000Y-115055123D01*
X147289827Y-115076042D01*
X147279022Y-115082995D01*
X146857877Y-114661849D01*
X146857877Y-113888000D01*
X146836958Y-113776827D01*
X146771255Y-113674721D01*
X146671003Y-113606222D01*
X146552000Y-113582123D01*
X145802000Y-113582123D01*
X145690827Y-113603042D01*
X145588721Y-113668745D01*
X145520222Y-113768997D01*
X145496123Y-113888000D01*
X145496123Y-114888000D01*
X145517042Y-114999173D01*
X145582745Y-115101279D01*
X145682997Y-115169778D01*
X145802000Y-115193877D01*
X146325849Y-115193877D01*
X146866773Y-115734800D01*
X146398000Y-115734800D01*
X146254034Y-115763437D01*
X146131986Y-115844986D01*
X146131984Y-115844989D01*
X146033776Y-115943197D01*
X145795680Y-115942989D01*
X145559302Y-116040658D01*
X145378294Y-116221351D01*
X145280212Y-116457558D01*
X145279989Y-116713320D01*
X145377658Y-116949698D01*
X145558351Y-117130706D01*
X145794558Y-117228788D01*
X146050320Y-117229011D01*
X146286698Y-117131342D01*
X146467706Y-116950649D01*
X146565788Y-116714442D01*
X146565986Y-116487200D01*
X147095123Y-116487200D01*
X147095123Y-116861000D01*
X147116042Y-116972173D01*
X147181745Y-117074279D01*
X147281997Y-117142778D01*
X147401000Y-117166877D01*
X148001000Y-117166877D01*
X148112173Y-117145958D01*
X148214279Y-117080255D01*
X148282778Y-116980003D01*
X148306877Y-116861000D01*
X148306877Y-115587151D01*
X148365123Y-115528905D01*
X148365123Y-116861000D01*
X148386042Y-116972173D01*
X148451745Y-117074279D01*
X148551997Y-117142778D01*
X148571288Y-117146685D01*
X148170849Y-117547123D01*
X146497000Y-117547123D01*
X146385827Y-117568042D01*
X146283721Y-117633745D01*
X146215222Y-117733997D01*
X146191123Y-117853000D01*
X146191123Y-118253000D01*
X146212042Y-118364173D01*
X146277745Y-118466279D01*
X146377997Y-118534778D01*
X146497000Y-118558877D01*
X148397000Y-118558877D01*
X148508173Y-118537958D01*
X148610279Y-118472255D01*
X148678778Y-118372003D01*
X148702877Y-118253000D01*
X148702877Y-118079151D01*
X148848800Y-117933228D01*
X148848800Y-119986173D01*
X148758172Y-120076800D01*
X148640115Y-120076800D01*
X148616255Y-120039721D01*
X148516003Y-119971222D01*
X148397000Y-119947123D01*
X146511618Y-119947123D01*
X146506516Y-119939488D01*
X146066900Y-119499872D01*
X146027525Y-119473563D01*
X145959335Y-119428000D01*
X146197000Y-119428000D01*
X146197000Y-119512674D01*
X146242672Y-119622937D01*
X146327064Y-119707328D01*
X146437327Y-119753000D01*
X147218000Y-119753000D01*
X147293000Y-119678000D01*
X147293000Y-119353000D01*
X147601000Y-119353000D01*
X147601000Y-119678000D01*
X147676000Y-119753000D01*
X148456673Y-119753000D01*
X148566936Y-119707328D01*
X148651328Y-119622937D01*
X148697000Y-119512674D01*
X148697000Y-119428000D01*
X148622000Y-119353000D01*
X147601000Y-119353000D01*
X147293000Y-119353000D01*
X146272000Y-119353000D01*
X146197000Y-119428000D01*
X145959335Y-119428000D01*
X145944852Y-119418323D01*
X145920965Y-119413572D01*
X145800886Y-119389685D01*
X145800881Y-119389686D01*
X144946172Y-119389686D01*
X144717334Y-118993326D01*
X146197000Y-118993326D01*
X146197000Y-119078000D01*
X146272000Y-119153000D01*
X147293000Y-119153000D01*
X147293000Y-118828000D01*
X147601000Y-118828000D01*
X147601000Y-119153000D01*
X148622000Y-119153000D01*
X148697000Y-119078000D01*
X148697000Y-118993326D01*
X148651328Y-118883063D01*
X148566936Y-118798672D01*
X148456673Y-118753000D01*
X147676000Y-118753000D01*
X147601000Y-118828000D01*
X147293000Y-118828000D01*
X147218000Y-118753000D01*
X146437327Y-118753000D01*
X146327064Y-118798672D01*
X146242672Y-118883063D01*
X146197000Y-118993326D01*
X144717334Y-118993326D01*
X144349979Y-118357048D01*
X144276277Y-118271228D01*
X144168323Y-118215653D01*
X144047253Y-118206457D01*
X143932144Y-118245089D01*
X142172380Y-119261089D01*
X142086560Y-119334791D01*
X142030985Y-119442745D01*
X142021789Y-119563815D01*
X142060421Y-119678924D01*
X142924021Y-121174724D01*
X142997723Y-121260544D01*
X143105677Y-121316119D01*
X143226747Y-121325315D01*
X143341856Y-121286683D01*
X145101620Y-120270683D01*
X145187440Y-120196981D01*
X145215700Y-120142086D01*
X145267809Y-120142086D01*
X145124294Y-120285351D01*
X145026212Y-120521558D01*
X145026030Y-120730497D01*
X144909429Y-120722855D01*
X144479510Y-120868793D01*
X144170890Y-121046975D01*
X143829544Y-121346328D01*
X143628739Y-121753521D01*
X143599045Y-122206563D01*
X143744983Y-122636482D01*
X144044336Y-122977828D01*
X144451529Y-123178633D01*
X144904571Y-123208327D01*
X145334490Y-123062389D01*
X145643111Y-122884207D01*
X145984456Y-122584854D01*
X146126804Y-122296200D01*
X146350342Y-122296200D01*
X146296212Y-122426558D01*
X146295989Y-122682320D01*
X146393658Y-122918698D01*
X146418626Y-122943709D01*
X146341038Y-122926041D01*
X145893517Y-123002306D01*
X145766121Y-123145632D01*
X146233368Y-123954927D01*
X146250688Y-123944927D01*
X146404688Y-124211663D01*
X146387368Y-124221663D01*
X146854615Y-125030958D01*
X147042436Y-124992293D01*
X147241043Y-124752825D01*
X147257079Y-124776825D01*
X147307986Y-124853014D01*
X147586201Y-125131229D01*
X147449429Y-125122264D01*
X147019510Y-125268202D01*
X146710890Y-125446384D01*
X146369544Y-125745737D01*
X146168739Y-126152930D01*
X146139045Y-126605972D01*
X146284983Y-127035891D01*
X146584336Y-127377237D01*
X146991529Y-127578042D01*
X147444571Y-127607736D01*
X147874490Y-127461798D01*
X148183111Y-127283616D01*
X148511985Y-126995200D01*
X149627477Y-126995200D01*
X149238468Y-127384208D01*
X149172471Y-127351662D01*
X148719429Y-127321968D01*
X148289510Y-127467906D01*
X147980890Y-127646088D01*
X147639544Y-127945441D01*
X147438739Y-128352634D01*
X147409045Y-128805676D01*
X147554983Y-129235595D01*
X147854336Y-129576941D01*
X148261529Y-129777746D01*
X148714571Y-129807440D01*
X149144490Y-129661502D01*
X149453111Y-129483320D01*
X149737800Y-129233653D01*
X149737800Y-129607090D01*
X149559510Y-129667611D01*
X149250890Y-129845793D01*
X148909544Y-130145146D01*
X148708739Y-130552339D01*
X148679045Y-131005381D01*
X148824983Y-131435300D01*
X149124336Y-131776646D01*
X149531529Y-131977451D01*
X149984571Y-132007145D01*
X150414490Y-131861207D01*
X150723111Y-131683025D01*
X150918577Y-131511605D01*
X152260984Y-132854011D01*
X152260986Y-132854014D01*
X152383034Y-132935563D01*
X152406921Y-132940314D01*
X152527000Y-132964201D01*
X152527005Y-132964200D01*
X163194995Y-132964200D01*
X163195000Y-132964201D01*
X163315079Y-132940314D01*
X163338966Y-132935563D01*
X163461014Y-132854014D01*
X164585478Y-131729550D01*
X164672510Y-131779798D01*
X165102429Y-131925736D01*
X165555471Y-131896042D01*
X165962665Y-131695237D01*
X166262017Y-131353892D01*
X166407955Y-130923972D01*
X166378261Y-130470930D01*
X166177456Y-130063737D01*
X165836111Y-129764384D01*
X165527490Y-129586202D01*
X165097571Y-129440264D01*
X164644529Y-129469958D01*
X164237336Y-129670763D01*
X163937983Y-130012109D01*
X163792045Y-130442028D01*
X163821739Y-130895070D01*
X163998159Y-131252814D01*
X163039172Y-132211800D01*
X161156634Y-132211800D01*
X161165378Y-132199003D01*
X161189477Y-132080000D01*
X161189477Y-130048000D01*
X161168558Y-129936827D01*
X161102855Y-129834721D01*
X161002603Y-129766222D01*
X160883600Y-129742123D01*
X160396200Y-129742123D01*
X160396200Y-129568828D01*
X165112011Y-124853016D01*
X165112014Y-124853014D01*
X165193563Y-124730966D01*
X165193564Y-124730965D01*
X165222201Y-124587000D01*
X165222200Y-124586995D01*
X165222200Y-122837828D01*
X165420928Y-122639099D01*
X166154096Y-122639099D01*
X166154101Y-122639100D01*
X166274180Y-122615213D01*
X166298067Y-122610462D01*
X166369416Y-122562789D01*
X166624320Y-122563011D01*
X166860698Y-122465342D01*
X166882800Y-122443278D01*
X166882800Y-125219345D01*
X166777336Y-125271354D01*
X166477983Y-125612700D01*
X166332045Y-126042619D01*
X166361739Y-126495661D01*
X166562544Y-126902854D01*
X166903890Y-127202207D01*
X167212510Y-127380389D01*
X167642429Y-127526327D01*
X167900789Y-127509393D01*
X167480052Y-127930130D01*
X167447456Y-127864032D01*
X167106111Y-127564679D01*
X166797490Y-127386497D01*
X166367571Y-127240559D01*
X165914529Y-127270253D01*
X165507336Y-127471058D01*
X165207983Y-127812404D01*
X165062045Y-128242323D01*
X165091739Y-128695365D01*
X165292544Y-129102558D01*
X165633890Y-129401911D01*
X165942510Y-129580093D01*
X166372429Y-129726031D01*
X166825471Y-129696337D01*
X167232665Y-129495532D01*
X167532017Y-129154187D01*
X167653181Y-128797249D01*
X167724929Y-128749309D01*
X167869684Y-128604554D01*
X165304944Y-133045000D01*
X149655056Y-133045000D01*
X144958524Y-124913689D01*
X145188744Y-124913689D01*
X145245601Y-125087011D01*
X145570321Y-125303750D01*
X146012962Y-125404549D01*
X146460483Y-125328284D01*
X146587879Y-125184958D01*
X146120632Y-124375663D01*
X145188744Y-124913689D01*
X144958524Y-124913689D01*
X144500947Y-124121467D01*
X144887730Y-124121467D01*
X144913071Y-124511052D01*
X145034744Y-124646953D01*
X145966632Y-124108927D01*
X145499385Y-123299632D01*
X145311564Y-123338297D01*
X145021756Y-123687729D01*
X144887730Y-124121467D01*
X144500947Y-124121467D01*
X141325798Y-118624195D01*
X144892794Y-112917000D01*
X145502000Y-112917000D01*
X145502000Y-113247674D01*
X145547672Y-113357937D01*
X145632064Y-113442328D01*
X145742327Y-113488000D01*
X145948000Y-113488000D01*
X146023000Y-113413000D01*
X146023000Y-112842000D01*
X146331000Y-112842000D01*
X146331000Y-113413000D01*
X146406000Y-113488000D01*
X146611673Y-113488000D01*
X146721936Y-113442328D01*
X146806328Y-113357937D01*
X146852000Y-113247674D01*
X146852000Y-112917000D01*
X146777000Y-112842000D01*
X146331000Y-112842000D01*
X146023000Y-112842000D01*
X145577000Y-112842000D01*
X145502000Y-112917000D01*
X144892794Y-112917000D01*
X145385715Y-112128326D01*
X145502000Y-112128326D01*
X145502000Y-112459000D01*
X145577000Y-112534000D01*
X146023000Y-112534000D01*
X146023000Y-111963000D01*
X146331000Y-111963000D01*
X146331000Y-112534000D01*
X146777000Y-112534000D01*
X146852000Y-112459000D01*
X146852000Y-112128326D01*
X146806328Y-112018063D01*
X146721936Y-111933672D01*
X146611673Y-111888000D01*
X146406000Y-111888000D01*
X146331000Y-111963000D01*
X146023000Y-111963000D01*
X145948000Y-111888000D01*
X145742327Y-111888000D01*
X145632064Y-111933672D01*
X145547672Y-112018063D01*
X145502000Y-112128326D01*
X145385715Y-112128326D01*
X146128419Y-110940000D01*
X147101000Y-110940000D01*
X147101000Y-111520674D01*
X147146672Y-111630937D01*
X147231064Y-111715328D01*
X147341327Y-111761000D01*
X147476000Y-111761000D01*
X147551000Y-111686000D01*
X147551000Y-110865000D01*
X147851000Y-110865000D01*
X147851000Y-111686000D01*
X147926000Y-111761000D01*
X148060673Y-111761000D01*
X148170936Y-111715328D01*
X148255328Y-111630937D01*
X148301000Y-111520674D01*
X148301000Y-110940000D01*
X148226000Y-110865000D01*
X147851000Y-110865000D01*
X147551000Y-110865000D01*
X147176000Y-110865000D01*
X147101000Y-110940000D01*
X146128419Y-110940000D01*
X146777590Y-109901326D01*
X147101000Y-109901326D01*
X147101000Y-110482000D01*
X147176000Y-110557000D01*
X147551000Y-110557000D01*
X147551000Y-109736000D01*
X147851000Y-109736000D01*
X147851000Y-110557000D01*
X148226000Y-110557000D01*
X148301000Y-110482000D01*
X148301000Y-109901326D01*
X148255328Y-109791063D01*
X148170936Y-109706672D01*
X148060673Y-109661000D01*
X147926000Y-109661000D01*
X147851000Y-109736000D01*
X147551000Y-109736000D01*
X147476000Y-109661000D01*
X147341327Y-109661000D01*
X147231064Y-109706672D01*
X147146672Y-109791063D01*
X147101000Y-109901326D01*
X146777590Y-109901326D01*
X147489045Y-108763000D01*
X150062900Y-108763000D01*
X149979206Y-108964558D01*
X149979206Y-108964558D01*
G37*
X149979206Y-108964558D02*
X149978997Y-109203969D01*
X149974986Y-109207980D01*
X149893437Y-109330028D01*
X149893437Y-109330029D01*
X149864799Y-109473994D01*
X149864800Y-109473999D01*
X149864800Y-109669461D01*
X149829827Y-109676042D01*
X149727721Y-109741745D01*
X149659222Y-109841997D01*
X149635123Y-109961000D01*
X149635123Y-111461000D01*
X149656042Y-111572173D01*
X149721745Y-111674279D01*
X149821997Y-111742778D01*
X149941000Y-111766877D01*
X150541000Y-111766877D01*
X150652173Y-111745958D01*
X150754279Y-111680255D01*
X150822778Y-111580003D01*
X150846877Y-111461000D01*
X150846877Y-109961000D01*
X150825958Y-109849827D01*
X150760255Y-109747721D01*
X150743109Y-109736006D01*
X150749314Y-109736011D01*
X150985692Y-109638342D01*
X151166700Y-109457649D01*
X151264782Y-109221442D01*
X151265005Y-108965680D01*
X151181260Y-108763000D01*
X152508749Y-108763000D01*
X152412986Y-108826986D01*
X152412984Y-108826989D01*
X151584849Y-109655123D01*
X151211000Y-109655123D01*
X151099827Y-109676042D01*
X150997721Y-109741745D01*
X150929222Y-109841997D01*
X150905123Y-109961000D01*
X150905123Y-111461000D01*
X150926042Y-111572173D01*
X150991745Y-111674279D01*
X151091997Y-111742778D01*
X151211000Y-111766877D01*
X151811000Y-111766877D01*
X151922173Y-111745958D01*
X152024279Y-111680255D01*
X152092778Y-111580003D01*
X152116877Y-111461000D01*
X152116877Y-110187151D01*
X152175123Y-110128905D01*
X152175123Y-111461000D01*
X152196042Y-111572173D01*
X152261745Y-111674279D01*
X152361997Y-111742778D01*
X152404800Y-111751446D01*
X152404800Y-112322991D01*
X151459980Y-113267810D01*
X151421342Y-113174298D01*
X151240649Y-112993290D01*
X151004442Y-112895208D01*
X150765030Y-112894999D01*
X149511073Y-111641041D01*
X149552778Y-111580003D01*
X149576877Y-111461000D01*
X149576877Y-109961000D01*
X149555958Y-109849827D01*
X149490255Y-109747721D01*
X149390003Y-109679222D01*
X149271000Y-109655123D01*
X148671000Y-109655123D01*
X148559827Y-109676042D01*
X148457721Y-109741745D01*
X148389222Y-109841997D01*
X148365123Y-109961000D01*
X148365123Y-111461000D01*
X148386042Y-111572173D01*
X148451745Y-111674279D01*
X148551997Y-111742778D01*
X148619350Y-111756418D01*
X148623437Y-111776962D01*
X148651858Y-111819497D01*
X148704986Y-111899010D01*
X150233197Y-113427220D01*
X150232989Y-113665316D01*
X150287317Y-113796800D01*
X148106862Y-113796800D01*
X147938649Y-113628294D01*
X147702442Y-113530212D01*
X147446680Y-113529989D01*
X147210302Y-113627658D01*
X147029294Y-113808351D01*
X146931212Y-114044558D01*
X146930989Y-114300320D01*
X147028658Y-114536698D01*
X147209351Y-114717706D01*
X147445558Y-114815788D01*
X147701320Y-114816011D01*
X147937698Y-114718342D01*
X148107135Y-114549200D01*
X148280773Y-114549200D01*
X147774849Y-115055123D01*
X147401000Y-115055123D01*
X147289827Y-115076042D01*
X147279022Y-115082995D01*
X146857877Y-114661849D01*
X146857877Y-113888000D01*
X146836958Y-113776827D01*
X146771255Y-113674721D01*
X146671003Y-113606222D01*
X146552000Y-113582123D01*
X145802000Y-113582123D01*
X145690827Y-113603042D01*
X145588721Y-113668745D01*
X145520222Y-113768997D01*
X145496123Y-113888000D01*
X145496123Y-114888000D01*
X145517042Y-114999173D01*
X145582745Y-115101279D01*
X145682997Y-115169778D01*
X145802000Y-115193877D01*
X146325849Y-115193877D01*
X146866773Y-115734800D01*
X146398000Y-115734800D01*
X146254034Y-115763437D01*
X146131986Y-115844986D01*
X146131984Y-115844989D01*
X146033776Y-115943197D01*
X145795680Y-115942989D01*
X145559302Y-116040658D01*
X145378294Y-116221351D01*
X145280212Y-116457558D01*
X145279989Y-116713320D01*
X145377658Y-116949698D01*
X145558351Y-117130706D01*
X145794558Y-117228788D01*
X146050320Y-117229011D01*
X146286698Y-117131342D01*
X146467706Y-116950649D01*
X146565788Y-116714442D01*
X146565986Y-116487200D01*
X147095123Y-116487200D01*
X147095123Y-116861000D01*
X147116042Y-116972173D01*
X147181745Y-117074279D01*
X147281997Y-117142778D01*
X147401000Y-117166877D01*
X148001000Y-117166877D01*
X148112173Y-117145958D01*
X148214279Y-117080255D01*
X148282778Y-116980003D01*
X148306877Y-116861000D01*
X148306877Y-115587151D01*
X148365123Y-115528905D01*
X148365123Y-116861000D01*
X148386042Y-116972173D01*
X148451745Y-117074279D01*
X148551997Y-117142778D01*
X148571288Y-117146685D01*
X148170849Y-117547123D01*
X146497000Y-117547123D01*
X146385827Y-117568042D01*
X146283721Y-117633745D01*
X146215222Y-117733997D01*
X146191123Y-117853000D01*
X146191123Y-118253000D01*
X146212042Y-118364173D01*
X146277745Y-118466279D01*
X146377997Y-118534778D01*
X146497000Y-118558877D01*
X148397000Y-118558877D01*
X148508173Y-118537958D01*
X148610279Y-118472255D01*
X148678778Y-118372003D01*
X148702877Y-118253000D01*
X148702877Y-118079151D01*
X148848800Y-117933228D01*
X148848800Y-119986173D01*
X148758172Y-120076800D01*
X148640115Y-120076800D01*
X148616255Y-120039721D01*
X148516003Y-119971222D01*
X148397000Y-119947123D01*
X146511618Y-119947123D01*
X146506516Y-119939488D01*
X146066900Y-119499872D01*
X146027525Y-119473563D01*
X145959335Y-119428000D01*
X146197000Y-119428000D01*
X146197000Y-119512674D01*
X146242672Y-119622937D01*
X146327064Y-119707328D01*
X146437327Y-119753000D01*
X147218000Y-119753000D01*
X147293000Y-119678000D01*
X147293000Y-119353000D01*
X147601000Y-119353000D01*
X147601000Y-119678000D01*
X147676000Y-119753000D01*
X148456673Y-119753000D01*
X148566936Y-119707328D01*
X148651328Y-119622937D01*
X148697000Y-119512674D01*
X148697000Y-119428000D01*
X148622000Y-119353000D01*
X147601000Y-119353000D01*
X147293000Y-119353000D01*
X146272000Y-119353000D01*
X146197000Y-119428000D01*
X145959335Y-119428000D01*
X145944852Y-119418323D01*
X145920965Y-119413572D01*
X145800886Y-119389685D01*
X145800881Y-119389686D01*
X144946172Y-119389686D01*
X144717334Y-118993326D01*
X146197000Y-118993326D01*
X146197000Y-119078000D01*
X146272000Y-119153000D01*
X147293000Y-119153000D01*
X147293000Y-118828000D01*
X147601000Y-118828000D01*
X147601000Y-119153000D01*
X148622000Y-119153000D01*
X148697000Y-119078000D01*
X148697000Y-118993326D01*
X148651328Y-118883063D01*
X148566936Y-118798672D01*
X148456673Y-118753000D01*
X147676000Y-118753000D01*
X147601000Y-118828000D01*
X147293000Y-118828000D01*
X147218000Y-118753000D01*
X146437327Y-118753000D01*
X146327064Y-118798672D01*
X146242672Y-118883063D01*
X146197000Y-118993326D01*
X144717334Y-118993326D01*
X144349979Y-118357048D01*
X144276277Y-118271228D01*
X144168323Y-118215653D01*
X144047253Y-118206457D01*
X143932144Y-118245089D01*
X142172380Y-119261089D01*
X142086560Y-119334791D01*
X142030985Y-119442745D01*
X142021789Y-119563815D01*
X142060421Y-119678924D01*
X142924021Y-121174724D01*
X142997723Y-121260544D01*
X143105677Y-121316119D01*
X143226747Y-121325315D01*
X143341856Y-121286683D01*
X145101620Y-120270683D01*
X145187440Y-120196981D01*
X145215700Y-120142086D01*
X145267809Y-120142086D01*
X145124294Y-120285351D01*
X145026212Y-120521558D01*
X145026030Y-120730497D01*
X144909429Y-120722855D01*
X144479510Y-120868793D01*
X144170890Y-121046975D01*
X143829544Y-121346328D01*
X143628739Y-121753521D01*
X143599045Y-122206563D01*
X143744983Y-122636482D01*
X144044336Y-122977828D01*
X144451529Y-123178633D01*
X144904571Y-123208327D01*
X145334490Y-123062389D01*
X145643111Y-122884207D01*
X145984456Y-122584854D01*
X146126804Y-122296200D01*
X146350342Y-122296200D01*
X146296212Y-122426558D01*
X146295989Y-122682320D01*
X146393658Y-122918698D01*
X146418626Y-122943709D01*
X146341038Y-122926041D01*
X145893517Y-123002306D01*
X145766121Y-123145632D01*
X146233368Y-123954927D01*
X146250688Y-123944927D01*
X146404688Y-124211663D01*
X146387368Y-124221663D01*
X146854615Y-125030958D01*
X147042436Y-124992293D01*
X147241043Y-124752825D01*
X147257079Y-124776825D01*
X147307986Y-124853014D01*
X147586201Y-125131229D01*
X147449429Y-125122264D01*
X147019510Y-125268202D01*
X146710890Y-125446384D01*
X146369544Y-125745737D01*
X146168739Y-126152930D01*
X146139045Y-126605972D01*
X146284983Y-127035891D01*
X146584336Y-127377237D01*
X146991529Y-127578042D01*
X147444571Y-127607736D01*
X147874490Y-127461798D01*
X148183111Y-127283616D01*
X148511985Y-126995200D01*
X149627477Y-126995200D01*
X149238468Y-127384208D01*
X149172471Y-127351662D01*
X148719429Y-127321968D01*
X148289510Y-127467906D01*
X147980890Y-127646088D01*
X147639544Y-127945441D01*
X147438739Y-128352634D01*
X147409045Y-128805676D01*
X147554983Y-129235595D01*
X147854336Y-129576941D01*
X148261529Y-129777746D01*
X148714571Y-129807440D01*
X149144490Y-129661502D01*
X149453111Y-129483320D01*
X149737800Y-129233653D01*
X149737800Y-129607090D01*
X149559510Y-129667611D01*
X149250890Y-129845793D01*
X148909544Y-130145146D01*
X148708739Y-130552339D01*
X148679045Y-131005381D01*
X148824983Y-131435300D01*
X149124336Y-131776646D01*
X149531529Y-131977451D01*
X149984571Y-132007145D01*
X150414490Y-131861207D01*
X150723111Y-131683025D01*
X150918577Y-131511605D01*
X152260984Y-132854011D01*
X152260986Y-132854014D01*
X152383034Y-132935563D01*
X152406921Y-132940314D01*
X152527000Y-132964201D01*
X152527005Y-132964200D01*
X163194995Y-132964200D01*
X163195000Y-132964201D01*
X163315079Y-132940314D01*
X163338966Y-132935563D01*
X163461014Y-132854014D01*
X164585478Y-131729550D01*
X164672510Y-131779798D01*
X165102429Y-131925736D01*
X165555471Y-131896042D01*
X165962665Y-131695237D01*
X166262017Y-131353892D01*
X166407955Y-130923972D01*
X166378261Y-130470930D01*
X166177456Y-130063737D01*
X165836111Y-129764384D01*
X165527490Y-129586202D01*
X165097571Y-129440264D01*
X164644529Y-129469958D01*
X164237336Y-129670763D01*
X163937983Y-130012109D01*
X163792045Y-130442028D01*
X163821739Y-130895070D01*
X163998159Y-131252814D01*
X163039172Y-132211800D01*
X161156634Y-132211800D01*
X161165378Y-132199003D01*
X161189477Y-132080000D01*
X161189477Y-130048000D01*
X161168558Y-129936827D01*
X161102855Y-129834721D01*
X161002603Y-129766222D01*
X160883600Y-129742123D01*
X160396200Y-129742123D01*
X160396200Y-129568828D01*
X165112011Y-124853016D01*
X165112014Y-124853014D01*
X165193563Y-124730966D01*
X165193564Y-124730965D01*
X165222201Y-124587000D01*
X165222200Y-124586995D01*
X165222200Y-122837828D01*
X165420928Y-122639099D01*
X166154096Y-122639099D01*
X166154101Y-122639100D01*
X166274180Y-122615213D01*
X166298067Y-122610462D01*
X166369416Y-122562789D01*
X166624320Y-122563011D01*
X166860698Y-122465342D01*
X166882800Y-122443278D01*
X166882800Y-125219345D01*
X166777336Y-125271354D01*
X166477983Y-125612700D01*
X166332045Y-126042619D01*
X166361739Y-126495661D01*
X166562544Y-126902854D01*
X166903890Y-127202207D01*
X167212510Y-127380389D01*
X167642429Y-127526327D01*
X167900789Y-127509393D01*
X167480052Y-127930130D01*
X167447456Y-127864032D01*
X167106111Y-127564679D01*
X166797490Y-127386497D01*
X166367571Y-127240559D01*
X165914529Y-127270253D01*
X165507336Y-127471058D01*
X165207983Y-127812404D01*
X165062045Y-128242323D01*
X165091739Y-128695365D01*
X165292544Y-129102558D01*
X165633890Y-129401911D01*
X165942510Y-129580093D01*
X166372429Y-129726031D01*
X166825471Y-129696337D01*
X167232665Y-129495532D01*
X167532017Y-129154187D01*
X167653181Y-128797249D01*
X167724929Y-128749309D01*
X167869684Y-128604554D01*
X165304944Y-133045000D01*
X149655056Y-133045000D01*
X144958524Y-124913689D01*
X145188744Y-124913689D01*
X145245601Y-125087011D01*
X145570321Y-125303750D01*
X146012962Y-125404549D01*
X146460483Y-125328284D01*
X146587879Y-125184958D01*
X146120632Y-124375663D01*
X145188744Y-124913689D01*
X144958524Y-124913689D01*
X144500947Y-124121467D01*
X144887730Y-124121467D01*
X144913071Y-124511052D01*
X145034744Y-124646953D01*
X145966632Y-124108927D01*
X145499385Y-123299632D01*
X145311564Y-123338297D01*
X145021756Y-123687729D01*
X144887730Y-124121467D01*
X144500947Y-124121467D01*
X141325798Y-118624195D01*
X144892794Y-112917000D01*
X145502000Y-112917000D01*
X145502000Y-113247674D01*
X145547672Y-113357937D01*
X145632064Y-113442328D01*
X145742327Y-113488000D01*
X145948000Y-113488000D01*
X146023000Y-113413000D01*
X146023000Y-112842000D01*
X146331000Y-112842000D01*
X146331000Y-113413000D01*
X146406000Y-113488000D01*
X146611673Y-113488000D01*
X146721936Y-113442328D01*
X146806328Y-113357937D01*
X146852000Y-113247674D01*
X146852000Y-112917000D01*
X146777000Y-112842000D01*
X146331000Y-112842000D01*
X146023000Y-112842000D01*
X145577000Y-112842000D01*
X145502000Y-112917000D01*
X144892794Y-112917000D01*
X145385715Y-112128326D01*
X145502000Y-112128326D01*
X145502000Y-112459000D01*
X145577000Y-112534000D01*
X146023000Y-112534000D01*
X146023000Y-111963000D01*
X146331000Y-111963000D01*
X146331000Y-112534000D01*
X146777000Y-112534000D01*
X146852000Y-112459000D01*
X146852000Y-112128326D01*
X146806328Y-112018063D01*
X146721936Y-111933672D01*
X146611673Y-111888000D01*
X146406000Y-111888000D01*
X146331000Y-111963000D01*
X146023000Y-111963000D01*
X145948000Y-111888000D01*
X145742327Y-111888000D01*
X145632064Y-111933672D01*
X145547672Y-112018063D01*
X145502000Y-112128326D01*
X145385715Y-112128326D01*
X146128419Y-110940000D01*
X147101000Y-110940000D01*
X147101000Y-111520674D01*
X147146672Y-111630937D01*
X147231064Y-111715328D01*
X147341327Y-111761000D01*
X147476000Y-111761000D01*
X147551000Y-111686000D01*
X147551000Y-110865000D01*
X147851000Y-110865000D01*
X147851000Y-111686000D01*
X147926000Y-111761000D01*
X148060673Y-111761000D01*
X148170936Y-111715328D01*
X148255328Y-111630937D01*
X148301000Y-111520674D01*
X148301000Y-110940000D01*
X148226000Y-110865000D01*
X147851000Y-110865000D01*
X147551000Y-110865000D01*
X147176000Y-110865000D01*
X147101000Y-110940000D01*
X146128419Y-110940000D01*
X146777590Y-109901326D01*
X147101000Y-109901326D01*
X147101000Y-110482000D01*
X147176000Y-110557000D01*
X147551000Y-110557000D01*
X147551000Y-109736000D01*
X147851000Y-109736000D01*
X147851000Y-110557000D01*
X148226000Y-110557000D01*
X148301000Y-110482000D01*
X148301000Y-109901326D01*
X148255328Y-109791063D01*
X148170936Y-109706672D01*
X148060673Y-109661000D01*
X147926000Y-109661000D01*
X147851000Y-109736000D01*
X147551000Y-109736000D01*
X147476000Y-109661000D01*
X147341327Y-109661000D01*
X147231064Y-109706672D01*
X147146672Y-109791063D01*
X147101000Y-109901326D01*
X146777590Y-109901326D01*
X147489045Y-108763000D01*
X150062900Y-108763000D01*
X149979206Y-108964558D01*
G36*
X150620540Y-128785788D02*
X150859951Y-128785997D01*
X152006966Y-129933011D01*
X152006968Y-129933014D01*
X152129016Y-130014563D01*
X152272982Y-130043200D01*
X154188976Y-130043200D01*
X153948794Y-130302312D01*
X153791081Y-130728009D01*
X153851506Y-130910000D01*
X154786000Y-130910000D01*
X154786000Y-130890000D01*
X155094000Y-130890000D01*
X155094000Y-130910000D01*
X156028494Y-130910000D01*
X156088919Y-130728009D01*
X155931206Y-130302312D01*
X155691024Y-130043200D01*
X156079572Y-130043200D01*
X156433784Y-130397411D01*
X156404974Y-130440528D01*
X156316400Y-130885818D01*
X156316400Y-131242182D01*
X156404974Y-131687472D01*
X156657211Y-132064971D01*
X156876956Y-132211800D01*
X155514901Y-132211800D01*
X155622591Y-132158627D01*
X155931206Y-131825688D01*
X156088919Y-131399991D01*
X156028494Y-131218000D01*
X155094000Y-131218000D01*
X155094000Y-131238000D01*
X154786000Y-131238000D01*
X154786000Y-131218000D01*
X153851506Y-131218000D01*
X153791081Y-131399991D01*
X153948794Y-131825688D01*
X154257409Y-132158627D01*
X154365099Y-132211800D01*
X152682827Y-132211800D01*
X151276471Y-130805443D01*
X151294955Y-130523437D01*
X151149017Y-130093517D01*
X150849665Y-129752172D01*
X150490200Y-129574904D01*
X150490200Y-128731666D01*
X150620540Y-128785788D01*
X150620540Y-128785788D01*
G37*
X150620540Y-128785788D02*
X150859951Y-128785997D01*
X152006966Y-129933011D01*
X152006968Y-129933014D01*
X152129016Y-130014563D01*
X152272982Y-130043200D01*
X154188976Y-130043200D01*
X153948794Y-130302312D01*
X153791081Y-130728009D01*
X153851506Y-130910000D01*
X154786000Y-130910000D01*
X154786000Y-130890000D01*
X155094000Y-130890000D01*
X155094000Y-130910000D01*
X156028494Y-130910000D01*
X156088919Y-130728009D01*
X155931206Y-130302312D01*
X155691024Y-130043200D01*
X156079572Y-130043200D01*
X156433784Y-130397411D01*
X156404974Y-130440528D01*
X156316400Y-130885818D01*
X156316400Y-131242182D01*
X156404974Y-131687472D01*
X156657211Y-132064971D01*
X156876956Y-132211800D01*
X155514901Y-132211800D01*
X155622591Y-132158627D01*
X155931206Y-131825688D01*
X156088919Y-131399991D01*
X156028494Y-131218000D01*
X155094000Y-131218000D01*
X155094000Y-131238000D01*
X154786000Y-131238000D01*
X154786000Y-131218000D01*
X153851506Y-131218000D01*
X153791081Y-131399991D01*
X153948794Y-131825688D01*
X154257409Y-132158627D01*
X154365099Y-132211800D01*
X152682827Y-132211800D01*
X151276471Y-130805443D01*
X151294955Y-130523437D01*
X151149017Y-130093517D01*
X150849665Y-129752172D01*
X150490200Y-129574904D01*
X150490200Y-128731666D01*
X150620540Y-128785788D01*
G36*
X163440989Y-120396320D02*
X163538658Y-120632698D01*
X163719351Y-120813706D01*
X163834800Y-120861645D01*
X163834800Y-124127107D01*
X161329989Y-126631918D01*
X161330190Y-126401156D01*
X161163078Y-125996714D01*
X160853913Y-125687009D01*
X160449763Y-125519192D01*
X160012156Y-125518810D01*
X159607714Y-125685922D01*
X159298009Y-125995087D01*
X159130192Y-126399237D01*
X159129810Y-126836844D01*
X159296922Y-127241286D01*
X159606087Y-127550991D01*
X159851202Y-127652771D01*
X159127605Y-128376367D01*
X158544610Y-128376367D01*
X158793260Y-128128151D01*
X159029730Y-127558667D01*
X159030268Y-126942039D01*
X158794792Y-126372143D01*
X158359151Y-125935740D01*
X157789667Y-125699270D01*
X157173039Y-125698732D01*
X156603143Y-125934208D01*
X156167111Y-126369479D01*
X156167111Y-124327763D01*
X156600849Y-124762260D01*
X157170333Y-124998730D01*
X157786961Y-124999268D01*
X157979140Y-124919861D01*
X159606928Y-124919861D01*
X159701602Y-125068278D01*
X160120403Y-125195183D01*
X160555891Y-125152160D01*
X160758398Y-125068278D01*
X160853072Y-124919861D01*
X160230000Y-124296789D01*
X159606928Y-124919861D01*
X157979140Y-124919861D01*
X158356857Y-124763792D01*
X158793260Y-124328151D01*
X158942224Y-123969403D01*
X159113817Y-123969403D01*
X159156840Y-124404891D01*
X159240722Y-124607398D01*
X159389139Y-124702072D01*
X160012211Y-124079000D01*
X160447789Y-124079000D01*
X161070861Y-124702072D01*
X161219278Y-124607398D01*
X161346183Y-124188597D01*
X161303160Y-123753109D01*
X161219278Y-123550602D01*
X161070861Y-123455928D01*
X160447789Y-124079000D01*
X160012211Y-124079000D01*
X159389139Y-123455928D01*
X159240722Y-123550602D01*
X159113817Y-123969403D01*
X158942224Y-123969403D01*
X159029730Y-123758667D01*
X159030184Y-123238139D01*
X159606928Y-123238139D01*
X160230000Y-123861211D01*
X160853072Y-123238139D01*
X160758398Y-123089722D01*
X160339597Y-122962817D01*
X159904109Y-123005840D01*
X159701602Y-123089722D01*
X159606928Y-123238139D01*
X159030184Y-123238139D01*
X159030268Y-123142039D01*
X158794792Y-122572143D01*
X158359151Y-122135740D01*
X157789667Y-121899270D01*
X157173039Y-121898732D01*
X156603143Y-122134208D01*
X156166740Y-122569849D01*
X156076238Y-122787802D01*
X156056925Y-122758897D01*
X156056922Y-122758895D01*
X155587014Y-122288986D01*
X155554952Y-122267563D01*
X155464966Y-122207437D01*
X155441079Y-122202686D01*
X155321000Y-122178799D01*
X155320995Y-122178800D01*
X155082518Y-122178800D01*
X155103706Y-122157649D01*
X155103859Y-122157280D01*
X155164012Y-122145314D01*
X155187899Y-122140563D01*
X155309947Y-122059014D01*
X155834760Y-121534200D01*
X159384995Y-121534200D01*
X159385000Y-121534201D01*
X159505079Y-121510314D01*
X159528966Y-121505563D01*
X159651014Y-121424014D01*
X159651015Y-121424013D01*
X160683827Y-120391200D01*
X163194995Y-120391200D01*
X163195000Y-120391201D01*
X163315079Y-120367314D01*
X163338966Y-120362563D01*
X163441078Y-120294335D01*
X163440989Y-120396320D01*
X163440989Y-120396320D01*
G37*
X163440989Y-120396320D02*
X163538658Y-120632698D01*
X163719351Y-120813706D01*
X163834800Y-120861645D01*
X163834800Y-124127107D01*
X161329989Y-126631918D01*
X161330190Y-126401156D01*
X161163078Y-125996714D01*
X160853913Y-125687009D01*
X160449763Y-125519192D01*
X160012156Y-125518810D01*
X159607714Y-125685922D01*
X159298009Y-125995087D01*
X159130192Y-126399237D01*
X159129810Y-126836844D01*
X159296922Y-127241286D01*
X159606087Y-127550991D01*
X159851202Y-127652771D01*
X159127605Y-128376367D01*
X158544610Y-128376367D01*
X158793260Y-128128151D01*
X159029730Y-127558667D01*
X159030268Y-126942039D01*
X158794792Y-126372143D01*
X158359151Y-125935740D01*
X157789667Y-125699270D01*
X157173039Y-125698732D01*
X156603143Y-125934208D01*
X156167111Y-126369479D01*
X156167111Y-124327763D01*
X156600849Y-124762260D01*
X157170333Y-124998730D01*
X157786961Y-124999268D01*
X157979140Y-124919861D01*
X159606928Y-124919861D01*
X159701602Y-125068278D01*
X160120403Y-125195183D01*
X160555891Y-125152160D01*
X160758398Y-125068278D01*
X160853072Y-124919861D01*
X160230000Y-124296789D01*
X159606928Y-124919861D01*
X157979140Y-124919861D01*
X158356857Y-124763792D01*
X158793260Y-124328151D01*
X158942224Y-123969403D01*
X159113817Y-123969403D01*
X159156840Y-124404891D01*
X159240722Y-124607398D01*
X159389139Y-124702072D01*
X160012211Y-124079000D01*
X160447789Y-124079000D01*
X161070861Y-124702072D01*
X161219278Y-124607398D01*
X161346183Y-124188597D01*
X161303160Y-123753109D01*
X161219278Y-123550602D01*
X161070861Y-123455928D01*
X160447789Y-124079000D01*
X160012211Y-124079000D01*
X159389139Y-123455928D01*
X159240722Y-123550602D01*
X159113817Y-123969403D01*
X158942224Y-123969403D01*
X159029730Y-123758667D01*
X159030184Y-123238139D01*
X159606928Y-123238139D01*
X160230000Y-123861211D01*
X160853072Y-123238139D01*
X160758398Y-123089722D01*
X160339597Y-122962817D01*
X159904109Y-123005840D01*
X159701602Y-123089722D01*
X159606928Y-123238139D01*
X159030184Y-123238139D01*
X159030268Y-123142039D01*
X158794792Y-122572143D01*
X158359151Y-122135740D01*
X157789667Y-121899270D01*
X157173039Y-121898732D01*
X156603143Y-122134208D01*
X156166740Y-122569849D01*
X156076238Y-122787802D01*
X156056925Y-122758897D01*
X156056922Y-122758895D01*
X155587014Y-122288986D01*
X155554952Y-122267563D01*
X155464966Y-122207437D01*
X155441079Y-122202686D01*
X155321000Y-122178799D01*
X155320995Y-122178800D01*
X155082518Y-122178800D01*
X155103706Y-122157649D01*
X155103859Y-122157280D01*
X155164012Y-122145314D01*
X155187899Y-122140563D01*
X155309947Y-122059014D01*
X155834760Y-121534200D01*
X159384995Y-121534200D01*
X159385000Y-121534201D01*
X159505079Y-121510314D01*
X159528966Y-121505563D01*
X159651014Y-121424014D01*
X159651015Y-121424013D01*
X160683827Y-120391200D01*
X163194995Y-120391200D01*
X163195000Y-120391201D01*
X163315079Y-120367314D01*
X163338966Y-120362563D01*
X163441078Y-120294335D01*
X163440989Y-120396320D01*
G36*
X152151397Y-123351572D02*
X152376245Y-123576812D01*
X152670172Y-123698861D01*
X152988432Y-123699139D01*
X153282572Y-123577603D01*
X153293800Y-123566395D01*
X153293800Y-125602995D01*
X153293799Y-125603000D01*
X153313094Y-125699997D01*
X153322437Y-125746966D01*
X153384623Y-125840035D01*
X153403986Y-125869014D01*
X153624123Y-126089151D01*
X153624123Y-127210963D01*
X151617200Y-125204040D01*
X151617200Y-124072877D01*
X151741000Y-124072877D01*
X151852173Y-124051958D01*
X151954279Y-123986255D01*
X152022778Y-123886003D01*
X152046877Y-123767000D01*
X152046877Y-123098614D01*
X152151397Y-123351572D01*
X152151397Y-123351572D01*
G37*
X152151397Y-123351572D02*
X152376245Y-123576812D01*
X152670172Y-123698861D01*
X152988432Y-123699139D01*
X153282572Y-123577603D01*
X153293800Y-123566395D01*
X153293800Y-125602995D01*
X153293799Y-125603000D01*
X153313094Y-125699997D01*
X153322437Y-125746966D01*
X153384623Y-125840035D01*
X153403986Y-125869014D01*
X153624123Y-126089151D01*
X153624123Y-127210963D01*
X151617200Y-125204040D01*
X151617200Y-124072877D01*
X151741000Y-124072877D01*
X151852173Y-124051958D01*
X151954279Y-123986255D01*
X152022778Y-123886003D01*
X152046877Y-123767000D01*
X152046877Y-123098614D01*
X152151397Y-123351572D01*
G36*
X157668122Y-108793657D02*
X157644023Y-108912660D01*
X157644023Y-110936950D01*
X156574776Y-112006197D01*
X156336680Y-112005989D01*
X156100302Y-112103658D01*
X155919294Y-112284351D01*
X155821212Y-112520558D01*
X155820989Y-112776320D01*
X155918658Y-113012698D01*
X156099351Y-113193706D01*
X156335558Y-113291788D01*
X156591320Y-113292011D01*
X156827698Y-113194342D01*
X157008706Y-113013649D01*
X157106788Y-112777442D01*
X157106997Y-112538031D01*
X157190322Y-112454706D01*
X157649900Y-112454706D01*
X157649900Y-113585860D01*
X157724900Y-113660860D01*
X158596000Y-113660860D01*
X158596000Y-112289380D01*
X158904000Y-112289380D01*
X158904000Y-113660860D01*
X159775100Y-113660860D01*
X159850100Y-113585860D01*
X159850100Y-113005000D01*
X163165510Y-113005000D01*
X163165510Y-113835164D01*
X163211182Y-113945427D01*
X163295574Y-114029818D01*
X163405837Y-114075490D01*
X164236000Y-114075490D01*
X164311000Y-114000490D01*
X164311000Y-112930000D01*
X164619000Y-112930000D01*
X164619000Y-114000490D01*
X164694000Y-114075490D01*
X165524163Y-114075490D01*
X165634426Y-114029818D01*
X165718818Y-113945427D01*
X165764490Y-113835164D01*
X165764490Y-113005000D01*
X165689490Y-112930000D01*
X164619000Y-112930000D01*
X164311000Y-112930000D01*
X163240510Y-112930000D01*
X163165510Y-113005000D01*
X159850100Y-113005000D01*
X159850100Y-112454706D01*
X159804428Y-112344443D01*
X159720036Y-112260052D01*
X159609773Y-112214380D01*
X158979000Y-112214380D01*
X158904000Y-112289380D01*
X158596000Y-112289380D01*
X158521000Y-112214380D01*
X157890227Y-112214380D01*
X157779964Y-112260052D01*
X157695572Y-112344443D01*
X157649900Y-112454706D01*
X157190322Y-112454706D01*
X157846475Y-111798553D01*
X157949900Y-111819497D01*
X159550100Y-111819497D01*
X159661273Y-111798578D01*
X159763379Y-111732875D01*
X159831878Y-111632623D01*
X159855977Y-111513620D01*
X159855977Y-110589340D01*
X163230730Y-110589340D01*
X163264428Y-110758752D01*
X163546122Y-111180337D01*
X163967707Y-111462031D01*
X164040498Y-111476510D01*
X163405837Y-111476510D01*
X163295574Y-111522182D01*
X163211182Y-111606573D01*
X163165510Y-111716836D01*
X163165510Y-112547000D01*
X163240510Y-112622000D01*
X164311000Y-112622000D01*
X164311000Y-112602000D01*
X164619000Y-112602000D01*
X164619000Y-112622000D01*
X165689490Y-112622000D01*
X165764490Y-112547000D01*
X165764490Y-111716836D01*
X165718818Y-111606573D01*
X165634426Y-111522182D01*
X165524163Y-111476510D01*
X164889502Y-111476510D01*
X164962293Y-111462031D01*
X165383878Y-111180337D01*
X165665572Y-110758752D01*
X165764490Y-110261459D01*
X165764490Y-110210541D01*
X165665572Y-109713248D01*
X165383878Y-109291663D01*
X164962293Y-109009969D01*
X164465000Y-108911051D01*
X163967707Y-109009969D01*
X163546122Y-109291663D01*
X163264428Y-109713248D01*
X163239824Y-109836940D01*
X159855977Y-109836940D01*
X159855977Y-108912660D01*
X159835058Y-108801487D01*
X159810292Y-108763000D01*
X167470955Y-108763000D01*
X173634201Y-118624196D01*
X169286200Y-126152079D01*
X169286200Y-125857005D01*
X169286201Y-125857000D01*
X169257564Y-125713035D01*
X169225019Y-125664328D01*
X169176014Y-125590986D01*
X169176011Y-125590984D01*
X168874093Y-125289066D01*
X169074038Y-125323140D01*
X169516679Y-125222341D01*
X169841399Y-125005602D01*
X169898256Y-124832280D01*
X168966368Y-124294254D01*
X168956368Y-124311574D01*
X168689632Y-124157574D01*
X168699632Y-124140254D01*
X168682312Y-124130254D01*
X168741626Y-124027518D01*
X169120368Y-124027518D01*
X170052256Y-124565544D01*
X170173929Y-124429643D01*
X170199270Y-124040058D01*
X170065244Y-123606320D01*
X169775436Y-123256888D01*
X169587615Y-123218223D01*
X169120368Y-124027518D01*
X168741626Y-124027518D01*
X168836312Y-123863518D01*
X168853632Y-123873518D01*
X169320879Y-123064223D01*
X169193483Y-122920897D01*
X168745962Y-122844632D01*
X168303321Y-122945431D01*
X167978601Y-123162170D01*
X167940011Y-123279807D01*
X167940011Y-121643210D01*
X168872045Y-121643210D01*
X168901739Y-122096252D01*
X169102544Y-122503445D01*
X169443890Y-122802798D01*
X169752510Y-122980980D01*
X170182429Y-123126918D01*
X170635471Y-123097224D01*
X171042665Y-122896419D01*
X171342017Y-122555074D01*
X171487955Y-122125154D01*
X171458261Y-121672112D01*
X171257456Y-121264919D01*
X170916111Y-120965566D01*
X170607490Y-120787384D01*
X170177571Y-120641446D01*
X169724529Y-120671140D01*
X169317336Y-120871945D01*
X169017983Y-121213291D01*
X168872045Y-121643210D01*
X167940011Y-121643210D01*
X167940011Y-120120017D01*
X168494327Y-119565700D01*
X168507849Y-119565700D01*
X168555158Y-119680198D01*
X168735851Y-119861206D01*
X168972058Y-119959288D01*
X169227820Y-119959511D01*
X169464198Y-119861842D01*
X169645206Y-119681149D01*
X169743288Y-119444942D01*
X169743511Y-119189180D01*
X169645842Y-118952802D01*
X169528222Y-118834977D01*
X169953849Y-118834977D01*
X170245629Y-119126756D01*
X169873421Y-119771439D01*
X169835950Y-119878177D01*
X169841798Y-119999455D01*
X169894369Y-120108902D01*
X169985380Y-120189274D01*
X171745144Y-121205274D01*
X171851882Y-121242745D01*
X171973160Y-121236897D01*
X172082608Y-121184326D01*
X172162979Y-121093315D01*
X173026579Y-119597515D01*
X173064050Y-119490777D01*
X173058202Y-119369499D01*
X173005631Y-119260052D01*
X172914620Y-119179680D01*
X171154856Y-118163680D01*
X171048118Y-118126209D01*
X170926840Y-118132057D01*
X170817392Y-118184628D01*
X170737021Y-118275639D01*
X170635100Y-118452172D01*
X170485877Y-118302949D01*
X170485877Y-117563900D01*
X170464958Y-117452727D01*
X170438686Y-117411899D01*
X170461778Y-117378103D01*
X170485877Y-117259100D01*
X170485877Y-117106401D01*
X170553197Y-117173721D01*
X170552989Y-117411816D01*
X170650658Y-117648194D01*
X170831351Y-117829202D01*
X171067558Y-117927284D01*
X171323320Y-117927507D01*
X171559698Y-117829838D01*
X171740706Y-117649145D01*
X171838788Y-117412938D01*
X171839011Y-117157176D01*
X171741342Y-116920798D01*
X171560649Y-116739790D01*
X171324442Y-116641708D01*
X171085031Y-116641499D01*
X171000700Y-116557168D01*
X171000700Y-114655605D01*
X171000701Y-114655600D01*
X170972064Y-114511635D01*
X170907486Y-114414987D01*
X170890514Y-114389586D01*
X170890511Y-114389584D01*
X170598414Y-114097486D01*
X170565494Y-114075490D01*
X170485877Y-114022292D01*
X170485877Y-113880900D01*
X170464958Y-113769727D01*
X170399255Y-113667621D01*
X170299003Y-113599122D01*
X170180000Y-113575023D01*
X168910000Y-113575023D01*
X168798827Y-113595942D01*
X168696721Y-113661645D01*
X168628222Y-113761897D01*
X168604123Y-113880900D01*
X168604123Y-114846100D01*
X168625042Y-114957273D01*
X168630271Y-114965399D01*
X168628222Y-114968397D01*
X168604123Y-115087400D01*
X168604123Y-115724849D01*
X168174477Y-116154495D01*
X168174477Y-115341400D01*
X168153558Y-115230227D01*
X168087855Y-115128121D01*
X167987603Y-115059622D01*
X167868600Y-115035523D01*
X166141400Y-115035523D01*
X166030227Y-115056442D01*
X165928121Y-115122145D01*
X165859622Y-115222397D01*
X165835523Y-115341400D01*
X165835523Y-115392496D01*
X164858014Y-114414986D01*
X164820001Y-114389587D01*
X164735966Y-114333437D01*
X164712079Y-114328686D01*
X164592000Y-114304799D01*
X164591995Y-114304800D01*
X161036000Y-114304800D01*
X160892034Y-114333437D01*
X160769986Y-114414986D01*
X160769984Y-114414989D01*
X159889605Y-115295367D01*
X159794338Y-115295367D01*
X159804428Y-115285277D01*
X159850100Y-115175014D01*
X159850100Y-114043860D01*
X159775100Y-113968860D01*
X158904000Y-113968860D01*
X158904000Y-113988860D01*
X158596000Y-113988860D01*
X158596000Y-113968860D01*
X157724900Y-113968860D01*
X157649900Y-114043860D01*
X157649900Y-115175014D01*
X157673134Y-115231107D01*
X155697200Y-113255172D01*
X155697200Y-111752539D01*
X155732173Y-111745958D01*
X155834279Y-111680255D01*
X155902778Y-111580003D01*
X155926877Y-111461000D01*
X155926877Y-109961000D01*
X155905958Y-109849827D01*
X155840255Y-109747721D01*
X155740003Y-109679222D01*
X155621000Y-109655123D01*
X155021000Y-109655123D01*
X154909827Y-109676042D01*
X154807721Y-109741745D01*
X154739222Y-109841997D01*
X154715123Y-109961000D01*
X154715123Y-111461000D01*
X154736042Y-111572173D01*
X154801745Y-111674279D01*
X154901997Y-111742778D01*
X154944800Y-111751446D01*
X154944800Y-112933839D01*
X154427200Y-112416239D01*
X154427200Y-111752539D01*
X154462173Y-111745958D01*
X154564279Y-111680255D01*
X154632778Y-111580003D01*
X154656877Y-111461000D01*
X154656877Y-109961000D01*
X154635958Y-109849827D01*
X154570255Y-109747721D01*
X154470003Y-109679222D01*
X154351000Y-109655123D01*
X153751000Y-109655123D01*
X153639827Y-109676042D01*
X153537721Y-109741745D01*
X153469222Y-109841997D01*
X153445123Y-109961000D01*
X153445123Y-111461000D01*
X153466042Y-111572173D01*
X153531745Y-111674279D01*
X153631997Y-111742778D01*
X153674800Y-111751446D01*
X153674800Y-112572062D01*
X153674799Y-112572067D01*
X153684732Y-112622000D01*
X153703437Y-112716033D01*
X153722680Y-112744832D01*
X153784986Y-112838081D01*
X154223044Y-113276139D01*
X154050680Y-113275989D01*
X153814302Y-113373658D01*
X153633294Y-113554351D01*
X153535212Y-113790558D01*
X153535003Y-114029969D01*
X153310982Y-114253990D01*
X151537856Y-114253990D01*
X153047011Y-112744834D01*
X153047014Y-112744832D01*
X153128563Y-112622784D01*
X153157200Y-112478818D01*
X153157200Y-111752539D01*
X153192173Y-111745958D01*
X153294279Y-111680255D01*
X153362778Y-111580003D01*
X153386877Y-111461000D01*
X153386877Y-109961000D01*
X153365958Y-109849827D01*
X153300255Y-109747721D01*
X153283109Y-109736006D01*
X153289326Y-109736011D01*
X153525704Y-109638342D01*
X153706712Y-109457649D01*
X153804794Y-109221442D01*
X153805017Y-108965680D01*
X153721272Y-108763000D01*
X157689069Y-108763000D01*
X157668122Y-108793657D01*
X157668122Y-108793657D01*
G37*
X157668122Y-108793657D02*
X157644023Y-108912660D01*
X157644023Y-110936950D01*
X156574776Y-112006197D01*
X156336680Y-112005989D01*
X156100302Y-112103658D01*
X155919294Y-112284351D01*
X155821212Y-112520558D01*
X155820989Y-112776320D01*
X155918658Y-113012698D01*
X156099351Y-113193706D01*
X156335558Y-113291788D01*
X156591320Y-113292011D01*
X156827698Y-113194342D01*
X157008706Y-113013649D01*
X157106788Y-112777442D01*
X157106997Y-112538031D01*
X157190322Y-112454706D01*
X157649900Y-112454706D01*
X157649900Y-113585860D01*
X157724900Y-113660860D01*
X158596000Y-113660860D01*
X158596000Y-112289380D01*
X158904000Y-112289380D01*
X158904000Y-113660860D01*
X159775100Y-113660860D01*
X159850100Y-113585860D01*
X159850100Y-113005000D01*
X163165510Y-113005000D01*
X163165510Y-113835164D01*
X163211182Y-113945427D01*
X163295574Y-114029818D01*
X163405837Y-114075490D01*
X164236000Y-114075490D01*
X164311000Y-114000490D01*
X164311000Y-112930000D01*
X164619000Y-112930000D01*
X164619000Y-114000490D01*
X164694000Y-114075490D01*
X165524163Y-114075490D01*
X165634426Y-114029818D01*
X165718818Y-113945427D01*
X165764490Y-113835164D01*
X165764490Y-113005000D01*
X165689490Y-112930000D01*
X164619000Y-112930000D01*
X164311000Y-112930000D01*
X163240510Y-112930000D01*
X163165510Y-113005000D01*
X159850100Y-113005000D01*
X159850100Y-112454706D01*
X159804428Y-112344443D01*
X159720036Y-112260052D01*
X159609773Y-112214380D01*
X158979000Y-112214380D01*
X158904000Y-112289380D01*
X158596000Y-112289380D01*
X158521000Y-112214380D01*
X157890227Y-112214380D01*
X157779964Y-112260052D01*
X157695572Y-112344443D01*
X157649900Y-112454706D01*
X157190322Y-112454706D01*
X157846475Y-111798553D01*
X157949900Y-111819497D01*
X159550100Y-111819497D01*
X159661273Y-111798578D01*
X159763379Y-111732875D01*
X159831878Y-111632623D01*
X159855977Y-111513620D01*
X159855977Y-110589340D01*
X163230730Y-110589340D01*
X163264428Y-110758752D01*
X163546122Y-111180337D01*
X163967707Y-111462031D01*
X164040498Y-111476510D01*
X163405837Y-111476510D01*
X163295574Y-111522182D01*
X163211182Y-111606573D01*
X163165510Y-111716836D01*
X163165510Y-112547000D01*
X163240510Y-112622000D01*
X164311000Y-112622000D01*
X164311000Y-112602000D01*
X164619000Y-112602000D01*
X164619000Y-112622000D01*
X165689490Y-112622000D01*
X165764490Y-112547000D01*
X165764490Y-111716836D01*
X165718818Y-111606573D01*
X165634426Y-111522182D01*
X165524163Y-111476510D01*
X164889502Y-111476510D01*
X164962293Y-111462031D01*
X165383878Y-111180337D01*
X165665572Y-110758752D01*
X165764490Y-110261459D01*
X165764490Y-110210541D01*
X165665572Y-109713248D01*
X165383878Y-109291663D01*
X164962293Y-109009969D01*
X164465000Y-108911051D01*
X163967707Y-109009969D01*
X163546122Y-109291663D01*
X163264428Y-109713248D01*
X163239824Y-109836940D01*
X159855977Y-109836940D01*
X159855977Y-108912660D01*
X159835058Y-108801487D01*
X159810292Y-108763000D01*
X167470955Y-108763000D01*
X173634201Y-118624196D01*
X169286200Y-126152079D01*
X169286200Y-125857005D01*
X169286201Y-125857000D01*
X169257564Y-125713035D01*
X169225019Y-125664328D01*
X169176014Y-125590986D01*
X169176011Y-125590984D01*
X168874093Y-125289066D01*
X169074038Y-125323140D01*
X169516679Y-125222341D01*
X169841399Y-125005602D01*
X169898256Y-124832280D01*
X168966368Y-124294254D01*
X168956368Y-124311574D01*
X168689632Y-124157574D01*
X168699632Y-124140254D01*
X168682312Y-124130254D01*
X168741626Y-124027518D01*
X169120368Y-124027518D01*
X170052256Y-124565544D01*
X170173929Y-124429643D01*
X170199270Y-124040058D01*
X170065244Y-123606320D01*
X169775436Y-123256888D01*
X169587615Y-123218223D01*
X169120368Y-124027518D01*
X168741626Y-124027518D01*
X168836312Y-123863518D01*
X168853632Y-123873518D01*
X169320879Y-123064223D01*
X169193483Y-122920897D01*
X168745962Y-122844632D01*
X168303321Y-122945431D01*
X167978601Y-123162170D01*
X167940011Y-123279807D01*
X167940011Y-121643210D01*
X168872045Y-121643210D01*
X168901739Y-122096252D01*
X169102544Y-122503445D01*
X169443890Y-122802798D01*
X169752510Y-122980980D01*
X170182429Y-123126918D01*
X170635471Y-123097224D01*
X171042665Y-122896419D01*
X171342017Y-122555074D01*
X171487955Y-122125154D01*
X171458261Y-121672112D01*
X171257456Y-121264919D01*
X170916111Y-120965566D01*
X170607490Y-120787384D01*
X170177571Y-120641446D01*
X169724529Y-120671140D01*
X169317336Y-120871945D01*
X169017983Y-121213291D01*
X168872045Y-121643210D01*
X167940011Y-121643210D01*
X167940011Y-120120017D01*
X168494327Y-119565700D01*
X168507849Y-119565700D01*
X168555158Y-119680198D01*
X168735851Y-119861206D01*
X168972058Y-119959288D01*
X169227820Y-119959511D01*
X169464198Y-119861842D01*
X169645206Y-119681149D01*
X169743288Y-119444942D01*
X169743511Y-119189180D01*
X169645842Y-118952802D01*
X169528222Y-118834977D01*
X169953849Y-118834977D01*
X170245629Y-119126756D01*
X169873421Y-119771439D01*
X169835950Y-119878177D01*
X169841798Y-119999455D01*
X169894369Y-120108902D01*
X169985380Y-120189274D01*
X171745144Y-121205274D01*
X171851882Y-121242745D01*
X171973160Y-121236897D01*
X172082608Y-121184326D01*
X172162979Y-121093315D01*
X173026579Y-119597515D01*
X173064050Y-119490777D01*
X173058202Y-119369499D01*
X173005631Y-119260052D01*
X172914620Y-119179680D01*
X171154856Y-118163680D01*
X171048118Y-118126209D01*
X170926840Y-118132057D01*
X170817392Y-118184628D01*
X170737021Y-118275639D01*
X170635100Y-118452172D01*
X170485877Y-118302949D01*
X170485877Y-117563900D01*
X170464958Y-117452727D01*
X170438686Y-117411899D01*
X170461778Y-117378103D01*
X170485877Y-117259100D01*
X170485877Y-117106401D01*
X170553197Y-117173721D01*
X170552989Y-117411816D01*
X170650658Y-117648194D01*
X170831351Y-117829202D01*
X171067558Y-117927284D01*
X171323320Y-117927507D01*
X171559698Y-117829838D01*
X171740706Y-117649145D01*
X171838788Y-117412938D01*
X171839011Y-117157176D01*
X171741342Y-116920798D01*
X171560649Y-116739790D01*
X171324442Y-116641708D01*
X171085031Y-116641499D01*
X171000700Y-116557168D01*
X171000700Y-114655605D01*
X171000701Y-114655600D01*
X170972064Y-114511635D01*
X170907486Y-114414987D01*
X170890514Y-114389586D01*
X170890511Y-114389584D01*
X170598414Y-114097486D01*
X170565494Y-114075490D01*
X170485877Y-114022292D01*
X170485877Y-113880900D01*
X170464958Y-113769727D01*
X170399255Y-113667621D01*
X170299003Y-113599122D01*
X170180000Y-113575023D01*
X168910000Y-113575023D01*
X168798827Y-113595942D01*
X168696721Y-113661645D01*
X168628222Y-113761897D01*
X168604123Y-113880900D01*
X168604123Y-114846100D01*
X168625042Y-114957273D01*
X168630271Y-114965399D01*
X168628222Y-114968397D01*
X168604123Y-115087400D01*
X168604123Y-115724849D01*
X168174477Y-116154495D01*
X168174477Y-115341400D01*
X168153558Y-115230227D01*
X168087855Y-115128121D01*
X167987603Y-115059622D01*
X167868600Y-115035523D01*
X166141400Y-115035523D01*
X166030227Y-115056442D01*
X165928121Y-115122145D01*
X165859622Y-115222397D01*
X165835523Y-115341400D01*
X165835523Y-115392496D01*
X164858014Y-114414986D01*
X164820001Y-114389587D01*
X164735966Y-114333437D01*
X164712079Y-114328686D01*
X164592000Y-114304799D01*
X164591995Y-114304800D01*
X161036000Y-114304800D01*
X160892034Y-114333437D01*
X160769986Y-114414986D01*
X160769984Y-114414989D01*
X159889605Y-115295367D01*
X159794338Y-115295367D01*
X159804428Y-115285277D01*
X159850100Y-115175014D01*
X159850100Y-114043860D01*
X159775100Y-113968860D01*
X158904000Y-113968860D01*
X158904000Y-113988860D01*
X158596000Y-113988860D01*
X158596000Y-113968860D01*
X157724900Y-113968860D01*
X157649900Y-114043860D01*
X157649900Y-115175014D01*
X157673134Y-115231107D01*
X155697200Y-113255172D01*
X155697200Y-111752539D01*
X155732173Y-111745958D01*
X155834279Y-111680255D01*
X155902778Y-111580003D01*
X155926877Y-111461000D01*
X155926877Y-109961000D01*
X155905958Y-109849827D01*
X155840255Y-109747721D01*
X155740003Y-109679222D01*
X155621000Y-109655123D01*
X155021000Y-109655123D01*
X154909827Y-109676042D01*
X154807721Y-109741745D01*
X154739222Y-109841997D01*
X154715123Y-109961000D01*
X154715123Y-111461000D01*
X154736042Y-111572173D01*
X154801745Y-111674279D01*
X154901997Y-111742778D01*
X154944800Y-111751446D01*
X154944800Y-112933839D01*
X154427200Y-112416239D01*
X154427200Y-111752539D01*
X154462173Y-111745958D01*
X154564279Y-111680255D01*
X154632778Y-111580003D01*
X154656877Y-111461000D01*
X154656877Y-109961000D01*
X154635958Y-109849827D01*
X154570255Y-109747721D01*
X154470003Y-109679222D01*
X154351000Y-109655123D01*
X153751000Y-109655123D01*
X153639827Y-109676042D01*
X153537721Y-109741745D01*
X153469222Y-109841997D01*
X153445123Y-109961000D01*
X153445123Y-111461000D01*
X153466042Y-111572173D01*
X153531745Y-111674279D01*
X153631997Y-111742778D01*
X153674800Y-111751446D01*
X153674800Y-112572062D01*
X153674799Y-112572067D01*
X153684732Y-112622000D01*
X153703437Y-112716033D01*
X153722680Y-112744832D01*
X153784986Y-112838081D01*
X154223044Y-113276139D01*
X154050680Y-113275989D01*
X153814302Y-113373658D01*
X153633294Y-113554351D01*
X153535212Y-113790558D01*
X153535003Y-114029969D01*
X153310982Y-114253990D01*
X151537856Y-114253990D01*
X153047011Y-112744834D01*
X153047014Y-112744832D01*
X153128563Y-112622784D01*
X153157200Y-112478818D01*
X153157200Y-111752539D01*
X153192173Y-111745958D01*
X153294279Y-111680255D01*
X153362778Y-111580003D01*
X153386877Y-111461000D01*
X153386877Y-109961000D01*
X153365958Y-109849827D01*
X153300255Y-109747721D01*
X153283109Y-109736006D01*
X153289326Y-109736011D01*
X153525704Y-109638342D01*
X153706712Y-109457649D01*
X153804794Y-109221442D01*
X153805017Y-108965680D01*
X153721272Y-108763000D01*
X157689069Y-108763000D01*
X157668122Y-108793657D01*
G36*
X152870658Y-119235698D02*
X153051351Y-119416706D01*
X153287558Y-119514788D01*
X153293800Y-119514793D01*
X153293800Y-120494173D01*
X152371172Y-121416800D01*
X152046877Y-121416800D01*
X152046877Y-121343000D01*
X152025958Y-121231827D01*
X151960255Y-121129721D01*
X151860003Y-121061222D01*
X151741000Y-121037123D01*
X150741000Y-121037123D01*
X150629827Y-121058042D01*
X150527721Y-121123745D01*
X150459222Y-121223997D01*
X150435123Y-121343000D01*
X150435123Y-122243000D01*
X150456042Y-122354173D01*
X150521745Y-122456279D01*
X150621997Y-122524778D01*
X150741000Y-122548877D01*
X151741000Y-122548877D01*
X151852173Y-122527958D01*
X151954279Y-122462255D01*
X152022778Y-122362003D01*
X152046877Y-122243000D01*
X152046877Y-122169200D01*
X152501334Y-122169200D01*
X152377428Y-122220397D01*
X152152188Y-122445245D01*
X152030139Y-122739172D01*
X152030105Y-122777867D01*
X152025958Y-122755827D01*
X151960255Y-122653721D01*
X151860003Y-122585222D01*
X151741000Y-122561123D01*
X150741000Y-122561123D01*
X150629827Y-122582042D01*
X150527721Y-122647745D01*
X150459222Y-122747997D01*
X150435123Y-122867000D01*
X150435123Y-123767000D01*
X150456042Y-123878173D01*
X150521745Y-123980279D01*
X150621997Y-124048778D01*
X150741000Y-124072877D01*
X150864800Y-124072877D01*
X150864800Y-125359863D01*
X150864799Y-125359868D01*
X150871050Y-125391293D01*
X150750442Y-125341212D01*
X150494680Y-125340989D01*
X150258302Y-125438658D01*
X150088865Y-125607800D01*
X149126827Y-125607800D01*
X147950200Y-124431172D01*
X147950200Y-123190005D01*
X147950201Y-123190000D01*
X147921564Y-123046035D01*
X147878096Y-122980980D01*
X147840014Y-122923986D01*
X147840011Y-122923984D01*
X147581803Y-122665776D01*
X147582011Y-122427680D01*
X147527685Y-122296200D01*
X148445133Y-122296200D01*
X148456042Y-122354173D01*
X148521745Y-122456279D01*
X148621997Y-122524778D01*
X148741000Y-122548877D01*
X148864800Y-122548877D01*
X148864800Y-122561123D01*
X148741000Y-122561123D01*
X148629827Y-122582042D01*
X148527721Y-122647745D01*
X148459222Y-122747997D01*
X148435123Y-122867000D01*
X148435123Y-123767000D01*
X148456042Y-123878173D01*
X148521745Y-123980279D01*
X148621997Y-124048778D01*
X148741000Y-124072877D01*
X149741000Y-124072877D01*
X149852173Y-124051958D01*
X149954279Y-123986255D01*
X150022778Y-123886003D01*
X150046877Y-123767000D01*
X150046877Y-122867000D01*
X150025958Y-122755827D01*
X149960255Y-122653721D01*
X149860003Y-122585222D01*
X149741000Y-122561123D01*
X149617200Y-122561123D01*
X149617200Y-122548877D01*
X149741000Y-122548877D01*
X149852173Y-122527958D01*
X149954279Y-122462255D01*
X150022778Y-122362003D01*
X150046877Y-122243000D01*
X150046877Y-121569150D01*
X150396011Y-121220016D01*
X150396014Y-121220014D01*
X150477563Y-121097966D01*
X150506200Y-120954000D01*
X150506200Y-120770877D01*
X150630000Y-120770877D01*
X150741173Y-120749958D01*
X150843279Y-120684255D01*
X150911778Y-120584003D01*
X150935877Y-120465000D01*
X150935877Y-120005305D01*
X151211584Y-120281011D01*
X151211586Y-120281014D01*
X151293136Y-120335503D01*
X151324123Y-120356208D01*
X151324123Y-120465000D01*
X151345042Y-120576173D01*
X151410745Y-120678279D01*
X151510997Y-120746778D01*
X151630000Y-120770877D01*
X152630000Y-120770877D01*
X152741173Y-120749958D01*
X152843279Y-120684255D01*
X152911778Y-120584003D01*
X152935877Y-120465000D01*
X152935877Y-119565000D01*
X152914958Y-119453827D01*
X152849255Y-119351721D01*
X152749003Y-119283222D01*
X152630000Y-119259123D01*
X151630000Y-119259123D01*
X151518827Y-119280042D01*
X151506200Y-119288167D01*
X151506200Y-119219500D01*
X151510997Y-119222778D01*
X151630000Y-119246877D01*
X152630000Y-119246877D01*
X152741173Y-119225958D01*
X152840282Y-119162183D01*
X152870658Y-119235698D01*
X152870658Y-119235698D01*
G37*
X152870658Y-119235698D02*
X153051351Y-119416706D01*
X153287558Y-119514788D01*
X153293800Y-119514793D01*
X153293800Y-120494173D01*
X152371172Y-121416800D01*
X152046877Y-121416800D01*
X152046877Y-121343000D01*
X152025958Y-121231827D01*
X151960255Y-121129721D01*
X151860003Y-121061222D01*
X151741000Y-121037123D01*
X150741000Y-121037123D01*
X150629827Y-121058042D01*
X150527721Y-121123745D01*
X150459222Y-121223997D01*
X150435123Y-121343000D01*
X150435123Y-122243000D01*
X150456042Y-122354173D01*
X150521745Y-122456279D01*
X150621997Y-122524778D01*
X150741000Y-122548877D01*
X151741000Y-122548877D01*
X151852173Y-122527958D01*
X151954279Y-122462255D01*
X152022778Y-122362003D01*
X152046877Y-122243000D01*
X152046877Y-122169200D01*
X152501334Y-122169200D01*
X152377428Y-122220397D01*
X152152188Y-122445245D01*
X152030139Y-122739172D01*
X152030105Y-122777867D01*
X152025958Y-122755827D01*
X151960255Y-122653721D01*
X151860003Y-122585222D01*
X151741000Y-122561123D01*
X150741000Y-122561123D01*
X150629827Y-122582042D01*
X150527721Y-122647745D01*
X150459222Y-122747997D01*
X150435123Y-122867000D01*
X150435123Y-123767000D01*
X150456042Y-123878173D01*
X150521745Y-123980279D01*
X150621997Y-124048778D01*
X150741000Y-124072877D01*
X150864800Y-124072877D01*
X150864800Y-125359863D01*
X150864799Y-125359868D01*
X150871050Y-125391293D01*
X150750442Y-125341212D01*
X150494680Y-125340989D01*
X150258302Y-125438658D01*
X150088865Y-125607800D01*
X149126827Y-125607800D01*
X147950200Y-124431172D01*
X147950200Y-123190005D01*
X147950201Y-123190000D01*
X147921564Y-123046035D01*
X147878096Y-122980980D01*
X147840014Y-122923986D01*
X147840011Y-122923984D01*
X147581803Y-122665776D01*
X147582011Y-122427680D01*
X147527685Y-122296200D01*
X148445133Y-122296200D01*
X148456042Y-122354173D01*
X148521745Y-122456279D01*
X148621997Y-122524778D01*
X148741000Y-122548877D01*
X148864800Y-122548877D01*
X148864800Y-122561123D01*
X148741000Y-122561123D01*
X148629827Y-122582042D01*
X148527721Y-122647745D01*
X148459222Y-122747997D01*
X148435123Y-122867000D01*
X148435123Y-123767000D01*
X148456042Y-123878173D01*
X148521745Y-123980279D01*
X148621997Y-124048778D01*
X148741000Y-124072877D01*
X149741000Y-124072877D01*
X149852173Y-124051958D01*
X149954279Y-123986255D01*
X150022778Y-123886003D01*
X150046877Y-123767000D01*
X150046877Y-122867000D01*
X150025958Y-122755827D01*
X149960255Y-122653721D01*
X149860003Y-122585222D01*
X149741000Y-122561123D01*
X149617200Y-122561123D01*
X149617200Y-122548877D01*
X149741000Y-122548877D01*
X149852173Y-122527958D01*
X149954279Y-122462255D01*
X150022778Y-122362003D01*
X150046877Y-122243000D01*
X150046877Y-121569150D01*
X150396011Y-121220016D01*
X150396014Y-121220014D01*
X150477563Y-121097966D01*
X150506200Y-120954000D01*
X150506200Y-120770877D01*
X150630000Y-120770877D01*
X150741173Y-120749958D01*
X150843279Y-120684255D01*
X150911778Y-120584003D01*
X150935877Y-120465000D01*
X150935877Y-120005305D01*
X151211584Y-120281011D01*
X151211586Y-120281014D01*
X151293136Y-120335503D01*
X151324123Y-120356208D01*
X151324123Y-120465000D01*
X151345042Y-120576173D01*
X151410745Y-120678279D01*
X151510997Y-120746778D01*
X151630000Y-120770877D01*
X152630000Y-120770877D01*
X152741173Y-120749958D01*
X152843279Y-120684255D01*
X152911778Y-120584003D01*
X152935877Y-120465000D01*
X152935877Y-119565000D01*
X152914958Y-119453827D01*
X152849255Y-119351721D01*
X152749003Y-119283222D01*
X152630000Y-119259123D01*
X151630000Y-119259123D01*
X151518827Y-119280042D01*
X151506200Y-119288167D01*
X151506200Y-119219500D01*
X151510997Y-119222778D01*
X151630000Y-119246877D01*
X152630000Y-119246877D01*
X152741173Y-119225958D01*
X152840282Y-119162183D01*
X152870658Y-119235698D01*
G36*
X154961931Y-124064858D02*
X154947789Y-124079000D01*
X154961931Y-124093142D01*
X154744142Y-124310931D01*
X154730000Y-124296789D01*
X154715858Y-124310931D01*
X154498069Y-124093142D01*
X154512211Y-124079000D01*
X154498069Y-124064858D01*
X154715858Y-123847069D01*
X154730000Y-123861211D01*
X154744142Y-123847069D01*
X154961931Y-124064858D01*
X154961931Y-124064858D01*
G37*
X154961931Y-124064858D02*
X154947789Y-124079000D01*
X154961931Y-124093142D01*
X154744142Y-124310931D01*
X154730000Y-124296789D01*
X154715858Y-124310931D01*
X154498069Y-124093142D01*
X154512211Y-124079000D01*
X154498069Y-124064858D01*
X154715858Y-123847069D01*
X154730000Y-123861211D01*
X154744142Y-123847069D01*
X154961931Y-124064858D01*
G36*
X154960000Y-119151000D02*
X155035000Y-119226000D01*
X156056000Y-119226000D01*
X156056000Y-119206000D01*
X156364000Y-119206000D01*
X156364000Y-119226000D01*
X157385000Y-119226000D01*
X157460000Y-119151000D01*
X157460000Y-118486200D01*
X157578172Y-118486200D01*
X157726981Y-118635009D01*
X157690919Y-118671007D01*
X157500217Y-119130269D01*
X157499783Y-119627550D01*
X157689684Y-120087143D01*
X158041007Y-120439081D01*
X158132300Y-120476989D01*
X157444544Y-120476989D01*
X157460000Y-120439674D01*
X157460000Y-119609000D01*
X157385000Y-119534000D01*
X156364000Y-119534000D01*
X156364000Y-119554000D01*
X156056000Y-119554000D01*
X156056000Y-119534000D01*
X155035000Y-119534000D01*
X154960000Y-119609000D01*
X154960000Y-120439674D01*
X154975456Y-120476989D01*
X154482811Y-120476989D01*
X154338845Y-120505626D01*
X154216797Y-120587175D01*
X154216795Y-120587178D01*
X154046200Y-120757773D01*
X154046200Y-120650005D01*
X154046201Y-120650000D01*
X154046200Y-120649995D01*
X154046200Y-119126000D01*
X154033391Y-119061605D01*
X154058788Y-119000442D01*
X154059011Y-118744680D01*
X153961342Y-118508302D01*
X153939278Y-118486200D01*
X154960000Y-118486200D01*
X154960000Y-119151000D01*
X154960000Y-119151000D01*
G37*
X154960000Y-119151000D02*
X155035000Y-119226000D01*
X156056000Y-119226000D01*
X156056000Y-119206000D01*
X156364000Y-119206000D01*
X156364000Y-119226000D01*
X157385000Y-119226000D01*
X157460000Y-119151000D01*
X157460000Y-118486200D01*
X157578172Y-118486200D01*
X157726981Y-118635009D01*
X157690919Y-118671007D01*
X157500217Y-119130269D01*
X157499783Y-119627550D01*
X157689684Y-120087143D01*
X158041007Y-120439081D01*
X158132300Y-120476989D01*
X157444544Y-120476989D01*
X157460000Y-120439674D01*
X157460000Y-119609000D01*
X157385000Y-119534000D01*
X156364000Y-119534000D01*
X156364000Y-119554000D01*
X156056000Y-119554000D01*
X156056000Y-119534000D01*
X155035000Y-119534000D01*
X154960000Y-119609000D01*
X154960000Y-120439674D01*
X154975456Y-120476989D01*
X154482811Y-120476989D01*
X154338845Y-120505626D01*
X154216797Y-120587175D01*
X154216795Y-120587178D01*
X154046200Y-120757773D01*
X154046200Y-120650005D01*
X154046201Y-120650000D01*
X154046200Y-120649995D01*
X154046200Y-119126000D01*
X154033391Y-119061605D01*
X154058788Y-119000442D01*
X154059011Y-118744680D01*
X153961342Y-118508302D01*
X153939278Y-118486200D01*
X154960000Y-118486200D01*
X154960000Y-119151000D01*
G36*
X156832984Y-116852011D02*
X156832986Y-116852014D01*
X156955034Y-116933563D01*
X157099000Y-116962200D01*
X160533714Y-116962200D01*
X161185526Y-117614011D01*
X161185528Y-117614014D01*
X161224002Y-117639721D01*
X161307577Y-117695564D01*
X161392967Y-117712550D01*
X161371650Y-117721378D01*
X161022048Y-118011055D01*
X160809912Y-118412468D01*
X160846621Y-118591000D01*
X161771000Y-118591000D01*
X161771000Y-118571000D01*
X162079000Y-118571000D01*
X162079000Y-118591000D01*
X163003379Y-118591000D01*
X163040088Y-118412468D01*
X162827952Y-118011055D01*
X162481756Y-117724200D01*
X163547172Y-117724200D01*
X163690273Y-117867301D01*
X163642211Y-117899415D01*
X163389974Y-118276914D01*
X163301400Y-118722204D01*
X163301400Y-118767796D01*
X163389974Y-119213086D01*
X163419980Y-119257993D01*
X163039172Y-119638800D01*
X162635028Y-119638800D01*
X162827952Y-119478945D01*
X163040088Y-119077532D01*
X163003379Y-118899000D01*
X162079000Y-118899000D01*
X162079000Y-118919000D01*
X161771000Y-118919000D01*
X161771000Y-118899000D01*
X160846621Y-118899000D01*
X160809912Y-119077532D01*
X161022048Y-119478945D01*
X161214972Y-119638800D01*
X160528005Y-119638800D01*
X160528000Y-119638799D01*
X160523200Y-119639754D01*
X160523200Y-118745005D01*
X160523201Y-118745000D01*
X160494563Y-118601035D01*
X160494563Y-118601034D01*
X160413014Y-118478986D01*
X159473204Y-117539176D01*
X159402548Y-117491966D01*
X159351156Y-117457627D01*
X159326522Y-117452727D01*
X159207190Y-117428989D01*
X159207185Y-117428990D01*
X155451017Y-117428990D01*
X155188904Y-117166877D01*
X155621000Y-117166877D01*
X155732173Y-117145958D01*
X155834279Y-117080255D01*
X155902778Y-116980003D01*
X155926877Y-116861000D01*
X155926877Y-116487200D01*
X156468172Y-116487200D01*
X156832984Y-116852011D01*
X156832984Y-116852011D01*
G37*
X156832984Y-116852011D02*
X156832986Y-116852014D01*
X156955034Y-116933563D01*
X157099000Y-116962200D01*
X160533714Y-116962200D01*
X161185526Y-117614011D01*
X161185528Y-117614014D01*
X161224002Y-117639721D01*
X161307577Y-117695564D01*
X161392967Y-117712550D01*
X161371650Y-117721378D01*
X161022048Y-118011055D01*
X160809912Y-118412468D01*
X160846621Y-118591000D01*
X161771000Y-118591000D01*
X161771000Y-118571000D01*
X162079000Y-118571000D01*
X162079000Y-118591000D01*
X163003379Y-118591000D01*
X163040088Y-118412468D01*
X162827952Y-118011055D01*
X162481756Y-117724200D01*
X163547172Y-117724200D01*
X163690273Y-117867301D01*
X163642211Y-117899415D01*
X163389974Y-118276914D01*
X163301400Y-118722204D01*
X163301400Y-118767796D01*
X163389974Y-119213086D01*
X163419980Y-119257993D01*
X163039172Y-119638800D01*
X162635028Y-119638800D01*
X162827952Y-119478945D01*
X163040088Y-119077532D01*
X163003379Y-118899000D01*
X162079000Y-118899000D01*
X162079000Y-118919000D01*
X161771000Y-118919000D01*
X161771000Y-118899000D01*
X160846621Y-118899000D01*
X160809912Y-119077532D01*
X161022048Y-119478945D01*
X161214972Y-119638800D01*
X160528005Y-119638800D01*
X160528000Y-119638799D01*
X160523200Y-119639754D01*
X160523200Y-118745005D01*
X160523201Y-118745000D01*
X160494563Y-118601035D01*
X160494563Y-118601034D01*
X160413014Y-118478986D01*
X159473204Y-117539176D01*
X159402548Y-117491966D01*
X159351156Y-117457627D01*
X159326522Y-117452727D01*
X159207190Y-117428989D01*
X159207185Y-117428990D01*
X155451017Y-117428990D01*
X155188904Y-117166877D01*
X155621000Y-117166877D01*
X155732173Y-117145958D01*
X155834279Y-117080255D01*
X155902778Y-116980003D01*
X155926877Y-116861000D01*
X155926877Y-116487200D01*
X156468172Y-116487200D01*
X156832984Y-116852011D01*
M02*
