G04 #@! TF.FileFunction,Copper,L2,Bot,Signal*
%FSLAX46Y46*%
G04 Gerber Fmt 4.6, Leading zero omitted, Abs format (unit mm)*
G04 Created by KiCad (PCBNEW 4.0.2-stable) date Thursday, September 29, 2016 'amt' 01:44:10 am*
%MOMM*%
G01*
G04 APERTURE LIST*
%ADD10C,0.100000*%
%ADD11C,1.727200*%
%ADD12O,1.998980X1.998980*%
%ADD13R,1.998980X1.998980*%
%ADD14R,1.600000X1.600000*%
%ADD15C,1.600000*%
%ADD16R,1.727200X1.727200*%
%ADD17O,1.727200X1.727200*%
%ADD18C,1.397000*%
%ADD19R,1.900000X2.000000*%
%ADD20C,1.900000*%
%ADD21R,1.727200X2.032000*%
%ADD22O,1.727200X2.032000*%
%ADD23C,0.685800*%
%ADD24C,0.152400*%
%ADD25C,0.200000*%
G04 APERTURE END LIST*
D10*
G36*
X170138318Y-119924377D02*
X171001918Y-118428577D01*
X172761682Y-119444577D01*
X171898082Y-120940377D01*
X170138318Y-119924377D01*
X170138318Y-119924377D01*
G37*
D11*
X170048018Y-121807982D02*
X170311982Y-121960382D01*
X168778018Y-124007686D02*
X169041982Y-124160086D01*
X167508018Y-126207391D02*
X167771982Y-126359791D01*
X166238018Y-128407095D02*
X166501982Y-128559495D01*
X164968018Y-130606800D02*
X165231982Y-130759200D01*
D12*
X164465000Y-110236000D03*
D13*
X164465000Y-112776000D03*
D14*
X154730000Y-126619000D03*
D15*
X154730000Y-124079000D03*
X160230000Y-124079000D03*
X160230000Y-126619000D03*
D16*
X167005000Y-116205000D03*
D17*
X167005000Y-118745000D03*
X164465000Y-116205000D03*
X164465000Y-118745000D03*
X161925000Y-116205000D03*
X161925000Y-118745000D03*
D18*
X149479000Y-110236000D03*
X152019000Y-110236000D03*
D10*
G36*
X143188918Y-121021786D02*
X142325318Y-119525986D01*
X144085082Y-118509986D01*
X144948682Y-120005786D01*
X143188918Y-121021786D01*
X143188918Y-121021786D01*
G37*
D11*
X144775018Y-122041791D02*
X145038982Y-121889391D01*
X146045018Y-124241495D02*
X146308982Y-124089095D01*
X147315018Y-126441200D02*
X147578982Y-126288800D01*
X148585018Y-128640904D02*
X148848982Y-128488504D01*
X149855018Y-130840609D02*
X150118982Y-130688209D01*
D19*
X156210000Y-119380000D03*
D20*
X158750000Y-119380000D03*
D21*
X160020000Y-131064000D03*
D22*
X157480000Y-131064000D03*
X154940000Y-131064000D03*
D23*
X145669000Y-120650000D03*
X166497000Y-121920000D03*
X145923000Y-116586000D03*
X156464000Y-112649000D03*
X154178000Y-113919000D03*
X169608500Y-120332500D03*
X167894000Y-111442500D03*
X166624000Y-109855000D03*
X169164000Y-112839500D03*
X154559000Y-119380000D03*
X164465000Y-127127002D03*
X162814000Y-130937004D03*
X162814000Y-128778000D03*
X165988996Y-125222004D03*
X165989000Y-123317000D03*
X168275000Y-121158000D03*
X152400000Y-124841000D03*
X149606000Y-124841000D03*
X150622000Y-132461000D03*
X166624000Y-114046000D03*
X160782006Y-111379000D03*
X162687000Y-111379000D03*
X162687000Y-113411000D03*
X160782000Y-113411000D03*
X161036000Y-121158000D03*
X162052000Y-124587000D03*
X163068000Y-121158000D03*
X163068002Y-123444000D03*
X142366998Y-118237000D03*
X144780000Y-118237000D03*
X143383002Y-116586000D03*
X144780000Y-116586000D03*
X144780000Y-114554000D03*
X149098000Y-113284000D03*
X147701000Y-112649000D03*
X156590996Y-109220000D03*
X154813000Y-109220000D03*
X156591000Y-111125000D03*
X146558000Y-111252000D03*
X148209000Y-109220000D03*
X151638000Y-130302000D03*
X153035000Y-131191000D03*
X156591000Y-125476000D03*
X158877000Y-125476000D03*
X162008000Y-122301000D03*
X159766000Y-122301000D03*
X152019001Y-128143000D03*
X155448012Y-128143000D03*
X147955000Y-121285000D03*
X154559000Y-121793000D03*
X169100500Y-119316500D03*
X165354000Y-121285000D03*
X171196000Y-117284496D03*
X164084000Y-120269000D03*
X153162006Y-109093000D03*
X150621994Y-109093000D03*
X150876000Y-113537996D03*
X153416000Y-118872000D03*
X146939000Y-122555000D03*
X150622000Y-125984000D03*
X150748982Y-128143000D03*
X147574000Y-114173000D03*
D24*
X167868599Y-119755921D02*
X169213726Y-121101048D01*
X169396866Y-121101048D02*
X170180000Y-121884182D01*
X167005000Y-118745000D02*
X167868599Y-119608599D01*
X169213726Y-121101048D02*
X169396866Y-121101048D01*
X167868599Y-119608599D02*
X167868599Y-119755921D01*
X145923000Y-116586000D02*
X145796000Y-116713000D01*
X145796000Y-116713000D02*
X145796000Y-120523000D01*
X145796000Y-120523000D02*
X145669000Y-120650000D01*
X167005000Y-118745000D02*
X166878000Y-118618000D01*
X166878000Y-118618000D02*
X166878000Y-117729000D01*
X168000682Y-117348000D02*
X168275000Y-117073682D01*
X166878000Y-117729000D02*
X167259000Y-117348000D01*
X167259000Y-117348000D02*
X168000682Y-117348000D01*
X168275000Y-117073682D02*
X168275000Y-114046000D01*
X168275000Y-114046000D02*
X164465000Y-110236000D01*
X170180000Y-121884182D02*
X166532818Y-121884182D01*
X166532818Y-121884182D02*
X166497000Y-121920000D01*
X154178000Y-113919000D02*
X155448000Y-112649000D01*
X155448000Y-112649000D02*
X156464000Y-112649000D01*
X167894000Y-111125000D02*
X167894000Y-111442500D01*
X166624000Y-109855000D02*
X167894000Y-111125000D01*
X165988996Y-125222004D02*
X164465000Y-126746000D01*
X164465000Y-126746000D02*
X164465000Y-127127002D01*
X168910000Y-124083886D02*
X168397114Y-123571000D01*
X168397114Y-123571000D02*
X166420798Y-123571000D01*
X166420798Y-123571000D02*
X166331899Y-123659899D01*
X166331899Y-123659899D02*
X165989000Y-123317000D01*
X153162000Y-124079000D02*
X152400000Y-124841000D01*
X154730000Y-124079000D02*
X153162000Y-124079000D01*
X149606000Y-124841000D02*
X152400000Y-124841000D01*
X149733000Y-124714000D02*
X149606000Y-124841000D01*
X149860000Y-124714000D02*
X149733000Y-124714000D01*
X151638000Y-130302000D02*
X151638000Y-131445000D01*
X151638000Y-131445000D02*
X150622000Y-132461000D01*
X160782000Y-113411000D02*
X160782000Y-111379006D01*
X160782000Y-111379006D02*
X160782006Y-111379000D01*
X162687000Y-113411000D02*
X162687000Y-111379000D01*
X162941000Y-121158000D02*
X161036000Y-121158000D01*
X163068000Y-121158000D02*
X161036000Y-121158000D01*
X162052000Y-124460002D02*
X162052000Y-124587000D01*
X163068002Y-123444000D02*
X162052000Y-124460002D01*
X143383002Y-117220996D02*
X142366998Y-118237000D01*
X143383002Y-116586000D02*
X143383002Y-117220996D01*
X144780000Y-116586000D02*
X144780000Y-118237000D01*
X144780000Y-114554000D02*
X144780000Y-116586000D01*
X148463000Y-112649000D02*
X149098000Y-113284000D01*
X147701000Y-112649000D02*
X148463000Y-112649000D01*
X156591000Y-109220004D02*
X156590996Y-109220000D01*
X156591000Y-111125000D02*
X156591000Y-109220004D01*
X159766000Y-122301000D02*
X162008000Y-122301000D01*
X155448012Y-128143000D02*
X152019001Y-128143000D01*
X154559000Y-121793000D02*
X154305000Y-121539000D01*
X154305000Y-121539000D02*
X148336000Y-121539000D01*
X148336000Y-121539000D02*
X148082000Y-121285000D01*
X148082000Y-121285000D02*
X147955000Y-121285000D01*
X171196000Y-117284496D02*
X169163996Y-119316500D01*
X169163996Y-119316500D02*
X169100500Y-119316500D01*
X167005000Y-116205000D02*
X167005000Y-117094000D01*
X167005000Y-117094000D02*
X165696899Y-118402101D01*
X165696899Y-118402101D02*
X165696899Y-120942101D01*
X165696899Y-120942101D02*
X165354000Y-121285000D01*
X164465000Y-116205000D02*
X163195000Y-117475000D01*
X163195000Y-117475000D02*
X163195000Y-119380000D01*
X163195000Y-119380000D02*
X164084000Y-120269000D01*
X152654000Y-109093000D02*
X153162006Y-109093000D01*
X152019000Y-109728000D02*
X152654000Y-109093000D01*
X150114000Y-109093000D02*
X150621994Y-109093000D01*
X149479000Y-109728000D02*
X150114000Y-109093000D01*
X150876000Y-116332000D02*
X150876000Y-113537996D01*
X153416000Y-118872000D02*
X150876000Y-116332000D01*
X146939000Y-114808000D02*
X146939000Y-122555000D01*
X147574000Y-114173000D02*
X146939000Y-114808000D01*
X150748982Y-126110982D02*
X150622000Y-125984000D01*
X150748982Y-128143000D02*
X150748982Y-126110982D01*
D25*
G36*
X149847986Y-108826986D02*
X149847984Y-108826989D01*
X149437509Y-109237463D01*
X149281257Y-109237327D01*
X148914134Y-109389019D01*
X148633006Y-109669657D01*
X148480673Y-110036515D01*
X148480327Y-110433743D01*
X148632019Y-110800866D01*
X148912657Y-111081994D01*
X149279515Y-111234327D01*
X149676743Y-111234673D01*
X150043866Y-111082981D01*
X150324994Y-110802343D01*
X150477327Y-110435485D01*
X150477673Y-110038257D01*
X150325981Y-109671134D01*
X150317579Y-109662717D01*
X150493552Y-109735788D01*
X150749314Y-109736011D01*
X150985692Y-109638342D01*
X151166700Y-109457649D01*
X151264782Y-109221442D01*
X151265005Y-108965680D01*
X151181260Y-108763000D01*
X152483749Y-108763000D01*
X152387986Y-108826986D01*
X152387984Y-108826989D01*
X151977509Y-109237463D01*
X151821257Y-109237327D01*
X151454134Y-109389019D01*
X151173006Y-109669657D01*
X151020673Y-110036515D01*
X151020327Y-110433743D01*
X151172019Y-110800866D01*
X151452657Y-111081994D01*
X151819515Y-111234327D01*
X152216743Y-111234673D01*
X152583866Y-111082981D01*
X152864994Y-110802343D01*
X153017327Y-110435485D01*
X153017673Y-110038257D01*
X152865981Y-109671134D01*
X152857571Y-109662709D01*
X153033564Y-109735788D01*
X153289326Y-109736011D01*
X153525704Y-109638342D01*
X153706712Y-109457649D01*
X153804794Y-109221442D01*
X153805017Y-108965680D01*
X153721272Y-108763000D01*
X167470955Y-108763000D01*
X173634201Y-118624196D01*
X165304944Y-133045000D01*
X149655056Y-133045000D01*
X148477002Y-131005381D01*
X148679045Y-131005381D01*
X148824983Y-131435300D01*
X149124336Y-131776646D01*
X149531529Y-131977451D01*
X149984571Y-132007145D01*
X150414490Y-131861207D01*
X150723111Y-131683025D01*
X151045847Y-131399991D01*
X153791081Y-131399991D01*
X153948794Y-131825688D01*
X154257409Y-132158627D01*
X154607470Y-132331473D01*
X154786000Y-132294052D01*
X154786000Y-131218000D01*
X155094000Y-131218000D01*
X155094000Y-132294052D01*
X155272530Y-132331473D01*
X155622591Y-132158627D01*
X155931206Y-131825688D01*
X156088919Y-131399991D01*
X156028494Y-131218000D01*
X155094000Y-131218000D01*
X154786000Y-131218000D01*
X153851506Y-131218000D01*
X153791081Y-131399991D01*
X151045847Y-131399991D01*
X151064456Y-131383672D01*
X151265261Y-130976479D01*
X151281546Y-130728009D01*
X153791081Y-130728009D01*
X153851506Y-130910000D01*
X154786000Y-130910000D01*
X154786000Y-129833948D01*
X155094000Y-129833948D01*
X155094000Y-130910000D01*
X156028494Y-130910000D01*
X156036522Y-130885818D01*
X156316400Y-130885818D01*
X156316400Y-131242182D01*
X156404974Y-131687472D01*
X156657211Y-132064971D01*
X157034710Y-132317208D01*
X157480000Y-132405782D01*
X157925290Y-132317208D01*
X158302789Y-132064971D01*
X158555026Y-131687472D01*
X158643600Y-131242182D01*
X158643600Y-130885818D01*
X158555026Y-130440528D01*
X158302789Y-130063029D01*
X158280297Y-130048000D01*
X158850523Y-130048000D01*
X158850523Y-132080000D01*
X158871442Y-132191173D01*
X158937145Y-132293279D01*
X159037397Y-132361778D01*
X159156400Y-132385877D01*
X160883600Y-132385877D01*
X160994773Y-132364958D01*
X161096879Y-132299255D01*
X161165378Y-132199003D01*
X161189477Y-132080000D01*
X161189477Y-130442028D01*
X163792045Y-130442028D01*
X163821739Y-130895070D01*
X164022544Y-131302263D01*
X164363890Y-131601616D01*
X164672510Y-131779798D01*
X165102429Y-131925736D01*
X165555471Y-131896042D01*
X165962665Y-131695237D01*
X166262017Y-131353892D01*
X166407955Y-130923972D01*
X166378261Y-130470930D01*
X166177456Y-130063737D01*
X165836111Y-129764384D01*
X165527490Y-129586202D01*
X165097571Y-129440264D01*
X164644529Y-129469958D01*
X164237336Y-129670763D01*
X163937983Y-130012109D01*
X163792045Y-130442028D01*
X161189477Y-130442028D01*
X161189477Y-130048000D01*
X161168558Y-129936827D01*
X161102855Y-129834721D01*
X161002603Y-129766222D01*
X160883600Y-129742123D01*
X159156400Y-129742123D01*
X159045227Y-129763042D01*
X158943121Y-129828745D01*
X158874622Y-129928997D01*
X158850523Y-130048000D01*
X158280297Y-130048000D01*
X157925290Y-129810792D01*
X157480000Y-129722218D01*
X157034710Y-129810792D01*
X156657211Y-130063029D01*
X156404974Y-130440528D01*
X156316400Y-130885818D01*
X156036522Y-130885818D01*
X156088919Y-130728009D01*
X155931206Y-130302312D01*
X155622591Y-129969373D01*
X155272530Y-129796527D01*
X155094000Y-129833948D01*
X154786000Y-129833948D01*
X154607470Y-129796527D01*
X154257409Y-129969373D01*
X153948794Y-130302312D01*
X153791081Y-130728009D01*
X151281546Y-130728009D01*
X151294955Y-130523437D01*
X151149017Y-130093517D01*
X150849665Y-129752172D01*
X150442471Y-129551367D01*
X149989429Y-129521673D01*
X149559510Y-129667611D01*
X149250890Y-129845793D01*
X148909544Y-130145146D01*
X148708739Y-130552339D01*
X148679045Y-131005381D01*
X148477002Y-131005381D01*
X147206483Y-128805676D01*
X147409045Y-128805676D01*
X147554983Y-129235595D01*
X147854336Y-129576941D01*
X148261529Y-129777746D01*
X148714571Y-129807440D01*
X149144490Y-129661502D01*
X149453111Y-129483320D01*
X149794456Y-129183967D01*
X149995261Y-128776774D01*
X150024955Y-128323732D01*
X149879017Y-127893812D01*
X149579665Y-127552467D01*
X149172471Y-127351662D01*
X148719429Y-127321968D01*
X148289510Y-127467906D01*
X147980890Y-127646088D01*
X147639544Y-127945441D01*
X147438739Y-128352634D01*
X147409045Y-128805676D01*
X147206483Y-128805676D01*
X145935964Y-126605972D01*
X146139045Y-126605972D01*
X146284983Y-127035891D01*
X146584336Y-127377237D01*
X146991529Y-127578042D01*
X147444571Y-127607736D01*
X147874490Y-127461798D01*
X148183111Y-127283616D01*
X148524456Y-126984263D01*
X148725261Y-126577070D01*
X148754955Y-126124028D01*
X148750642Y-126111320D01*
X149978989Y-126111320D01*
X150076658Y-126347698D01*
X150257351Y-126528706D01*
X150372782Y-126576637D01*
X150372782Y-127610138D01*
X150204276Y-127778351D01*
X150106194Y-128014558D01*
X150105971Y-128270320D01*
X150203640Y-128506698D01*
X150384333Y-128687706D01*
X150620540Y-128785788D01*
X150876302Y-128786011D01*
X151112680Y-128688342D01*
X151293688Y-128507649D01*
X151384093Y-128289931D01*
X151473659Y-128506698D01*
X151654352Y-128687706D01*
X151890559Y-128785788D01*
X152146321Y-128786011D01*
X152382699Y-128688342D01*
X152552136Y-128519200D01*
X154915150Y-128519200D01*
X155083363Y-128687706D01*
X155319570Y-128785788D01*
X155575332Y-128786011D01*
X155811710Y-128688342D01*
X155992718Y-128507649D01*
X156090800Y-128271442D01*
X156091023Y-128015680D01*
X155993354Y-127779302D01*
X155812661Y-127598294D01*
X155779883Y-127584683D01*
X155799507Y-127555961D01*
X155929732Y-127555961D01*
X156165208Y-128125857D01*
X156600849Y-128562260D01*
X157170333Y-128798730D01*
X157786961Y-128799268D01*
X158356857Y-128563792D01*
X158678888Y-128242323D01*
X165062045Y-128242323D01*
X165091739Y-128695365D01*
X165292544Y-129102558D01*
X165633890Y-129401911D01*
X165942510Y-129580093D01*
X166372429Y-129726031D01*
X166825471Y-129696337D01*
X167232665Y-129495532D01*
X167532017Y-129154187D01*
X167677955Y-128724267D01*
X167648261Y-128271225D01*
X167447456Y-127864032D01*
X167106111Y-127564679D01*
X166797490Y-127386497D01*
X166367571Y-127240559D01*
X165914529Y-127270253D01*
X165507336Y-127471058D01*
X165207983Y-127812404D01*
X165062045Y-128242323D01*
X158678888Y-128242323D01*
X158793260Y-128128151D01*
X159029730Y-127558667D01*
X159030268Y-126942039D01*
X158986803Y-126836844D01*
X159129810Y-126836844D01*
X159296922Y-127241286D01*
X159606087Y-127550991D01*
X160010237Y-127718808D01*
X160447844Y-127719190D01*
X160852286Y-127552078D01*
X161161991Y-127242913D01*
X161329808Y-126838763D01*
X161330190Y-126401156D01*
X161182046Y-126042619D01*
X166332045Y-126042619D01*
X166361739Y-126495661D01*
X166562544Y-126902854D01*
X166903890Y-127202207D01*
X167212510Y-127380389D01*
X167642429Y-127526327D01*
X168095471Y-127496633D01*
X168502665Y-127295828D01*
X168802017Y-126954483D01*
X168947955Y-126524563D01*
X168918261Y-126071521D01*
X168717456Y-125664328D01*
X168376111Y-125364975D01*
X168067490Y-125186793D01*
X167822262Y-125103549D01*
X168499121Y-125103549D01*
X168626517Y-125246875D01*
X169074038Y-125323140D01*
X169516679Y-125222341D01*
X169841399Y-125005602D01*
X169898256Y-124832280D01*
X168966368Y-124294254D01*
X168499121Y-125103549D01*
X167822262Y-125103549D01*
X167637571Y-125040855D01*
X167184529Y-125070549D01*
X166777336Y-125271354D01*
X166477983Y-125612700D01*
X166332045Y-126042619D01*
X161182046Y-126042619D01*
X161163078Y-125996714D01*
X160853913Y-125687009D01*
X160449763Y-125519192D01*
X160012156Y-125518810D01*
X159607714Y-125685922D01*
X159298009Y-125995087D01*
X159130192Y-126399237D01*
X159129810Y-126836844D01*
X158986803Y-126836844D01*
X158794792Y-126372143D01*
X158359151Y-125935740D01*
X157789667Y-125699270D01*
X157173039Y-125698732D01*
X156603143Y-125934208D01*
X156166740Y-126369849D01*
X155930270Y-126939333D01*
X155929732Y-127555961D01*
X155799507Y-127555961D01*
X155811778Y-127538003D01*
X155835877Y-127419000D01*
X155835877Y-125819000D01*
X155814958Y-125707827D01*
X155749255Y-125605721D01*
X155649003Y-125537222D01*
X155530000Y-125513123D01*
X153930000Y-125513123D01*
X153818827Y-125534042D01*
X153716721Y-125599745D01*
X153648222Y-125699997D01*
X153624123Y-125819000D01*
X153624123Y-127419000D01*
X153645042Y-127530173D01*
X153710745Y-127632279D01*
X153810997Y-127700778D01*
X153930000Y-127724877D01*
X154956873Y-127724877D01*
X154914877Y-127766800D01*
X152551863Y-127766800D01*
X152383650Y-127598294D01*
X152147443Y-127500212D01*
X151891681Y-127499989D01*
X151655303Y-127597658D01*
X151474295Y-127778351D01*
X151383890Y-127996069D01*
X151294324Y-127779302D01*
X151125182Y-127609865D01*
X151125182Y-126390101D01*
X151166706Y-126348649D01*
X151264788Y-126112442D01*
X151265011Y-125856680D01*
X151167342Y-125620302D01*
X150986649Y-125439294D01*
X150750442Y-125341212D01*
X150494680Y-125340989D01*
X150258302Y-125438658D01*
X150077294Y-125619351D01*
X149979212Y-125855558D01*
X149978989Y-126111320D01*
X148750642Y-126111320D01*
X148609017Y-125694108D01*
X148309665Y-125352763D01*
X147902471Y-125151958D01*
X147449429Y-125122264D01*
X147019510Y-125268202D01*
X146710890Y-125446384D01*
X146369544Y-125745737D01*
X146168739Y-126152930D01*
X146139045Y-126605972D01*
X145935964Y-126605972D01*
X144958525Y-124913689D01*
X145188744Y-124913689D01*
X145245601Y-125087011D01*
X145570321Y-125303750D01*
X146012962Y-125404549D01*
X146460483Y-125328284D01*
X146587879Y-125184958D01*
X146120632Y-124375663D01*
X145188744Y-124913689D01*
X144958525Y-124913689D01*
X144500948Y-124121467D01*
X144887730Y-124121467D01*
X144913071Y-124511052D01*
X145034744Y-124646953D01*
X145771367Y-124221663D01*
X146387368Y-124221663D01*
X146854615Y-125030958D01*
X147042436Y-124992293D01*
X147102508Y-124919861D01*
X154106928Y-124919861D01*
X154201602Y-125068278D01*
X154620403Y-125195183D01*
X155055891Y-125152160D01*
X155258398Y-125068278D01*
X155353072Y-124919861D01*
X154730000Y-124296789D01*
X154106928Y-124919861D01*
X147102508Y-124919861D01*
X147332244Y-124642861D01*
X147466270Y-124209123D01*
X147450678Y-123969403D01*
X153613817Y-123969403D01*
X153656840Y-124404891D01*
X153740722Y-124607398D01*
X153889139Y-124702072D01*
X154512211Y-124079000D01*
X154947789Y-124079000D01*
X155570861Y-124702072D01*
X155719278Y-124607398D01*
X155846183Y-124188597D01*
X155803442Y-123755961D01*
X155929732Y-123755961D01*
X156165208Y-124325857D01*
X156600849Y-124762260D01*
X157170333Y-124998730D01*
X157786961Y-124999268D01*
X157979140Y-124919861D01*
X159606928Y-124919861D01*
X159701602Y-125068278D01*
X160120403Y-125195183D01*
X160555891Y-125152160D01*
X160758398Y-125068278D01*
X160853072Y-124919861D01*
X160230000Y-124296789D01*
X159606928Y-124919861D01*
X157979140Y-124919861D01*
X158356857Y-124763792D01*
X158793260Y-124328151D01*
X158942224Y-123969403D01*
X159113817Y-123969403D01*
X159156840Y-124404891D01*
X159240722Y-124607398D01*
X159389139Y-124702072D01*
X160012211Y-124079000D01*
X160447789Y-124079000D01*
X161070861Y-124702072D01*
X161219278Y-124607398D01*
X161346183Y-124188597D01*
X161340169Y-124127714D01*
X167620730Y-124127714D01*
X167754756Y-124561452D01*
X168044564Y-124910884D01*
X168232385Y-124949549D01*
X168699632Y-124140254D01*
X168504368Y-124027518D01*
X169120368Y-124027518D01*
X170052256Y-124565544D01*
X170173929Y-124429643D01*
X170199270Y-124040058D01*
X170065244Y-123606320D01*
X169775436Y-123256888D01*
X169587615Y-123218223D01*
X169120368Y-124027518D01*
X168504368Y-124027518D01*
X167767744Y-123602228D01*
X167646071Y-123738129D01*
X167620730Y-124127714D01*
X161340169Y-124127714D01*
X161303160Y-123753109D01*
X161219278Y-123550602D01*
X161070861Y-123455928D01*
X160447789Y-124079000D01*
X160012211Y-124079000D01*
X159389139Y-123455928D01*
X159240722Y-123550602D01*
X159113817Y-123969403D01*
X158942224Y-123969403D01*
X159029730Y-123758667D01*
X159030184Y-123238139D01*
X159606928Y-123238139D01*
X160230000Y-123861211D01*
X160755719Y-123335492D01*
X167921744Y-123335492D01*
X168853632Y-123873518D01*
X169320879Y-123064223D01*
X169193483Y-122920897D01*
X168745962Y-122844632D01*
X168303321Y-122945431D01*
X167978601Y-123162170D01*
X167921744Y-123335492D01*
X160755719Y-123335492D01*
X160853072Y-123238139D01*
X160758398Y-123089722D01*
X160339597Y-122962817D01*
X159904109Y-123005840D01*
X159701602Y-123089722D01*
X159606928Y-123238139D01*
X159030184Y-123238139D01*
X159030268Y-123142039D01*
X158794792Y-122572143D01*
X158359151Y-122135740D01*
X157789667Y-121899270D01*
X157173039Y-121898732D01*
X156603143Y-122134208D01*
X156166740Y-122569849D01*
X155930270Y-123139333D01*
X155929732Y-123755961D01*
X155803442Y-123755961D01*
X155803160Y-123753109D01*
X155719278Y-123550602D01*
X155570861Y-123455928D01*
X154947789Y-124079000D01*
X154512211Y-124079000D01*
X153889139Y-123455928D01*
X153740722Y-123550602D01*
X153613817Y-123969403D01*
X147450678Y-123969403D01*
X147440929Y-123819538D01*
X147319256Y-123683637D01*
X146387368Y-124221663D01*
X145771367Y-124221663D01*
X145966632Y-124108927D01*
X145499385Y-123299632D01*
X145311564Y-123338297D01*
X145021756Y-123687729D01*
X144887730Y-124121467D01*
X144500948Y-124121467D01*
X143394925Y-122206563D01*
X143599045Y-122206563D01*
X143744983Y-122636482D01*
X144044336Y-122977828D01*
X144451529Y-123178633D01*
X144904571Y-123208327D01*
X145334490Y-123062389D01*
X145643111Y-122884207D01*
X145984456Y-122584854D01*
X146185261Y-122177661D01*
X146214955Y-121724619D01*
X146069017Y-121294699D01*
X145995399Y-121210754D01*
X146032698Y-121195342D01*
X146213706Y-121014649D01*
X146311788Y-120778442D01*
X146312011Y-120522680D01*
X146214342Y-120286302D01*
X146172200Y-120244087D01*
X146172200Y-117178651D01*
X146286698Y-117131342D01*
X146467706Y-116950649D01*
X146562800Y-116721638D01*
X146562800Y-122022138D01*
X146394294Y-122190351D01*
X146296212Y-122426558D01*
X146295989Y-122682320D01*
X146393658Y-122918698D01*
X146418626Y-122943709D01*
X146341038Y-122926041D01*
X145893517Y-123002306D01*
X145766121Y-123145632D01*
X146233368Y-123954927D01*
X147165256Y-123416901D01*
X147108399Y-123243579D01*
X147040094Y-123197988D01*
X147066320Y-123198011D01*
X147302698Y-123100342D01*
X147345682Y-123057432D01*
X152029861Y-123057432D01*
X152151397Y-123351572D01*
X152376245Y-123576812D01*
X152670172Y-123698861D01*
X152988432Y-123699139D01*
X153282572Y-123577603D01*
X153507812Y-123352755D01*
X153555404Y-123238139D01*
X154106928Y-123238139D01*
X154730000Y-123861211D01*
X155353072Y-123238139D01*
X155258398Y-123089722D01*
X154839597Y-122962817D01*
X154404109Y-123005840D01*
X154201602Y-123089722D01*
X154106928Y-123238139D01*
X153555404Y-123238139D01*
X153629861Y-123058828D01*
X153630139Y-122740568D01*
X153508603Y-122446428D01*
X153283755Y-122221188D01*
X152989828Y-122099139D01*
X152671568Y-122098861D01*
X152377428Y-122220397D01*
X152152188Y-122445245D01*
X152030139Y-122739172D01*
X152029861Y-123057432D01*
X147345682Y-123057432D01*
X147483706Y-122919649D01*
X147581788Y-122683442D01*
X147582011Y-122427680D01*
X147484342Y-122191302D01*
X147315200Y-122021865D01*
X147315200Y-121420091D01*
X147409658Y-121648698D01*
X147590351Y-121829706D01*
X147826558Y-121927788D01*
X148082320Y-121928011D01*
X148188442Y-121884163D01*
X148192034Y-121886563D01*
X148336000Y-121915200D01*
X153915993Y-121915200D01*
X153915989Y-121920320D01*
X154013658Y-122156698D01*
X154194351Y-122337706D01*
X154430558Y-122435788D01*
X154686320Y-122436011D01*
X154922698Y-122338342D01*
X155103706Y-122157649D01*
X155201788Y-121921442D01*
X155202011Y-121665680D01*
X155104342Y-121429302D01*
X154923649Y-121248294D01*
X154687442Y-121150212D01*
X154431680Y-121149989D01*
X154369584Y-121175646D01*
X154305000Y-121162799D01*
X154304995Y-121162800D01*
X148598007Y-121162800D01*
X148598011Y-121157680D01*
X148500342Y-120921302D01*
X148319649Y-120740294D01*
X148083442Y-120642212D01*
X147827680Y-120641989D01*
X147591302Y-120739658D01*
X147410294Y-120920351D01*
X147315200Y-121149362D01*
X147315200Y-119609000D01*
X154960000Y-119609000D01*
X154960000Y-120439674D01*
X155005672Y-120549937D01*
X155090064Y-120634328D01*
X155200327Y-120680000D01*
X155981000Y-120680000D01*
X156056000Y-120605000D01*
X156056000Y-119534000D01*
X156364000Y-119534000D01*
X156364000Y-120605000D01*
X156439000Y-120680000D01*
X157219673Y-120680000D01*
X157329936Y-120634328D01*
X157414328Y-120549937D01*
X157460000Y-120439674D01*
X157460000Y-119627550D01*
X157499783Y-119627550D01*
X157689684Y-120087143D01*
X158041007Y-120439081D01*
X158500269Y-120629783D01*
X158997550Y-120630217D01*
X159457143Y-120440316D01*
X159809081Y-120088993D01*
X159999783Y-119629731D01*
X160000217Y-119132450D01*
X159977526Y-119077532D01*
X160809912Y-119077532D01*
X161022048Y-119478945D01*
X161371650Y-119768622D01*
X161592470Y-119860073D01*
X161771000Y-119822652D01*
X161771000Y-118899000D01*
X160846621Y-118899000D01*
X160809912Y-119077532D01*
X159977526Y-119077532D01*
X159810316Y-118672857D01*
X159550383Y-118412468D01*
X160809912Y-118412468D01*
X160846621Y-118591000D01*
X161771000Y-118591000D01*
X161771000Y-117667348D01*
X162079000Y-117667348D01*
X162079000Y-118591000D01*
X162099000Y-118591000D01*
X162099000Y-118899000D01*
X162079000Y-118899000D01*
X162079000Y-119822652D01*
X162257530Y-119860073D01*
X162478350Y-119768622D01*
X162827952Y-119478945D01*
X162835602Y-119464469D01*
X162840662Y-119489907D01*
X162847437Y-119523966D01*
X162915606Y-119625989D01*
X162928986Y-119646014D01*
X163441197Y-120158224D01*
X163440989Y-120396320D01*
X163538658Y-120632698D01*
X163719351Y-120813706D01*
X163955558Y-120911788D01*
X164211320Y-120912011D01*
X164447698Y-120814342D01*
X164628706Y-120633649D01*
X164726788Y-120397442D01*
X164727011Y-120141680D01*
X164629342Y-119905302D01*
X164623849Y-119899799D01*
X164910290Y-119842822D01*
X165287789Y-119590585D01*
X165320699Y-119541332D01*
X165320699Y-120642071D01*
X165226680Y-120641989D01*
X164990302Y-120739658D01*
X164809294Y-120920351D01*
X164711212Y-121156558D01*
X164710989Y-121412320D01*
X164808658Y-121648698D01*
X164989351Y-121829706D01*
X165225558Y-121927788D01*
X165481320Y-121928011D01*
X165717698Y-121830342D01*
X165898706Y-121649649D01*
X165996788Y-121413442D01*
X165997011Y-121157680D01*
X165996859Y-121157311D01*
X166044462Y-121086067D01*
X166073099Y-120942101D01*
X166073099Y-119427288D01*
X166182211Y-119590585D01*
X166559710Y-119842822D01*
X167005000Y-119931396D01*
X167450290Y-119842822D01*
X167502716Y-119807792D01*
X167509685Y-119842822D01*
X167521036Y-119899887D01*
X167592599Y-120006989D01*
X167602585Y-120021935D01*
X168947710Y-121367059D01*
X168947712Y-121367062D01*
X168962443Y-121376905D01*
X168917949Y-121507982D01*
X166994106Y-121507982D01*
X166861649Y-121375294D01*
X166625442Y-121277212D01*
X166369680Y-121276989D01*
X166133302Y-121374658D01*
X165952294Y-121555351D01*
X165854212Y-121791558D01*
X165853989Y-122047320D01*
X165951658Y-122283698D01*
X166132351Y-122464706D01*
X166368558Y-122562788D01*
X166624320Y-122563011D01*
X166860698Y-122465342D01*
X167041706Y-122284649D01*
X167051783Y-122260382D01*
X168982679Y-122260382D01*
X169102544Y-122503445D01*
X169443890Y-122802798D01*
X169752510Y-122980980D01*
X170182429Y-123126918D01*
X170635471Y-123097224D01*
X171042665Y-122896419D01*
X171342017Y-122555074D01*
X171487955Y-122125154D01*
X171458261Y-121672112D01*
X171257456Y-121264919D01*
X170916111Y-120965566D01*
X170607490Y-120787384D01*
X170177571Y-120641446D01*
X169724529Y-120671140D01*
X169547931Y-120758228D01*
X169540832Y-120753485D01*
X169516945Y-120748734D01*
X169396866Y-120724847D01*
X169396861Y-120724848D01*
X169369553Y-120724848D01*
X168242687Y-119597981D01*
X168216162Y-119464633D01*
X168202256Y-119443820D01*
X168457489Y-119443820D01*
X168555158Y-119680198D01*
X168735851Y-119861206D01*
X168972058Y-119959288D01*
X169227820Y-119959511D01*
X169464198Y-119861842D01*
X169645206Y-119681149D01*
X169743288Y-119444942D01*
X169743441Y-119269083D01*
X170738053Y-118274470D01*
X170737021Y-118275639D01*
X169873421Y-119771439D01*
X169835950Y-119878177D01*
X169841798Y-119999455D01*
X169894369Y-120108902D01*
X169985380Y-120189274D01*
X171745144Y-121205274D01*
X171851882Y-121242745D01*
X171973160Y-121236897D01*
X172082608Y-121184326D01*
X172162979Y-121093315D01*
X173026579Y-119597515D01*
X173064050Y-119490777D01*
X173058202Y-119369499D01*
X173005631Y-119260052D01*
X172914620Y-119179680D01*
X171154856Y-118163680D01*
X171048118Y-118126209D01*
X170926840Y-118132057D01*
X170837603Y-118174920D01*
X171085224Y-117927299D01*
X171323320Y-117927507D01*
X171559698Y-117829838D01*
X171740706Y-117649145D01*
X171838788Y-117412938D01*
X171839011Y-117157176D01*
X171741342Y-116920798D01*
X171560649Y-116739790D01*
X171324442Y-116641708D01*
X171068680Y-116641485D01*
X170832302Y-116739154D01*
X170651294Y-116919847D01*
X170553212Y-117156054D01*
X170553003Y-117395466D01*
X169261314Y-118687154D01*
X169228942Y-118673712D01*
X168973180Y-118673489D01*
X168736802Y-118771158D01*
X168555794Y-118951851D01*
X168457712Y-119188058D01*
X168457489Y-119443820D01*
X168202256Y-119443820D01*
X168134613Y-119342585D01*
X168134610Y-119342583D01*
X168050020Y-119257993D01*
X168080026Y-119213086D01*
X168168600Y-118767796D01*
X168168600Y-118722204D01*
X168080026Y-118276914D01*
X167827789Y-117899415D01*
X167565561Y-117724200D01*
X168000677Y-117724200D01*
X168000682Y-117724201D01*
X168120761Y-117700314D01*
X168144648Y-117695563D01*
X168266696Y-117614014D01*
X168541011Y-117339698D01*
X168541014Y-117339696D01*
X168622563Y-117217648D01*
X168651200Y-117073682D01*
X168651200Y-114046005D01*
X168651201Y-114046000D01*
X168622564Y-113902035D01*
X168560602Y-113809302D01*
X168541014Y-113779986D01*
X168541011Y-113779984D01*
X165607176Y-110846148D01*
X165665572Y-110758752D01*
X165764490Y-110261459D01*
X165764490Y-110210541D01*
X165665572Y-109713248D01*
X165383878Y-109291663D01*
X164962293Y-109009969D01*
X164465000Y-108911051D01*
X163967707Y-109009969D01*
X163546122Y-109291663D01*
X163264428Y-109713248D01*
X163165510Y-110210541D01*
X163165510Y-110261459D01*
X163264428Y-110758752D01*
X163546122Y-111180337D01*
X163967707Y-111462031D01*
X164040498Y-111476510D01*
X163405837Y-111476510D01*
X163295574Y-111522182D01*
X163211182Y-111606573D01*
X163165510Y-111716836D01*
X163165510Y-112547000D01*
X163240510Y-112622000D01*
X164311000Y-112622000D01*
X164311000Y-112602000D01*
X164619000Y-112602000D01*
X164619000Y-112622000D01*
X165689490Y-112622000D01*
X165764490Y-112547000D01*
X165764490Y-112067518D01*
X167898800Y-114201827D01*
X167898800Y-115041639D01*
X167868600Y-115035523D01*
X166141400Y-115035523D01*
X166030227Y-115056442D01*
X165928121Y-115122145D01*
X165859622Y-115222397D01*
X165835523Y-115341400D01*
X165835523Y-117068600D01*
X165856442Y-117179773D01*
X165922145Y-117281879D01*
X166022397Y-117350378D01*
X166141400Y-117374477D01*
X166192496Y-117374477D01*
X165439903Y-118127069D01*
X165287789Y-117899415D01*
X164910290Y-117647178D01*
X164465000Y-117558604D01*
X164019710Y-117647178D01*
X163642211Y-117899415D01*
X163571200Y-118005690D01*
X163571200Y-117630828D01*
X163947473Y-117254555D01*
X164019710Y-117302822D01*
X164465000Y-117391396D01*
X164910290Y-117302822D01*
X165287789Y-117050585D01*
X165540026Y-116673086D01*
X165628600Y-116227796D01*
X165628600Y-116182204D01*
X165540026Y-115736914D01*
X165287789Y-115359415D01*
X164910290Y-115107178D01*
X164465000Y-115018604D01*
X164019710Y-115107178D01*
X163642211Y-115359415D01*
X163389974Y-115736914D01*
X163301400Y-116182204D01*
X163301400Y-116227796D01*
X163389974Y-116673086D01*
X163419980Y-116717993D01*
X162928986Y-117208986D01*
X162847437Y-117331034D01*
X162847437Y-117331035D01*
X162818799Y-117475000D01*
X162818800Y-117475005D01*
X162818800Y-118003472D01*
X162478350Y-117721378D01*
X162257530Y-117629927D01*
X162079000Y-117667348D01*
X161771000Y-117667348D01*
X161592470Y-117629927D01*
X161371650Y-117721378D01*
X161022048Y-118011055D01*
X160809912Y-118412468D01*
X159550383Y-118412468D01*
X159458993Y-118320919D01*
X158999731Y-118130217D01*
X158502450Y-118129783D01*
X158042857Y-118319684D01*
X157690919Y-118671007D01*
X157500217Y-119130269D01*
X157499783Y-119627550D01*
X157460000Y-119627550D01*
X157460000Y-119609000D01*
X157385000Y-119534000D01*
X156364000Y-119534000D01*
X156056000Y-119534000D01*
X155035000Y-119534000D01*
X154960000Y-119609000D01*
X147315200Y-119609000D01*
X147315200Y-114963828D01*
X147463224Y-114815803D01*
X147701320Y-114816011D01*
X147937698Y-114718342D01*
X148118706Y-114537649D01*
X148216788Y-114301442D01*
X148217011Y-114045680D01*
X148119342Y-113809302D01*
X147975607Y-113665316D01*
X150232989Y-113665316D01*
X150330658Y-113901694D01*
X150499800Y-114071131D01*
X150499800Y-116331995D01*
X150499799Y-116332000D01*
X150521688Y-116442035D01*
X150528437Y-116475966D01*
X150590623Y-116569035D01*
X150609986Y-116598014D01*
X152773197Y-118761224D01*
X152772989Y-118999320D01*
X152870658Y-119235698D01*
X153051351Y-119416706D01*
X153287558Y-119514788D01*
X153543320Y-119515011D01*
X153779698Y-119417342D01*
X153960706Y-119236649D01*
X154058788Y-119000442D01*
X154059011Y-118744680D01*
X153961342Y-118508302D01*
X153780649Y-118327294D01*
X153763869Y-118320326D01*
X154960000Y-118320326D01*
X154960000Y-119151000D01*
X155035000Y-119226000D01*
X156056000Y-119226000D01*
X156056000Y-118155000D01*
X156364000Y-118155000D01*
X156364000Y-119226000D01*
X157385000Y-119226000D01*
X157460000Y-119151000D01*
X157460000Y-118320326D01*
X157414328Y-118210063D01*
X157329936Y-118125672D01*
X157219673Y-118080000D01*
X156439000Y-118080000D01*
X156364000Y-118155000D01*
X156056000Y-118155000D01*
X155981000Y-118080000D01*
X155200327Y-118080000D01*
X155090064Y-118125672D01*
X155005672Y-118210063D01*
X154960000Y-118320326D01*
X153763869Y-118320326D01*
X153544442Y-118229212D01*
X153305030Y-118229003D01*
X151258232Y-116182204D01*
X160761400Y-116182204D01*
X160761400Y-116227796D01*
X160849974Y-116673086D01*
X161102211Y-117050585D01*
X161479710Y-117302822D01*
X161925000Y-117391396D01*
X162370290Y-117302822D01*
X162747789Y-117050585D01*
X163000026Y-116673086D01*
X163088600Y-116227796D01*
X163088600Y-116182204D01*
X163000026Y-115736914D01*
X162747789Y-115359415D01*
X162370290Y-115107178D01*
X161925000Y-115018604D01*
X161479710Y-115107178D01*
X161102211Y-115359415D01*
X160849974Y-115736914D01*
X160761400Y-116182204D01*
X151258232Y-116182204D01*
X151252200Y-116176172D01*
X151252200Y-114070858D01*
X151276780Y-114046320D01*
X153534989Y-114046320D01*
X153632658Y-114282698D01*
X153813351Y-114463706D01*
X154049558Y-114561788D01*
X154305320Y-114562011D01*
X154541698Y-114464342D01*
X154722706Y-114283649D01*
X154820788Y-114047442D01*
X154820997Y-113808031D01*
X155603827Y-113025200D01*
X155931138Y-113025200D01*
X156099351Y-113193706D01*
X156335558Y-113291788D01*
X156591320Y-113292011D01*
X156827698Y-113194342D01*
X157008706Y-113013649D01*
X157012297Y-113005000D01*
X163165510Y-113005000D01*
X163165510Y-113835164D01*
X163211182Y-113945427D01*
X163295574Y-114029818D01*
X163405837Y-114075490D01*
X164236000Y-114075490D01*
X164311000Y-114000490D01*
X164311000Y-112930000D01*
X164619000Y-112930000D01*
X164619000Y-114000490D01*
X164694000Y-114075490D01*
X165524163Y-114075490D01*
X165634426Y-114029818D01*
X165718818Y-113945427D01*
X165764490Y-113835164D01*
X165764490Y-113005000D01*
X165689490Y-112930000D01*
X164619000Y-112930000D01*
X164311000Y-112930000D01*
X163240510Y-112930000D01*
X163165510Y-113005000D01*
X157012297Y-113005000D01*
X157106788Y-112777442D01*
X157107011Y-112521680D01*
X157009342Y-112285302D01*
X156828649Y-112104294D01*
X156592442Y-112006212D01*
X156336680Y-112005989D01*
X156100302Y-112103658D01*
X155930865Y-112272800D01*
X155448000Y-112272800D01*
X155304034Y-112301437D01*
X155181986Y-112382986D01*
X155181984Y-112382989D01*
X154288776Y-113276197D01*
X154050680Y-113275989D01*
X153814302Y-113373658D01*
X153633294Y-113554351D01*
X153535212Y-113790558D01*
X153534989Y-114046320D01*
X151276780Y-114046320D01*
X151420706Y-113902645D01*
X151518788Y-113666438D01*
X151519011Y-113410676D01*
X151421342Y-113174298D01*
X151240649Y-112993290D01*
X151004442Y-112895208D01*
X150748680Y-112894985D01*
X150512302Y-112992654D01*
X150331294Y-113173347D01*
X150233212Y-113409554D01*
X150232989Y-113665316D01*
X147975607Y-113665316D01*
X147938649Y-113628294D01*
X147702442Y-113530212D01*
X147446680Y-113529989D01*
X147210302Y-113627658D01*
X147029294Y-113808351D01*
X146931212Y-114044558D01*
X146931003Y-114283969D01*
X146672986Y-114541986D01*
X146591437Y-114664034D01*
X146591437Y-114664035D01*
X146562799Y-114808000D01*
X146562800Y-114808005D01*
X146562800Y-116450909D01*
X146468342Y-116222302D01*
X146287649Y-116041294D01*
X146051442Y-115943212D01*
X145795680Y-115942989D01*
X145559302Y-116040658D01*
X145378294Y-116221351D01*
X145280212Y-116457558D01*
X145279989Y-116713320D01*
X145377658Y-116949698D01*
X145419800Y-116991913D01*
X145419800Y-120057349D01*
X145305302Y-120104658D01*
X145124294Y-120285351D01*
X145026212Y-120521558D01*
X145026030Y-120730497D01*
X144909429Y-120722855D01*
X144479510Y-120868793D01*
X144170890Y-121046975D01*
X143829544Y-121346328D01*
X143628739Y-121753521D01*
X143599045Y-122206563D01*
X143394925Y-122206563D01*
X141868510Y-119563815D01*
X142021789Y-119563815D01*
X142060421Y-119678924D01*
X142924021Y-121174724D01*
X142997723Y-121260544D01*
X143105677Y-121316119D01*
X143226747Y-121325315D01*
X143341856Y-121286683D01*
X145101620Y-120270683D01*
X145187440Y-120196981D01*
X145243015Y-120089027D01*
X145252211Y-119967957D01*
X145213579Y-119852848D01*
X144349979Y-118357048D01*
X144276277Y-118271228D01*
X144168323Y-118215653D01*
X144047253Y-118206457D01*
X143932144Y-118245089D01*
X142172380Y-119261089D01*
X142086560Y-119334791D01*
X142030985Y-119442745D01*
X142021789Y-119563815D01*
X141868510Y-119563815D01*
X141325798Y-118624195D01*
X147489045Y-108763000D01*
X149943749Y-108763000D01*
X149847986Y-108826986D01*
X149847986Y-108826986D01*
G37*
X149847986Y-108826986D02*
X149847984Y-108826989D01*
X149437509Y-109237463D01*
X149281257Y-109237327D01*
X148914134Y-109389019D01*
X148633006Y-109669657D01*
X148480673Y-110036515D01*
X148480327Y-110433743D01*
X148632019Y-110800866D01*
X148912657Y-111081994D01*
X149279515Y-111234327D01*
X149676743Y-111234673D01*
X150043866Y-111082981D01*
X150324994Y-110802343D01*
X150477327Y-110435485D01*
X150477673Y-110038257D01*
X150325981Y-109671134D01*
X150317579Y-109662717D01*
X150493552Y-109735788D01*
X150749314Y-109736011D01*
X150985692Y-109638342D01*
X151166700Y-109457649D01*
X151264782Y-109221442D01*
X151265005Y-108965680D01*
X151181260Y-108763000D01*
X152483749Y-108763000D01*
X152387986Y-108826986D01*
X152387984Y-108826989D01*
X151977509Y-109237463D01*
X151821257Y-109237327D01*
X151454134Y-109389019D01*
X151173006Y-109669657D01*
X151020673Y-110036515D01*
X151020327Y-110433743D01*
X151172019Y-110800866D01*
X151452657Y-111081994D01*
X151819515Y-111234327D01*
X152216743Y-111234673D01*
X152583866Y-111082981D01*
X152864994Y-110802343D01*
X153017327Y-110435485D01*
X153017673Y-110038257D01*
X152865981Y-109671134D01*
X152857571Y-109662709D01*
X153033564Y-109735788D01*
X153289326Y-109736011D01*
X153525704Y-109638342D01*
X153706712Y-109457649D01*
X153804794Y-109221442D01*
X153805017Y-108965680D01*
X153721272Y-108763000D01*
X167470955Y-108763000D01*
X173634201Y-118624196D01*
X165304944Y-133045000D01*
X149655056Y-133045000D01*
X148477002Y-131005381D01*
X148679045Y-131005381D01*
X148824983Y-131435300D01*
X149124336Y-131776646D01*
X149531529Y-131977451D01*
X149984571Y-132007145D01*
X150414490Y-131861207D01*
X150723111Y-131683025D01*
X151045847Y-131399991D01*
X153791081Y-131399991D01*
X153948794Y-131825688D01*
X154257409Y-132158627D01*
X154607470Y-132331473D01*
X154786000Y-132294052D01*
X154786000Y-131218000D01*
X155094000Y-131218000D01*
X155094000Y-132294052D01*
X155272530Y-132331473D01*
X155622591Y-132158627D01*
X155931206Y-131825688D01*
X156088919Y-131399991D01*
X156028494Y-131218000D01*
X155094000Y-131218000D01*
X154786000Y-131218000D01*
X153851506Y-131218000D01*
X153791081Y-131399991D01*
X151045847Y-131399991D01*
X151064456Y-131383672D01*
X151265261Y-130976479D01*
X151281546Y-130728009D01*
X153791081Y-130728009D01*
X153851506Y-130910000D01*
X154786000Y-130910000D01*
X154786000Y-129833948D01*
X155094000Y-129833948D01*
X155094000Y-130910000D01*
X156028494Y-130910000D01*
X156036522Y-130885818D01*
X156316400Y-130885818D01*
X156316400Y-131242182D01*
X156404974Y-131687472D01*
X156657211Y-132064971D01*
X157034710Y-132317208D01*
X157480000Y-132405782D01*
X157925290Y-132317208D01*
X158302789Y-132064971D01*
X158555026Y-131687472D01*
X158643600Y-131242182D01*
X158643600Y-130885818D01*
X158555026Y-130440528D01*
X158302789Y-130063029D01*
X158280297Y-130048000D01*
X158850523Y-130048000D01*
X158850523Y-132080000D01*
X158871442Y-132191173D01*
X158937145Y-132293279D01*
X159037397Y-132361778D01*
X159156400Y-132385877D01*
X160883600Y-132385877D01*
X160994773Y-132364958D01*
X161096879Y-132299255D01*
X161165378Y-132199003D01*
X161189477Y-132080000D01*
X161189477Y-130442028D01*
X163792045Y-130442028D01*
X163821739Y-130895070D01*
X164022544Y-131302263D01*
X164363890Y-131601616D01*
X164672510Y-131779798D01*
X165102429Y-131925736D01*
X165555471Y-131896042D01*
X165962665Y-131695237D01*
X166262017Y-131353892D01*
X166407955Y-130923972D01*
X166378261Y-130470930D01*
X166177456Y-130063737D01*
X165836111Y-129764384D01*
X165527490Y-129586202D01*
X165097571Y-129440264D01*
X164644529Y-129469958D01*
X164237336Y-129670763D01*
X163937983Y-130012109D01*
X163792045Y-130442028D01*
X161189477Y-130442028D01*
X161189477Y-130048000D01*
X161168558Y-129936827D01*
X161102855Y-129834721D01*
X161002603Y-129766222D01*
X160883600Y-129742123D01*
X159156400Y-129742123D01*
X159045227Y-129763042D01*
X158943121Y-129828745D01*
X158874622Y-129928997D01*
X158850523Y-130048000D01*
X158280297Y-130048000D01*
X157925290Y-129810792D01*
X157480000Y-129722218D01*
X157034710Y-129810792D01*
X156657211Y-130063029D01*
X156404974Y-130440528D01*
X156316400Y-130885818D01*
X156036522Y-130885818D01*
X156088919Y-130728009D01*
X155931206Y-130302312D01*
X155622591Y-129969373D01*
X155272530Y-129796527D01*
X155094000Y-129833948D01*
X154786000Y-129833948D01*
X154607470Y-129796527D01*
X154257409Y-129969373D01*
X153948794Y-130302312D01*
X153791081Y-130728009D01*
X151281546Y-130728009D01*
X151294955Y-130523437D01*
X151149017Y-130093517D01*
X150849665Y-129752172D01*
X150442471Y-129551367D01*
X149989429Y-129521673D01*
X149559510Y-129667611D01*
X149250890Y-129845793D01*
X148909544Y-130145146D01*
X148708739Y-130552339D01*
X148679045Y-131005381D01*
X148477002Y-131005381D01*
X147206483Y-128805676D01*
X147409045Y-128805676D01*
X147554983Y-129235595D01*
X147854336Y-129576941D01*
X148261529Y-129777746D01*
X148714571Y-129807440D01*
X149144490Y-129661502D01*
X149453111Y-129483320D01*
X149794456Y-129183967D01*
X149995261Y-128776774D01*
X150024955Y-128323732D01*
X149879017Y-127893812D01*
X149579665Y-127552467D01*
X149172471Y-127351662D01*
X148719429Y-127321968D01*
X148289510Y-127467906D01*
X147980890Y-127646088D01*
X147639544Y-127945441D01*
X147438739Y-128352634D01*
X147409045Y-128805676D01*
X147206483Y-128805676D01*
X145935964Y-126605972D01*
X146139045Y-126605972D01*
X146284983Y-127035891D01*
X146584336Y-127377237D01*
X146991529Y-127578042D01*
X147444571Y-127607736D01*
X147874490Y-127461798D01*
X148183111Y-127283616D01*
X148524456Y-126984263D01*
X148725261Y-126577070D01*
X148754955Y-126124028D01*
X148750642Y-126111320D01*
X149978989Y-126111320D01*
X150076658Y-126347698D01*
X150257351Y-126528706D01*
X150372782Y-126576637D01*
X150372782Y-127610138D01*
X150204276Y-127778351D01*
X150106194Y-128014558D01*
X150105971Y-128270320D01*
X150203640Y-128506698D01*
X150384333Y-128687706D01*
X150620540Y-128785788D01*
X150876302Y-128786011D01*
X151112680Y-128688342D01*
X151293688Y-128507649D01*
X151384093Y-128289931D01*
X151473659Y-128506698D01*
X151654352Y-128687706D01*
X151890559Y-128785788D01*
X152146321Y-128786011D01*
X152382699Y-128688342D01*
X152552136Y-128519200D01*
X154915150Y-128519200D01*
X155083363Y-128687706D01*
X155319570Y-128785788D01*
X155575332Y-128786011D01*
X155811710Y-128688342D01*
X155992718Y-128507649D01*
X156090800Y-128271442D01*
X156091023Y-128015680D01*
X155993354Y-127779302D01*
X155812661Y-127598294D01*
X155779883Y-127584683D01*
X155799507Y-127555961D01*
X155929732Y-127555961D01*
X156165208Y-128125857D01*
X156600849Y-128562260D01*
X157170333Y-128798730D01*
X157786961Y-128799268D01*
X158356857Y-128563792D01*
X158678888Y-128242323D01*
X165062045Y-128242323D01*
X165091739Y-128695365D01*
X165292544Y-129102558D01*
X165633890Y-129401911D01*
X165942510Y-129580093D01*
X166372429Y-129726031D01*
X166825471Y-129696337D01*
X167232665Y-129495532D01*
X167532017Y-129154187D01*
X167677955Y-128724267D01*
X167648261Y-128271225D01*
X167447456Y-127864032D01*
X167106111Y-127564679D01*
X166797490Y-127386497D01*
X166367571Y-127240559D01*
X165914529Y-127270253D01*
X165507336Y-127471058D01*
X165207983Y-127812404D01*
X165062045Y-128242323D01*
X158678888Y-128242323D01*
X158793260Y-128128151D01*
X159029730Y-127558667D01*
X159030268Y-126942039D01*
X158986803Y-126836844D01*
X159129810Y-126836844D01*
X159296922Y-127241286D01*
X159606087Y-127550991D01*
X160010237Y-127718808D01*
X160447844Y-127719190D01*
X160852286Y-127552078D01*
X161161991Y-127242913D01*
X161329808Y-126838763D01*
X161330190Y-126401156D01*
X161182046Y-126042619D01*
X166332045Y-126042619D01*
X166361739Y-126495661D01*
X166562544Y-126902854D01*
X166903890Y-127202207D01*
X167212510Y-127380389D01*
X167642429Y-127526327D01*
X168095471Y-127496633D01*
X168502665Y-127295828D01*
X168802017Y-126954483D01*
X168947955Y-126524563D01*
X168918261Y-126071521D01*
X168717456Y-125664328D01*
X168376111Y-125364975D01*
X168067490Y-125186793D01*
X167822262Y-125103549D01*
X168499121Y-125103549D01*
X168626517Y-125246875D01*
X169074038Y-125323140D01*
X169516679Y-125222341D01*
X169841399Y-125005602D01*
X169898256Y-124832280D01*
X168966368Y-124294254D01*
X168499121Y-125103549D01*
X167822262Y-125103549D01*
X167637571Y-125040855D01*
X167184529Y-125070549D01*
X166777336Y-125271354D01*
X166477983Y-125612700D01*
X166332045Y-126042619D01*
X161182046Y-126042619D01*
X161163078Y-125996714D01*
X160853913Y-125687009D01*
X160449763Y-125519192D01*
X160012156Y-125518810D01*
X159607714Y-125685922D01*
X159298009Y-125995087D01*
X159130192Y-126399237D01*
X159129810Y-126836844D01*
X158986803Y-126836844D01*
X158794792Y-126372143D01*
X158359151Y-125935740D01*
X157789667Y-125699270D01*
X157173039Y-125698732D01*
X156603143Y-125934208D01*
X156166740Y-126369849D01*
X155930270Y-126939333D01*
X155929732Y-127555961D01*
X155799507Y-127555961D01*
X155811778Y-127538003D01*
X155835877Y-127419000D01*
X155835877Y-125819000D01*
X155814958Y-125707827D01*
X155749255Y-125605721D01*
X155649003Y-125537222D01*
X155530000Y-125513123D01*
X153930000Y-125513123D01*
X153818827Y-125534042D01*
X153716721Y-125599745D01*
X153648222Y-125699997D01*
X153624123Y-125819000D01*
X153624123Y-127419000D01*
X153645042Y-127530173D01*
X153710745Y-127632279D01*
X153810997Y-127700778D01*
X153930000Y-127724877D01*
X154956873Y-127724877D01*
X154914877Y-127766800D01*
X152551863Y-127766800D01*
X152383650Y-127598294D01*
X152147443Y-127500212D01*
X151891681Y-127499989D01*
X151655303Y-127597658D01*
X151474295Y-127778351D01*
X151383890Y-127996069D01*
X151294324Y-127779302D01*
X151125182Y-127609865D01*
X151125182Y-126390101D01*
X151166706Y-126348649D01*
X151264788Y-126112442D01*
X151265011Y-125856680D01*
X151167342Y-125620302D01*
X150986649Y-125439294D01*
X150750442Y-125341212D01*
X150494680Y-125340989D01*
X150258302Y-125438658D01*
X150077294Y-125619351D01*
X149979212Y-125855558D01*
X149978989Y-126111320D01*
X148750642Y-126111320D01*
X148609017Y-125694108D01*
X148309665Y-125352763D01*
X147902471Y-125151958D01*
X147449429Y-125122264D01*
X147019510Y-125268202D01*
X146710890Y-125446384D01*
X146369544Y-125745737D01*
X146168739Y-126152930D01*
X146139045Y-126605972D01*
X145935964Y-126605972D01*
X144958525Y-124913689D01*
X145188744Y-124913689D01*
X145245601Y-125087011D01*
X145570321Y-125303750D01*
X146012962Y-125404549D01*
X146460483Y-125328284D01*
X146587879Y-125184958D01*
X146120632Y-124375663D01*
X145188744Y-124913689D01*
X144958525Y-124913689D01*
X144500948Y-124121467D01*
X144887730Y-124121467D01*
X144913071Y-124511052D01*
X145034744Y-124646953D01*
X145771367Y-124221663D01*
X146387368Y-124221663D01*
X146854615Y-125030958D01*
X147042436Y-124992293D01*
X147102508Y-124919861D01*
X154106928Y-124919861D01*
X154201602Y-125068278D01*
X154620403Y-125195183D01*
X155055891Y-125152160D01*
X155258398Y-125068278D01*
X155353072Y-124919861D01*
X154730000Y-124296789D01*
X154106928Y-124919861D01*
X147102508Y-124919861D01*
X147332244Y-124642861D01*
X147466270Y-124209123D01*
X147450678Y-123969403D01*
X153613817Y-123969403D01*
X153656840Y-124404891D01*
X153740722Y-124607398D01*
X153889139Y-124702072D01*
X154512211Y-124079000D01*
X154947789Y-124079000D01*
X155570861Y-124702072D01*
X155719278Y-124607398D01*
X155846183Y-124188597D01*
X155803442Y-123755961D01*
X155929732Y-123755961D01*
X156165208Y-124325857D01*
X156600849Y-124762260D01*
X157170333Y-124998730D01*
X157786961Y-124999268D01*
X157979140Y-124919861D01*
X159606928Y-124919861D01*
X159701602Y-125068278D01*
X160120403Y-125195183D01*
X160555891Y-125152160D01*
X160758398Y-125068278D01*
X160853072Y-124919861D01*
X160230000Y-124296789D01*
X159606928Y-124919861D01*
X157979140Y-124919861D01*
X158356857Y-124763792D01*
X158793260Y-124328151D01*
X158942224Y-123969403D01*
X159113817Y-123969403D01*
X159156840Y-124404891D01*
X159240722Y-124607398D01*
X159389139Y-124702072D01*
X160012211Y-124079000D01*
X160447789Y-124079000D01*
X161070861Y-124702072D01*
X161219278Y-124607398D01*
X161346183Y-124188597D01*
X161340169Y-124127714D01*
X167620730Y-124127714D01*
X167754756Y-124561452D01*
X168044564Y-124910884D01*
X168232385Y-124949549D01*
X168699632Y-124140254D01*
X168504368Y-124027518D01*
X169120368Y-124027518D01*
X170052256Y-124565544D01*
X170173929Y-124429643D01*
X170199270Y-124040058D01*
X170065244Y-123606320D01*
X169775436Y-123256888D01*
X169587615Y-123218223D01*
X169120368Y-124027518D01*
X168504368Y-124027518D01*
X167767744Y-123602228D01*
X167646071Y-123738129D01*
X167620730Y-124127714D01*
X161340169Y-124127714D01*
X161303160Y-123753109D01*
X161219278Y-123550602D01*
X161070861Y-123455928D01*
X160447789Y-124079000D01*
X160012211Y-124079000D01*
X159389139Y-123455928D01*
X159240722Y-123550602D01*
X159113817Y-123969403D01*
X158942224Y-123969403D01*
X159029730Y-123758667D01*
X159030184Y-123238139D01*
X159606928Y-123238139D01*
X160230000Y-123861211D01*
X160755719Y-123335492D01*
X167921744Y-123335492D01*
X168853632Y-123873518D01*
X169320879Y-123064223D01*
X169193483Y-122920897D01*
X168745962Y-122844632D01*
X168303321Y-122945431D01*
X167978601Y-123162170D01*
X167921744Y-123335492D01*
X160755719Y-123335492D01*
X160853072Y-123238139D01*
X160758398Y-123089722D01*
X160339597Y-122962817D01*
X159904109Y-123005840D01*
X159701602Y-123089722D01*
X159606928Y-123238139D01*
X159030184Y-123238139D01*
X159030268Y-123142039D01*
X158794792Y-122572143D01*
X158359151Y-122135740D01*
X157789667Y-121899270D01*
X157173039Y-121898732D01*
X156603143Y-122134208D01*
X156166740Y-122569849D01*
X155930270Y-123139333D01*
X155929732Y-123755961D01*
X155803442Y-123755961D01*
X155803160Y-123753109D01*
X155719278Y-123550602D01*
X155570861Y-123455928D01*
X154947789Y-124079000D01*
X154512211Y-124079000D01*
X153889139Y-123455928D01*
X153740722Y-123550602D01*
X153613817Y-123969403D01*
X147450678Y-123969403D01*
X147440929Y-123819538D01*
X147319256Y-123683637D01*
X146387368Y-124221663D01*
X145771367Y-124221663D01*
X145966632Y-124108927D01*
X145499385Y-123299632D01*
X145311564Y-123338297D01*
X145021756Y-123687729D01*
X144887730Y-124121467D01*
X144500948Y-124121467D01*
X143394925Y-122206563D01*
X143599045Y-122206563D01*
X143744983Y-122636482D01*
X144044336Y-122977828D01*
X144451529Y-123178633D01*
X144904571Y-123208327D01*
X145334490Y-123062389D01*
X145643111Y-122884207D01*
X145984456Y-122584854D01*
X146185261Y-122177661D01*
X146214955Y-121724619D01*
X146069017Y-121294699D01*
X145995399Y-121210754D01*
X146032698Y-121195342D01*
X146213706Y-121014649D01*
X146311788Y-120778442D01*
X146312011Y-120522680D01*
X146214342Y-120286302D01*
X146172200Y-120244087D01*
X146172200Y-117178651D01*
X146286698Y-117131342D01*
X146467706Y-116950649D01*
X146562800Y-116721638D01*
X146562800Y-122022138D01*
X146394294Y-122190351D01*
X146296212Y-122426558D01*
X146295989Y-122682320D01*
X146393658Y-122918698D01*
X146418626Y-122943709D01*
X146341038Y-122926041D01*
X145893517Y-123002306D01*
X145766121Y-123145632D01*
X146233368Y-123954927D01*
X147165256Y-123416901D01*
X147108399Y-123243579D01*
X147040094Y-123197988D01*
X147066320Y-123198011D01*
X147302698Y-123100342D01*
X147345682Y-123057432D01*
X152029861Y-123057432D01*
X152151397Y-123351572D01*
X152376245Y-123576812D01*
X152670172Y-123698861D01*
X152988432Y-123699139D01*
X153282572Y-123577603D01*
X153507812Y-123352755D01*
X153555404Y-123238139D01*
X154106928Y-123238139D01*
X154730000Y-123861211D01*
X155353072Y-123238139D01*
X155258398Y-123089722D01*
X154839597Y-122962817D01*
X154404109Y-123005840D01*
X154201602Y-123089722D01*
X154106928Y-123238139D01*
X153555404Y-123238139D01*
X153629861Y-123058828D01*
X153630139Y-122740568D01*
X153508603Y-122446428D01*
X153283755Y-122221188D01*
X152989828Y-122099139D01*
X152671568Y-122098861D01*
X152377428Y-122220397D01*
X152152188Y-122445245D01*
X152030139Y-122739172D01*
X152029861Y-123057432D01*
X147345682Y-123057432D01*
X147483706Y-122919649D01*
X147581788Y-122683442D01*
X147582011Y-122427680D01*
X147484342Y-122191302D01*
X147315200Y-122021865D01*
X147315200Y-121420091D01*
X147409658Y-121648698D01*
X147590351Y-121829706D01*
X147826558Y-121927788D01*
X148082320Y-121928011D01*
X148188442Y-121884163D01*
X148192034Y-121886563D01*
X148336000Y-121915200D01*
X153915993Y-121915200D01*
X153915989Y-121920320D01*
X154013658Y-122156698D01*
X154194351Y-122337706D01*
X154430558Y-122435788D01*
X154686320Y-122436011D01*
X154922698Y-122338342D01*
X155103706Y-122157649D01*
X155201788Y-121921442D01*
X155202011Y-121665680D01*
X155104342Y-121429302D01*
X154923649Y-121248294D01*
X154687442Y-121150212D01*
X154431680Y-121149989D01*
X154369584Y-121175646D01*
X154305000Y-121162799D01*
X154304995Y-121162800D01*
X148598007Y-121162800D01*
X148598011Y-121157680D01*
X148500342Y-120921302D01*
X148319649Y-120740294D01*
X148083442Y-120642212D01*
X147827680Y-120641989D01*
X147591302Y-120739658D01*
X147410294Y-120920351D01*
X147315200Y-121149362D01*
X147315200Y-119609000D01*
X154960000Y-119609000D01*
X154960000Y-120439674D01*
X155005672Y-120549937D01*
X155090064Y-120634328D01*
X155200327Y-120680000D01*
X155981000Y-120680000D01*
X156056000Y-120605000D01*
X156056000Y-119534000D01*
X156364000Y-119534000D01*
X156364000Y-120605000D01*
X156439000Y-120680000D01*
X157219673Y-120680000D01*
X157329936Y-120634328D01*
X157414328Y-120549937D01*
X157460000Y-120439674D01*
X157460000Y-119627550D01*
X157499783Y-119627550D01*
X157689684Y-120087143D01*
X158041007Y-120439081D01*
X158500269Y-120629783D01*
X158997550Y-120630217D01*
X159457143Y-120440316D01*
X159809081Y-120088993D01*
X159999783Y-119629731D01*
X160000217Y-119132450D01*
X159977526Y-119077532D01*
X160809912Y-119077532D01*
X161022048Y-119478945D01*
X161371650Y-119768622D01*
X161592470Y-119860073D01*
X161771000Y-119822652D01*
X161771000Y-118899000D01*
X160846621Y-118899000D01*
X160809912Y-119077532D01*
X159977526Y-119077532D01*
X159810316Y-118672857D01*
X159550383Y-118412468D01*
X160809912Y-118412468D01*
X160846621Y-118591000D01*
X161771000Y-118591000D01*
X161771000Y-117667348D01*
X162079000Y-117667348D01*
X162079000Y-118591000D01*
X162099000Y-118591000D01*
X162099000Y-118899000D01*
X162079000Y-118899000D01*
X162079000Y-119822652D01*
X162257530Y-119860073D01*
X162478350Y-119768622D01*
X162827952Y-119478945D01*
X162835602Y-119464469D01*
X162840662Y-119489907D01*
X162847437Y-119523966D01*
X162915606Y-119625989D01*
X162928986Y-119646014D01*
X163441197Y-120158224D01*
X163440989Y-120396320D01*
X163538658Y-120632698D01*
X163719351Y-120813706D01*
X163955558Y-120911788D01*
X164211320Y-120912011D01*
X164447698Y-120814342D01*
X164628706Y-120633649D01*
X164726788Y-120397442D01*
X164727011Y-120141680D01*
X164629342Y-119905302D01*
X164623849Y-119899799D01*
X164910290Y-119842822D01*
X165287789Y-119590585D01*
X165320699Y-119541332D01*
X165320699Y-120642071D01*
X165226680Y-120641989D01*
X164990302Y-120739658D01*
X164809294Y-120920351D01*
X164711212Y-121156558D01*
X164710989Y-121412320D01*
X164808658Y-121648698D01*
X164989351Y-121829706D01*
X165225558Y-121927788D01*
X165481320Y-121928011D01*
X165717698Y-121830342D01*
X165898706Y-121649649D01*
X165996788Y-121413442D01*
X165997011Y-121157680D01*
X165996859Y-121157311D01*
X166044462Y-121086067D01*
X166073099Y-120942101D01*
X166073099Y-119427288D01*
X166182211Y-119590585D01*
X166559710Y-119842822D01*
X167005000Y-119931396D01*
X167450290Y-119842822D01*
X167502716Y-119807792D01*
X167509685Y-119842822D01*
X167521036Y-119899887D01*
X167592599Y-120006989D01*
X167602585Y-120021935D01*
X168947710Y-121367059D01*
X168947712Y-121367062D01*
X168962443Y-121376905D01*
X168917949Y-121507982D01*
X166994106Y-121507982D01*
X166861649Y-121375294D01*
X166625442Y-121277212D01*
X166369680Y-121276989D01*
X166133302Y-121374658D01*
X165952294Y-121555351D01*
X165854212Y-121791558D01*
X165853989Y-122047320D01*
X165951658Y-122283698D01*
X166132351Y-122464706D01*
X166368558Y-122562788D01*
X166624320Y-122563011D01*
X166860698Y-122465342D01*
X167041706Y-122284649D01*
X167051783Y-122260382D01*
X168982679Y-122260382D01*
X169102544Y-122503445D01*
X169443890Y-122802798D01*
X169752510Y-122980980D01*
X170182429Y-123126918D01*
X170635471Y-123097224D01*
X171042665Y-122896419D01*
X171342017Y-122555074D01*
X171487955Y-122125154D01*
X171458261Y-121672112D01*
X171257456Y-121264919D01*
X170916111Y-120965566D01*
X170607490Y-120787384D01*
X170177571Y-120641446D01*
X169724529Y-120671140D01*
X169547931Y-120758228D01*
X169540832Y-120753485D01*
X169516945Y-120748734D01*
X169396866Y-120724847D01*
X169396861Y-120724848D01*
X169369553Y-120724848D01*
X168242687Y-119597981D01*
X168216162Y-119464633D01*
X168202256Y-119443820D01*
X168457489Y-119443820D01*
X168555158Y-119680198D01*
X168735851Y-119861206D01*
X168972058Y-119959288D01*
X169227820Y-119959511D01*
X169464198Y-119861842D01*
X169645206Y-119681149D01*
X169743288Y-119444942D01*
X169743441Y-119269083D01*
X170738053Y-118274470D01*
X170737021Y-118275639D01*
X169873421Y-119771439D01*
X169835950Y-119878177D01*
X169841798Y-119999455D01*
X169894369Y-120108902D01*
X169985380Y-120189274D01*
X171745144Y-121205274D01*
X171851882Y-121242745D01*
X171973160Y-121236897D01*
X172082608Y-121184326D01*
X172162979Y-121093315D01*
X173026579Y-119597515D01*
X173064050Y-119490777D01*
X173058202Y-119369499D01*
X173005631Y-119260052D01*
X172914620Y-119179680D01*
X171154856Y-118163680D01*
X171048118Y-118126209D01*
X170926840Y-118132057D01*
X170837603Y-118174920D01*
X171085224Y-117927299D01*
X171323320Y-117927507D01*
X171559698Y-117829838D01*
X171740706Y-117649145D01*
X171838788Y-117412938D01*
X171839011Y-117157176D01*
X171741342Y-116920798D01*
X171560649Y-116739790D01*
X171324442Y-116641708D01*
X171068680Y-116641485D01*
X170832302Y-116739154D01*
X170651294Y-116919847D01*
X170553212Y-117156054D01*
X170553003Y-117395466D01*
X169261314Y-118687154D01*
X169228942Y-118673712D01*
X168973180Y-118673489D01*
X168736802Y-118771158D01*
X168555794Y-118951851D01*
X168457712Y-119188058D01*
X168457489Y-119443820D01*
X168202256Y-119443820D01*
X168134613Y-119342585D01*
X168134610Y-119342583D01*
X168050020Y-119257993D01*
X168080026Y-119213086D01*
X168168600Y-118767796D01*
X168168600Y-118722204D01*
X168080026Y-118276914D01*
X167827789Y-117899415D01*
X167565561Y-117724200D01*
X168000677Y-117724200D01*
X168000682Y-117724201D01*
X168120761Y-117700314D01*
X168144648Y-117695563D01*
X168266696Y-117614014D01*
X168541011Y-117339698D01*
X168541014Y-117339696D01*
X168622563Y-117217648D01*
X168651200Y-117073682D01*
X168651200Y-114046005D01*
X168651201Y-114046000D01*
X168622564Y-113902035D01*
X168560602Y-113809302D01*
X168541014Y-113779986D01*
X168541011Y-113779984D01*
X165607176Y-110846148D01*
X165665572Y-110758752D01*
X165764490Y-110261459D01*
X165764490Y-110210541D01*
X165665572Y-109713248D01*
X165383878Y-109291663D01*
X164962293Y-109009969D01*
X164465000Y-108911051D01*
X163967707Y-109009969D01*
X163546122Y-109291663D01*
X163264428Y-109713248D01*
X163165510Y-110210541D01*
X163165510Y-110261459D01*
X163264428Y-110758752D01*
X163546122Y-111180337D01*
X163967707Y-111462031D01*
X164040498Y-111476510D01*
X163405837Y-111476510D01*
X163295574Y-111522182D01*
X163211182Y-111606573D01*
X163165510Y-111716836D01*
X163165510Y-112547000D01*
X163240510Y-112622000D01*
X164311000Y-112622000D01*
X164311000Y-112602000D01*
X164619000Y-112602000D01*
X164619000Y-112622000D01*
X165689490Y-112622000D01*
X165764490Y-112547000D01*
X165764490Y-112067518D01*
X167898800Y-114201827D01*
X167898800Y-115041639D01*
X167868600Y-115035523D01*
X166141400Y-115035523D01*
X166030227Y-115056442D01*
X165928121Y-115122145D01*
X165859622Y-115222397D01*
X165835523Y-115341400D01*
X165835523Y-117068600D01*
X165856442Y-117179773D01*
X165922145Y-117281879D01*
X166022397Y-117350378D01*
X166141400Y-117374477D01*
X166192496Y-117374477D01*
X165439903Y-118127069D01*
X165287789Y-117899415D01*
X164910290Y-117647178D01*
X164465000Y-117558604D01*
X164019710Y-117647178D01*
X163642211Y-117899415D01*
X163571200Y-118005690D01*
X163571200Y-117630828D01*
X163947473Y-117254555D01*
X164019710Y-117302822D01*
X164465000Y-117391396D01*
X164910290Y-117302822D01*
X165287789Y-117050585D01*
X165540026Y-116673086D01*
X165628600Y-116227796D01*
X165628600Y-116182204D01*
X165540026Y-115736914D01*
X165287789Y-115359415D01*
X164910290Y-115107178D01*
X164465000Y-115018604D01*
X164019710Y-115107178D01*
X163642211Y-115359415D01*
X163389974Y-115736914D01*
X163301400Y-116182204D01*
X163301400Y-116227796D01*
X163389974Y-116673086D01*
X163419980Y-116717993D01*
X162928986Y-117208986D01*
X162847437Y-117331034D01*
X162847437Y-117331035D01*
X162818799Y-117475000D01*
X162818800Y-117475005D01*
X162818800Y-118003472D01*
X162478350Y-117721378D01*
X162257530Y-117629927D01*
X162079000Y-117667348D01*
X161771000Y-117667348D01*
X161592470Y-117629927D01*
X161371650Y-117721378D01*
X161022048Y-118011055D01*
X160809912Y-118412468D01*
X159550383Y-118412468D01*
X159458993Y-118320919D01*
X158999731Y-118130217D01*
X158502450Y-118129783D01*
X158042857Y-118319684D01*
X157690919Y-118671007D01*
X157500217Y-119130269D01*
X157499783Y-119627550D01*
X157460000Y-119627550D01*
X157460000Y-119609000D01*
X157385000Y-119534000D01*
X156364000Y-119534000D01*
X156056000Y-119534000D01*
X155035000Y-119534000D01*
X154960000Y-119609000D01*
X147315200Y-119609000D01*
X147315200Y-114963828D01*
X147463224Y-114815803D01*
X147701320Y-114816011D01*
X147937698Y-114718342D01*
X148118706Y-114537649D01*
X148216788Y-114301442D01*
X148217011Y-114045680D01*
X148119342Y-113809302D01*
X147975607Y-113665316D01*
X150232989Y-113665316D01*
X150330658Y-113901694D01*
X150499800Y-114071131D01*
X150499800Y-116331995D01*
X150499799Y-116332000D01*
X150521688Y-116442035D01*
X150528437Y-116475966D01*
X150590623Y-116569035D01*
X150609986Y-116598014D01*
X152773197Y-118761224D01*
X152772989Y-118999320D01*
X152870658Y-119235698D01*
X153051351Y-119416706D01*
X153287558Y-119514788D01*
X153543320Y-119515011D01*
X153779698Y-119417342D01*
X153960706Y-119236649D01*
X154058788Y-119000442D01*
X154059011Y-118744680D01*
X153961342Y-118508302D01*
X153780649Y-118327294D01*
X153763869Y-118320326D01*
X154960000Y-118320326D01*
X154960000Y-119151000D01*
X155035000Y-119226000D01*
X156056000Y-119226000D01*
X156056000Y-118155000D01*
X156364000Y-118155000D01*
X156364000Y-119226000D01*
X157385000Y-119226000D01*
X157460000Y-119151000D01*
X157460000Y-118320326D01*
X157414328Y-118210063D01*
X157329936Y-118125672D01*
X157219673Y-118080000D01*
X156439000Y-118080000D01*
X156364000Y-118155000D01*
X156056000Y-118155000D01*
X155981000Y-118080000D01*
X155200327Y-118080000D01*
X155090064Y-118125672D01*
X155005672Y-118210063D01*
X154960000Y-118320326D01*
X153763869Y-118320326D01*
X153544442Y-118229212D01*
X153305030Y-118229003D01*
X151258232Y-116182204D01*
X160761400Y-116182204D01*
X160761400Y-116227796D01*
X160849974Y-116673086D01*
X161102211Y-117050585D01*
X161479710Y-117302822D01*
X161925000Y-117391396D01*
X162370290Y-117302822D01*
X162747789Y-117050585D01*
X163000026Y-116673086D01*
X163088600Y-116227796D01*
X163088600Y-116182204D01*
X163000026Y-115736914D01*
X162747789Y-115359415D01*
X162370290Y-115107178D01*
X161925000Y-115018604D01*
X161479710Y-115107178D01*
X161102211Y-115359415D01*
X160849974Y-115736914D01*
X160761400Y-116182204D01*
X151258232Y-116182204D01*
X151252200Y-116176172D01*
X151252200Y-114070858D01*
X151276780Y-114046320D01*
X153534989Y-114046320D01*
X153632658Y-114282698D01*
X153813351Y-114463706D01*
X154049558Y-114561788D01*
X154305320Y-114562011D01*
X154541698Y-114464342D01*
X154722706Y-114283649D01*
X154820788Y-114047442D01*
X154820997Y-113808031D01*
X155603827Y-113025200D01*
X155931138Y-113025200D01*
X156099351Y-113193706D01*
X156335558Y-113291788D01*
X156591320Y-113292011D01*
X156827698Y-113194342D01*
X157008706Y-113013649D01*
X157012297Y-113005000D01*
X163165510Y-113005000D01*
X163165510Y-113835164D01*
X163211182Y-113945427D01*
X163295574Y-114029818D01*
X163405837Y-114075490D01*
X164236000Y-114075490D01*
X164311000Y-114000490D01*
X164311000Y-112930000D01*
X164619000Y-112930000D01*
X164619000Y-114000490D01*
X164694000Y-114075490D01*
X165524163Y-114075490D01*
X165634426Y-114029818D01*
X165718818Y-113945427D01*
X165764490Y-113835164D01*
X165764490Y-113005000D01*
X165689490Y-112930000D01*
X164619000Y-112930000D01*
X164311000Y-112930000D01*
X163240510Y-112930000D01*
X163165510Y-113005000D01*
X157012297Y-113005000D01*
X157106788Y-112777442D01*
X157107011Y-112521680D01*
X157009342Y-112285302D01*
X156828649Y-112104294D01*
X156592442Y-112006212D01*
X156336680Y-112005989D01*
X156100302Y-112103658D01*
X155930865Y-112272800D01*
X155448000Y-112272800D01*
X155304034Y-112301437D01*
X155181986Y-112382986D01*
X155181984Y-112382989D01*
X154288776Y-113276197D01*
X154050680Y-113275989D01*
X153814302Y-113373658D01*
X153633294Y-113554351D01*
X153535212Y-113790558D01*
X153534989Y-114046320D01*
X151276780Y-114046320D01*
X151420706Y-113902645D01*
X151518788Y-113666438D01*
X151519011Y-113410676D01*
X151421342Y-113174298D01*
X151240649Y-112993290D01*
X151004442Y-112895208D01*
X150748680Y-112894985D01*
X150512302Y-112992654D01*
X150331294Y-113173347D01*
X150233212Y-113409554D01*
X150232989Y-113665316D01*
X147975607Y-113665316D01*
X147938649Y-113628294D01*
X147702442Y-113530212D01*
X147446680Y-113529989D01*
X147210302Y-113627658D01*
X147029294Y-113808351D01*
X146931212Y-114044558D01*
X146931003Y-114283969D01*
X146672986Y-114541986D01*
X146591437Y-114664034D01*
X146591437Y-114664035D01*
X146562799Y-114808000D01*
X146562800Y-114808005D01*
X146562800Y-116450909D01*
X146468342Y-116222302D01*
X146287649Y-116041294D01*
X146051442Y-115943212D01*
X145795680Y-115942989D01*
X145559302Y-116040658D01*
X145378294Y-116221351D01*
X145280212Y-116457558D01*
X145279989Y-116713320D01*
X145377658Y-116949698D01*
X145419800Y-116991913D01*
X145419800Y-120057349D01*
X145305302Y-120104658D01*
X145124294Y-120285351D01*
X145026212Y-120521558D01*
X145026030Y-120730497D01*
X144909429Y-120722855D01*
X144479510Y-120868793D01*
X144170890Y-121046975D01*
X143829544Y-121346328D01*
X143628739Y-121753521D01*
X143599045Y-122206563D01*
X143394925Y-122206563D01*
X141868510Y-119563815D01*
X142021789Y-119563815D01*
X142060421Y-119678924D01*
X142924021Y-121174724D01*
X142997723Y-121260544D01*
X143105677Y-121316119D01*
X143226747Y-121325315D01*
X143341856Y-121286683D01*
X145101620Y-120270683D01*
X145187440Y-120196981D01*
X145243015Y-120089027D01*
X145252211Y-119967957D01*
X145213579Y-119852848D01*
X144349979Y-118357048D01*
X144276277Y-118271228D01*
X144168323Y-118215653D01*
X144047253Y-118206457D01*
X143932144Y-118245089D01*
X142172380Y-119261089D01*
X142086560Y-119334791D01*
X142030985Y-119442745D01*
X142021789Y-119563815D01*
X141868510Y-119563815D01*
X141325798Y-118624195D01*
X147489045Y-108763000D01*
X149943749Y-108763000D01*
X149847986Y-108826986D01*
M02*
