M48
INCH,TZ
T1C0.013
T2C0.039
T3C0.039
T4C0.040
T5C0.043
T6C0.039
T7C0.098
%
G90
G05
T1
X56050Y-46550
X56450Y-45900
X57000Y-45100
X57000Y-45900
X57000Y-46550
X57350Y-47500
X57450Y-45900
X57700Y-43800
X57850Y-48250
X58100Y-44950
X58150Y-44350
X58250Y-47750
X58350Y-43000
X58700Y-44600
X58900Y-49150
X59300Y-42950
X59300Y-49600
X59300Y-52150
X59350Y-50450
X59400Y-44700
X59700Y-51300
X59850Y-50450
X60000Y-49150
X60250Y-51650
X60300Y-42950
X60400Y-46800
X60700Y-44850
X60850Y-47000
X60850Y-47950
X60950Y-43000
X61200Y-50450
X61600Y-44350
X61650Y-43000
X61650Y-43750
X61650Y-49400
X62550Y-49400
X62900Y-48150
X63300Y-44650
X63300Y-43850
X63400Y-47700
X63783Y-48150
X63800Y-49050
X64050Y-43850
X64050Y-44650
X64100Y-50700
X64100Y-51550
X64200Y-47700
X64200Y-48600
X64600Y-47350
X64750Y-50050
X65100Y-47750
X65350Y-49300
X65350Y-48550
X65550Y-48000
X65600Y-43250
X65600Y-44900
X66100Y-43875
X66250Y-47700
X66575Y-46975
X66600Y-44425
X66775Y-47375
X67400Y-46175
T2
X60917Y-48850
X60917Y-49850
X63083Y-48850
X63083Y-49850
T3
X61500Y-47000
X62500Y-47000
T4
X56550Y-47152
X57050Y-48018
X57550Y-48884
X58050Y-49750
X58550Y-50616
X59050Y-51482
X61000Y-51600
X62000Y-51600
X63000Y-51600
X63750Y-45750
X63750Y-46750
X64750Y-45750
X64750Y-46750
X65000Y-51450
X65500Y-50584
X65750Y-45750
X65750Y-46750
X66000Y-49718
X66500Y-48852
X67000Y-47986
X67500Y-47120
T5
X64750Y-43400
X64750Y-44400
T6
X60169Y-48385
T7
X62000Y-48602
X62000Y-50098
T0
M30
