G04 #@! TF.FileFunction,Legend,Bot*
%FSLAX46Y46*%
G04 Gerber Fmt 4.6, Leading zero omitted, Abs format (unit mm)*
G04 Created by KiCad (PCBNEW 4.0.2-stable) date Thursday, September 29, 2016 'amt' 01:44:10 am*
%MOMM*%
G01*
G04 APERTURE LIST*
%ADD10C,0.100000*%
%ADD11C,0.150000*%
%ADD12C,0.200000*%
%ADD13C,0.010000*%
%ADD14C,2.127200*%
%ADD15O,2.398980X2.398980*%
%ADD16R,2.398980X2.398980*%
%ADD17R,2.000000X2.000000*%
%ADD18C,2.000000*%
%ADD19R,2.127200X2.127200*%
%ADD20O,2.127200X2.127200*%
%ADD21C,1.797000*%
%ADD22R,2.300000X2.400000*%
%ADD23C,2.300000*%
%ADD24R,2.127200X2.432000*%
%ADD25O,2.127200X2.432000*%
G04 APERTURE END LIST*
D10*
D11*
X156963858Y-110434381D02*
X156963858Y-109767714D01*
X156963858Y-109958190D02*
X156916239Y-109862952D01*
X156868620Y-109815333D01*
X156773382Y-109767714D01*
X156678143Y-109767714D01*
X156440048Y-110434381D02*
X155916238Y-109767714D01*
X156440048Y-109767714D02*
X155916238Y-110434381D01*
X155297191Y-110767714D02*
X155297191Y-109339143D01*
X154725762Y-109767714D02*
X154344810Y-109767714D01*
X154582905Y-109434381D02*
X154582905Y-110291524D01*
X154535286Y-110386762D01*
X154440048Y-110434381D01*
X154344810Y-110434381D01*
X154106714Y-110434381D02*
X153582904Y-109767714D01*
X154106714Y-109767714D02*
X153582904Y-110434381D01*
X152622333Y-118136714D02*
X152622333Y-118946238D01*
X152669952Y-119041476D01*
X152717571Y-119089095D01*
X152812810Y-119136714D01*
X152955667Y-119136714D01*
X153050905Y-119089095D01*
X152622333Y-118755762D02*
X152717571Y-118803381D01*
X152908048Y-118803381D01*
X153003286Y-118755762D01*
X153050905Y-118708143D01*
X153098524Y-118612905D01*
X153098524Y-118327190D01*
X153050905Y-118231952D01*
X153003286Y-118184333D01*
X152908048Y-118136714D01*
X152717571Y-118136714D01*
X152622333Y-118184333D01*
X151765190Y-118755762D02*
X151860428Y-118803381D01*
X152050905Y-118803381D01*
X152146143Y-118755762D01*
X152193762Y-118660524D01*
X152193762Y-118279571D01*
X152146143Y-118184333D01*
X152050905Y-118136714D01*
X151860428Y-118136714D01*
X151765190Y-118184333D01*
X151717571Y-118279571D01*
X151717571Y-118374810D01*
X152193762Y-118470048D01*
X151146143Y-118803381D02*
X151241381Y-118755762D01*
X151289000Y-118708143D01*
X151336619Y-118612905D01*
X151336619Y-118327190D01*
X151289000Y-118231952D01*
X151241381Y-118184333D01*
X151146143Y-118136714D01*
X151003285Y-118136714D01*
X150908047Y-118184333D01*
X150860428Y-118231952D01*
X150812809Y-118327190D01*
X150812809Y-118612905D01*
X150860428Y-118708143D01*
X150908047Y-118755762D01*
X151003285Y-118803381D01*
X151146143Y-118803381D01*
X149955666Y-118803381D02*
X149955666Y-117803381D01*
X149955666Y-118755762D02*
X150050904Y-118803381D01*
X150241381Y-118803381D01*
X150336619Y-118755762D01*
X150384238Y-118708143D01*
X150431857Y-118612905D01*
X150431857Y-118327190D01*
X150384238Y-118231952D01*
X150336619Y-118184333D01*
X150241381Y-118136714D01*
X150050904Y-118136714D01*
X149955666Y-118184333D01*
X149336619Y-118803381D02*
X149431857Y-118755762D01*
X149479476Y-118708143D01*
X149527095Y-118612905D01*
X149527095Y-118327190D01*
X149479476Y-118231952D01*
X149431857Y-118184333D01*
X149336619Y-118136714D01*
X149193761Y-118136714D01*
X149098523Y-118184333D01*
X149050904Y-118231952D01*
X149003285Y-118327190D01*
X149003285Y-118612905D01*
X149050904Y-118708143D01*
X149098523Y-118755762D01*
X149193761Y-118803381D01*
X149336619Y-118803381D01*
X148574714Y-118803381D02*
X148574714Y-118136714D01*
X148574714Y-118231952D02*
X148527095Y-118184333D01*
X148431857Y-118136714D01*
X148288999Y-118136714D01*
X148193761Y-118184333D01*
X148146142Y-118279571D01*
X148146142Y-118803381D01*
X148146142Y-118279571D02*
X148098523Y-118184333D01*
X148003285Y-118136714D01*
X147860428Y-118136714D01*
X147765190Y-118184333D01*
X147717571Y-118279571D01*
X147717571Y-118803381D01*
X146860428Y-118755762D02*
X146955666Y-118803381D01*
X147146143Y-118803381D01*
X147241381Y-118755762D01*
X147289000Y-118660524D01*
X147289000Y-118279571D01*
X147241381Y-118184333D01*
X147146143Y-118136714D01*
X146955666Y-118136714D01*
X146860428Y-118184333D01*
X146812809Y-118279571D01*
X146812809Y-118374810D01*
X147289000Y-118470048D01*
X153050905Y-120353381D02*
X153050905Y-119686714D01*
X153050905Y-119877190D02*
X153003286Y-119781952D01*
X152955667Y-119734333D01*
X152860429Y-119686714D01*
X152765190Y-119686714D01*
X152050904Y-120305762D02*
X152146142Y-120353381D01*
X152336619Y-120353381D01*
X152431857Y-120305762D01*
X152479476Y-120210524D01*
X152479476Y-119829571D01*
X152431857Y-119734333D01*
X152336619Y-119686714D01*
X152146142Y-119686714D01*
X152050904Y-119734333D01*
X152003285Y-119829571D01*
X152003285Y-119924810D01*
X152479476Y-120020048D01*
X151669952Y-119686714D02*
X151431857Y-120353381D01*
X151193761Y-119686714D01*
X150098523Y-119448619D02*
X150050904Y-119401000D01*
X149955666Y-119353381D01*
X149717570Y-119353381D01*
X149622332Y-119401000D01*
X149574713Y-119448619D01*
X149527094Y-119543857D01*
X149527094Y-119639095D01*
X149574713Y-119781952D01*
X150146142Y-120353381D01*
X149527094Y-120353381D01*
X149098523Y-120258143D02*
X149050904Y-120305762D01*
X149098523Y-120353381D01*
X149146142Y-120305762D01*
X149098523Y-120258143D01*
X149098523Y-120353381D01*
X148431857Y-119353381D02*
X148336618Y-119353381D01*
X148241380Y-119401000D01*
X148193761Y-119448619D01*
X148146142Y-119543857D01*
X148098523Y-119734333D01*
X148098523Y-119972429D01*
X148146142Y-120162905D01*
X148193761Y-120258143D01*
X148241380Y-120305762D01*
X148336618Y-120353381D01*
X148431857Y-120353381D01*
X148527095Y-120305762D01*
X148574714Y-120258143D01*
X148622333Y-120162905D01*
X148669952Y-119972429D01*
X148669952Y-119734333D01*
X148622333Y-119543857D01*
X148574714Y-119448619D01*
X148527095Y-119401000D01*
X148431857Y-119353381D01*
D12*
X152380000Y-128249000D02*
X156180000Y-128249000D01*
X158880000Y-128249000D02*
X160880000Y-128249000D01*
X160880000Y-122449000D02*
X158880000Y-122449000D01*
X156180000Y-122449000D02*
X153780000Y-122449000D01*
X152380000Y-123649000D02*
X152380000Y-128249000D01*
X160880000Y-128249000D02*
X162580000Y-126549000D01*
X162580000Y-126549000D02*
X162580000Y-124149000D01*
X162580000Y-124149000D02*
X160880000Y-122449000D01*
D11*
X152019000Y-109220000D02*
X149479000Y-109220000D01*
X152019000Y-111252000D02*
X149479000Y-111252000D01*
X152019000Y-109220000D02*
G75*
G02X153035000Y-110236000I0J-1016000D01*
G01*
X153035000Y-110236000D02*
G75*
G02X152019000Y-111252000I-1016000J0D01*
G01*
X148463000Y-110236000D02*
G75*
G02X149479000Y-109220000I1016000J0D01*
G01*
X149479000Y-111252000D02*
G75*
G02X148463000Y-110236000I0J1016000D01*
G01*
X154995112Y-117855096D02*
G75*
G02X154980000Y-120880000I2484888J-1524904D01*
G01*
X154980000Y-117880000D02*
X154980000Y-120880000D01*
X159997936Y-119380000D02*
G75*
G03X159997936Y-119380000I-2517936J0D01*
G01*
D13*
G36*
X159250489Y-111252740D02*
X159198771Y-111253890D01*
X159148284Y-111255741D01*
X159100911Y-111258254D01*
X159058532Y-111261388D01*
X159028259Y-111264461D01*
X158892286Y-111284773D01*
X158758961Y-111312979D01*
X158628556Y-111348921D01*
X158501346Y-111392445D01*
X158377606Y-111443393D01*
X158257608Y-111501611D01*
X158141627Y-111566942D01*
X158029937Y-111639229D01*
X157922812Y-111718318D01*
X157820526Y-111804052D01*
X157723354Y-111896275D01*
X157631568Y-111994831D01*
X157545443Y-112099564D01*
X157533179Y-112115600D01*
X157454311Y-112226615D01*
X157382888Y-112341479D01*
X157318990Y-112459862D01*
X157262698Y-112581433D01*
X157214095Y-112705862D01*
X157173260Y-112832819D01*
X157140275Y-112961974D01*
X157115220Y-113092997D01*
X157098178Y-113225557D01*
X157089228Y-113359324D01*
X157088452Y-113493969D01*
X157095931Y-113629160D01*
X157111746Y-113764568D01*
X157118274Y-113806057D01*
X157144627Y-113938445D01*
X157178997Y-114068400D01*
X157221208Y-114195607D01*
X157271078Y-114319751D01*
X157328429Y-114440515D01*
X157393081Y-114557584D01*
X157464855Y-114670640D01*
X157543572Y-114779370D01*
X157629053Y-114883455D01*
X157721117Y-114982581D01*
X157819586Y-115076432D01*
X157858884Y-115110850D01*
X157875417Y-115124604D01*
X157896675Y-115141711D01*
X157920557Y-115160513D01*
X157944963Y-115179352D01*
X157960484Y-115191108D01*
X158072566Y-115270178D01*
X158187729Y-115341408D01*
X158306079Y-115404838D01*
X158427719Y-115460512D01*
X158552757Y-115508470D01*
X158681295Y-115548754D01*
X158813441Y-115581406D01*
X158949299Y-115606467D01*
X159042539Y-115619042D01*
X159063221Y-115620886D01*
X159090974Y-115622549D01*
X159124403Y-115624011D01*
X159162115Y-115625252D01*
X159202714Y-115626253D01*
X159244807Y-115626995D01*
X159286999Y-115627458D01*
X159327896Y-115627623D01*
X159366104Y-115627471D01*
X159400228Y-115626982D01*
X159428874Y-115626137D01*
X159450647Y-115624916D01*
X159452733Y-115624743D01*
X159591105Y-115608641D01*
X159726680Y-115584602D01*
X159859304Y-115552692D01*
X159988821Y-115512976D01*
X160115078Y-115465519D01*
X160237918Y-115410385D01*
X160357187Y-115347639D01*
X160472731Y-115277346D01*
X160584393Y-115199571D01*
X160692020Y-115114379D01*
X160711274Y-115097984D01*
X160739576Y-115072803D01*
X160771349Y-115043148D01*
X160805147Y-115010477D01*
X160839521Y-114976250D01*
X160873025Y-114941925D01*
X160904211Y-114908961D01*
X160931631Y-114878815D01*
X160950741Y-114856683D01*
X161036959Y-114747125D01*
X161115377Y-114634278D01*
X161185996Y-114518133D01*
X161248822Y-114398680D01*
X161303859Y-114275911D01*
X161351109Y-114149817D01*
X161390576Y-114020390D01*
X161422265Y-113887620D01*
X161446179Y-113751498D01*
X161457829Y-113658650D01*
X161460809Y-113623356D01*
X161463104Y-113581363D01*
X161464714Y-113534411D01*
X161465353Y-113499752D01*
X160488541Y-113499752D01*
X160487630Y-113553155D01*
X160479625Y-113606244D01*
X160464452Y-113658311D01*
X160442039Y-113708649D01*
X160412314Y-113756551D01*
X160375202Y-113801309D01*
X160367455Y-113809255D01*
X160322019Y-113848812D01*
X160271945Y-113881304D01*
X160217426Y-113906617D01*
X160178750Y-113919436D01*
X160171312Y-113921478D01*
X160164104Y-113923212D01*
X160156382Y-113924670D01*
X160147403Y-113925882D01*
X160136424Y-113926878D01*
X160122701Y-113927688D01*
X160105491Y-113928342D01*
X160084051Y-113928871D01*
X160057636Y-113929305D01*
X160025505Y-113929673D01*
X159986913Y-113930007D01*
X159941116Y-113930336D01*
X159904469Y-113930579D01*
X159664055Y-113932150D01*
X159664570Y-114161583D01*
X159664662Y-114215238D01*
X159664641Y-114261215D01*
X159664449Y-114300303D01*
X159664030Y-114333292D01*
X159663327Y-114360969D01*
X159662282Y-114384125D01*
X159660839Y-114403548D01*
X159658940Y-114420026D01*
X159656529Y-114434349D01*
X159653549Y-114447306D01*
X159649943Y-114459685D01*
X159645653Y-114472276D01*
X159641263Y-114484169D01*
X159616888Y-114537352D01*
X159585793Y-114586078D01*
X159548657Y-114629784D01*
X159506162Y-114667913D01*
X159458989Y-114699903D01*
X159407819Y-114725194D01*
X159353333Y-114743226D01*
X159317267Y-114750662D01*
X159284685Y-114754958D01*
X159256060Y-114756448D01*
X159227416Y-114755143D01*
X159194779Y-114751056D01*
X159194500Y-114751013D01*
X159138034Y-114738298D01*
X159084550Y-114718162D01*
X159034708Y-114691194D01*
X158989169Y-114657979D01*
X158948593Y-114619107D01*
X158913642Y-114575163D01*
X158884975Y-114526735D01*
X158863254Y-114474410D01*
X158856029Y-114450157D01*
X158852340Y-114435140D01*
X158849212Y-114419836D01*
X158846602Y-114403423D01*
X158844463Y-114385080D01*
X158842753Y-114363985D01*
X158841425Y-114339316D01*
X158840436Y-114310254D01*
X158839741Y-114275976D01*
X158839295Y-114235660D01*
X158839054Y-114188486D01*
X158838974Y-114136153D01*
X158838900Y-113932090D01*
X158598658Y-113930695D01*
X158547437Y-113930389D01*
X158503940Y-113930096D01*
X158467422Y-113929785D01*
X158437142Y-113929426D01*
X158412355Y-113928989D01*
X158392319Y-113928444D01*
X158376291Y-113927761D01*
X158363526Y-113926910D01*
X158353283Y-113925862D01*
X158344818Y-113924585D01*
X158337388Y-113923051D01*
X158330250Y-113921228D01*
X158324550Y-113919629D01*
X158268562Y-113899560D01*
X158217216Y-113873001D01*
X158170869Y-113840583D01*
X158129876Y-113802932D01*
X158094595Y-113760678D01*
X158065383Y-113714448D01*
X158042596Y-113664872D01*
X158026590Y-113612577D01*
X158017723Y-113558192D01*
X158016350Y-113502345D01*
X158022830Y-113445665D01*
X158032469Y-113404996D01*
X158051863Y-113352788D01*
X158078756Y-113302917D01*
X158112246Y-113256650D01*
X158151433Y-113215251D01*
X158189712Y-113183998D01*
X158218299Y-113165921D01*
X158252086Y-113148401D01*
X158287858Y-113132919D01*
X158322399Y-113120953D01*
X158333271Y-113117953D01*
X158371117Y-113108316D01*
X159249533Y-113108316D01*
X159351176Y-113108319D01*
X159444705Y-113108328D01*
X159530471Y-113108346D01*
X159608827Y-113108377D01*
X159680126Y-113108424D01*
X159744720Y-113108489D01*
X159802961Y-113108576D01*
X159855200Y-113108688D01*
X159901792Y-113108827D01*
X159943087Y-113108998D01*
X159979439Y-113109202D01*
X160011199Y-113109444D01*
X160038720Y-113109725D01*
X160062353Y-113110050D01*
X160082452Y-113110420D01*
X160099369Y-113110840D01*
X160113455Y-113111311D01*
X160125063Y-113111838D01*
X160134546Y-113112423D01*
X160142256Y-113113070D01*
X160148544Y-113113781D01*
X160153764Y-113114559D01*
X160158267Y-113115407D01*
X160161817Y-113116191D01*
X160216198Y-113132720D01*
X160268096Y-113156108D01*
X160302374Y-113176499D01*
X160349090Y-113212310D01*
X160389220Y-113252756D01*
X160422692Y-113297128D01*
X160449432Y-113344721D01*
X160469369Y-113394828D01*
X160482430Y-113446740D01*
X160488541Y-113499752D01*
X161465353Y-113499752D01*
X161465639Y-113484242D01*
X161465879Y-113432594D01*
X161465433Y-113381209D01*
X161464301Y-113331826D01*
X161462484Y-113286186D01*
X161459981Y-113246029D01*
X161457873Y-113222617D01*
X161439797Y-113087315D01*
X161414416Y-112956009D01*
X161381572Y-112828152D01*
X161341104Y-112703194D01*
X161292852Y-112580589D01*
X161278898Y-112550591D01*
X159665150Y-112550591D01*
X159660787Y-112600077D01*
X159651393Y-112647311D01*
X159645171Y-112668268D01*
X159623144Y-112721039D01*
X159593786Y-112770216D01*
X159557728Y-112815084D01*
X159515601Y-112854926D01*
X159468037Y-112889026D01*
X159433683Y-112908183D01*
X159398749Y-112924164D01*
X159366018Y-112935648D01*
X159333089Y-112943137D01*
X159297563Y-112947129D01*
X159257040Y-112948127D01*
X159243183Y-112947909D01*
X159216000Y-112947056D01*
X159194971Y-112945752D01*
X159177786Y-112943705D01*
X159162135Y-112940627D01*
X159145708Y-112936227D01*
X159142480Y-112935269D01*
X159086325Y-112914247D01*
X159034778Y-112886525D01*
X158988299Y-112852650D01*
X158947346Y-112813170D01*
X158912376Y-112768632D01*
X158883848Y-112719583D01*
X158862221Y-112666572D01*
X158847953Y-112610145D01*
X158843433Y-112578092D01*
X158841638Y-112520815D01*
X158847820Y-112465002D01*
X158861529Y-112411273D01*
X158882318Y-112360246D01*
X158909738Y-112312541D01*
X158943341Y-112268775D01*
X158982678Y-112229569D01*
X159027302Y-112195542D01*
X159076764Y-112167311D01*
X159130616Y-112145497D01*
X159163567Y-112136058D01*
X159201879Y-112129396D01*
X159244323Y-112126614D01*
X159287504Y-112127710D01*
X159328030Y-112132684D01*
X159343966Y-112136058D01*
X159400635Y-112154083D01*
X159453351Y-112179149D01*
X159501562Y-112210691D01*
X159544716Y-112248146D01*
X159582261Y-112290951D01*
X159613645Y-112338544D01*
X159638314Y-112390360D01*
X159655718Y-112445837D01*
X159658082Y-112456383D01*
X159664307Y-112501733D01*
X159665150Y-112550591D01*
X161278898Y-112550591D01*
X161236656Y-112459787D01*
X161232808Y-112452150D01*
X161188133Y-112367772D01*
X161141934Y-112288577D01*
X161092848Y-112212490D01*
X161039512Y-112137442D01*
X160980563Y-112061360D01*
X160955735Y-112030933D01*
X160936911Y-112009085D01*
X160913139Y-111982927D01*
X160885630Y-111953677D01*
X160855597Y-111922555D01*
X160824252Y-111890782D01*
X160792808Y-111859576D01*
X160762477Y-111830157D01*
X160734472Y-111803746D01*
X160710004Y-111781561D01*
X160695217Y-111768854D01*
X160584670Y-111682227D01*
X160470954Y-111603435D01*
X160354118Y-111532499D01*
X160234212Y-111469439D01*
X160111282Y-111414273D01*
X159985380Y-111367023D01*
X159856552Y-111327708D01*
X159724848Y-111296347D01*
X159590317Y-111272960D01*
X159453008Y-111257568D01*
X159432074Y-111255943D01*
X159394233Y-111253892D01*
X159350101Y-111252702D01*
X159301560Y-111252331D01*
X159250489Y-111252740D01*
X159250489Y-111252740D01*
G37*
X159250489Y-111252740D02*
X159198771Y-111253890D01*
X159148284Y-111255741D01*
X159100911Y-111258254D01*
X159058532Y-111261388D01*
X159028259Y-111264461D01*
X158892286Y-111284773D01*
X158758961Y-111312979D01*
X158628556Y-111348921D01*
X158501346Y-111392445D01*
X158377606Y-111443393D01*
X158257608Y-111501611D01*
X158141627Y-111566942D01*
X158029937Y-111639229D01*
X157922812Y-111718318D01*
X157820526Y-111804052D01*
X157723354Y-111896275D01*
X157631568Y-111994831D01*
X157545443Y-112099564D01*
X157533179Y-112115600D01*
X157454311Y-112226615D01*
X157382888Y-112341479D01*
X157318990Y-112459862D01*
X157262698Y-112581433D01*
X157214095Y-112705862D01*
X157173260Y-112832819D01*
X157140275Y-112961974D01*
X157115220Y-113092997D01*
X157098178Y-113225557D01*
X157089228Y-113359324D01*
X157088452Y-113493969D01*
X157095931Y-113629160D01*
X157111746Y-113764568D01*
X157118274Y-113806057D01*
X157144627Y-113938445D01*
X157178997Y-114068400D01*
X157221208Y-114195607D01*
X157271078Y-114319751D01*
X157328429Y-114440515D01*
X157393081Y-114557584D01*
X157464855Y-114670640D01*
X157543572Y-114779370D01*
X157629053Y-114883455D01*
X157721117Y-114982581D01*
X157819586Y-115076432D01*
X157858884Y-115110850D01*
X157875417Y-115124604D01*
X157896675Y-115141711D01*
X157920557Y-115160513D01*
X157944963Y-115179352D01*
X157960484Y-115191108D01*
X158072566Y-115270178D01*
X158187729Y-115341408D01*
X158306079Y-115404838D01*
X158427719Y-115460512D01*
X158552757Y-115508470D01*
X158681295Y-115548754D01*
X158813441Y-115581406D01*
X158949299Y-115606467D01*
X159042539Y-115619042D01*
X159063221Y-115620886D01*
X159090974Y-115622549D01*
X159124403Y-115624011D01*
X159162115Y-115625252D01*
X159202714Y-115626253D01*
X159244807Y-115626995D01*
X159286999Y-115627458D01*
X159327896Y-115627623D01*
X159366104Y-115627471D01*
X159400228Y-115626982D01*
X159428874Y-115626137D01*
X159450647Y-115624916D01*
X159452733Y-115624743D01*
X159591105Y-115608641D01*
X159726680Y-115584602D01*
X159859304Y-115552692D01*
X159988821Y-115512976D01*
X160115078Y-115465519D01*
X160237918Y-115410385D01*
X160357187Y-115347639D01*
X160472731Y-115277346D01*
X160584393Y-115199571D01*
X160692020Y-115114379D01*
X160711274Y-115097984D01*
X160739576Y-115072803D01*
X160771349Y-115043148D01*
X160805147Y-115010477D01*
X160839521Y-114976250D01*
X160873025Y-114941925D01*
X160904211Y-114908961D01*
X160931631Y-114878815D01*
X160950741Y-114856683D01*
X161036959Y-114747125D01*
X161115377Y-114634278D01*
X161185996Y-114518133D01*
X161248822Y-114398680D01*
X161303859Y-114275911D01*
X161351109Y-114149817D01*
X161390576Y-114020390D01*
X161422265Y-113887620D01*
X161446179Y-113751498D01*
X161457829Y-113658650D01*
X161460809Y-113623356D01*
X161463104Y-113581363D01*
X161464714Y-113534411D01*
X161465353Y-113499752D01*
X160488541Y-113499752D01*
X160487630Y-113553155D01*
X160479625Y-113606244D01*
X160464452Y-113658311D01*
X160442039Y-113708649D01*
X160412314Y-113756551D01*
X160375202Y-113801309D01*
X160367455Y-113809255D01*
X160322019Y-113848812D01*
X160271945Y-113881304D01*
X160217426Y-113906617D01*
X160178750Y-113919436D01*
X160171312Y-113921478D01*
X160164104Y-113923212D01*
X160156382Y-113924670D01*
X160147403Y-113925882D01*
X160136424Y-113926878D01*
X160122701Y-113927688D01*
X160105491Y-113928342D01*
X160084051Y-113928871D01*
X160057636Y-113929305D01*
X160025505Y-113929673D01*
X159986913Y-113930007D01*
X159941116Y-113930336D01*
X159904469Y-113930579D01*
X159664055Y-113932150D01*
X159664570Y-114161583D01*
X159664662Y-114215238D01*
X159664641Y-114261215D01*
X159664449Y-114300303D01*
X159664030Y-114333292D01*
X159663327Y-114360969D01*
X159662282Y-114384125D01*
X159660839Y-114403548D01*
X159658940Y-114420026D01*
X159656529Y-114434349D01*
X159653549Y-114447306D01*
X159649943Y-114459685D01*
X159645653Y-114472276D01*
X159641263Y-114484169D01*
X159616888Y-114537352D01*
X159585793Y-114586078D01*
X159548657Y-114629784D01*
X159506162Y-114667913D01*
X159458989Y-114699903D01*
X159407819Y-114725194D01*
X159353333Y-114743226D01*
X159317267Y-114750662D01*
X159284685Y-114754958D01*
X159256060Y-114756448D01*
X159227416Y-114755143D01*
X159194779Y-114751056D01*
X159194500Y-114751013D01*
X159138034Y-114738298D01*
X159084550Y-114718162D01*
X159034708Y-114691194D01*
X158989169Y-114657979D01*
X158948593Y-114619107D01*
X158913642Y-114575163D01*
X158884975Y-114526735D01*
X158863254Y-114474410D01*
X158856029Y-114450157D01*
X158852340Y-114435140D01*
X158849212Y-114419836D01*
X158846602Y-114403423D01*
X158844463Y-114385080D01*
X158842753Y-114363985D01*
X158841425Y-114339316D01*
X158840436Y-114310254D01*
X158839741Y-114275976D01*
X158839295Y-114235660D01*
X158839054Y-114188486D01*
X158838974Y-114136153D01*
X158838900Y-113932090D01*
X158598658Y-113930695D01*
X158547437Y-113930389D01*
X158503940Y-113930096D01*
X158467422Y-113929785D01*
X158437142Y-113929426D01*
X158412355Y-113928989D01*
X158392319Y-113928444D01*
X158376291Y-113927761D01*
X158363526Y-113926910D01*
X158353283Y-113925862D01*
X158344818Y-113924585D01*
X158337388Y-113923051D01*
X158330250Y-113921228D01*
X158324550Y-113919629D01*
X158268562Y-113899560D01*
X158217216Y-113873001D01*
X158170869Y-113840583D01*
X158129876Y-113802932D01*
X158094595Y-113760678D01*
X158065383Y-113714448D01*
X158042596Y-113664872D01*
X158026590Y-113612577D01*
X158017723Y-113558192D01*
X158016350Y-113502345D01*
X158022830Y-113445665D01*
X158032469Y-113404996D01*
X158051863Y-113352788D01*
X158078756Y-113302917D01*
X158112246Y-113256650D01*
X158151433Y-113215251D01*
X158189712Y-113183998D01*
X158218299Y-113165921D01*
X158252086Y-113148401D01*
X158287858Y-113132919D01*
X158322399Y-113120953D01*
X158333271Y-113117953D01*
X158371117Y-113108316D01*
X159249533Y-113108316D01*
X159351176Y-113108319D01*
X159444705Y-113108328D01*
X159530471Y-113108346D01*
X159608827Y-113108377D01*
X159680126Y-113108424D01*
X159744720Y-113108489D01*
X159802961Y-113108576D01*
X159855200Y-113108688D01*
X159901792Y-113108827D01*
X159943087Y-113108998D01*
X159979439Y-113109202D01*
X160011199Y-113109444D01*
X160038720Y-113109725D01*
X160062353Y-113110050D01*
X160082452Y-113110420D01*
X160099369Y-113110840D01*
X160113455Y-113111311D01*
X160125063Y-113111838D01*
X160134546Y-113112423D01*
X160142256Y-113113070D01*
X160148544Y-113113781D01*
X160153764Y-113114559D01*
X160158267Y-113115407D01*
X160161817Y-113116191D01*
X160216198Y-113132720D01*
X160268096Y-113156108D01*
X160302374Y-113176499D01*
X160349090Y-113212310D01*
X160389220Y-113252756D01*
X160422692Y-113297128D01*
X160449432Y-113344721D01*
X160469369Y-113394828D01*
X160482430Y-113446740D01*
X160488541Y-113499752D01*
X161465353Y-113499752D01*
X161465639Y-113484242D01*
X161465879Y-113432594D01*
X161465433Y-113381209D01*
X161464301Y-113331826D01*
X161462484Y-113286186D01*
X161459981Y-113246029D01*
X161457873Y-113222617D01*
X161439797Y-113087315D01*
X161414416Y-112956009D01*
X161381572Y-112828152D01*
X161341104Y-112703194D01*
X161292852Y-112580589D01*
X161278898Y-112550591D01*
X159665150Y-112550591D01*
X159660787Y-112600077D01*
X159651393Y-112647311D01*
X159645171Y-112668268D01*
X159623144Y-112721039D01*
X159593786Y-112770216D01*
X159557728Y-112815084D01*
X159515601Y-112854926D01*
X159468037Y-112889026D01*
X159433683Y-112908183D01*
X159398749Y-112924164D01*
X159366018Y-112935648D01*
X159333089Y-112943137D01*
X159297563Y-112947129D01*
X159257040Y-112948127D01*
X159243183Y-112947909D01*
X159216000Y-112947056D01*
X159194971Y-112945752D01*
X159177786Y-112943705D01*
X159162135Y-112940627D01*
X159145708Y-112936227D01*
X159142480Y-112935269D01*
X159086325Y-112914247D01*
X159034778Y-112886525D01*
X158988299Y-112852650D01*
X158947346Y-112813170D01*
X158912376Y-112768632D01*
X158883848Y-112719583D01*
X158862221Y-112666572D01*
X158847953Y-112610145D01*
X158843433Y-112578092D01*
X158841638Y-112520815D01*
X158847820Y-112465002D01*
X158861529Y-112411273D01*
X158882318Y-112360246D01*
X158909738Y-112312541D01*
X158943341Y-112268775D01*
X158982678Y-112229569D01*
X159027302Y-112195542D01*
X159076764Y-112167311D01*
X159130616Y-112145497D01*
X159163567Y-112136058D01*
X159201879Y-112129396D01*
X159244323Y-112126614D01*
X159287504Y-112127710D01*
X159328030Y-112132684D01*
X159343966Y-112136058D01*
X159400635Y-112154083D01*
X159453351Y-112179149D01*
X159501562Y-112210691D01*
X159544716Y-112248146D01*
X159582261Y-112290951D01*
X159613645Y-112338544D01*
X159638314Y-112390360D01*
X159655718Y-112445837D01*
X159658082Y-112456383D01*
X159664307Y-112501733D01*
X159665150Y-112550591D01*
X161278898Y-112550591D01*
X161236656Y-112459787D01*
X161232808Y-112452150D01*
X161188133Y-112367772D01*
X161141934Y-112288577D01*
X161092848Y-112212490D01*
X161039512Y-112137442D01*
X160980563Y-112061360D01*
X160955735Y-112030933D01*
X160936911Y-112009085D01*
X160913139Y-111982927D01*
X160885630Y-111953677D01*
X160855597Y-111922555D01*
X160824252Y-111890782D01*
X160792808Y-111859576D01*
X160762477Y-111830157D01*
X160734472Y-111803746D01*
X160710004Y-111781561D01*
X160695217Y-111768854D01*
X160584670Y-111682227D01*
X160470954Y-111603435D01*
X160354118Y-111532499D01*
X160234212Y-111469439D01*
X160111282Y-111414273D01*
X159985380Y-111367023D01*
X159856552Y-111327708D01*
X159724848Y-111296347D01*
X159590317Y-111272960D01*
X159453008Y-111257568D01*
X159432074Y-111255943D01*
X159394233Y-111253892D01*
X159350101Y-111252702D01*
X159301560Y-111252331D01*
X159250489Y-111252740D01*
G36*
X149779844Y-113575236D02*
X149713465Y-113582925D01*
X149691829Y-113586947D01*
X149649885Y-113597350D01*
X149608905Y-113610950D01*
X149570032Y-113627134D01*
X149534410Y-113645288D01*
X149503180Y-113664798D01*
X149477485Y-113685049D01*
X149458470Y-113705428D01*
X149451483Y-113716083D01*
X149444820Y-113729256D01*
X149440977Y-113740854D01*
X149439213Y-113754200D01*
X149438784Y-113772618D01*
X149438783Y-113772950D01*
X149439201Y-113791489D01*
X149440941Y-113804884D01*
X149444737Y-113816438D01*
X149451322Y-113829454D01*
X149451324Y-113829456D01*
X149469173Y-113853558D01*
X149492148Y-113871033D01*
X149519814Y-113881639D01*
X149551066Y-113885133D01*
X149568159Y-113884287D01*
X149583870Y-113881263D01*
X149600088Y-113875331D01*
X149618699Y-113865764D01*
X149641593Y-113851833D01*
X149647995Y-113847720D01*
X149695705Y-113821262D01*
X149744216Y-113802732D01*
X149792882Y-113791968D01*
X149841055Y-113788811D01*
X149888086Y-113793099D01*
X149933328Y-113804671D01*
X149976133Y-113823365D01*
X150015853Y-113849021D01*
X150051841Y-113881478D01*
X150083448Y-113920574D01*
X150108012Y-113962091D01*
X150126791Y-114008404D01*
X150138612Y-114058175D01*
X150143428Y-114109968D01*
X150141192Y-114162351D01*
X150131856Y-114213887D01*
X150117749Y-114257353D01*
X150095225Y-114302819D01*
X150066091Y-114343827D01*
X150031162Y-114379600D01*
X149991255Y-114409359D01*
X149947187Y-114432326D01*
X149925617Y-114440438D01*
X149912611Y-114444409D01*
X149900248Y-114447162D01*
X149886511Y-114448910D01*
X149869384Y-114449867D01*
X149846848Y-114450244D01*
X149832483Y-114450283D01*
X149806163Y-114450109D01*
X149786218Y-114449443D01*
X149770564Y-114448066D01*
X149757114Y-114445760D01*
X149743781Y-114442309D01*
X149737340Y-114440347D01*
X149709119Y-114430485D01*
X149684046Y-114419219D01*
X149659215Y-114405048D01*
X149631722Y-114386470D01*
X149628335Y-114384039D01*
X149606316Y-114368722D01*
X149588724Y-114358137D01*
X149573585Y-114351473D01*
X149558927Y-114347917D01*
X149542777Y-114346659D01*
X149537344Y-114346608D01*
X149507167Y-114350413D01*
X149480596Y-114361269D01*
X149458597Y-114378483D01*
X149442134Y-114401365D01*
X149434429Y-114420360D01*
X149429761Y-114439208D01*
X149428648Y-114455212D01*
X149431115Y-114472286D01*
X149434866Y-114486556D01*
X149439366Y-114499233D01*
X149445681Y-114510318D01*
X149455410Y-114522082D01*
X149470152Y-114536796D01*
X149470436Y-114537066D01*
X149514109Y-114573026D01*
X149563865Y-114603867D01*
X149618738Y-114629162D01*
X149677762Y-114648482D01*
X149739972Y-114661400D01*
X149756283Y-114663625D01*
X149786195Y-114666235D01*
X149820459Y-114667540D01*
X149856253Y-114667563D01*
X149890750Y-114666328D01*
X149921127Y-114663859D01*
X149934083Y-114662139D01*
X150000197Y-114647727D01*
X150062235Y-114626202D01*
X150119876Y-114598039D01*
X150172798Y-114563711D01*
X150220682Y-114523693D01*
X150263207Y-114478460D01*
X150300051Y-114428487D01*
X150330893Y-114374247D01*
X150355414Y-114316217D01*
X150373292Y-114254870D01*
X150384207Y-114190681D01*
X150387837Y-114124125D01*
X150383862Y-114055676D01*
X150376515Y-114007578D01*
X150359977Y-113942863D01*
X150336063Y-113881658D01*
X150305226Y-113824492D01*
X150267913Y-113771897D01*
X150224575Y-113724403D01*
X150175661Y-113682541D01*
X150121623Y-113646841D01*
X150062908Y-113617834D01*
X150037800Y-113608074D01*
X149977894Y-113590536D01*
X149913783Y-113579146D01*
X149847191Y-113574011D01*
X149779844Y-113575236D01*
X149779844Y-113575236D01*
G37*
X149779844Y-113575236D02*
X149713465Y-113582925D01*
X149691829Y-113586947D01*
X149649885Y-113597350D01*
X149608905Y-113610950D01*
X149570032Y-113627134D01*
X149534410Y-113645288D01*
X149503180Y-113664798D01*
X149477485Y-113685049D01*
X149458470Y-113705428D01*
X149451483Y-113716083D01*
X149444820Y-113729256D01*
X149440977Y-113740854D01*
X149439213Y-113754200D01*
X149438784Y-113772618D01*
X149438783Y-113772950D01*
X149439201Y-113791489D01*
X149440941Y-113804884D01*
X149444737Y-113816438D01*
X149451322Y-113829454D01*
X149451324Y-113829456D01*
X149469173Y-113853558D01*
X149492148Y-113871033D01*
X149519814Y-113881639D01*
X149551066Y-113885133D01*
X149568159Y-113884287D01*
X149583870Y-113881263D01*
X149600088Y-113875331D01*
X149618699Y-113865764D01*
X149641593Y-113851833D01*
X149647995Y-113847720D01*
X149695705Y-113821262D01*
X149744216Y-113802732D01*
X149792882Y-113791968D01*
X149841055Y-113788811D01*
X149888086Y-113793099D01*
X149933328Y-113804671D01*
X149976133Y-113823365D01*
X150015853Y-113849021D01*
X150051841Y-113881478D01*
X150083448Y-113920574D01*
X150108012Y-113962091D01*
X150126791Y-114008404D01*
X150138612Y-114058175D01*
X150143428Y-114109968D01*
X150141192Y-114162351D01*
X150131856Y-114213887D01*
X150117749Y-114257353D01*
X150095225Y-114302819D01*
X150066091Y-114343827D01*
X150031162Y-114379600D01*
X149991255Y-114409359D01*
X149947187Y-114432326D01*
X149925617Y-114440438D01*
X149912611Y-114444409D01*
X149900248Y-114447162D01*
X149886511Y-114448910D01*
X149869384Y-114449867D01*
X149846848Y-114450244D01*
X149832483Y-114450283D01*
X149806163Y-114450109D01*
X149786218Y-114449443D01*
X149770564Y-114448066D01*
X149757114Y-114445760D01*
X149743781Y-114442309D01*
X149737340Y-114440347D01*
X149709119Y-114430485D01*
X149684046Y-114419219D01*
X149659215Y-114405048D01*
X149631722Y-114386470D01*
X149628335Y-114384039D01*
X149606316Y-114368722D01*
X149588724Y-114358137D01*
X149573585Y-114351473D01*
X149558927Y-114347917D01*
X149542777Y-114346659D01*
X149537344Y-114346608D01*
X149507167Y-114350413D01*
X149480596Y-114361269D01*
X149458597Y-114378483D01*
X149442134Y-114401365D01*
X149434429Y-114420360D01*
X149429761Y-114439208D01*
X149428648Y-114455212D01*
X149431115Y-114472286D01*
X149434866Y-114486556D01*
X149439366Y-114499233D01*
X149445681Y-114510318D01*
X149455410Y-114522082D01*
X149470152Y-114536796D01*
X149470436Y-114537066D01*
X149514109Y-114573026D01*
X149563865Y-114603867D01*
X149618738Y-114629162D01*
X149677762Y-114648482D01*
X149739972Y-114661400D01*
X149756283Y-114663625D01*
X149786195Y-114666235D01*
X149820459Y-114667540D01*
X149856253Y-114667563D01*
X149890750Y-114666328D01*
X149921127Y-114663859D01*
X149934083Y-114662139D01*
X150000197Y-114647727D01*
X150062235Y-114626202D01*
X150119876Y-114598039D01*
X150172798Y-114563711D01*
X150220682Y-114523693D01*
X150263207Y-114478460D01*
X150300051Y-114428487D01*
X150330893Y-114374247D01*
X150355414Y-114316217D01*
X150373292Y-114254870D01*
X150384207Y-114190681D01*
X150387837Y-114124125D01*
X150383862Y-114055676D01*
X150376515Y-114007578D01*
X150359977Y-113942863D01*
X150336063Y-113881658D01*
X150305226Y-113824492D01*
X150267913Y-113771897D01*
X150224575Y-113724403D01*
X150175661Y-113682541D01*
X150121623Y-113646841D01*
X150062908Y-113617834D01*
X150037800Y-113608074D01*
X149977894Y-113590536D01*
X149913783Y-113579146D01*
X149847191Y-113574011D01*
X149779844Y-113575236D01*
G36*
X147163040Y-113576168D02*
X147097774Y-113585749D01*
X147034635Y-113602134D01*
X146974312Y-113625075D01*
X146917496Y-113654326D01*
X146864874Y-113689639D01*
X146817137Y-113730767D01*
X146774974Y-113777464D01*
X146750813Y-113810791D01*
X146725065Y-113852906D01*
X146704399Y-113894339D01*
X146687548Y-113938004D01*
X146673242Y-113986820D01*
X146671758Y-113992677D01*
X146666989Y-114017891D01*
X146663431Y-114049176D01*
X146661151Y-114084216D01*
X146660216Y-114120693D01*
X146660690Y-114156289D01*
X146662642Y-114188687D01*
X146665475Y-114211760D01*
X146680439Y-114277786D01*
X146702823Y-114340172D01*
X146732213Y-114398489D01*
X146768194Y-114452310D01*
X146810352Y-114501205D01*
X146858275Y-114544746D01*
X146911546Y-114582504D01*
X146969752Y-114614051D01*
X147032480Y-114638959D01*
X147094601Y-114655808D01*
X147122556Y-114660444D01*
X147156164Y-114663889D01*
X147192971Y-114666072D01*
X147230525Y-114666925D01*
X147266373Y-114666379D01*
X147298060Y-114664364D01*
X147316319Y-114662064D01*
X147386367Y-114646845D01*
X147451389Y-114624859D01*
X147511570Y-114596015D01*
X147567093Y-114560219D01*
X147618141Y-114517381D01*
X147631933Y-114503833D01*
X147657807Y-114474881D01*
X147683673Y-114441208D01*
X147707224Y-114406024D01*
X147726081Y-114372692D01*
X147738368Y-114345159D01*
X147750547Y-114312376D01*
X147761589Y-114277511D01*
X147770469Y-114243731D01*
X147774890Y-114222187D01*
X147778346Y-114194868D01*
X147780485Y-114161957D01*
X147781307Y-114126138D01*
X147781195Y-114117967D01*
X147537465Y-114117967D01*
X147536989Y-114150568D01*
X147534818Y-114177633D01*
X147530439Y-114202009D01*
X147523342Y-114226543D01*
X147513015Y-114254082D01*
X147513007Y-114254101D01*
X147491150Y-114297654D01*
X147462575Y-114337833D01*
X147428424Y-114373491D01*
X147389837Y-114403479D01*
X147347957Y-114426648D01*
X147336934Y-114431308D01*
X147294324Y-114444215D01*
X147248049Y-114451136D01*
X147200588Y-114451911D01*
X147154421Y-114446381D01*
X147142725Y-114443840D01*
X147096447Y-114428539D01*
X147053779Y-114406119D01*
X147015264Y-114377352D01*
X146981448Y-114343011D01*
X146952878Y-114303871D01*
X146930098Y-114260704D01*
X146913654Y-114214284D01*
X146904092Y-114165383D01*
X146901956Y-114114776D01*
X146902546Y-114103366D01*
X146906550Y-114066087D01*
X146913607Y-114032783D01*
X146924651Y-113999971D01*
X146939074Y-113967355D01*
X146964983Y-113922950D01*
X146997038Y-113884081D01*
X147034624Y-113851190D01*
X147077123Y-113824721D01*
X147123919Y-113805114D01*
X147174396Y-113792814D01*
X147184393Y-113791333D01*
X147233072Y-113789028D01*
X147282308Y-113794693D01*
X147330760Y-113808049D01*
X147377087Y-113828815D01*
X147384843Y-113833171D01*
X147413281Y-113853023D01*
X147441662Y-113878898D01*
X147467931Y-113908592D01*
X147490037Y-113939899D01*
X147499132Y-113955941D01*
X147514505Y-113988324D01*
X147525378Y-114018069D01*
X147532399Y-114047913D01*
X147536213Y-114080589D01*
X147537465Y-114117967D01*
X147781195Y-114117967D01*
X147780809Y-114090095D01*
X147778988Y-114056510D01*
X147775843Y-114028067D01*
X147775055Y-114023234D01*
X147759529Y-113958044D01*
X147736540Y-113896342D01*
X147706534Y-113838600D01*
X147669960Y-113785289D01*
X147627264Y-113736881D01*
X147578895Y-113693848D01*
X147525299Y-113656661D01*
X147466924Y-113625791D01*
X147404218Y-113601711D01*
X147364706Y-113590720D01*
X147297195Y-113578406D01*
X147229743Y-113573638D01*
X147163040Y-113576168D01*
X147163040Y-113576168D01*
G37*
X147163040Y-113576168D02*
X147097774Y-113585749D01*
X147034635Y-113602134D01*
X146974312Y-113625075D01*
X146917496Y-113654326D01*
X146864874Y-113689639D01*
X146817137Y-113730767D01*
X146774974Y-113777464D01*
X146750813Y-113810791D01*
X146725065Y-113852906D01*
X146704399Y-113894339D01*
X146687548Y-113938004D01*
X146673242Y-113986820D01*
X146671758Y-113992677D01*
X146666989Y-114017891D01*
X146663431Y-114049176D01*
X146661151Y-114084216D01*
X146660216Y-114120693D01*
X146660690Y-114156289D01*
X146662642Y-114188687D01*
X146665475Y-114211760D01*
X146680439Y-114277786D01*
X146702823Y-114340172D01*
X146732213Y-114398489D01*
X146768194Y-114452310D01*
X146810352Y-114501205D01*
X146858275Y-114544746D01*
X146911546Y-114582504D01*
X146969752Y-114614051D01*
X147032480Y-114638959D01*
X147094601Y-114655808D01*
X147122556Y-114660444D01*
X147156164Y-114663889D01*
X147192971Y-114666072D01*
X147230525Y-114666925D01*
X147266373Y-114666379D01*
X147298060Y-114664364D01*
X147316319Y-114662064D01*
X147386367Y-114646845D01*
X147451389Y-114624859D01*
X147511570Y-114596015D01*
X147567093Y-114560219D01*
X147618141Y-114517381D01*
X147631933Y-114503833D01*
X147657807Y-114474881D01*
X147683673Y-114441208D01*
X147707224Y-114406024D01*
X147726081Y-114372692D01*
X147738368Y-114345159D01*
X147750547Y-114312376D01*
X147761589Y-114277511D01*
X147770469Y-114243731D01*
X147774890Y-114222187D01*
X147778346Y-114194868D01*
X147780485Y-114161957D01*
X147781307Y-114126138D01*
X147781195Y-114117967D01*
X147537465Y-114117967D01*
X147536989Y-114150568D01*
X147534818Y-114177633D01*
X147530439Y-114202009D01*
X147523342Y-114226543D01*
X147513015Y-114254082D01*
X147513007Y-114254101D01*
X147491150Y-114297654D01*
X147462575Y-114337833D01*
X147428424Y-114373491D01*
X147389837Y-114403479D01*
X147347957Y-114426648D01*
X147336934Y-114431308D01*
X147294324Y-114444215D01*
X147248049Y-114451136D01*
X147200588Y-114451911D01*
X147154421Y-114446381D01*
X147142725Y-114443840D01*
X147096447Y-114428539D01*
X147053779Y-114406119D01*
X147015264Y-114377352D01*
X146981448Y-114343011D01*
X146952878Y-114303871D01*
X146930098Y-114260704D01*
X146913654Y-114214284D01*
X146904092Y-114165383D01*
X146901956Y-114114776D01*
X146902546Y-114103366D01*
X146906550Y-114066087D01*
X146913607Y-114032783D01*
X146924651Y-113999971D01*
X146939074Y-113967355D01*
X146964983Y-113922950D01*
X146997038Y-113884081D01*
X147034624Y-113851190D01*
X147077123Y-113824721D01*
X147123919Y-113805114D01*
X147174396Y-113792814D01*
X147184393Y-113791333D01*
X147233072Y-113789028D01*
X147282308Y-113794693D01*
X147330760Y-113808049D01*
X147377087Y-113828815D01*
X147384843Y-113833171D01*
X147413281Y-113853023D01*
X147441662Y-113878898D01*
X147467931Y-113908592D01*
X147490037Y-113939899D01*
X147499132Y-113955941D01*
X147514505Y-113988324D01*
X147525378Y-114018069D01*
X147532399Y-114047913D01*
X147536213Y-114080589D01*
X147537465Y-114117967D01*
X147781195Y-114117967D01*
X147780809Y-114090095D01*
X147778988Y-114056510D01*
X147775843Y-114028067D01*
X147775055Y-114023234D01*
X147759529Y-113958044D01*
X147736540Y-113896342D01*
X147706534Y-113838600D01*
X147669960Y-113785289D01*
X147627264Y-113736881D01*
X147578895Y-113693848D01*
X147525299Y-113656661D01*
X147466924Y-113625791D01*
X147404218Y-113601711D01*
X147364706Y-113590720D01*
X147297195Y-113578406D01*
X147229743Y-113573638D01*
X147163040Y-113576168D01*
G36*
X156092915Y-113587821D02*
X156065583Y-113597531D01*
X156043174Y-113613976D01*
X156025297Y-113637397D01*
X156018669Y-113650183D01*
X156008917Y-113671350D01*
X156008917Y-114122200D01*
X156008919Y-114193728D01*
X156008931Y-114257284D01*
X156008963Y-114313361D01*
X156009024Y-114362453D01*
X156009122Y-114405053D01*
X156009269Y-114441657D01*
X156009471Y-114472757D01*
X156009740Y-114498848D01*
X156010084Y-114520423D01*
X156010513Y-114537977D01*
X156011036Y-114552003D01*
X156011662Y-114562995D01*
X156012400Y-114571447D01*
X156013260Y-114577853D01*
X156014251Y-114582707D01*
X156015382Y-114586502D01*
X156016663Y-114589733D01*
X156017757Y-114592147D01*
X156033906Y-114617436D01*
X156056220Y-114638313D01*
X156071848Y-114647931D01*
X156091883Y-114654800D01*
X156116188Y-114658184D01*
X156141220Y-114657866D01*
X156163437Y-114653627D01*
X156163563Y-114653586D01*
X156186459Y-114642395D01*
X156207596Y-114625108D01*
X156224372Y-114604055D01*
X156229585Y-114594452D01*
X156239551Y-114573050D01*
X156239499Y-114120083D01*
X156239485Y-114048190D01*
X156239456Y-113984273D01*
X156239403Y-113927845D01*
X156239318Y-113878415D01*
X156239194Y-113835494D01*
X156239021Y-113798592D01*
X156238793Y-113767221D01*
X156238500Y-113740891D01*
X156238135Y-113719111D01*
X156237690Y-113701394D01*
X156237156Y-113687250D01*
X156236526Y-113676188D01*
X156235791Y-113667720D01*
X156234943Y-113661357D01*
X156233975Y-113656608D01*
X156232878Y-113652985D01*
X156231728Y-113650183D01*
X156215567Y-113623508D01*
X156194556Y-113603767D01*
X156168677Y-113590949D01*
X156137912Y-113585044D01*
X156125561Y-113584608D01*
X156092915Y-113587821D01*
X156092915Y-113587821D01*
G37*
X156092915Y-113587821D02*
X156065583Y-113597531D01*
X156043174Y-113613976D01*
X156025297Y-113637397D01*
X156018669Y-113650183D01*
X156008917Y-113671350D01*
X156008917Y-114122200D01*
X156008919Y-114193728D01*
X156008931Y-114257284D01*
X156008963Y-114313361D01*
X156009024Y-114362453D01*
X156009122Y-114405053D01*
X156009269Y-114441657D01*
X156009471Y-114472757D01*
X156009740Y-114498848D01*
X156010084Y-114520423D01*
X156010513Y-114537977D01*
X156011036Y-114552003D01*
X156011662Y-114562995D01*
X156012400Y-114571447D01*
X156013260Y-114577853D01*
X156014251Y-114582707D01*
X156015382Y-114586502D01*
X156016663Y-114589733D01*
X156017757Y-114592147D01*
X156033906Y-114617436D01*
X156056220Y-114638313D01*
X156071848Y-114647931D01*
X156091883Y-114654800D01*
X156116188Y-114658184D01*
X156141220Y-114657866D01*
X156163437Y-114653627D01*
X156163563Y-114653586D01*
X156186459Y-114642395D01*
X156207596Y-114625108D01*
X156224372Y-114604055D01*
X156229585Y-114594452D01*
X156239551Y-114573050D01*
X156239499Y-114120083D01*
X156239485Y-114048190D01*
X156239456Y-113984273D01*
X156239403Y-113927845D01*
X156239318Y-113878415D01*
X156239194Y-113835494D01*
X156239021Y-113798592D01*
X156238793Y-113767221D01*
X156238500Y-113740891D01*
X156238135Y-113719111D01*
X156237690Y-113701394D01*
X156237156Y-113687250D01*
X156236526Y-113676188D01*
X156235791Y-113667720D01*
X156234943Y-113661357D01*
X156233975Y-113656608D01*
X156232878Y-113652985D01*
X156231728Y-113650183D01*
X156215567Y-113623508D01*
X156194556Y-113603767D01*
X156168677Y-113590949D01*
X156137912Y-113585044D01*
X156125561Y-113584608D01*
X156092915Y-113587821D01*
G36*
X154883125Y-113588432D02*
X154856123Y-113599761D01*
X154833497Y-113618153D01*
X154815865Y-113643208D01*
X154812439Y-113650183D01*
X154811209Y-113653209D01*
X154810116Y-113656906D01*
X154809153Y-113661765D01*
X154808311Y-113668278D01*
X154807581Y-113676936D01*
X154806956Y-113688231D01*
X154806428Y-113702655D01*
X154805987Y-113720699D01*
X154805626Y-113742855D01*
X154805337Y-113769615D01*
X154805111Y-113801470D01*
X154804940Y-113838911D01*
X154804817Y-113882431D01*
X154804731Y-113932521D01*
X154804676Y-113989673D01*
X154804643Y-114054378D01*
X154804626Y-114116276D01*
X154804638Y-114193900D01*
X154804708Y-114263374D01*
X154804840Y-114325015D01*
X154805037Y-114379140D01*
X154805303Y-114426066D01*
X154805641Y-114466109D01*
X154806054Y-114499588D01*
X154806546Y-114526817D01*
X154807119Y-114548115D01*
X154807777Y-114563798D01*
X154808524Y-114574182D01*
X154809362Y-114579585D01*
X154809438Y-114579826D01*
X154822686Y-114606864D01*
X154842207Y-114628273D01*
X154864440Y-114642551D01*
X154880133Y-114649704D01*
X154893665Y-114653677D01*
X154908945Y-114655342D01*
X154922989Y-114655600D01*
X154951654Y-114654035D01*
X154974972Y-114648635D01*
X154995592Y-114638346D01*
X155016165Y-114622111D01*
X155022808Y-114615841D01*
X155029358Y-114608591D01*
X155040585Y-114595124D01*
X155056066Y-114575980D01*
X155075378Y-114551700D01*
X155098098Y-114522825D01*
X155123805Y-114489897D01*
X155152074Y-114453455D01*
X155182484Y-114414041D01*
X155214612Y-114372196D01*
X155248036Y-114328461D01*
X155274531Y-114293650D01*
X155308203Y-114249354D01*
X155340531Y-114206876D01*
X155371131Y-114166716D01*
X155399621Y-114129372D01*
X155425618Y-114095346D01*
X155448740Y-114065137D01*
X155468604Y-114039246D01*
X155484827Y-114018172D01*
X155497026Y-114002416D01*
X155504820Y-113992477D01*
X155507702Y-113988967D01*
X155509251Y-113987531D01*
X155510588Y-113987055D01*
X155511726Y-113988106D01*
X155512683Y-113991250D01*
X155513475Y-113997054D01*
X155514116Y-114006084D01*
X155514622Y-114018908D01*
X155515010Y-114036092D01*
X155515296Y-114058203D01*
X155515494Y-114085807D01*
X155515621Y-114119471D01*
X155515693Y-114159762D01*
X155515725Y-114207247D01*
X155515733Y-114262492D01*
X155515733Y-114277375D01*
X155515725Y-114336256D01*
X155515732Y-114387289D01*
X155515806Y-114431093D01*
X155515998Y-114468287D01*
X155516360Y-114499490D01*
X155516941Y-114525321D01*
X155517793Y-114546399D01*
X155518966Y-114563342D01*
X155520513Y-114576769D01*
X155522483Y-114587299D01*
X155524928Y-114595552D01*
X155527899Y-114602145D01*
X155531446Y-114607698D01*
X155535620Y-114612830D01*
X155540473Y-114618160D01*
X155544116Y-114622134D01*
X155556745Y-114634082D01*
X155570915Y-114644624D01*
X155576828Y-114648074D01*
X155593918Y-114653980D01*
X155615528Y-114657604D01*
X155637945Y-114658623D01*
X155657456Y-114656718D01*
X155662356Y-114655476D01*
X155685879Y-114644462D01*
X155707861Y-114627389D01*
X155725490Y-114606570D01*
X155729161Y-114600566D01*
X155742217Y-114577283D01*
X155742217Y-114124317D01*
X155742215Y-114052611D01*
X155742203Y-113988880D01*
X155742171Y-113932630D01*
X155742111Y-113883368D01*
X155742013Y-113840603D01*
X155741868Y-113803841D01*
X155741666Y-113772590D01*
X155741400Y-113746358D01*
X155741058Y-113724650D01*
X155740632Y-113706976D01*
X155740114Y-113692842D01*
X155739492Y-113681756D01*
X155738760Y-113673224D01*
X155737906Y-113666755D01*
X155736922Y-113661856D01*
X155735799Y-113658034D01*
X155734527Y-113654796D01*
X155733377Y-113652252D01*
X155717228Y-113626979D01*
X155695034Y-113606318D01*
X155676648Y-113595523D01*
X155665780Y-113591262D01*
X155653951Y-113588605D01*
X155638819Y-113587231D01*
X155618042Y-113586820D01*
X155613100Y-113586824D01*
X155583062Y-113588110D01*
X155559058Y-113592324D01*
X155538915Y-113600320D01*
X155520458Y-113612955D01*
X155502072Y-113630489D01*
X155496100Y-113637461D01*
X155485435Y-113650642D01*
X155470495Y-113669492D01*
X155451700Y-113693472D01*
X155429468Y-113722040D01*
X155404218Y-113754656D01*
X155376367Y-113790780D01*
X155346335Y-113829872D01*
X155314540Y-113871392D01*
X155281401Y-113914799D01*
X155257348Y-113946385D01*
X155035250Y-114238353D01*
X155033134Y-113952735D01*
X155032714Y-113894437D01*
X155032335Y-113843978D01*
X155031926Y-113800733D01*
X155031416Y-113764075D01*
X155030736Y-113733378D01*
X155029815Y-113708015D01*
X155028582Y-113687361D01*
X155026968Y-113670789D01*
X155024902Y-113657673D01*
X155022313Y-113647386D01*
X155019133Y-113639302D01*
X155015289Y-113632795D01*
X155010713Y-113627240D01*
X155005334Y-113622008D01*
X154999081Y-113616475D01*
X154994992Y-113612850D01*
X154975955Y-113598427D01*
X154956020Y-113589544D01*
X154932562Y-113585287D01*
X154913882Y-113584567D01*
X154883125Y-113588432D01*
X154883125Y-113588432D01*
G37*
X154883125Y-113588432D02*
X154856123Y-113599761D01*
X154833497Y-113618153D01*
X154815865Y-113643208D01*
X154812439Y-113650183D01*
X154811209Y-113653209D01*
X154810116Y-113656906D01*
X154809153Y-113661765D01*
X154808311Y-113668278D01*
X154807581Y-113676936D01*
X154806956Y-113688231D01*
X154806428Y-113702655D01*
X154805987Y-113720699D01*
X154805626Y-113742855D01*
X154805337Y-113769615D01*
X154805111Y-113801470D01*
X154804940Y-113838911D01*
X154804817Y-113882431D01*
X154804731Y-113932521D01*
X154804676Y-113989673D01*
X154804643Y-114054378D01*
X154804626Y-114116276D01*
X154804638Y-114193900D01*
X154804708Y-114263374D01*
X154804840Y-114325015D01*
X154805037Y-114379140D01*
X154805303Y-114426066D01*
X154805641Y-114466109D01*
X154806054Y-114499588D01*
X154806546Y-114526817D01*
X154807119Y-114548115D01*
X154807777Y-114563798D01*
X154808524Y-114574182D01*
X154809362Y-114579585D01*
X154809438Y-114579826D01*
X154822686Y-114606864D01*
X154842207Y-114628273D01*
X154864440Y-114642551D01*
X154880133Y-114649704D01*
X154893665Y-114653677D01*
X154908945Y-114655342D01*
X154922989Y-114655600D01*
X154951654Y-114654035D01*
X154974972Y-114648635D01*
X154995592Y-114638346D01*
X155016165Y-114622111D01*
X155022808Y-114615841D01*
X155029358Y-114608591D01*
X155040585Y-114595124D01*
X155056066Y-114575980D01*
X155075378Y-114551700D01*
X155098098Y-114522825D01*
X155123805Y-114489897D01*
X155152074Y-114453455D01*
X155182484Y-114414041D01*
X155214612Y-114372196D01*
X155248036Y-114328461D01*
X155274531Y-114293650D01*
X155308203Y-114249354D01*
X155340531Y-114206876D01*
X155371131Y-114166716D01*
X155399621Y-114129372D01*
X155425618Y-114095346D01*
X155448740Y-114065137D01*
X155468604Y-114039246D01*
X155484827Y-114018172D01*
X155497026Y-114002416D01*
X155504820Y-113992477D01*
X155507702Y-113988967D01*
X155509251Y-113987531D01*
X155510588Y-113987055D01*
X155511726Y-113988106D01*
X155512683Y-113991250D01*
X155513475Y-113997054D01*
X155514116Y-114006084D01*
X155514622Y-114018908D01*
X155515010Y-114036092D01*
X155515296Y-114058203D01*
X155515494Y-114085807D01*
X155515621Y-114119471D01*
X155515693Y-114159762D01*
X155515725Y-114207247D01*
X155515733Y-114262492D01*
X155515733Y-114277375D01*
X155515725Y-114336256D01*
X155515732Y-114387289D01*
X155515806Y-114431093D01*
X155515998Y-114468287D01*
X155516360Y-114499490D01*
X155516941Y-114525321D01*
X155517793Y-114546399D01*
X155518966Y-114563342D01*
X155520513Y-114576769D01*
X155522483Y-114587299D01*
X155524928Y-114595552D01*
X155527899Y-114602145D01*
X155531446Y-114607698D01*
X155535620Y-114612830D01*
X155540473Y-114618160D01*
X155544116Y-114622134D01*
X155556745Y-114634082D01*
X155570915Y-114644624D01*
X155576828Y-114648074D01*
X155593918Y-114653980D01*
X155615528Y-114657604D01*
X155637945Y-114658623D01*
X155657456Y-114656718D01*
X155662356Y-114655476D01*
X155685879Y-114644462D01*
X155707861Y-114627389D01*
X155725490Y-114606570D01*
X155729161Y-114600566D01*
X155742217Y-114577283D01*
X155742217Y-114124317D01*
X155742215Y-114052611D01*
X155742203Y-113988880D01*
X155742171Y-113932630D01*
X155742111Y-113883368D01*
X155742013Y-113840603D01*
X155741868Y-113803841D01*
X155741666Y-113772590D01*
X155741400Y-113746358D01*
X155741058Y-113724650D01*
X155740632Y-113706976D01*
X155740114Y-113692842D01*
X155739492Y-113681756D01*
X155738760Y-113673224D01*
X155737906Y-113666755D01*
X155736922Y-113661856D01*
X155735799Y-113658034D01*
X155734527Y-113654796D01*
X155733377Y-113652252D01*
X155717228Y-113626979D01*
X155695034Y-113606318D01*
X155676648Y-113595523D01*
X155665780Y-113591262D01*
X155653951Y-113588605D01*
X155638819Y-113587231D01*
X155618042Y-113586820D01*
X155613100Y-113586824D01*
X155583062Y-113588110D01*
X155559058Y-113592324D01*
X155538915Y-113600320D01*
X155520458Y-113612955D01*
X155502072Y-113630489D01*
X155496100Y-113637461D01*
X155485435Y-113650642D01*
X155470495Y-113669492D01*
X155451700Y-113693472D01*
X155429468Y-113722040D01*
X155404218Y-113754656D01*
X155376367Y-113790780D01*
X155346335Y-113829872D01*
X155314540Y-113871392D01*
X155281401Y-113914799D01*
X155257348Y-113946385D01*
X155035250Y-114238353D01*
X155033134Y-113952735D01*
X155032714Y-113894437D01*
X155032335Y-113843978D01*
X155031926Y-113800733D01*
X155031416Y-113764075D01*
X155030736Y-113733378D01*
X155029815Y-113708015D01*
X155028582Y-113687361D01*
X155026968Y-113670789D01*
X155024902Y-113657673D01*
X155022313Y-113647386D01*
X155019133Y-113639302D01*
X155015289Y-113632795D01*
X155010713Y-113627240D01*
X155005334Y-113622008D01*
X154999081Y-113616475D01*
X154994992Y-113612850D01*
X154975955Y-113598427D01*
X154956020Y-113589544D01*
X154932562Y-113585287D01*
X154913882Y-113584567D01*
X154883125Y-113588432D01*
G36*
X154119068Y-113593070D02*
X154056894Y-113593182D01*
X154002519Y-113593375D01*
X153955608Y-113593653D01*
X153915828Y-113594019D01*
X153882845Y-113594479D01*
X153856325Y-113595036D01*
X153835933Y-113595695D01*
X153821336Y-113596461D01*
X153812200Y-113597336D01*
X153809101Y-113597946D01*
X153790178Y-113606981D01*
X153771412Y-113621650D01*
X153755599Y-113639539D01*
X153749327Y-113649580D01*
X153743856Y-113662530D01*
X153740964Y-113677197D01*
X153740052Y-113696761D01*
X153740046Y-113698867D01*
X153742157Y-113725866D01*
X153749170Y-113747847D01*
X153762104Y-113767315D01*
X153772288Y-113778027D01*
X153780118Y-113785247D01*
X153787614Y-113791032D01*
X153795789Y-113795541D01*
X153805660Y-113798932D01*
X153818240Y-113801364D01*
X153834546Y-113802996D01*
X153855591Y-113803987D01*
X153882392Y-113804495D01*
X153915962Y-113804679D01*
X153942806Y-113804700D01*
X154067718Y-113804700D01*
X154068884Y-114188875D01*
X154069087Y-114254609D01*
X154069280Y-114312415D01*
X154069476Y-114362833D01*
X154069689Y-114406401D01*
X154069933Y-114443658D01*
X154070220Y-114475145D01*
X154070564Y-114501398D01*
X154070978Y-114522958D01*
X154071477Y-114540363D01*
X154072072Y-114554153D01*
X154072778Y-114564867D01*
X154073608Y-114573043D01*
X154074575Y-114579221D01*
X154075692Y-114583939D01*
X154076974Y-114587737D01*
X154078433Y-114591153D01*
X154078890Y-114592147D01*
X154095040Y-114617436D01*
X154117353Y-114638313D01*
X154132981Y-114647931D01*
X154153016Y-114654800D01*
X154177321Y-114658184D01*
X154202353Y-114657866D01*
X154224570Y-114653627D01*
X154224696Y-114653586D01*
X154246219Y-114643180D01*
X154266915Y-114627109D01*
X154283797Y-114607897D01*
X154289271Y-114599053D01*
X154298650Y-114581516D01*
X154300767Y-114194167D01*
X154302884Y-113806817D01*
X154432000Y-113804700D01*
X154468455Y-113804088D01*
X154497461Y-113803521D01*
X154520033Y-113802913D01*
X154537187Y-113802176D01*
X154549940Y-113801224D01*
X154559306Y-113799969D01*
X154566303Y-113798323D01*
X154571947Y-113796200D01*
X154577252Y-113793512D01*
X154579969Y-113792000D01*
X154602713Y-113774873D01*
X154619187Y-113753466D01*
X154629418Y-113729145D01*
X154633434Y-113703274D01*
X154631263Y-113677215D01*
X154622932Y-113652335D01*
X154608468Y-113629996D01*
X154587898Y-113611563D01*
X154576204Y-113604675D01*
X154553249Y-113593033D01*
X154189374Y-113593033D01*
X154119068Y-113593070D01*
X154119068Y-113593070D01*
G37*
X154119068Y-113593070D02*
X154056894Y-113593182D01*
X154002519Y-113593375D01*
X153955608Y-113593653D01*
X153915828Y-113594019D01*
X153882845Y-113594479D01*
X153856325Y-113595036D01*
X153835933Y-113595695D01*
X153821336Y-113596461D01*
X153812200Y-113597336D01*
X153809101Y-113597946D01*
X153790178Y-113606981D01*
X153771412Y-113621650D01*
X153755599Y-113639539D01*
X153749327Y-113649580D01*
X153743856Y-113662530D01*
X153740964Y-113677197D01*
X153740052Y-113696761D01*
X153740046Y-113698867D01*
X153742157Y-113725866D01*
X153749170Y-113747847D01*
X153762104Y-113767315D01*
X153772288Y-113778027D01*
X153780118Y-113785247D01*
X153787614Y-113791032D01*
X153795789Y-113795541D01*
X153805660Y-113798932D01*
X153818240Y-113801364D01*
X153834546Y-113802996D01*
X153855591Y-113803987D01*
X153882392Y-113804495D01*
X153915962Y-113804679D01*
X153942806Y-113804700D01*
X154067718Y-113804700D01*
X154068884Y-114188875D01*
X154069087Y-114254609D01*
X154069280Y-114312415D01*
X154069476Y-114362833D01*
X154069689Y-114406401D01*
X154069933Y-114443658D01*
X154070220Y-114475145D01*
X154070564Y-114501398D01*
X154070978Y-114522958D01*
X154071477Y-114540363D01*
X154072072Y-114554153D01*
X154072778Y-114564867D01*
X154073608Y-114573043D01*
X154074575Y-114579221D01*
X154075692Y-114583939D01*
X154076974Y-114587737D01*
X154078433Y-114591153D01*
X154078890Y-114592147D01*
X154095040Y-114617436D01*
X154117353Y-114638313D01*
X154132981Y-114647931D01*
X154153016Y-114654800D01*
X154177321Y-114658184D01*
X154202353Y-114657866D01*
X154224570Y-114653627D01*
X154224696Y-114653586D01*
X154246219Y-114643180D01*
X154266915Y-114627109D01*
X154283797Y-114607897D01*
X154289271Y-114599053D01*
X154298650Y-114581516D01*
X154300767Y-114194167D01*
X154302884Y-113806817D01*
X154432000Y-113804700D01*
X154468455Y-113804088D01*
X154497461Y-113803521D01*
X154520033Y-113802913D01*
X154537187Y-113802176D01*
X154549940Y-113801224D01*
X154559306Y-113799969D01*
X154566303Y-113798323D01*
X154571947Y-113796200D01*
X154577252Y-113793512D01*
X154579969Y-113792000D01*
X154602713Y-113774873D01*
X154619187Y-113753466D01*
X154629418Y-113729145D01*
X154633434Y-113703274D01*
X154631263Y-113677215D01*
X154622932Y-113652335D01*
X154608468Y-113629996D01*
X154587898Y-113611563D01*
X154576204Y-113604675D01*
X154553249Y-113593033D01*
X154189374Y-113593033D01*
X154119068Y-113593070D01*
G36*
X152260377Y-113593866D02*
X152216584Y-113594114D01*
X152165045Y-113594462D01*
X152121227Y-113594796D01*
X152084383Y-113595147D01*
X152053769Y-113595542D01*
X152028638Y-113596012D01*
X152008244Y-113596586D01*
X151991841Y-113597293D01*
X151978684Y-113598163D01*
X151968027Y-113599224D01*
X151959123Y-113600506D01*
X151951227Y-113602038D01*
X151943594Y-113603849D01*
X151939146Y-113604999D01*
X151889433Y-113620306D01*
X151846517Y-113638583D01*
X151809026Y-113660584D01*
X151775586Y-113687064D01*
X151757393Y-113704891D01*
X151728042Y-113740947D01*
X151705209Y-113780734D01*
X151688622Y-113824957D01*
X151678012Y-113874316D01*
X151673372Y-113923233D01*
X151674098Y-113981695D01*
X151681942Y-114035941D01*
X151696798Y-114085772D01*
X151718561Y-114130991D01*
X151747128Y-114171399D01*
X151782392Y-114206798D01*
X151824251Y-114236991D01*
X151845665Y-114249063D01*
X151860539Y-114256966D01*
X151872047Y-114263393D01*
X151878497Y-114267385D01*
X151879300Y-114268147D01*
X151876705Y-114271674D01*
X151869351Y-114280927D01*
X151857881Y-114295114D01*
X151842941Y-114313441D01*
X151825176Y-114335117D01*
X151805229Y-114359351D01*
X151794202Y-114372707D01*
X151766252Y-114406770D01*
X151743400Y-114435285D01*
X151725152Y-114459059D01*
X151711013Y-114478901D01*
X151700491Y-114495619D01*
X151693089Y-114510021D01*
X151688314Y-114522916D01*
X151685672Y-114535111D01*
X151684667Y-114547414D01*
X151684612Y-114551883D01*
X151688515Y-114581885D01*
X151699677Y-114608268D01*
X151717414Y-114630113D01*
X151741042Y-114646497D01*
X151760463Y-114654148D01*
X151791130Y-114658916D01*
X151822556Y-114656240D01*
X151852724Y-114646650D01*
X151879618Y-114630673D01*
X151892053Y-114619595D01*
X151897781Y-114613084D01*
X151908116Y-114600689D01*
X151922433Y-114583184D01*
X151940108Y-114561342D01*
X151960517Y-114535938D01*
X151983034Y-114507743D01*
X152007035Y-114477533D01*
X152021220Y-114459606D01*
X152135623Y-114314817D01*
X152229712Y-114313677D01*
X152323800Y-114312538D01*
X152323842Y-114442794D01*
X152323871Y-114479476D01*
X152323977Y-114508721D01*
X152324230Y-114531561D01*
X152324696Y-114549025D01*
X152325444Y-114562143D01*
X152326541Y-114571947D01*
X152328056Y-114579465D01*
X152330057Y-114585730D01*
X152332611Y-114591770D01*
X152333849Y-114594452D01*
X152349393Y-114618304D01*
X152370708Y-114637419D01*
X152396128Y-114651101D01*
X152423986Y-114658656D01*
X152452612Y-114659389D01*
X152476699Y-114653989D01*
X152505294Y-114639740D01*
X152527881Y-114619825D01*
X152543971Y-114594790D01*
X152552262Y-114569478D01*
X152553101Y-114561512D01*
X152553829Y-114546168D01*
X152554445Y-114523328D01*
X152554952Y-114492876D01*
X152555349Y-114454697D01*
X152555638Y-114408674D01*
X152555820Y-114354692D01*
X152555895Y-114292633D01*
X152555864Y-114222382D01*
X152555728Y-114143822D01*
X152555655Y-114113733D01*
X152555633Y-114105267D01*
X152323907Y-114105267D01*
X152190712Y-114105267D01*
X152150087Y-114105104D01*
X152114174Y-114104633D01*
X152083765Y-114103878D01*
X152059652Y-114102861D01*
X152042628Y-114101608D01*
X152035084Y-114100548D01*
X151999255Y-114089329D01*
X151968077Y-114072026D01*
X151942439Y-114049283D01*
X151923230Y-114021742D01*
X151921566Y-114018483D01*
X151916692Y-114007535D01*
X151913599Y-113996949D01*
X151911900Y-113984298D01*
X151911209Y-113967155D01*
X151911117Y-113952867D01*
X151911385Y-113931455D01*
X151912434Y-113916117D01*
X151914631Y-113904469D01*
X151918342Y-113894128D01*
X151921046Y-113888368D01*
X151933992Y-113867940D01*
X151951329Y-113848301D01*
X151970343Y-113832288D01*
X151980810Y-113825912D01*
X151993239Y-113819830D01*
X152004959Y-113814906D01*
X152017031Y-113811018D01*
X152030515Y-113808045D01*
X152046471Y-113805866D01*
X152065960Y-113804359D01*
X152090042Y-113803402D01*
X152119779Y-113802874D01*
X152156230Y-113802654D01*
X152184100Y-113802618D01*
X152321683Y-113802583D01*
X152323907Y-114105267D01*
X152555633Y-114105267D01*
X152554517Y-113679817D01*
X152541817Y-113654417D01*
X152525465Y-113629739D01*
X152504439Y-113610675D01*
X152480177Y-113598471D01*
X152475698Y-113597131D01*
X152467587Y-113596017D01*
X152452228Y-113595122D01*
X152429441Y-113594445D01*
X152399043Y-113593983D01*
X152360854Y-113593734D01*
X152314692Y-113593696D01*
X152260377Y-113593866D01*
X152260377Y-113593866D01*
G37*
X152260377Y-113593866D02*
X152216584Y-113594114D01*
X152165045Y-113594462D01*
X152121227Y-113594796D01*
X152084383Y-113595147D01*
X152053769Y-113595542D01*
X152028638Y-113596012D01*
X152008244Y-113596586D01*
X151991841Y-113597293D01*
X151978684Y-113598163D01*
X151968027Y-113599224D01*
X151959123Y-113600506D01*
X151951227Y-113602038D01*
X151943594Y-113603849D01*
X151939146Y-113604999D01*
X151889433Y-113620306D01*
X151846517Y-113638583D01*
X151809026Y-113660584D01*
X151775586Y-113687064D01*
X151757393Y-113704891D01*
X151728042Y-113740947D01*
X151705209Y-113780734D01*
X151688622Y-113824957D01*
X151678012Y-113874316D01*
X151673372Y-113923233D01*
X151674098Y-113981695D01*
X151681942Y-114035941D01*
X151696798Y-114085772D01*
X151718561Y-114130991D01*
X151747128Y-114171399D01*
X151782392Y-114206798D01*
X151824251Y-114236991D01*
X151845665Y-114249063D01*
X151860539Y-114256966D01*
X151872047Y-114263393D01*
X151878497Y-114267385D01*
X151879300Y-114268147D01*
X151876705Y-114271674D01*
X151869351Y-114280927D01*
X151857881Y-114295114D01*
X151842941Y-114313441D01*
X151825176Y-114335117D01*
X151805229Y-114359351D01*
X151794202Y-114372707D01*
X151766252Y-114406770D01*
X151743400Y-114435285D01*
X151725152Y-114459059D01*
X151711013Y-114478901D01*
X151700491Y-114495619D01*
X151693089Y-114510021D01*
X151688314Y-114522916D01*
X151685672Y-114535111D01*
X151684667Y-114547414D01*
X151684612Y-114551883D01*
X151688515Y-114581885D01*
X151699677Y-114608268D01*
X151717414Y-114630113D01*
X151741042Y-114646497D01*
X151760463Y-114654148D01*
X151791130Y-114658916D01*
X151822556Y-114656240D01*
X151852724Y-114646650D01*
X151879618Y-114630673D01*
X151892053Y-114619595D01*
X151897781Y-114613084D01*
X151908116Y-114600689D01*
X151922433Y-114583184D01*
X151940108Y-114561342D01*
X151960517Y-114535938D01*
X151983034Y-114507743D01*
X152007035Y-114477533D01*
X152021220Y-114459606D01*
X152135623Y-114314817D01*
X152229712Y-114313677D01*
X152323800Y-114312538D01*
X152323842Y-114442794D01*
X152323871Y-114479476D01*
X152323977Y-114508721D01*
X152324230Y-114531561D01*
X152324696Y-114549025D01*
X152325444Y-114562143D01*
X152326541Y-114571947D01*
X152328056Y-114579465D01*
X152330057Y-114585730D01*
X152332611Y-114591770D01*
X152333849Y-114594452D01*
X152349393Y-114618304D01*
X152370708Y-114637419D01*
X152396128Y-114651101D01*
X152423986Y-114658656D01*
X152452612Y-114659389D01*
X152476699Y-114653989D01*
X152505294Y-114639740D01*
X152527881Y-114619825D01*
X152543971Y-114594790D01*
X152552262Y-114569478D01*
X152553101Y-114561512D01*
X152553829Y-114546168D01*
X152554445Y-114523328D01*
X152554952Y-114492876D01*
X152555349Y-114454697D01*
X152555638Y-114408674D01*
X152555820Y-114354692D01*
X152555895Y-114292633D01*
X152555864Y-114222382D01*
X152555728Y-114143822D01*
X152555655Y-114113733D01*
X152555633Y-114105267D01*
X152323907Y-114105267D01*
X152190712Y-114105267D01*
X152150087Y-114105104D01*
X152114174Y-114104633D01*
X152083765Y-114103878D01*
X152059652Y-114102861D01*
X152042628Y-114101608D01*
X152035084Y-114100548D01*
X151999255Y-114089329D01*
X151968077Y-114072026D01*
X151942439Y-114049283D01*
X151923230Y-114021742D01*
X151921566Y-114018483D01*
X151916692Y-114007535D01*
X151913599Y-113996949D01*
X151911900Y-113984298D01*
X151911209Y-113967155D01*
X151911117Y-113952867D01*
X151911385Y-113931455D01*
X151912434Y-113916117D01*
X151914631Y-113904469D01*
X151918342Y-113894128D01*
X151921046Y-113888368D01*
X151933992Y-113867940D01*
X151951329Y-113848301D01*
X151970343Y-113832288D01*
X151980810Y-113825912D01*
X151993239Y-113819830D01*
X152004959Y-113814906D01*
X152017031Y-113811018D01*
X152030515Y-113808045D01*
X152046471Y-113805866D01*
X152065960Y-113804359D01*
X152090042Y-113803402D01*
X152119779Y-113802874D01*
X152156230Y-113802654D01*
X152184100Y-113802618D01*
X152321683Y-113802583D01*
X152323907Y-114105267D01*
X152555633Y-114105267D01*
X152554517Y-113679817D01*
X152541817Y-113654417D01*
X152525465Y-113629739D01*
X152504439Y-113610675D01*
X152480177Y-113598471D01*
X152475698Y-113597131D01*
X152467587Y-113596017D01*
X152452228Y-113595122D01*
X152429441Y-113594445D01*
X152399043Y-113593983D01*
X152360854Y-113593734D01*
X152314692Y-113593696D01*
X152260377Y-113593866D01*
G36*
X150988876Y-113576523D02*
X150966773Y-113578956D01*
X150961733Y-113580043D01*
X150935500Y-113590330D01*
X150910728Y-113607079D01*
X150890118Y-113628381D01*
X150886574Y-113633250D01*
X150882936Y-113639898D01*
X150876120Y-113653770D01*
X150866364Y-113674340D01*
X150853906Y-113701085D01*
X150838984Y-113733483D01*
X150821837Y-113771007D01*
X150802704Y-113813137D01*
X150781822Y-113859346D01*
X150759431Y-113909112D01*
X150735768Y-113961911D01*
X150711073Y-114017219D01*
X150685582Y-114074513D01*
X150680386Y-114086217D01*
X150488756Y-114518016D01*
X150488703Y-114549766D01*
X150492105Y-114581335D01*
X150502451Y-114608070D01*
X150519783Y-114630042D01*
X150544144Y-114647322D01*
X150548326Y-114649474D01*
X150566565Y-114655269D01*
X150589227Y-114657912D01*
X150613103Y-114657435D01*
X150634987Y-114653869D01*
X150649517Y-114648489D01*
X150660529Y-114642121D01*
X150670179Y-114635164D01*
X150679014Y-114626731D01*
X150687582Y-114615934D01*
X150696431Y-114601885D01*
X150706108Y-114583699D01*
X150717162Y-114560486D01*
X150730141Y-114531361D01*
X150745593Y-114495435D01*
X150749056Y-114487289D01*
X150780080Y-114414229D01*
X151013149Y-114415323D01*
X151246218Y-114416416D01*
X151286566Y-114511666D01*
X151299703Y-114542439D01*
X151310268Y-114566484D01*
X151318847Y-114584928D01*
X151326028Y-114598898D01*
X151332399Y-114609522D01*
X151338546Y-114617927D01*
X151345056Y-114625239D01*
X151346497Y-114626715D01*
X151370039Y-114644724D01*
X151397394Y-114655802D01*
X151427001Y-114659562D01*
X151457301Y-114655616D01*
X151459898Y-114654901D01*
X151485327Y-114643412D01*
X151506314Y-114625524D01*
X151521885Y-114602559D01*
X151531069Y-114575842D01*
X151533180Y-114555169D01*
X151532080Y-114538509D01*
X151528129Y-114521087D01*
X151520615Y-114499985D01*
X151518486Y-114494733D01*
X151514332Y-114484949D01*
X151507122Y-114468310D01*
X151497137Y-114445451D01*
X151484659Y-114417006D01*
X151469968Y-114383610D01*
X151453346Y-114345898D01*
X151435076Y-114304504D01*
X151415438Y-114260064D01*
X151394714Y-114213211D01*
X151390495Y-114203680D01*
X151155467Y-114203680D01*
X151155466Y-114203692D01*
X151151379Y-114204441D01*
X151139798Y-114205127D01*
X151121697Y-114205729D01*
X151098047Y-114206224D01*
X151069823Y-114206593D01*
X151037997Y-114206812D01*
X151011572Y-114206867D01*
X150867743Y-114206867D01*
X150871373Y-114197342D01*
X150875317Y-114187408D01*
X150881844Y-114171462D01*
X150890534Y-114150493D01*
X150900968Y-114125488D01*
X150912730Y-114097438D01*
X150925398Y-114067330D01*
X150938556Y-114036155D01*
X150951785Y-114004901D01*
X150964665Y-113974557D01*
X150976779Y-113946112D01*
X150987707Y-113920555D01*
X150997032Y-113898875D01*
X151004335Y-113882061D01*
X151009196Y-113871102D01*
X151011188Y-113866997D01*
X151013249Y-113870209D01*
X151018157Y-113880276D01*
X151025500Y-113896240D01*
X151034867Y-113917139D01*
X151045847Y-113942016D01*
X151058028Y-113969909D01*
X151071000Y-113999860D01*
X151084351Y-114030909D01*
X151097670Y-114062096D01*
X151110545Y-114092462D01*
X151122567Y-114121048D01*
X151133322Y-114146893D01*
X151142402Y-114169038D01*
X151149393Y-114186524D01*
X151153885Y-114198391D01*
X151155467Y-114203680D01*
X151390495Y-114203680D01*
X151373185Y-114164582D01*
X151351133Y-114114809D01*
X151328840Y-114064529D01*
X151306587Y-114014376D01*
X151284656Y-113964984D01*
X151263328Y-113916989D01*
X151242884Y-113871024D01*
X151223607Y-113827726D01*
X151205777Y-113787727D01*
X151189676Y-113751664D01*
X151175586Y-113720171D01*
X151163788Y-113693882D01*
X151154564Y-113673432D01*
X151148196Y-113659457D01*
X151144964Y-113652590D01*
X151144959Y-113652580D01*
X151129165Y-113628692D01*
X151108122Y-113607166D01*
X151084631Y-113590773D01*
X151080198Y-113588505D01*
X151062674Y-113582662D01*
X151039698Y-113578582D01*
X151014142Y-113576467D01*
X150988876Y-113576523D01*
X150988876Y-113576523D01*
G37*
X150988876Y-113576523D02*
X150966773Y-113578956D01*
X150961733Y-113580043D01*
X150935500Y-113590330D01*
X150910728Y-113607079D01*
X150890118Y-113628381D01*
X150886574Y-113633250D01*
X150882936Y-113639898D01*
X150876120Y-113653770D01*
X150866364Y-113674340D01*
X150853906Y-113701085D01*
X150838984Y-113733483D01*
X150821837Y-113771007D01*
X150802704Y-113813137D01*
X150781822Y-113859346D01*
X150759431Y-113909112D01*
X150735768Y-113961911D01*
X150711073Y-114017219D01*
X150685582Y-114074513D01*
X150680386Y-114086217D01*
X150488756Y-114518016D01*
X150488703Y-114549766D01*
X150492105Y-114581335D01*
X150502451Y-114608070D01*
X150519783Y-114630042D01*
X150544144Y-114647322D01*
X150548326Y-114649474D01*
X150566565Y-114655269D01*
X150589227Y-114657912D01*
X150613103Y-114657435D01*
X150634987Y-114653869D01*
X150649517Y-114648489D01*
X150660529Y-114642121D01*
X150670179Y-114635164D01*
X150679014Y-114626731D01*
X150687582Y-114615934D01*
X150696431Y-114601885D01*
X150706108Y-114583699D01*
X150717162Y-114560486D01*
X150730141Y-114531361D01*
X150745593Y-114495435D01*
X150749056Y-114487289D01*
X150780080Y-114414229D01*
X151013149Y-114415323D01*
X151246218Y-114416416D01*
X151286566Y-114511666D01*
X151299703Y-114542439D01*
X151310268Y-114566484D01*
X151318847Y-114584928D01*
X151326028Y-114598898D01*
X151332399Y-114609522D01*
X151338546Y-114617927D01*
X151345056Y-114625239D01*
X151346497Y-114626715D01*
X151370039Y-114644724D01*
X151397394Y-114655802D01*
X151427001Y-114659562D01*
X151457301Y-114655616D01*
X151459898Y-114654901D01*
X151485327Y-114643412D01*
X151506314Y-114625524D01*
X151521885Y-114602559D01*
X151531069Y-114575842D01*
X151533180Y-114555169D01*
X151532080Y-114538509D01*
X151528129Y-114521087D01*
X151520615Y-114499985D01*
X151518486Y-114494733D01*
X151514332Y-114484949D01*
X151507122Y-114468310D01*
X151497137Y-114445451D01*
X151484659Y-114417006D01*
X151469968Y-114383610D01*
X151453346Y-114345898D01*
X151435076Y-114304504D01*
X151415438Y-114260064D01*
X151394714Y-114213211D01*
X151390495Y-114203680D01*
X151155467Y-114203680D01*
X151155466Y-114203692D01*
X151151379Y-114204441D01*
X151139798Y-114205127D01*
X151121697Y-114205729D01*
X151098047Y-114206224D01*
X151069823Y-114206593D01*
X151037997Y-114206812D01*
X151011572Y-114206867D01*
X150867743Y-114206867D01*
X150871373Y-114197342D01*
X150875317Y-114187408D01*
X150881844Y-114171462D01*
X150890534Y-114150493D01*
X150900968Y-114125488D01*
X150912730Y-114097438D01*
X150925398Y-114067330D01*
X150938556Y-114036155D01*
X150951785Y-114004901D01*
X150964665Y-113974557D01*
X150976779Y-113946112D01*
X150987707Y-113920555D01*
X150997032Y-113898875D01*
X151004335Y-113882061D01*
X151009196Y-113871102D01*
X151011188Y-113866997D01*
X151013249Y-113870209D01*
X151018157Y-113880276D01*
X151025500Y-113896240D01*
X151034867Y-113917139D01*
X151045847Y-113942016D01*
X151058028Y-113969909D01*
X151071000Y-113999860D01*
X151084351Y-114030909D01*
X151097670Y-114062096D01*
X151110545Y-114092462D01*
X151122567Y-114121048D01*
X151133322Y-114146893D01*
X151142402Y-114169038D01*
X151149393Y-114186524D01*
X151153885Y-114198391D01*
X151155467Y-114203680D01*
X151390495Y-114203680D01*
X151373185Y-114164582D01*
X151351133Y-114114809D01*
X151328840Y-114064529D01*
X151306587Y-114014376D01*
X151284656Y-113964984D01*
X151263328Y-113916989D01*
X151242884Y-113871024D01*
X151223607Y-113827726D01*
X151205777Y-113787727D01*
X151189676Y-113751664D01*
X151175586Y-113720171D01*
X151163788Y-113693882D01*
X151154564Y-113673432D01*
X151148196Y-113659457D01*
X151144964Y-113652590D01*
X151144959Y-113652580D01*
X151129165Y-113628692D01*
X151108122Y-113607166D01*
X151084631Y-113590773D01*
X151080198Y-113588505D01*
X151062674Y-113582662D01*
X151039698Y-113578582D01*
X151014142Y-113576467D01*
X150988876Y-113576523D01*
G36*
X148794969Y-113593067D02*
X148738131Y-113593114D01*
X148688691Y-113593205D01*
X148646117Y-113593351D01*
X148609873Y-113593560D01*
X148579426Y-113593841D01*
X148554242Y-113594204D01*
X148533787Y-113594657D01*
X148517526Y-113595210D01*
X148504927Y-113595872D01*
X148495454Y-113596652D01*
X148488574Y-113597559D01*
X148483754Y-113598602D01*
X148481084Y-113599514D01*
X148454531Y-113614721D01*
X148434538Y-113635152D01*
X148421459Y-113660270D01*
X148415650Y-113689537D01*
X148415377Y-113698867D01*
X148419140Y-113729958D01*
X148429878Y-113756509D01*
X148447399Y-113778181D01*
X148468824Y-113793244D01*
X148474146Y-113795896D01*
X148479782Y-113798017D01*
X148486742Y-113799687D01*
X148496039Y-113800986D01*
X148508683Y-113801990D01*
X148525687Y-113802781D01*
X148548061Y-113803437D01*
X148576818Y-113804037D01*
X148612969Y-113804660D01*
X148615400Y-113804700D01*
X148744517Y-113806817D01*
X148746634Y-114194167D01*
X148748750Y-114581516D01*
X148758129Y-114599053D01*
X148774920Y-114621958D01*
X148797296Y-114640063D01*
X148823491Y-114652684D01*
X148851742Y-114659135D01*
X148880286Y-114658731D01*
X148899532Y-114653989D01*
X148927757Y-114640308D01*
X148949425Y-114621928D01*
X148955885Y-114613697D01*
X148959845Y-114607997D01*
X148963335Y-114602672D01*
X148966385Y-114597175D01*
X148969025Y-114590962D01*
X148971283Y-114583490D01*
X148973190Y-114574214D01*
X148974775Y-114562588D01*
X148976069Y-114548069D01*
X148977100Y-114530113D01*
X148977899Y-114508174D01*
X148978495Y-114481708D01*
X148978917Y-114450172D01*
X148979196Y-114413019D01*
X148979360Y-114369707D01*
X148979441Y-114319689D01*
X148979466Y-114262423D01*
X148979467Y-114197363D01*
X148979467Y-113804700D01*
X149105408Y-113804607D01*
X149144515Y-113804523D01*
X149176161Y-113804210D01*
X149201352Y-113803482D01*
X149221094Y-113802152D01*
X149236392Y-113800035D01*
X149248253Y-113796942D01*
X149257683Y-113792689D01*
X149265686Y-113787088D01*
X149273269Y-113779952D01*
X149280493Y-113772145D01*
X149297542Y-113747449D01*
X149307073Y-113720493D01*
X149309170Y-113692645D01*
X149303918Y-113665272D01*
X149291399Y-113639740D01*
X149271699Y-113617418D01*
X149270931Y-113616755D01*
X149257767Y-113607112D01*
X149244155Y-113599604D01*
X149237977Y-113597273D01*
X149230881Y-113596497D01*
X149215636Y-113595790D01*
X149192557Y-113595156D01*
X149161961Y-113594599D01*
X149124165Y-113594122D01*
X149079485Y-113593728D01*
X149028238Y-113593422D01*
X148970739Y-113593206D01*
X148907306Y-113593084D01*
X148859739Y-113593057D01*
X148794969Y-113593067D01*
X148794969Y-113593067D01*
G37*
X148794969Y-113593067D02*
X148738131Y-113593114D01*
X148688691Y-113593205D01*
X148646117Y-113593351D01*
X148609873Y-113593560D01*
X148579426Y-113593841D01*
X148554242Y-113594204D01*
X148533787Y-113594657D01*
X148517526Y-113595210D01*
X148504927Y-113595872D01*
X148495454Y-113596652D01*
X148488574Y-113597559D01*
X148483754Y-113598602D01*
X148481084Y-113599514D01*
X148454531Y-113614721D01*
X148434538Y-113635152D01*
X148421459Y-113660270D01*
X148415650Y-113689537D01*
X148415377Y-113698867D01*
X148419140Y-113729958D01*
X148429878Y-113756509D01*
X148447399Y-113778181D01*
X148468824Y-113793244D01*
X148474146Y-113795896D01*
X148479782Y-113798017D01*
X148486742Y-113799687D01*
X148496039Y-113800986D01*
X148508683Y-113801990D01*
X148525687Y-113802781D01*
X148548061Y-113803437D01*
X148576818Y-113804037D01*
X148612969Y-113804660D01*
X148615400Y-113804700D01*
X148744517Y-113806817D01*
X148746634Y-114194167D01*
X148748750Y-114581516D01*
X148758129Y-114599053D01*
X148774920Y-114621958D01*
X148797296Y-114640063D01*
X148823491Y-114652684D01*
X148851742Y-114659135D01*
X148880286Y-114658731D01*
X148899532Y-114653989D01*
X148927757Y-114640308D01*
X148949425Y-114621928D01*
X148955885Y-114613697D01*
X148959845Y-114607997D01*
X148963335Y-114602672D01*
X148966385Y-114597175D01*
X148969025Y-114590962D01*
X148971283Y-114583490D01*
X148973190Y-114574214D01*
X148974775Y-114562588D01*
X148976069Y-114548069D01*
X148977100Y-114530113D01*
X148977899Y-114508174D01*
X148978495Y-114481708D01*
X148978917Y-114450172D01*
X148979196Y-114413019D01*
X148979360Y-114369707D01*
X148979441Y-114319689D01*
X148979466Y-114262423D01*
X148979467Y-114197363D01*
X148979467Y-113804700D01*
X149105408Y-113804607D01*
X149144515Y-113804523D01*
X149176161Y-113804210D01*
X149201352Y-113803482D01*
X149221094Y-113802152D01*
X149236392Y-113800035D01*
X149248253Y-113796942D01*
X149257683Y-113792689D01*
X149265686Y-113787088D01*
X149273269Y-113779952D01*
X149280493Y-113772145D01*
X149297542Y-113747449D01*
X149307073Y-113720493D01*
X149309170Y-113692645D01*
X149303918Y-113665272D01*
X149291399Y-113639740D01*
X149271699Y-113617418D01*
X149270931Y-113616755D01*
X149257767Y-113607112D01*
X149244155Y-113599604D01*
X149237977Y-113597273D01*
X149230881Y-113596497D01*
X149215636Y-113595790D01*
X149192557Y-113595156D01*
X149161961Y-113594599D01*
X149124165Y-113594122D01*
X149079485Y-113593728D01*
X149028238Y-113593422D01*
X148970739Y-113593206D01*
X148907306Y-113593084D01*
X148859739Y-113593057D01*
X148794969Y-113593067D01*
G36*
X148090402Y-113587552D02*
X148070496Y-113592193D01*
X148063710Y-113594920D01*
X148040140Y-113610814D01*
X148020399Y-113633278D01*
X148013045Y-113645381D01*
X148003684Y-113662883D01*
X148002550Y-114113472D01*
X148002351Y-114187292D01*
X148002169Y-114253131D01*
X148002035Y-114311477D01*
X148001980Y-114362816D01*
X148002036Y-114407635D01*
X148002232Y-114446420D01*
X148002602Y-114479658D01*
X148003176Y-114507835D01*
X148003985Y-114531438D01*
X148005061Y-114550953D01*
X148006435Y-114566867D01*
X148008139Y-114579667D01*
X148010202Y-114589839D01*
X148012658Y-114597870D01*
X148015536Y-114604246D01*
X148018869Y-114609454D01*
X148022688Y-114613981D01*
X148027024Y-114618312D01*
X148031907Y-114622935D01*
X148035523Y-114626459D01*
X148059031Y-114644216D01*
X148086619Y-114655492D01*
X148116413Y-114659827D01*
X148146540Y-114656760D01*
X148152423Y-114655223D01*
X148176058Y-114644585D01*
X148198039Y-114627821D01*
X148215584Y-114607199D01*
X148219584Y-114600566D01*
X148232284Y-114577283D01*
X148233417Y-114127850D01*
X148233595Y-114056432D01*
X148233742Y-113992981D01*
X148233850Y-113936997D01*
X148233911Y-113887982D01*
X148233917Y-113845435D01*
X148233860Y-113808858D01*
X148233732Y-113777751D01*
X148233525Y-113751614D01*
X148233230Y-113729948D01*
X148232840Y-113712254D01*
X148232347Y-113698032D01*
X148231742Y-113686782D01*
X148231017Y-113678006D01*
X148230165Y-113671204D01*
X148229177Y-113665875D01*
X148228045Y-113661522D01*
X148226761Y-113657644D01*
X148225771Y-113654954D01*
X148213874Y-113632868D01*
X148196495Y-113612974D01*
X148175884Y-113597417D01*
X148156523Y-113588923D01*
X148136808Y-113585697D01*
X148113637Y-113585314D01*
X148090402Y-113587552D01*
X148090402Y-113587552D01*
G37*
X148090402Y-113587552D02*
X148070496Y-113592193D01*
X148063710Y-113594920D01*
X148040140Y-113610814D01*
X148020399Y-113633278D01*
X148013045Y-113645381D01*
X148003684Y-113662883D01*
X148002550Y-114113472D01*
X148002351Y-114187292D01*
X148002169Y-114253131D01*
X148002035Y-114311477D01*
X148001980Y-114362816D01*
X148002036Y-114407635D01*
X148002232Y-114446420D01*
X148002602Y-114479658D01*
X148003176Y-114507835D01*
X148003985Y-114531438D01*
X148005061Y-114550953D01*
X148006435Y-114566867D01*
X148008139Y-114579667D01*
X148010202Y-114589839D01*
X148012658Y-114597870D01*
X148015536Y-114604246D01*
X148018869Y-114609454D01*
X148022688Y-114613981D01*
X148027024Y-114618312D01*
X148031907Y-114622935D01*
X148035523Y-114626459D01*
X148059031Y-114644216D01*
X148086619Y-114655492D01*
X148116413Y-114659827D01*
X148146540Y-114656760D01*
X148152423Y-114655223D01*
X148176058Y-114644585D01*
X148198039Y-114627821D01*
X148215584Y-114607199D01*
X148219584Y-114600566D01*
X148232284Y-114577283D01*
X148233417Y-114127850D01*
X148233595Y-114056432D01*
X148233742Y-113992981D01*
X148233850Y-113936997D01*
X148233911Y-113887982D01*
X148233917Y-113845435D01*
X148233860Y-113808858D01*
X148233732Y-113777751D01*
X148233525Y-113751614D01*
X148233230Y-113729948D01*
X148232840Y-113712254D01*
X148232347Y-113698032D01*
X148231742Y-113686782D01*
X148231017Y-113678006D01*
X148230165Y-113671204D01*
X148229177Y-113665875D01*
X148228045Y-113661522D01*
X148226761Y-113657644D01*
X148225771Y-113654954D01*
X148213874Y-113632868D01*
X148196495Y-113612974D01*
X148175884Y-113597417D01*
X148156523Y-113588923D01*
X148136808Y-113585697D01*
X148113637Y-113585314D01*
X148090402Y-113587552D01*
G36*
X145592501Y-113588082D02*
X145565317Y-113598433D01*
X145542877Y-113615779D01*
X145525058Y-113640196D01*
X145520002Y-113650183D01*
X145510250Y-113671350D01*
X145510250Y-114568816D01*
X145522432Y-114593626D01*
X145539009Y-114618953D01*
X145560629Y-114637565D01*
X145587418Y-114649536D01*
X145619500Y-114654937D01*
X145629073Y-114655278D01*
X145659028Y-114653797D01*
X145683623Y-114648040D01*
X145705264Y-114637110D01*
X145726352Y-114620113D01*
X145728189Y-114618367D01*
X145734457Y-114611443D01*
X145745419Y-114598291D01*
X145760664Y-114579437D01*
X145779780Y-114555407D01*
X145802358Y-114526728D01*
X145827985Y-114493925D01*
X145856251Y-114457526D01*
X145886743Y-114418055D01*
X145919052Y-114376040D01*
X145952766Y-114332007D01*
X145986194Y-114288162D01*
X146219059Y-113982108D01*
X146220254Y-114277579D01*
X146220491Y-114334763D01*
X146220719Y-114384104D01*
X146220958Y-114426226D01*
X146221228Y-114461752D01*
X146221549Y-114491308D01*
X146221940Y-114515515D01*
X146222421Y-114534999D01*
X146223013Y-114550382D01*
X146223736Y-114562290D01*
X146224608Y-114571344D01*
X146225651Y-114578171D01*
X146226883Y-114583392D01*
X146228326Y-114587632D01*
X146229998Y-114591515D01*
X146230290Y-114592147D01*
X146246440Y-114617436D01*
X146268753Y-114638313D01*
X146284381Y-114647931D01*
X146301699Y-114653944D01*
X146323478Y-114657621D01*
X146346008Y-114658635D01*
X146365578Y-114656660D01*
X146370190Y-114655476D01*
X146396232Y-114643251D01*
X146418918Y-114624476D01*
X146436079Y-114600985D01*
X146437255Y-114598749D01*
X146450050Y-114573648D01*
X146450050Y-114124616D01*
X146450065Y-114051149D01*
X146450087Y-113985661D01*
X146450082Y-113927665D01*
X146450015Y-113876674D01*
X146449854Y-113832199D01*
X146449564Y-113793753D01*
X146449111Y-113760850D01*
X146448461Y-113733001D01*
X146447580Y-113709719D01*
X146446435Y-113690517D01*
X146444990Y-113674907D01*
X146443213Y-113662402D01*
X146441069Y-113652515D01*
X146438524Y-113644757D01*
X146435545Y-113638642D01*
X146432097Y-113633682D01*
X146428146Y-113629389D01*
X146423658Y-113625277D01*
X146418600Y-113620857D01*
X146414689Y-113617308D01*
X146399197Y-113604375D01*
X146383810Y-113595537D01*
X146366379Y-113590109D01*
X146344755Y-113587407D01*
X146318817Y-113586739D01*
X146297840Y-113587066D01*
X146282638Y-113588280D01*
X146270531Y-113590830D01*
X146258839Y-113595164D01*
X146253200Y-113597722D01*
X146236663Y-113607164D01*
X146220248Y-113619159D01*
X146212834Y-113625830D01*
X146207742Y-113631733D01*
X146197936Y-113643863D01*
X146183817Y-113661701D01*
X146165787Y-113684730D01*
X146144248Y-113712429D01*
X146119600Y-113744281D01*
X146092247Y-113779766D01*
X146062589Y-113818366D01*
X146031027Y-113859561D01*
X145997965Y-113902833D01*
X145969417Y-113940287D01*
X145743084Y-114237563D01*
X145740967Y-113952340D01*
X145740549Y-113894829D01*
X145740173Y-113845150D01*
X145739779Y-113802665D01*
X145739311Y-113766741D01*
X145738712Y-113736740D01*
X145737922Y-113712029D01*
X145736885Y-113691972D01*
X145735542Y-113675932D01*
X145733836Y-113663275D01*
X145731710Y-113653366D01*
X145729105Y-113645568D01*
X145725964Y-113639247D01*
X145722230Y-113633767D01*
X145717843Y-113628493D01*
X145712748Y-113622788D01*
X145710836Y-113620629D01*
X145688695Y-113601616D01*
X145661909Y-113589638D01*
X145630649Y-113584766D01*
X145624550Y-113584649D01*
X145592501Y-113588082D01*
X145592501Y-113588082D01*
G37*
X145592501Y-113588082D02*
X145565317Y-113598433D01*
X145542877Y-113615779D01*
X145525058Y-113640196D01*
X145520002Y-113650183D01*
X145510250Y-113671350D01*
X145510250Y-114568816D01*
X145522432Y-114593626D01*
X145539009Y-114618953D01*
X145560629Y-114637565D01*
X145587418Y-114649536D01*
X145619500Y-114654937D01*
X145629073Y-114655278D01*
X145659028Y-114653797D01*
X145683623Y-114648040D01*
X145705264Y-114637110D01*
X145726352Y-114620113D01*
X145728189Y-114618367D01*
X145734457Y-114611443D01*
X145745419Y-114598291D01*
X145760664Y-114579437D01*
X145779780Y-114555407D01*
X145802358Y-114526728D01*
X145827985Y-114493925D01*
X145856251Y-114457526D01*
X145886743Y-114418055D01*
X145919052Y-114376040D01*
X145952766Y-114332007D01*
X145986194Y-114288162D01*
X146219059Y-113982108D01*
X146220254Y-114277579D01*
X146220491Y-114334763D01*
X146220719Y-114384104D01*
X146220958Y-114426226D01*
X146221228Y-114461752D01*
X146221549Y-114491308D01*
X146221940Y-114515515D01*
X146222421Y-114534999D01*
X146223013Y-114550382D01*
X146223736Y-114562290D01*
X146224608Y-114571344D01*
X146225651Y-114578171D01*
X146226883Y-114583392D01*
X146228326Y-114587632D01*
X146229998Y-114591515D01*
X146230290Y-114592147D01*
X146246440Y-114617436D01*
X146268753Y-114638313D01*
X146284381Y-114647931D01*
X146301699Y-114653944D01*
X146323478Y-114657621D01*
X146346008Y-114658635D01*
X146365578Y-114656660D01*
X146370190Y-114655476D01*
X146396232Y-114643251D01*
X146418918Y-114624476D01*
X146436079Y-114600985D01*
X146437255Y-114598749D01*
X146450050Y-114573648D01*
X146450050Y-114124616D01*
X146450065Y-114051149D01*
X146450087Y-113985661D01*
X146450082Y-113927665D01*
X146450015Y-113876674D01*
X146449854Y-113832199D01*
X146449564Y-113793753D01*
X146449111Y-113760850D01*
X146448461Y-113733001D01*
X146447580Y-113709719D01*
X146446435Y-113690517D01*
X146444990Y-113674907D01*
X146443213Y-113662402D01*
X146441069Y-113652515D01*
X146438524Y-113644757D01*
X146435545Y-113638642D01*
X146432097Y-113633682D01*
X146428146Y-113629389D01*
X146423658Y-113625277D01*
X146418600Y-113620857D01*
X146414689Y-113617308D01*
X146399197Y-113604375D01*
X146383810Y-113595537D01*
X146366379Y-113590109D01*
X146344755Y-113587407D01*
X146318817Y-113586739D01*
X146297840Y-113587066D01*
X146282638Y-113588280D01*
X146270531Y-113590830D01*
X146258839Y-113595164D01*
X146253200Y-113597722D01*
X146236663Y-113607164D01*
X146220248Y-113619159D01*
X146212834Y-113625830D01*
X146207742Y-113631733D01*
X146197936Y-113643863D01*
X146183817Y-113661701D01*
X146165787Y-113684730D01*
X146144248Y-113712429D01*
X146119600Y-113744281D01*
X146092247Y-113779766D01*
X146062589Y-113818366D01*
X146031027Y-113859561D01*
X145997965Y-113902833D01*
X145969417Y-113940287D01*
X145743084Y-114237563D01*
X145740967Y-113952340D01*
X145740549Y-113894829D01*
X145740173Y-113845150D01*
X145739779Y-113802665D01*
X145739311Y-113766741D01*
X145738712Y-113736740D01*
X145737922Y-113712029D01*
X145736885Y-113691972D01*
X145735542Y-113675932D01*
X145733836Y-113663275D01*
X145731710Y-113653366D01*
X145729105Y-113645568D01*
X145725964Y-113639247D01*
X145722230Y-113633767D01*
X145717843Y-113628493D01*
X145712748Y-113622788D01*
X145710836Y-113620629D01*
X145688695Y-113601616D01*
X145661909Y-113589638D01*
X145630649Y-113584766D01*
X145624550Y-113584649D01*
X145592501Y-113588082D01*
G36*
X153099875Y-113593228D02*
X153047744Y-113593263D01*
X153002900Y-113593339D01*
X152964753Y-113593469D01*
X152932714Y-113593665D01*
X152906193Y-113593943D01*
X152884600Y-113594316D01*
X152867345Y-113594796D01*
X152853839Y-113595399D01*
X152843492Y-113596136D01*
X152835713Y-113597023D01*
X152829915Y-113598072D01*
X152825505Y-113599297D01*
X152821896Y-113600712D01*
X152821217Y-113601019D01*
X152796358Y-113616698D01*
X152778069Y-113637603D01*
X152766623Y-113663302D01*
X152762290Y-113693364D01*
X152762267Y-113694741D01*
X152765730Y-113723808D01*
X152776257Y-113749569D01*
X152793013Y-113770938D01*
X152815160Y-113786832D01*
X152840293Y-113795843D01*
X152850320Y-113797009D01*
X152868676Y-113798010D01*
X152895227Y-113798844D01*
X152929836Y-113799508D01*
X152972370Y-113800001D01*
X153022691Y-113800318D01*
X153080666Y-113800459D01*
X153098709Y-113800467D01*
X153335567Y-113800467D01*
X153335567Y-114011770D01*
X152905883Y-114014250D01*
X152884717Y-114025303D01*
X152869637Y-114035185D01*
X152855460Y-114047683D01*
X152850182Y-114053696D01*
X152836630Y-114077611D01*
X152830118Y-114103732D01*
X152830318Y-114130479D01*
X152836903Y-114156269D01*
X152849547Y-114179521D01*
X152867923Y-114198654D01*
X152882025Y-114207741D01*
X152904734Y-114219567D01*
X153335567Y-114219567D01*
X153335567Y-114443933D01*
X153084742Y-114443975D01*
X152833917Y-114444016D01*
X152812577Y-114453953D01*
X152788057Y-114469268D01*
X152770493Y-114489255D01*
X152759739Y-114514154D01*
X152755650Y-114544206D01*
X152755600Y-114548294D01*
X152758773Y-114577942D01*
X152768484Y-114602558D01*
X152785024Y-114622823D01*
X152788789Y-114626093D01*
X152794389Y-114630690D01*
X152799722Y-114634693D01*
X152805384Y-114638142D01*
X152811969Y-114641077D01*
X152820075Y-114643538D01*
X152830295Y-114645564D01*
X152843226Y-114647196D01*
X152859463Y-114648473D01*
X152879601Y-114649435D01*
X152904237Y-114650121D01*
X152933965Y-114650572D01*
X152969381Y-114650827D01*
X153011081Y-114650927D01*
X153059659Y-114650910D01*
X153115713Y-114650817D01*
X153157477Y-114650732D01*
X153208337Y-114650606D01*
X153256913Y-114650442D01*
X153302513Y-114650244D01*
X153344444Y-114650019D01*
X153382014Y-114649770D01*
X153414530Y-114649504D01*
X153441298Y-114649224D01*
X153461627Y-114648937D01*
X153474824Y-114648647D01*
X153480081Y-114648380D01*
X153494712Y-114643537D01*
X153511943Y-114634083D01*
X153528958Y-114621915D01*
X153542939Y-114608931D01*
X153547941Y-114602683D01*
X153556126Y-114587671D01*
X153562731Y-114570307D01*
X153564236Y-114564583D01*
X153565075Y-114557509D01*
X153565802Y-114544244D01*
X153566418Y-114524562D01*
X153566927Y-114498236D01*
X153567329Y-114465038D01*
X153567627Y-114424741D01*
X153567821Y-114377118D01*
X153567914Y-114321941D01*
X153567906Y-114258984D01*
X153567801Y-114188019D01*
X153567599Y-114108819D01*
X153567595Y-114107383D01*
X153566284Y-113671350D01*
X153557129Y-113654417D01*
X153539282Y-113629824D01*
X153515706Y-113610070D01*
X153500667Y-113601832D01*
X153496930Y-113600230D01*
X153492901Y-113598840D01*
X153487985Y-113597647D01*
X153481588Y-113596636D01*
X153473113Y-113595792D01*
X153461968Y-113595099D01*
X153447557Y-113594544D01*
X153429285Y-113594110D01*
X153406558Y-113593783D01*
X153378781Y-113593547D01*
X153345360Y-113593388D01*
X153305700Y-113593291D01*
X153259205Y-113593241D01*
X153205283Y-113593222D01*
X153159883Y-113593219D01*
X153099875Y-113593228D01*
X153099875Y-113593228D01*
G37*
X153099875Y-113593228D02*
X153047744Y-113593263D01*
X153002900Y-113593339D01*
X152964753Y-113593469D01*
X152932714Y-113593665D01*
X152906193Y-113593943D01*
X152884600Y-113594316D01*
X152867345Y-113594796D01*
X152853839Y-113595399D01*
X152843492Y-113596136D01*
X152835713Y-113597023D01*
X152829915Y-113598072D01*
X152825505Y-113599297D01*
X152821896Y-113600712D01*
X152821217Y-113601019D01*
X152796358Y-113616698D01*
X152778069Y-113637603D01*
X152766623Y-113663302D01*
X152762290Y-113693364D01*
X152762267Y-113694741D01*
X152765730Y-113723808D01*
X152776257Y-113749569D01*
X152793013Y-113770938D01*
X152815160Y-113786832D01*
X152840293Y-113795843D01*
X152850320Y-113797009D01*
X152868676Y-113798010D01*
X152895227Y-113798844D01*
X152929836Y-113799508D01*
X152972370Y-113800001D01*
X153022691Y-113800318D01*
X153080666Y-113800459D01*
X153098709Y-113800467D01*
X153335567Y-113800467D01*
X153335567Y-114011770D01*
X152905883Y-114014250D01*
X152884717Y-114025303D01*
X152869637Y-114035185D01*
X152855460Y-114047683D01*
X152850182Y-114053696D01*
X152836630Y-114077611D01*
X152830118Y-114103732D01*
X152830318Y-114130479D01*
X152836903Y-114156269D01*
X152849547Y-114179521D01*
X152867923Y-114198654D01*
X152882025Y-114207741D01*
X152904734Y-114219567D01*
X153335567Y-114219567D01*
X153335567Y-114443933D01*
X153084742Y-114443975D01*
X152833917Y-114444016D01*
X152812577Y-114453953D01*
X152788057Y-114469268D01*
X152770493Y-114489255D01*
X152759739Y-114514154D01*
X152755650Y-114544206D01*
X152755600Y-114548294D01*
X152758773Y-114577942D01*
X152768484Y-114602558D01*
X152785024Y-114622823D01*
X152788789Y-114626093D01*
X152794389Y-114630690D01*
X152799722Y-114634693D01*
X152805384Y-114638142D01*
X152811969Y-114641077D01*
X152820075Y-114643538D01*
X152830295Y-114645564D01*
X152843226Y-114647196D01*
X152859463Y-114648473D01*
X152879601Y-114649435D01*
X152904237Y-114650121D01*
X152933965Y-114650572D01*
X152969381Y-114650827D01*
X153011081Y-114650927D01*
X153059659Y-114650910D01*
X153115713Y-114650817D01*
X153157477Y-114650732D01*
X153208337Y-114650606D01*
X153256913Y-114650442D01*
X153302513Y-114650244D01*
X153344444Y-114650019D01*
X153382014Y-114649770D01*
X153414530Y-114649504D01*
X153441298Y-114649224D01*
X153461627Y-114648937D01*
X153474824Y-114648647D01*
X153480081Y-114648380D01*
X153494712Y-114643537D01*
X153511943Y-114634083D01*
X153528958Y-114621915D01*
X153542939Y-114608931D01*
X153547941Y-114602683D01*
X153556126Y-114587671D01*
X153562731Y-114570307D01*
X153564236Y-114564583D01*
X153565075Y-114557509D01*
X153565802Y-114544244D01*
X153566418Y-114524562D01*
X153566927Y-114498236D01*
X153567329Y-114465038D01*
X153567627Y-114424741D01*
X153567821Y-114377118D01*
X153567914Y-114321941D01*
X153567906Y-114258984D01*
X153567801Y-114188019D01*
X153567599Y-114108819D01*
X153567595Y-114107383D01*
X153566284Y-113671350D01*
X153557129Y-113654417D01*
X153539282Y-113629824D01*
X153515706Y-113610070D01*
X153500667Y-113601832D01*
X153496930Y-113600230D01*
X153492901Y-113598840D01*
X153487985Y-113597647D01*
X153481588Y-113596636D01*
X153473113Y-113595792D01*
X153461968Y-113595099D01*
X153447557Y-113594544D01*
X153429285Y-113594110D01*
X153406558Y-113593783D01*
X153378781Y-113593547D01*
X153345360Y-113593388D01*
X153305700Y-113593291D01*
X153259205Y-113593241D01*
X153205283Y-113593222D01*
X153159883Y-113593219D01*
X153099875Y-113593228D01*
G36*
X152715839Y-112215057D02*
X152679568Y-112216666D01*
X152646560Y-112219304D01*
X152618757Y-112222957D01*
X152608753Y-112224866D01*
X152546167Y-112241368D01*
X152489407Y-112262764D01*
X152436989Y-112289672D01*
X152405499Y-112309754D01*
X152388894Y-112322110D01*
X152377344Y-112333531D01*
X152368288Y-112346787D01*
X152364138Y-112354492D01*
X152356835Y-112370339D01*
X152353005Y-112384048D01*
X152351685Y-112399861D01*
X152351662Y-112409526D01*
X152353821Y-112436016D01*
X152360316Y-112457620D01*
X152372203Y-112477260D01*
X152379331Y-112485937D01*
X152401474Y-112504957D01*
X152428283Y-112516932D01*
X152459681Y-112521831D01*
X152465916Y-112521958D01*
X152478671Y-112521680D01*
X152489825Y-112520408D01*
X152500836Y-112517548D01*
X152513164Y-112512503D01*
X152528266Y-112504678D01*
X152547602Y-112493476D01*
X152572295Y-112478508D01*
X152592214Y-112467627D01*
X152616013Y-112456544D01*
X152639384Y-112447223D01*
X152645533Y-112445108D01*
X152663565Y-112439512D01*
X152679290Y-112435606D01*
X152695246Y-112433000D01*
X152713967Y-112431308D01*
X152737989Y-112430142D01*
X152745068Y-112429889D01*
X152778384Y-112429383D01*
X152805782Y-112430719D01*
X152829698Y-112434373D01*
X152852571Y-112440821D01*
X152876837Y-112450538D01*
X152895300Y-112459219D01*
X152912474Y-112468216D01*
X152927277Y-112477631D01*
X152941856Y-112489098D01*
X152958354Y-112504250D01*
X152971678Y-112517405D01*
X152990016Y-112536332D01*
X153003706Y-112551982D01*
X153014471Y-112566660D01*
X153024033Y-112582669D01*
X153032082Y-112598200D01*
X153048089Y-112633306D01*
X153059169Y-112665439D01*
X153066016Y-112697593D01*
X153069325Y-112732762D01*
X153069907Y-112761183D01*
X153068554Y-112800534D01*
X153064174Y-112834755D01*
X153056069Y-112866856D01*
X153043546Y-112899847D01*
X153032228Y-112924166D01*
X153022235Y-112943399D01*
X153012477Y-112959182D01*
X153001140Y-112973965D01*
X152986409Y-112990197D01*
X152973843Y-113002998D01*
X152955662Y-113020687D01*
X152940670Y-113033765D01*
X152926477Y-113043988D01*
X152910694Y-113053114D01*
X152895165Y-113060879D01*
X152863873Y-113074621D01*
X152834879Y-113084171D01*
X152805647Y-113090013D01*
X152773645Y-113092633D01*
X152736338Y-113092515D01*
X152730796Y-113092317D01*
X152703285Y-113090712D01*
X152677632Y-113088222D01*
X152656304Y-113085123D01*
X152645533Y-113082808D01*
X152624424Y-113076187D01*
X152600809Y-113067133D01*
X152577441Y-113056848D01*
X152557077Y-113046535D01*
X152543882Y-113038430D01*
X152531233Y-113029423D01*
X152531233Y-112881833D01*
X152615132Y-112881833D01*
X152650939Y-112881580D01*
X152679498Y-112880647D01*
X152702017Y-112878772D01*
X152719703Y-112875693D01*
X152733763Y-112871149D01*
X152745407Y-112864877D01*
X152755841Y-112856616D01*
X152762758Y-112849837D01*
X152777500Y-112830854D01*
X152786031Y-112809978D01*
X152789261Y-112784756D01*
X152789350Y-112778116D01*
X152785236Y-112749707D01*
X152773624Y-112724177D01*
X152755320Y-112702875D01*
X152736550Y-112689863D01*
X152732024Y-112687558D01*
X152727278Y-112685679D01*
X152721445Y-112684181D01*
X152713661Y-112683022D01*
X152703060Y-112682159D01*
X152688775Y-112681547D01*
X152669942Y-112681144D01*
X152645695Y-112680906D01*
X152615167Y-112680790D01*
X152577494Y-112680753D01*
X152554517Y-112680750D01*
X152389417Y-112680750D01*
X152366745Y-112693308D01*
X152341180Y-112711525D01*
X152322803Y-112734014D01*
X152313020Y-112755426D01*
X152311307Y-112761644D01*
X152309933Y-112769489D01*
X152308874Y-112779823D01*
X152308103Y-112793505D01*
X152307596Y-112811395D01*
X152307329Y-112834356D01*
X152307276Y-112863246D01*
X152307413Y-112898927D01*
X152307695Y-112939710D01*
X152308983Y-113104083D01*
X152321282Y-113130717D01*
X152336017Y-113155421D01*
X152356799Y-113178107D01*
X152384483Y-113199580D01*
X152413061Y-113216915D01*
X152480460Y-113249654D01*
X152551357Y-113275528D01*
X152623773Y-113293844D01*
X152640577Y-113296938D01*
X152669727Y-113300722D01*
X152704293Y-113303297D01*
X152741867Y-113304644D01*
X152780040Y-113304747D01*
X152816404Y-113303588D01*
X152848551Y-113301149D01*
X152867783Y-113298582D01*
X152916992Y-113287700D01*
X152967176Y-113271882D01*
X153016098Y-113252056D01*
X153061522Y-113229147D01*
X153101212Y-113204081D01*
X153108019Y-113199077D01*
X153157845Y-113156264D01*
X153201211Y-113108035D01*
X153237985Y-113054599D01*
X153268037Y-112996163D01*
X153291237Y-112932936D01*
X153302372Y-112890300D01*
X153307173Y-112862001D01*
X153310555Y-112827976D01*
X153312500Y-112790475D01*
X153312990Y-112751749D01*
X153312007Y-112714049D01*
X153309532Y-112679625D01*
X153305548Y-112650728D01*
X153304344Y-112644767D01*
X153285598Y-112577705D01*
X153259828Y-112515179D01*
X153227349Y-112457499D01*
X153188472Y-112404974D01*
X153143512Y-112357916D01*
X153092781Y-112316634D01*
X153036593Y-112281438D01*
X152975261Y-112252638D01*
X152909098Y-112230544D01*
X152878144Y-112222941D01*
X152854699Y-112219194D01*
X152824803Y-112216546D01*
X152790399Y-112214984D01*
X152753431Y-112214492D01*
X152715839Y-112215057D01*
X152715839Y-112215057D01*
G37*
X152715839Y-112215057D02*
X152679568Y-112216666D01*
X152646560Y-112219304D01*
X152618757Y-112222957D01*
X152608753Y-112224866D01*
X152546167Y-112241368D01*
X152489407Y-112262764D01*
X152436989Y-112289672D01*
X152405499Y-112309754D01*
X152388894Y-112322110D01*
X152377344Y-112333531D01*
X152368288Y-112346787D01*
X152364138Y-112354492D01*
X152356835Y-112370339D01*
X152353005Y-112384048D01*
X152351685Y-112399861D01*
X152351662Y-112409526D01*
X152353821Y-112436016D01*
X152360316Y-112457620D01*
X152372203Y-112477260D01*
X152379331Y-112485937D01*
X152401474Y-112504957D01*
X152428283Y-112516932D01*
X152459681Y-112521831D01*
X152465916Y-112521958D01*
X152478671Y-112521680D01*
X152489825Y-112520408D01*
X152500836Y-112517548D01*
X152513164Y-112512503D01*
X152528266Y-112504678D01*
X152547602Y-112493476D01*
X152572295Y-112478508D01*
X152592214Y-112467627D01*
X152616013Y-112456544D01*
X152639384Y-112447223D01*
X152645533Y-112445108D01*
X152663565Y-112439512D01*
X152679290Y-112435606D01*
X152695246Y-112433000D01*
X152713967Y-112431308D01*
X152737989Y-112430142D01*
X152745068Y-112429889D01*
X152778384Y-112429383D01*
X152805782Y-112430719D01*
X152829698Y-112434373D01*
X152852571Y-112440821D01*
X152876837Y-112450538D01*
X152895300Y-112459219D01*
X152912474Y-112468216D01*
X152927277Y-112477631D01*
X152941856Y-112489098D01*
X152958354Y-112504250D01*
X152971678Y-112517405D01*
X152990016Y-112536332D01*
X153003706Y-112551982D01*
X153014471Y-112566660D01*
X153024033Y-112582669D01*
X153032082Y-112598200D01*
X153048089Y-112633306D01*
X153059169Y-112665439D01*
X153066016Y-112697593D01*
X153069325Y-112732762D01*
X153069907Y-112761183D01*
X153068554Y-112800534D01*
X153064174Y-112834755D01*
X153056069Y-112866856D01*
X153043546Y-112899847D01*
X153032228Y-112924166D01*
X153022235Y-112943399D01*
X153012477Y-112959182D01*
X153001140Y-112973965D01*
X152986409Y-112990197D01*
X152973843Y-113002998D01*
X152955662Y-113020687D01*
X152940670Y-113033765D01*
X152926477Y-113043988D01*
X152910694Y-113053114D01*
X152895165Y-113060879D01*
X152863873Y-113074621D01*
X152834879Y-113084171D01*
X152805647Y-113090013D01*
X152773645Y-113092633D01*
X152736338Y-113092515D01*
X152730796Y-113092317D01*
X152703285Y-113090712D01*
X152677632Y-113088222D01*
X152656304Y-113085123D01*
X152645533Y-113082808D01*
X152624424Y-113076187D01*
X152600809Y-113067133D01*
X152577441Y-113056848D01*
X152557077Y-113046535D01*
X152543882Y-113038430D01*
X152531233Y-113029423D01*
X152531233Y-112881833D01*
X152615132Y-112881833D01*
X152650939Y-112881580D01*
X152679498Y-112880647D01*
X152702017Y-112878772D01*
X152719703Y-112875693D01*
X152733763Y-112871149D01*
X152745407Y-112864877D01*
X152755841Y-112856616D01*
X152762758Y-112849837D01*
X152777500Y-112830854D01*
X152786031Y-112809978D01*
X152789261Y-112784756D01*
X152789350Y-112778116D01*
X152785236Y-112749707D01*
X152773624Y-112724177D01*
X152755320Y-112702875D01*
X152736550Y-112689863D01*
X152732024Y-112687558D01*
X152727278Y-112685679D01*
X152721445Y-112684181D01*
X152713661Y-112683022D01*
X152703060Y-112682159D01*
X152688775Y-112681547D01*
X152669942Y-112681144D01*
X152645695Y-112680906D01*
X152615167Y-112680790D01*
X152577494Y-112680753D01*
X152554517Y-112680750D01*
X152389417Y-112680750D01*
X152366745Y-112693308D01*
X152341180Y-112711525D01*
X152322803Y-112734014D01*
X152313020Y-112755426D01*
X152311307Y-112761644D01*
X152309933Y-112769489D01*
X152308874Y-112779823D01*
X152308103Y-112793505D01*
X152307596Y-112811395D01*
X152307329Y-112834356D01*
X152307276Y-112863246D01*
X152307413Y-112898927D01*
X152307695Y-112939710D01*
X152308983Y-113104083D01*
X152321282Y-113130717D01*
X152336017Y-113155421D01*
X152356799Y-113178107D01*
X152384483Y-113199580D01*
X152413061Y-113216915D01*
X152480460Y-113249654D01*
X152551357Y-113275528D01*
X152623773Y-113293844D01*
X152640577Y-113296938D01*
X152669727Y-113300722D01*
X152704293Y-113303297D01*
X152741867Y-113304644D01*
X152780040Y-113304747D01*
X152816404Y-113303588D01*
X152848551Y-113301149D01*
X152867783Y-113298582D01*
X152916992Y-113287700D01*
X152967176Y-113271882D01*
X153016098Y-113252056D01*
X153061522Y-113229147D01*
X153101212Y-113204081D01*
X153108019Y-113199077D01*
X153157845Y-113156264D01*
X153201211Y-113108035D01*
X153237985Y-113054599D01*
X153268037Y-112996163D01*
X153291237Y-112932936D01*
X153302372Y-112890300D01*
X153307173Y-112862001D01*
X153310555Y-112827976D01*
X153312500Y-112790475D01*
X153312990Y-112751749D01*
X153312007Y-112714049D01*
X153309532Y-112679625D01*
X153305548Y-112650728D01*
X153304344Y-112644767D01*
X153285598Y-112577705D01*
X153259828Y-112515179D01*
X153227349Y-112457499D01*
X153188472Y-112404974D01*
X153143512Y-112357916D01*
X153092781Y-112316634D01*
X153036593Y-112281438D01*
X152975261Y-112252638D01*
X152909098Y-112230544D01*
X152878144Y-112222941D01*
X152854699Y-112219194D01*
X152824803Y-112216546D01*
X152790399Y-112214984D01*
X152753431Y-112214492D01*
X152715839Y-112215057D01*
G36*
X155914634Y-112230431D02*
X155877350Y-112230566D01*
X155845775Y-112230860D01*
X155819358Y-112231341D01*
X155797548Y-112232039D01*
X155779793Y-112232983D01*
X155765541Y-112234202D01*
X155754241Y-112235726D01*
X155745342Y-112237584D01*
X155738292Y-112239805D01*
X155732540Y-112242418D01*
X155727535Y-112245453D01*
X155722724Y-112248939D01*
X155717598Y-112252874D01*
X155707442Y-112262893D01*
X155696816Y-112276824D01*
X155691203Y-112285973D01*
X155681294Y-112311972D01*
X155678357Y-112339362D01*
X155682002Y-112366433D01*
X155691839Y-112391477D01*
X155707478Y-112412784D01*
X155723021Y-112425437D01*
X155737249Y-112433412D01*
X155751520Y-112439792D01*
X155756887Y-112441596D01*
X155764966Y-112442683D01*
X155780260Y-112443666D01*
X155801518Y-112444505D01*
X155827487Y-112445162D01*
X155856917Y-112445598D01*
X155888555Y-112445774D01*
X155891442Y-112445776D01*
X156011033Y-112445800D01*
X156011033Y-113214604D01*
X156021999Y-113236609D01*
X156038759Y-113261525D01*
X156060807Y-113279911D01*
X156087838Y-113291593D01*
X156119548Y-113296397D01*
X156127146Y-113296514D01*
X156144385Y-113295399D01*
X156160989Y-113292738D01*
X156169244Y-113290485D01*
X156194319Y-113277121D01*
X156215406Y-113256566D01*
X156229050Y-113235204D01*
X156241750Y-113210523D01*
X156242937Y-112828393D01*
X156244124Y-112446262D01*
X156369937Y-112444973D01*
X156495750Y-112443683D01*
X156519033Y-112430589D01*
X156540850Y-112413831D01*
X156558240Y-112391542D01*
X156569569Y-112366081D01*
X156572336Y-112353683D01*
X156572653Y-112325093D01*
X156565579Y-112297650D01*
X156551949Y-112273028D01*
X156532598Y-112252898D01*
X156516993Y-112242831D01*
X156495981Y-112232017D01*
X156131895Y-112230888D01*
X156066258Y-112230683D01*
X156008537Y-112230519D01*
X155958180Y-112230425D01*
X155914634Y-112230431D01*
X155914634Y-112230431D01*
G37*
X155914634Y-112230431D02*
X155877350Y-112230566D01*
X155845775Y-112230860D01*
X155819358Y-112231341D01*
X155797548Y-112232039D01*
X155779793Y-112232983D01*
X155765541Y-112234202D01*
X155754241Y-112235726D01*
X155745342Y-112237584D01*
X155738292Y-112239805D01*
X155732540Y-112242418D01*
X155727535Y-112245453D01*
X155722724Y-112248939D01*
X155717598Y-112252874D01*
X155707442Y-112262893D01*
X155696816Y-112276824D01*
X155691203Y-112285973D01*
X155681294Y-112311972D01*
X155678357Y-112339362D01*
X155682002Y-112366433D01*
X155691839Y-112391477D01*
X155707478Y-112412784D01*
X155723021Y-112425437D01*
X155737249Y-112433412D01*
X155751520Y-112439792D01*
X155756887Y-112441596D01*
X155764966Y-112442683D01*
X155780260Y-112443666D01*
X155801518Y-112444505D01*
X155827487Y-112445162D01*
X155856917Y-112445598D01*
X155888555Y-112445774D01*
X155891442Y-112445776D01*
X156011033Y-112445800D01*
X156011033Y-113214604D01*
X156021999Y-113236609D01*
X156038759Y-113261525D01*
X156060807Y-113279911D01*
X156087838Y-113291593D01*
X156119548Y-113296397D01*
X156127146Y-113296514D01*
X156144385Y-113295399D01*
X156160989Y-113292738D01*
X156169244Y-113290485D01*
X156194319Y-113277121D01*
X156215406Y-113256566D01*
X156229050Y-113235204D01*
X156241750Y-113210523D01*
X156242937Y-112828393D01*
X156244124Y-112446262D01*
X156369937Y-112444973D01*
X156495750Y-112443683D01*
X156519033Y-112430589D01*
X156540850Y-112413831D01*
X156558240Y-112391542D01*
X156569569Y-112366081D01*
X156572336Y-112353683D01*
X156572653Y-112325093D01*
X156565579Y-112297650D01*
X156551949Y-112273028D01*
X156532598Y-112252898D01*
X156516993Y-112242831D01*
X156495981Y-112232017D01*
X156131895Y-112230888D01*
X156066258Y-112230683D01*
X156008537Y-112230519D01*
X155958180Y-112230425D01*
X155914634Y-112230431D01*
G36*
X155147356Y-112215390D02*
X155132045Y-112216431D01*
X155120140Y-112218656D01*
X155109114Y-112222477D01*
X155100867Y-112226181D01*
X155072042Y-112244433D01*
X155048211Y-112269291D01*
X155033243Y-112293400D01*
X155029965Y-112300370D01*
X155023504Y-112314550D01*
X155014096Y-112335408D01*
X155001980Y-112362408D01*
X154987394Y-112395018D01*
X154970577Y-112432703D01*
X154951764Y-112474931D01*
X154931196Y-112521166D01*
X154909110Y-112570876D01*
X154885743Y-112623527D01*
X154861334Y-112678584D01*
X154836121Y-112735514D01*
X154834703Y-112738718D01*
X154805278Y-112805218D01*
X154779102Y-112864432D01*
X154755987Y-112916812D01*
X154735744Y-112962810D01*
X154718184Y-113002876D01*
X154703117Y-113037463D01*
X154690355Y-113067022D01*
X154679708Y-113092004D01*
X154670988Y-113112861D01*
X154664006Y-113130044D01*
X154658572Y-113144005D01*
X154654498Y-113155194D01*
X154651594Y-113164064D01*
X154649671Y-113171066D01*
X154648541Y-113176652D01*
X154648015Y-113181272D01*
X154647900Y-113184843D01*
X154649736Y-113211392D01*
X154655944Y-113232827D01*
X154667580Y-113251825D01*
X154679507Y-113265093D01*
X154699172Y-113281660D01*
X154719541Y-113291649D01*
X154743333Y-113296158D01*
X154757967Y-113296700D01*
X154786107Y-113294142D01*
X154809739Y-113285885D01*
X154831316Y-113271050D01*
X154832501Y-113270019D01*
X154839508Y-113263573D01*
X154845692Y-113256949D01*
X154851581Y-113249161D01*
X154857705Y-113239221D01*
X154864591Y-113226145D01*
X154872766Y-113208946D01*
X154882759Y-113186639D01*
X154895099Y-113158237D01*
X154906076Y-113132658D01*
X154940958Y-113051166D01*
X155404261Y-113051166D01*
X155445045Y-113146522D01*
X155456978Y-113173947D01*
X155468496Y-113199548D01*
X155478989Y-113222031D01*
X155487844Y-113240105D01*
X155494452Y-113252478D01*
X155497211Y-113256798D01*
X155515306Y-113275230D01*
X155537316Y-113287512D01*
X155564484Y-113294219D01*
X155580960Y-113295691D01*
X155599273Y-113296217D01*
X155612299Y-113295340D01*
X155623175Y-113292531D01*
X155635036Y-113287261D01*
X155637097Y-113286224D01*
X155660474Y-113269909D01*
X155678010Y-113248404D01*
X155689221Y-113223077D01*
X155693621Y-113195297D01*
X155690725Y-113166430D01*
X155685518Y-113149748D01*
X155681883Y-113141032D01*
X155675144Y-113125371D01*
X155665580Y-113103390D01*
X155653469Y-113075714D01*
X155639088Y-113042971D01*
X155622715Y-113005785D01*
X155604627Y-112964782D01*
X155585104Y-112920589D01*
X155564421Y-112873831D01*
X155549440Y-112839998D01*
X155316061Y-112839998D01*
X155312332Y-112840910D01*
X155301009Y-112841732D01*
X155282965Y-112842444D01*
X155259075Y-112843021D01*
X155230210Y-112843442D01*
X155197244Y-112843683D01*
X155172733Y-112843733D01*
X155132456Y-112843672D01*
X155099964Y-112843473D01*
X155074577Y-112843110D01*
X155055612Y-112842558D01*
X155042389Y-112841791D01*
X155034228Y-112840785D01*
X155030447Y-112839514D01*
X155030047Y-112838441D01*
X155035413Y-112824988D01*
X155043156Y-112806109D01*
X155052865Y-112782766D01*
X155064126Y-112755925D01*
X155076527Y-112726548D01*
X155089657Y-112695599D01*
X155103103Y-112664043D01*
X155116454Y-112632842D01*
X155129296Y-112602961D01*
X155141219Y-112575364D01*
X155151809Y-112551013D01*
X155160654Y-112530873D01*
X155167344Y-112515908D01*
X155171464Y-112507081D01*
X155172613Y-112505067D01*
X155174589Y-112508807D01*
X155179439Y-112519383D01*
X155186751Y-112535829D01*
X155196109Y-112557180D01*
X155207101Y-112582469D01*
X155219314Y-112610730D01*
X155232332Y-112640998D01*
X155245743Y-112672307D01*
X155259133Y-112703691D01*
X155272088Y-112734183D01*
X155284195Y-112762819D01*
X155295039Y-112788632D01*
X155304208Y-112810656D01*
X155311287Y-112827925D01*
X155315862Y-112839474D01*
X155316061Y-112839998D01*
X155549440Y-112839998D01*
X155542858Y-112825134D01*
X155520693Y-112775123D01*
X155498202Y-112724425D01*
X155475663Y-112673664D01*
X155453355Y-112623468D01*
X155431556Y-112574462D01*
X155410542Y-112527272D01*
X155390593Y-112482522D01*
X155371985Y-112440841D01*
X155354996Y-112402852D01*
X155339905Y-112369182D01*
X155326989Y-112340456D01*
X155316526Y-112317302D01*
X155308793Y-112300343D01*
X155304069Y-112290206D01*
X155302958Y-112287959D01*
X155286353Y-112262732D01*
X155265411Y-112242973D01*
X155238217Y-112226896D01*
X155236527Y-112226095D01*
X155224576Y-112220965D01*
X155213497Y-112217714D01*
X155200753Y-112215934D01*
X155183811Y-112215214D01*
X155168600Y-112215121D01*
X155147356Y-112215390D01*
X155147356Y-112215390D01*
G37*
X155147356Y-112215390D02*
X155132045Y-112216431D01*
X155120140Y-112218656D01*
X155109114Y-112222477D01*
X155100867Y-112226181D01*
X155072042Y-112244433D01*
X155048211Y-112269291D01*
X155033243Y-112293400D01*
X155029965Y-112300370D01*
X155023504Y-112314550D01*
X155014096Y-112335408D01*
X155001980Y-112362408D01*
X154987394Y-112395018D01*
X154970577Y-112432703D01*
X154951764Y-112474931D01*
X154931196Y-112521166D01*
X154909110Y-112570876D01*
X154885743Y-112623527D01*
X154861334Y-112678584D01*
X154836121Y-112735514D01*
X154834703Y-112738718D01*
X154805278Y-112805218D01*
X154779102Y-112864432D01*
X154755987Y-112916812D01*
X154735744Y-112962810D01*
X154718184Y-113002876D01*
X154703117Y-113037463D01*
X154690355Y-113067022D01*
X154679708Y-113092004D01*
X154670988Y-113112861D01*
X154664006Y-113130044D01*
X154658572Y-113144005D01*
X154654498Y-113155194D01*
X154651594Y-113164064D01*
X154649671Y-113171066D01*
X154648541Y-113176652D01*
X154648015Y-113181272D01*
X154647900Y-113184843D01*
X154649736Y-113211392D01*
X154655944Y-113232827D01*
X154667580Y-113251825D01*
X154679507Y-113265093D01*
X154699172Y-113281660D01*
X154719541Y-113291649D01*
X154743333Y-113296158D01*
X154757967Y-113296700D01*
X154786107Y-113294142D01*
X154809739Y-113285885D01*
X154831316Y-113271050D01*
X154832501Y-113270019D01*
X154839508Y-113263573D01*
X154845692Y-113256949D01*
X154851581Y-113249161D01*
X154857705Y-113239221D01*
X154864591Y-113226145D01*
X154872766Y-113208946D01*
X154882759Y-113186639D01*
X154895099Y-113158237D01*
X154906076Y-113132658D01*
X154940958Y-113051166D01*
X155404261Y-113051166D01*
X155445045Y-113146522D01*
X155456978Y-113173947D01*
X155468496Y-113199548D01*
X155478989Y-113222031D01*
X155487844Y-113240105D01*
X155494452Y-113252478D01*
X155497211Y-113256798D01*
X155515306Y-113275230D01*
X155537316Y-113287512D01*
X155564484Y-113294219D01*
X155580960Y-113295691D01*
X155599273Y-113296217D01*
X155612299Y-113295340D01*
X155623175Y-113292531D01*
X155635036Y-113287261D01*
X155637097Y-113286224D01*
X155660474Y-113269909D01*
X155678010Y-113248404D01*
X155689221Y-113223077D01*
X155693621Y-113195297D01*
X155690725Y-113166430D01*
X155685518Y-113149748D01*
X155681883Y-113141032D01*
X155675144Y-113125371D01*
X155665580Y-113103390D01*
X155653469Y-113075714D01*
X155639088Y-113042971D01*
X155622715Y-113005785D01*
X155604627Y-112964782D01*
X155585104Y-112920589D01*
X155564421Y-112873831D01*
X155549440Y-112839998D01*
X155316061Y-112839998D01*
X155312332Y-112840910D01*
X155301009Y-112841732D01*
X155282965Y-112842444D01*
X155259075Y-112843021D01*
X155230210Y-112843442D01*
X155197244Y-112843683D01*
X155172733Y-112843733D01*
X155132456Y-112843672D01*
X155099964Y-112843473D01*
X155074577Y-112843110D01*
X155055612Y-112842558D01*
X155042389Y-112841791D01*
X155034228Y-112840785D01*
X155030447Y-112839514D01*
X155030047Y-112838441D01*
X155035413Y-112824988D01*
X155043156Y-112806109D01*
X155052865Y-112782766D01*
X155064126Y-112755925D01*
X155076527Y-112726548D01*
X155089657Y-112695599D01*
X155103103Y-112664043D01*
X155116454Y-112632842D01*
X155129296Y-112602961D01*
X155141219Y-112575364D01*
X155151809Y-112551013D01*
X155160654Y-112530873D01*
X155167344Y-112515908D01*
X155171464Y-112507081D01*
X155172613Y-112505067D01*
X155174589Y-112508807D01*
X155179439Y-112519383D01*
X155186751Y-112535829D01*
X155196109Y-112557180D01*
X155207101Y-112582469D01*
X155219314Y-112610730D01*
X155232332Y-112640998D01*
X155245743Y-112672307D01*
X155259133Y-112703691D01*
X155272088Y-112734183D01*
X155284195Y-112762819D01*
X155295039Y-112788632D01*
X155304208Y-112810656D01*
X155311287Y-112827925D01*
X155315862Y-112839474D01*
X155316061Y-112839998D01*
X155549440Y-112839998D01*
X155542858Y-112825134D01*
X155520693Y-112775123D01*
X155498202Y-112724425D01*
X155475663Y-112673664D01*
X155453355Y-112623468D01*
X155431556Y-112574462D01*
X155410542Y-112527272D01*
X155390593Y-112482522D01*
X155371985Y-112440841D01*
X155354996Y-112402852D01*
X155339905Y-112369182D01*
X155326989Y-112340456D01*
X155316526Y-112317302D01*
X155308793Y-112300343D01*
X155304069Y-112290206D01*
X155302958Y-112287959D01*
X155286353Y-112262732D01*
X155265411Y-112242973D01*
X155238217Y-112226896D01*
X155236527Y-112226095D01*
X155224576Y-112220965D01*
X155213497Y-112217714D01*
X155200753Y-112215934D01*
X155183811Y-112215214D01*
X155168600Y-112215121D01*
X155147356Y-112215390D01*
G36*
X153615643Y-112223378D02*
X153588245Y-112231627D01*
X153563660Y-112247585D01*
X153555207Y-112255389D01*
X153550008Y-112260443D01*
X153545376Y-112264941D01*
X153541281Y-112269378D01*
X153537688Y-112274246D01*
X153534565Y-112280038D01*
X153531880Y-112287247D01*
X153529599Y-112296367D01*
X153527689Y-112307890D01*
X153526119Y-112322309D01*
X153524854Y-112340117D01*
X153523863Y-112361807D01*
X153523112Y-112387872D01*
X153522569Y-112418805D01*
X153522200Y-112455100D01*
X153521974Y-112497248D01*
X153521857Y-112545744D01*
X153521816Y-112601079D01*
X153521819Y-112663748D01*
X153521832Y-112734242D01*
X153521834Y-112756950D01*
X153521826Y-112829766D01*
X153521825Y-112894610D01*
X153521858Y-112951976D01*
X153521957Y-113002358D01*
X153522152Y-113046250D01*
X153522471Y-113084148D01*
X153522946Y-113116545D01*
X153523606Y-113143936D01*
X153524481Y-113166814D01*
X153525600Y-113185675D01*
X153526995Y-113201012D01*
X153528695Y-113213320D01*
X153530729Y-113223094D01*
X153533128Y-113230826D01*
X153535922Y-113237013D01*
X153539140Y-113242148D01*
X153542813Y-113246725D01*
X153546970Y-113251239D01*
X153551641Y-113256184D01*
X153552095Y-113256675D01*
X153571471Y-113274481D01*
X153591974Y-113286089D01*
X153615802Y-113292390D01*
X153644820Y-113294273D01*
X153675550Y-113291974D01*
X153701578Y-113284425D01*
X153725022Y-113270673D01*
X153747999Y-113249762D01*
X153751185Y-113246334D01*
X153757097Y-113239306D01*
X153767714Y-113226065D01*
X153782625Y-113207143D01*
X153801418Y-113183072D01*
X153823681Y-113154385D01*
X153849003Y-113121613D01*
X153876973Y-113085290D01*
X153907178Y-113045948D01*
X153939209Y-113004119D01*
X153972653Y-112960335D01*
X154002317Y-112921411D01*
X154230917Y-112621131D01*
X154233034Y-112917641D01*
X154233457Y-112975247D01*
X154233859Y-113025002D01*
X154234257Y-113067521D01*
X154234673Y-113103418D01*
X154235124Y-113133309D01*
X154235629Y-113157807D01*
X154236208Y-113177530D01*
X154236880Y-113193091D01*
X154237664Y-113205105D01*
X154238579Y-113214188D01*
X154239644Y-113220955D01*
X154240879Y-113226020D01*
X154242302Y-113229999D01*
X154242773Y-113231083D01*
X154258582Y-113256370D01*
X154280181Y-113276114D01*
X154306388Y-113289575D01*
X154336022Y-113296015D01*
X154347334Y-113296473D01*
X154364869Y-113295457D01*
X154381664Y-113292980D01*
X154391244Y-113290485D01*
X154416018Y-113277301D01*
X154437035Y-113257279D01*
X154449992Y-113237553D01*
X154461634Y-113215300D01*
X154461610Y-112765991D01*
X154461563Y-112683063D01*
X154461432Y-112608106D01*
X154461216Y-112541174D01*
X154460918Y-112482322D01*
X154460536Y-112431602D01*
X154460073Y-112389068D01*
X154459527Y-112354774D01*
X154458900Y-112328773D01*
X154458192Y-112311119D01*
X154457404Y-112301865D01*
X154457207Y-112300915D01*
X154447619Y-112279681D01*
X154431977Y-112259577D01*
X154412551Y-112243286D01*
X154404539Y-112238598D01*
X154394952Y-112234022D01*
X154385946Y-112230951D01*
X154375501Y-112229089D01*
X154361595Y-112228140D01*
X154342205Y-112227809D01*
X154330495Y-112227783D01*
X154308071Y-112227898D01*
X154292176Y-112228443D01*
X154280873Y-112229721D01*
X154272225Y-112232034D01*
X154264295Y-112235684D01*
X154258434Y-112239019D01*
X154243300Y-112249341D01*
X154228136Y-112261785D01*
X154223659Y-112266032D01*
X154218780Y-112271713D01*
X154209181Y-112283624D01*
X154195259Y-112301252D01*
X154177410Y-112324083D01*
X154156034Y-112351604D01*
X154131526Y-112383300D01*
X154104284Y-112418657D01*
X154074707Y-112457162D01*
X154043190Y-112498301D01*
X154010132Y-112541560D01*
X153980242Y-112580763D01*
X153752550Y-112879716D01*
X153750434Y-112587617D01*
X153749984Y-112529061D01*
X153749533Y-112478414D01*
X153749066Y-112435117D01*
X153748569Y-112398611D01*
X153748026Y-112368337D01*
X153747422Y-112343738D01*
X153746743Y-112324255D01*
X153745974Y-112309330D01*
X153745100Y-112298403D01*
X153744106Y-112290917D01*
X153742976Y-112286313D01*
X153742365Y-112284933D01*
X153723216Y-112258298D01*
X153699809Y-112238975D01*
X153672078Y-112226922D01*
X153646816Y-112222491D01*
X153615643Y-112223378D01*
X153615643Y-112223378D01*
G37*
X153615643Y-112223378D02*
X153588245Y-112231627D01*
X153563660Y-112247585D01*
X153555207Y-112255389D01*
X153550008Y-112260443D01*
X153545376Y-112264941D01*
X153541281Y-112269378D01*
X153537688Y-112274246D01*
X153534565Y-112280038D01*
X153531880Y-112287247D01*
X153529599Y-112296367D01*
X153527689Y-112307890D01*
X153526119Y-112322309D01*
X153524854Y-112340117D01*
X153523863Y-112361807D01*
X153523112Y-112387872D01*
X153522569Y-112418805D01*
X153522200Y-112455100D01*
X153521974Y-112497248D01*
X153521857Y-112545744D01*
X153521816Y-112601079D01*
X153521819Y-112663748D01*
X153521832Y-112734242D01*
X153521834Y-112756950D01*
X153521826Y-112829766D01*
X153521825Y-112894610D01*
X153521858Y-112951976D01*
X153521957Y-113002358D01*
X153522152Y-113046250D01*
X153522471Y-113084148D01*
X153522946Y-113116545D01*
X153523606Y-113143936D01*
X153524481Y-113166814D01*
X153525600Y-113185675D01*
X153526995Y-113201012D01*
X153528695Y-113213320D01*
X153530729Y-113223094D01*
X153533128Y-113230826D01*
X153535922Y-113237013D01*
X153539140Y-113242148D01*
X153542813Y-113246725D01*
X153546970Y-113251239D01*
X153551641Y-113256184D01*
X153552095Y-113256675D01*
X153571471Y-113274481D01*
X153591974Y-113286089D01*
X153615802Y-113292390D01*
X153644820Y-113294273D01*
X153675550Y-113291974D01*
X153701578Y-113284425D01*
X153725022Y-113270673D01*
X153747999Y-113249762D01*
X153751185Y-113246334D01*
X153757097Y-113239306D01*
X153767714Y-113226065D01*
X153782625Y-113207143D01*
X153801418Y-113183072D01*
X153823681Y-113154385D01*
X153849003Y-113121613D01*
X153876973Y-113085290D01*
X153907178Y-113045948D01*
X153939209Y-113004119D01*
X153972653Y-112960335D01*
X154002317Y-112921411D01*
X154230917Y-112621131D01*
X154233034Y-112917641D01*
X154233457Y-112975247D01*
X154233859Y-113025002D01*
X154234257Y-113067521D01*
X154234673Y-113103418D01*
X154235124Y-113133309D01*
X154235629Y-113157807D01*
X154236208Y-113177530D01*
X154236880Y-113193091D01*
X154237664Y-113205105D01*
X154238579Y-113214188D01*
X154239644Y-113220955D01*
X154240879Y-113226020D01*
X154242302Y-113229999D01*
X154242773Y-113231083D01*
X154258582Y-113256370D01*
X154280181Y-113276114D01*
X154306388Y-113289575D01*
X154336022Y-113296015D01*
X154347334Y-113296473D01*
X154364869Y-113295457D01*
X154381664Y-113292980D01*
X154391244Y-113290485D01*
X154416018Y-113277301D01*
X154437035Y-113257279D01*
X154449992Y-113237553D01*
X154461634Y-113215300D01*
X154461610Y-112765991D01*
X154461563Y-112683063D01*
X154461432Y-112608106D01*
X154461216Y-112541174D01*
X154460918Y-112482322D01*
X154460536Y-112431602D01*
X154460073Y-112389068D01*
X154459527Y-112354774D01*
X154458900Y-112328773D01*
X154458192Y-112311119D01*
X154457404Y-112301865D01*
X154457207Y-112300915D01*
X154447619Y-112279681D01*
X154431977Y-112259577D01*
X154412551Y-112243286D01*
X154404539Y-112238598D01*
X154394952Y-112234022D01*
X154385946Y-112230951D01*
X154375501Y-112229089D01*
X154361595Y-112228140D01*
X154342205Y-112227809D01*
X154330495Y-112227783D01*
X154308071Y-112227898D01*
X154292176Y-112228443D01*
X154280873Y-112229721D01*
X154272225Y-112232034D01*
X154264295Y-112235684D01*
X154258434Y-112239019D01*
X154243300Y-112249341D01*
X154228136Y-112261785D01*
X154223659Y-112266032D01*
X154218780Y-112271713D01*
X154209181Y-112283624D01*
X154195259Y-112301252D01*
X154177410Y-112324083D01*
X154156034Y-112351604D01*
X154131526Y-112383300D01*
X154104284Y-112418657D01*
X154074707Y-112457162D01*
X154043190Y-112498301D01*
X154010132Y-112541560D01*
X153980242Y-112580763D01*
X153752550Y-112879716D01*
X153750434Y-112587617D01*
X153749984Y-112529061D01*
X153749533Y-112478414D01*
X153749066Y-112435117D01*
X153748569Y-112398611D01*
X153748026Y-112368337D01*
X153747422Y-112343738D01*
X153746743Y-112324255D01*
X153745974Y-112309330D01*
X153745100Y-112298403D01*
X153744106Y-112290917D01*
X153742976Y-112286313D01*
X153742365Y-112284933D01*
X153723216Y-112258298D01*
X153699809Y-112238975D01*
X153672078Y-112226922D01*
X153646816Y-112222491D01*
X153615643Y-112223378D01*
G36*
X151935261Y-112224131D02*
X151920672Y-112225980D01*
X151908954Y-112229632D01*
X151902014Y-112232962D01*
X151876648Y-112250786D01*
X151856554Y-112273850D01*
X151847923Y-112289119D01*
X151846521Y-112292252D01*
X151845275Y-112295569D01*
X151844177Y-112299565D01*
X151843217Y-112304732D01*
X151842386Y-112311565D01*
X151841675Y-112320557D01*
X151841073Y-112332203D01*
X151840573Y-112346997D01*
X151840165Y-112365432D01*
X151839839Y-112388002D01*
X151839586Y-112415201D01*
X151839397Y-112447523D01*
X151839262Y-112485462D01*
X151839173Y-112529512D01*
X151839120Y-112580167D01*
X151839094Y-112637920D01*
X151839084Y-112703266D01*
X151839083Y-112759066D01*
X151839083Y-113209917D01*
X151850994Y-113234172D01*
X151867875Y-113260077D01*
X151889650Y-113279084D01*
X151916236Y-113291144D01*
X151947550Y-113296209D01*
X151957313Y-113296366D01*
X151974737Y-113295121D01*
X151991695Y-113292290D01*
X152000108Y-113289963D01*
X152025210Y-113276647D01*
X152046141Y-113256322D01*
X152060006Y-113234172D01*
X152071917Y-113209917D01*
X152071917Y-112759066D01*
X152071909Y-112687142D01*
X152071881Y-112623198D01*
X152071826Y-112566748D01*
X152071735Y-112517304D01*
X152071601Y-112474380D01*
X152071417Y-112437490D01*
X152071176Y-112406147D01*
X152070869Y-112379864D01*
X152070490Y-112358155D01*
X152070030Y-112340532D01*
X152069482Y-112326511D01*
X152068840Y-112315603D01*
X152068094Y-112307322D01*
X152067238Y-112301182D01*
X152066265Y-112296695D01*
X152065166Y-112293376D01*
X152064725Y-112292343D01*
X152049192Y-112265911D01*
X152028911Y-112245719D01*
X152013727Y-112235874D01*
X152001440Y-112229622D01*
X151990496Y-112225920D01*
X151977864Y-112224128D01*
X151960513Y-112223608D01*
X151955500Y-112223601D01*
X151935261Y-112224131D01*
X151935261Y-112224131D01*
G37*
X151935261Y-112224131D02*
X151920672Y-112225980D01*
X151908954Y-112229632D01*
X151902014Y-112232962D01*
X151876648Y-112250786D01*
X151856554Y-112273850D01*
X151847923Y-112289119D01*
X151846521Y-112292252D01*
X151845275Y-112295569D01*
X151844177Y-112299565D01*
X151843217Y-112304732D01*
X151842386Y-112311565D01*
X151841675Y-112320557D01*
X151841073Y-112332203D01*
X151840573Y-112346997D01*
X151840165Y-112365432D01*
X151839839Y-112388002D01*
X151839586Y-112415201D01*
X151839397Y-112447523D01*
X151839262Y-112485462D01*
X151839173Y-112529512D01*
X151839120Y-112580167D01*
X151839094Y-112637920D01*
X151839084Y-112703266D01*
X151839083Y-112759066D01*
X151839083Y-113209917D01*
X151850994Y-113234172D01*
X151867875Y-113260077D01*
X151889650Y-113279084D01*
X151916236Y-113291144D01*
X151947550Y-113296209D01*
X151957313Y-113296366D01*
X151974737Y-113295121D01*
X151991695Y-113292290D01*
X152000108Y-113289963D01*
X152025210Y-113276647D01*
X152046141Y-113256322D01*
X152060006Y-113234172D01*
X152071917Y-113209917D01*
X152071917Y-112759066D01*
X152071909Y-112687142D01*
X152071881Y-112623198D01*
X152071826Y-112566748D01*
X152071735Y-112517304D01*
X152071601Y-112474380D01*
X152071417Y-112437490D01*
X152071176Y-112406147D01*
X152070869Y-112379864D01*
X152070490Y-112358155D01*
X152070030Y-112340532D01*
X152069482Y-112326511D01*
X152068840Y-112315603D01*
X152068094Y-112307322D01*
X152067238Y-112301182D01*
X152066265Y-112296695D01*
X152065166Y-112293376D01*
X152064725Y-112292343D01*
X152049192Y-112265911D01*
X152028911Y-112245719D01*
X152013727Y-112235874D01*
X152001440Y-112229622D01*
X151990496Y-112225920D01*
X151977864Y-112224128D01*
X151960513Y-112223608D01*
X151955500Y-112223601D01*
X151935261Y-112224131D01*
G36*
X151130550Y-112230520D02*
X151095879Y-112230951D01*
X151066409Y-112231696D01*
X151041325Y-112232795D01*
X151019812Y-112234288D01*
X151001052Y-112236216D01*
X150984230Y-112238619D01*
X150968531Y-112241536D01*
X150953138Y-112245008D01*
X150945760Y-112246847D01*
X150899006Y-112262512D01*
X150856786Y-112284178D01*
X150819751Y-112311260D01*
X150788551Y-112343173D01*
X150763837Y-112379331D01*
X150746259Y-112419149D01*
X150743202Y-112429088D01*
X150735315Y-112470428D01*
X150733638Y-112514585D01*
X150738079Y-112558726D01*
X150748541Y-112600018D01*
X150748947Y-112601184D01*
X150765745Y-112636802D01*
X150790115Y-112670537D01*
X150821203Y-112701336D01*
X150845239Y-112719719D01*
X150867443Y-112735011D01*
X150827758Y-112754615D01*
X150786220Y-112777842D01*
X150752307Y-112803069D01*
X150725247Y-112831203D01*
X150704268Y-112863150D01*
X150688600Y-112899819D01*
X150680657Y-112927618D01*
X150677688Y-112946622D01*
X150676087Y-112971250D01*
X150675812Y-112998777D01*
X150676824Y-113026481D01*
X150679084Y-113051635D01*
X150682552Y-113071515D01*
X150682760Y-113072333D01*
X150698194Y-113115872D01*
X150720709Y-113154904D01*
X150750100Y-113189238D01*
X150786164Y-113218680D01*
X150828694Y-113243036D01*
X150877486Y-113262113D01*
X150886792Y-113264934D01*
X150903389Y-113269607D01*
X150919165Y-113273609D01*
X150934917Y-113276992D01*
X150951439Y-113279807D01*
X150969524Y-113282104D01*
X150989968Y-113283934D01*
X151013566Y-113285349D01*
X151041111Y-113286399D01*
X151073399Y-113287135D01*
X151111224Y-113287608D01*
X151155380Y-113287869D01*
X151206663Y-113287968D01*
X151246417Y-113287970D01*
X151300537Y-113287901D01*
X151346759Y-113287738D01*
X151385653Y-113287470D01*
X151417787Y-113287083D01*
X151443729Y-113286565D01*
X151464049Y-113285904D01*
X151479314Y-113285086D01*
X151490095Y-113284099D01*
X151496960Y-113282931D01*
X151498787Y-113282393D01*
X151525121Y-113268782D01*
X151546821Y-113249073D01*
X151562621Y-113224686D01*
X151570286Y-113202196D01*
X151571131Y-113195145D01*
X151571864Y-113182191D01*
X151572486Y-113163081D01*
X151573001Y-113137563D01*
X151573409Y-113105384D01*
X151573562Y-113085643D01*
X151345900Y-113085643D01*
X151179742Y-113084024D01*
X151136572Y-113083561D01*
X151101002Y-113083065D01*
X151072162Y-113082494D01*
X151049185Y-113081809D01*
X151031202Y-113080969D01*
X151017347Y-113079933D01*
X151006750Y-113078660D01*
X150998544Y-113077110D01*
X150991862Y-113075241D01*
X150991778Y-113075214D01*
X150963063Y-113062672D01*
X150939501Y-113046076D01*
X150922461Y-113026461D01*
X150918833Y-113020155D01*
X150908638Y-112991663D01*
X150906367Y-112962976D01*
X150911609Y-112935363D01*
X150923955Y-112910095D01*
X150942996Y-112888443D01*
X150966407Y-112872637D01*
X150977055Y-112867645D01*
X150988312Y-112863527D01*
X151001083Y-112860202D01*
X151016273Y-112857588D01*
X151034787Y-112855604D01*
X151057529Y-112854168D01*
X151085405Y-112853198D01*
X151119320Y-112852614D01*
X151160178Y-112852333D01*
X151192442Y-112852273D01*
X151345900Y-112852200D01*
X151345900Y-113085643D01*
X151573562Y-113085643D01*
X151573712Y-113066292D01*
X151573913Y-113020033D01*
X151574014Y-112966355D01*
X151574016Y-112905006D01*
X151573920Y-112835733D01*
X151573730Y-112758282D01*
X151573695Y-112746366D01*
X151573427Y-112657467D01*
X151345900Y-112657467D01*
X151219958Y-112657393D01*
X151178661Y-112657241D01*
X151144913Y-112656812D01*
X151117800Y-112656071D01*
X151096408Y-112654980D01*
X151079823Y-112653502D01*
X151067130Y-112651601D01*
X151064961Y-112651164D01*
X151032062Y-112640918D01*
X151005215Y-112625645D01*
X150984847Y-112605794D01*
X150971383Y-112581817D01*
X150965248Y-112554163D01*
X150964900Y-112545283D01*
X150968792Y-112516887D01*
X150980109Y-112491884D01*
X150998314Y-112470792D01*
X151022869Y-112454127D01*
X151053238Y-112442405D01*
X151077083Y-112437499D01*
X151089220Y-112436375D01*
X151108375Y-112435357D01*
X151133099Y-112434487D01*
X151161944Y-112433807D01*
X151193461Y-112433359D01*
X151226203Y-112433184D01*
X151226308Y-112433184D01*
X151345900Y-112433100D01*
X151345900Y-112657467D01*
X151573427Y-112657467D01*
X151572383Y-112312450D01*
X151561161Y-112291283D01*
X151549313Y-112272105D01*
X151535789Y-112257845D01*
X151517702Y-112245667D01*
X151511000Y-112242019D01*
X151491950Y-112232017D01*
X151273933Y-112230712D01*
X151218762Y-112230441D01*
X151171239Y-112230364D01*
X151130550Y-112230520D01*
X151130550Y-112230520D01*
G37*
X151130550Y-112230520D02*
X151095879Y-112230951D01*
X151066409Y-112231696D01*
X151041325Y-112232795D01*
X151019812Y-112234288D01*
X151001052Y-112236216D01*
X150984230Y-112238619D01*
X150968531Y-112241536D01*
X150953138Y-112245008D01*
X150945760Y-112246847D01*
X150899006Y-112262512D01*
X150856786Y-112284178D01*
X150819751Y-112311260D01*
X150788551Y-112343173D01*
X150763837Y-112379331D01*
X150746259Y-112419149D01*
X150743202Y-112429088D01*
X150735315Y-112470428D01*
X150733638Y-112514585D01*
X150738079Y-112558726D01*
X150748541Y-112600018D01*
X150748947Y-112601184D01*
X150765745Y-112636802D01*
X150790115Y-112670537D01*
X150821203Y-112701336D01*
X150845239Y-112719719D01*
X150867443Y-112735011D01*
X150827758Y-112754615D01*
X150786220Y-112777842D01*
X150752307Y-112803069D01*
X150725247Y-112831203D01*
X150704268Y-112863150D01*
X150688600Y-112899819D01*
X150680657Y-112927618D01*
X150677688Y-112946622D01*
X150676087Y-112971250D01*
X150675812Y-112998777D01*
X150676824Y-113026481D01*
X150679084Y-113051635D01*
X150682552Y-113071515D01*
X150682760Y-113072333D01*
X150698194Y-113115872D01*
X150720709Y-113154904D01*
X150750100Y-113189238D01*
X150786164Y-113218680D01*
X150828694Y-113243036D01*
X150877486Y-113262113D01*
X150886792Y-113264934D01*
X150903389Y-113269607D01*
X150919165Y-113273609D01*
X150934917Y-113276992D01*
X150951439Y-113279807D01*
X150969524Y-113282104D01*
X150989968Y-113283934D01*
X151013566Y-113285349D01*
X151041111Y-113286399D01*
X151073399Y-113287135D01*
X151111224Y-113287608D01*
X151155380Y-113287869D01*
X151206663Y-113287968D01*
X151246417Y-113287970D01*
X151300537Y-113287901D01*
X151346759Y-113287738D01*
X151385653Y-113287470D01*
X151417787Y-113287083D01*
X151443729Y-113286565D01*
X151464049Y-113285904D01*
X151479314Y-113285086D01*
X151490095Y-113284099D01*
X151496960Y-113282931D01*
X151498787Y-113282393D01*
X151525121Y-113268782D01*
X151546821Y-113249073D01*
X151562621Y-113224686D01*
X151570286Y-113202196D01*
X151571131Y-113195145D01*
X151571864Y-113182191D01*
X151572486Y-113163081D01*
X151573001Y-113137563D01*
X151573409Y-113105384D01*
X151573562Y-113085643D01*
X151345900Y-113085643D01*
X151179742Y-113084024D01*
X151136572Y-113083561D01*
X151101002Y-113083065D01*
X151072162Y-113082494D01*
X151049185Y-113081809D01*
X151031202Y-113080969D01*
X151017347Y-113079933D01*
X151006750Y-113078660D01*
X150998544Y-113077110D01*
X150991862Y-113075241D01*
X150991778Y-113075214D01*
X150963063Y-113062672D01*
X150939501Y-113046076D01*
X150922461Y-113026461D01*
X150918833Y-113020155D01*
X150908638Y-112991663D01*
X150906367Y-112962976D01*
X150911609Y-112935363D01*
X150923955Y-112910095D01*
X150942996Y-112888443D01*
X150966407Y-112872637D01*
X150977055Y-112867645D01*
X150988312Y-112863527D01*
X151001083Y-112860202D01*
X151016273Y-112857588D01*
X151034787Y-112855604D01*
X151057529Y-112854168D01*
X151085405Y-112853198D01*
X151119320Y-112852614D01*
X151160178Y-112852333D01*
X151192442Y-112852273D01*
X151345900Y-112852200D01*
X151345900Y-113085643D01*
X151573562Y-113085643D01*
X151573712Y-113066292D01*
X151573913Y-113020033D01*
X151574014Y-112966355D01*
X151574016Y-112905006D01*
X151573920Y-112835733D01*
X151573730Y-112758282D01*
X151573695Y-112746366D01*
X151573427Y-112657467D01*
X151345900Y-112657467D01*
X151219958Y-112657393D01*
X151178661Y-112657241D01*
X151144913Y-112656812D01*
X151117800Y-112656071D01*
X151096408Y-112654980D01*
X151079823Y-112653502D01*
X151067130Y-112651601D01*
X151064961Y-112651164D01*
X151032062Y-112640918D01*
X151005215Y-112625645D01*
X150984847Y-112605794D01*
X150971383Y-112581817D01*
X150965248Y-112554163D01*
X150964900Y-112545283D01*
X150968792Y-112516887D01*
X150980109Y-112491884D01*
X150998314Y-112470792D01*
X151022869Y-112454127D01*
X151053238Y-112442405D01*
X151077083Y-112437499D01*
X151089220Y-112436375D01*
X151108375Y-112435357D01*
X151133099Y-112434487D01*
X151161944Y-112433807D01*
X151193461Y-112433359D01*
X151226203Y-112433184D01*
X151226308Y-112433184D01*
X151345900Y-112433100D01*
X151345900Y-112657467D01*
X151573427Y-112657467D01*
X151572383Y-112312450D01*
X151561161Y-112291283D01*
X151549313Y-112272105D01*
X151535789Y-112257845D01*
X151517702Y-112245667D01*
X151511000Y-112242019D01*
X151491950Y-112232017D01*
X151273933Y-112230712D01*
X151218762Y-112230441D01*
X151171239Y-112230364D01*
X151130550Y-112230520D01*
G36*
X150339659Y-112224005D02*
X150312019Y-112234091D01*
X150287134Y-112251314D01*
X150282743Y-112255488D01*
X150277223Y-112260897D01*
X150272349Y-112265769D01*
X150268080Y-112270636D01*
X150264376Y-112276031D01*
X150261198Y-112282487D01*
X150258505Y-112290536D01*
X150256257Y-112300711D01*
X150254414Y-112313544D01*
X150252937Y-112329569D01*
X150251784Y-112349318D01*
X150250917Y-112373323D01*
X150250295Y-112402118D01*
X150249878Y-112436234D01*
X150249626Y-112476205D01*
X150249498Y-112522563D01*
X150249456Y-112575841D01*
X150249459Y-112636572D01*
X150249467Y-112698314D01*
X150249467Y-113076291D01*
X150017692Y-113077487D01*
X149967527Y-113077752D01*
X149925118Y-113078007D01*
X149889754Y-113078282D01*
X149860724Y-113078606D01*
X149837318Y-113079010D01*
X149818824Y-113079523D01*
X149804533Y-113080176D01*
X149793732Y-113080998D01*
X149785712Y-113082018D01*
X149779761Y-113083268D01*
X149775170Y-113084776D01*
X149771226Y-113086573D01*
X149768583Y-113087959D01*
X149745831Y-113104659D01*
X149728636Y-113126556D01*
X149717484Y-113152063D01*
X149712863Y-113179595D01*
X149715261Y-113207565D01*
X149724154Y-113232455D01*
X149736638Y-113250432D01*
X149753854Y-113266839D01*
X149772881Y-113279157D01*
X149783201Y-113283320D01*
X149791097Y-113284403D01*
X149806550Y-113285356D01*
X149828711Y-113286181D01*
X149856727Y-113286878D01*
X149889750Y-113287450D01*
X149926929Y-113287898D01*
X149967413Y-113288223D01*
X150010352Y-113288427D01*
X150054896Y-113288513D01*
X150100194Y-113288480D01*
X150145396Y-113288331D01*
X150189651Y-113288067D01*
X150232110Y-113287690D01*
X150271921Y-113287201D01*
X150308235Y-113286602D01*
X150340200Y-113285895D01*
X150366967Y-113285080D01*
X150387685Y-113284160D01*
X150401504Y-113283136D01*
X150407167Y-113282193D01*
X150428985Y-113271192D01*
X150449146Y-113255363D01*
X150460927Y-113241956D01*
X150464295Y-113237281D01*
X150467289Y-113232926D01*
X150469932Y-113228392D01*
X150472245Y-113223181D01*
X150474251Y-113216792D01*
X150475971Y-113208728D01*
X150477427Y-113198487D01*
X150478641Y-113185573D01*
X150479636Y-113169484D01*
X150480432Y-113149723D01*
X150481052Y-113125790D01*
X150481518Y-113097186D01*
X150481852Y-113063411D01*
X150482075Y-113023967D01*
X150482210Y-112978355D01*
X150482278Y-112926075D01*
X150482301Y-112866627D01*
X150482302Y-112799514D01*
X150482300Y-112755055D01*
X150482312Y-112682267D01*
X150482327Y-112617452D01*
X150482310Y-112560116D01*
X150482228Y-112509766D01*
X150482049Y-112465908D01*
X150481739Y-112428048D01*
X150481266Y-112395693D01*
X150480594Y-112368349D01*
X150479692Y-112345522D01*
X150478527Y-112326720D01*
X150477064Y-112311447D01*
X150475271Y-112299210D01*
X150473114Y-112289517D01*
X150470561Y-112281873D01*
X150467577Y-112275784D01*
X150464130Y-112270757D01*
X150460187Y-112266298D01*
X150455714Y-112261914D01*
X150450678Y-112257111D01*
X150448635Y-112255098D01*
X150424542Y-112236603D01*
X150397377Y-112225258D01*
X150368597Y-112221060D01*
X150339659Y-112224005D01*
X150339659Y-112224005D01*
G37*
X150339659Y-112224005D02*
X150312019Y-112234091D01*
X150287134Y-112251314D01*
X150282743Y-112255488D01*
X150277223Y-112260897D01*
X150272349Y-112265769D01*
X150268080Y-112270636D01*
X150264376Y-112276031D01*
X150261198Y-112282487D01*
X150258505Y-112290536D01*
X150256257Y-112300711D01*
X150254414Y-112313544D01*
X150252937Y-112329569D01*
X150251784Y-112349318D01*
X150250917Y-112373323D01*
X150250295Y-112402118D01*
X150249878Y-112436234D01*
X150249626Y-112476205D01*
X150249498Y-112522563D01*
X150249456Y-112575841D01*
X150249459Y-112636572D01*
X150249467Y-112698314D01*
X150249467Y-113076291D01*
X150017692Y-113077487D01*
X149967527Y-113077752D01*
X149925118Y-113078007D01*
X149889754Y-113078282D01*
X149860724Y-113078606D01*
X149837318Y-113079010D01*
X149818824Y-113079523D01*
X149804533Y-113080176D01*
X149793732Y-113080998D01*
X149785712Y-113082018D01*
X149779761Y-113083268D01*
X149775170Y-113084776D01*
X149771226Y-113086573D01*
X149768583Y-113087959D01*
X149745831Y-113104659D01*
X149728636Y-113126556D01*
X149717484Y-113152063D01*
X149712863Y-113179595D01*
X149715261Y-113207565D01*
X149724154Y-113232455D01*
X149736638Y-113250432D01*
X149753854Y-113266839D01*
X149772881Y-113279157D01*
X149783201Y-113283320D01*
X149791097Y-113284403D01*
X149806550Y-113285356D01*
X149828711Y-113286181D01*
X149856727Y-113286878D01*
X149889750Y-113287450D01*
X149926929Y-113287898D01*
X149967413Y-113288223D01*
X150010352Y-113288427D01*
X150054896Y-113288513D01*
X150100194Y-113288480D01*
X150145396Y-113288331D01*
X150189651Y-113288067D01*
X150232110Y-113287690D01*
X150271921Y-113287201D01*
X150308235Y-113286602D01*
X150340200Y-113285895D01*
X150366967Y-113285080D01*
X150387685Y-113284160D01*
X150401504Y-113283136D01*
X150407167Y-113282193D01*
X150428985Y-113271192D01*
X150449146Y-113255363D01*
X150460927Y-113241956D01*
X150464295Y-113237281D01*
X150467289Y-113232926D01*
X150469932Y-113228392D01*
X150472245Y-113223181D01*
X150474251Y-113216792D01*
X150475971Y-113208728D01*
X150477427Y-113198487D01*
X150478641Y-113185573D01*
X150479636Y-113169484D01*
X150480432Y-113149723D01*
X150481052Y-113125790D01*
X150481518Y-113097186D01*
X150481852Y-113063411D01*
X150482075Y-113023967D01*
X150482210Y-112978355D01*
X150482278Y-112926075D01*
X150482301Y-112866627D01*
X150482302Y-112799514D01*
X150482300Y-112755055D01*
X150482312Y-112682267D01*
X150482327Y-112617452D01*
X150482310Y-112560116D01*
X150482228Y-112509766D01*
X150482049Y-112465908D01*
X150481739Y-112428048D01*
X150481266Y-112395693D01*
X150480594Y-112368349D01*
X150479692Y-112345522D01*
X150478527Y-112326720D01*
X150477064Y-112311447D01*
X150475271Y-112299210D01*
X150473114Y-112289517D01*
X150470561Y-112281873D01*
X150467577Y-112275784D01*
X150464130Y-112270757D01*
X150460187Y-112266298D01*
X150455714Y-112261914D01*
X150450678Y-112257111D01*
X150448635Y-112255098D01*
X150424542Y-112236603D01*
X150397377Y-112225258D01*
X150368597Y-112221060D01*
X150339659Y-112224005D01*
G36*
X149078011Y-112232019D02*
X149025686Y-112232037D01*
X148980655Y-112232087D01*
X148942333Y-112232184D01*
X148910134Y-112232343D01*
X148883471Y-112232580D01*
X148861759Y-112232911D01*
X148844412Y-112233351D01*
X148830843Y-112233916D01*
X148820466Y-112234622D01*
X148812696Y-112235484D01*
X148806947Y-112236518D01*
X148802632Y-112237739D01*
X148799165Y-112239164D01*
X148795961Y-112240807D01*
X148795317Y-112241154D01*
X148771929Y-112258069D01*
X148754555Y-112279475D01*
X148743425Y-112303968D01*
X148738769Y-112330146D01*
X148740814Y-112356606D01*
X148749791Y-112381944D01*
X148765927Y-112404758D01*
X148768214Y-112407117D01*
X148774333Y-112413197D01*
X148780060Y-112418401D01*
X148786075Y-112422798D01*
X148793054Y-112426456D01*
X148801674Y-112429442D01*
X148812614Y-112431824D01*
X148826552Y-112433672D01*
X148844164Y-112435052D01*
X148866129Y-112436033D01*
X148893123Y-112436683D01*
X148925826Y-112437070D01*
X148964913Y-112437262D01*
X149011064Y-112437327D01*
X149064955Y-112437333D01*
X149313900Y-112437333D01*
X149313900Y-112653233D01*
X149099058Y-112653326D01*
X149048776Y-112653351D01*
X149006225Y-112653431D01*
X148970670Y-112653648D01*
X148941375Y-112654082D01*
X148917605Y-112654812D01*
X148898624Y-112655919D01*
X148883696Y-112657484D01*
X148872087Y-112659586D01*
X148863061Y-112662307D01*
X148855882Y-112665725D01*
X148849815Y-112669923D01*
X148844124Y-112674980D01*
X148838074Y-112680976D01*
X148837122Y-112681930D01*
X148821423Y-112701369D01*
X148812147Y-112722805D01*
X148808411Y-112748530D01*
X148808238Y-112756950D01*
X148810957Y-112784976D01*
X148819578Y-112808095D01*
X148834895Y-112828150D01*
X148841574Y-112834427D01*
X148848255Y-112840072D01*
X148854882Y-112844844D01*
X148862198Y-112848816D01*
X148870943Y-112852062D01*
X148881860Y-112854654D01*
X148895690Y-112856667D01*
X148913174Y-112858172D01*
X148935054Y-112859244D01*
X148962072Y-112859956D01*
X148994968Y-112860380D01*
X149034485Y-112860591D01*
X149081364Y-112860661D01*
X149107235Y-112860666D01*
X149313900Y-112860666D01*
X149313900Y-113080800D01*
X149069135Y-113080800D01*
X149014068Y-113080806D01*
X148966793Y-113080871D01*
X148926639Y-113081065D01*
X148892932Y-113081456D01*
X148864997Y-113082114D01*
X148842163Y-113083109D01*
X148823755Y-113084509D01*
X148809101Y-113086384D01*
X148797526Y-113088803D01*
X148788358Y-113091836D01*
X148780923Y-113095552D01*
X148774548Y-113100021D01*
X148768560Y-113105311D01*
X148762284Y-113111492D01*
X148761271Y-113112506D01*
X148744529Y-113134562D01*
X148734674Y-113159214D01*
X148731377Y-113185077D01*
X148734310Y-113210763D01*
X148743143Y-113234887D01*
X148757546Y-113256063D01*
X148777191Y-113272904D01*
X148801749Y-113284023D01*
X148802007Y-113284097D01*
X148809059Y-113284886D01*
X148824177Y-113285594D01*
X148846963Y-113286217D01*
X148877016Y-113286750D01*
X148913937Y-113287189D01*
X148957327Y-113287529D01*
X149006787Y-113287766D01*
X149061916Y-113287894D01*
X149122315Y-113287911D01*
X149136072Y-113287899D01*
X149196660Y-113287819D01*
X149249361Y-113287705D01*
X149294759Y-113287546D01*
X149333432Y-113287330D01*
X149365963Y-113287044D01*
X149392932Y-113286678D01*
X149414920Y-113286218D01*
X149432508Y-113285653D01*
X149446278Y-113284971D01*
X149456810Y-113284159D01*
X149464685Y-113283207D01*
X149470484Y-113282101D01*
X149474540Y-113280919D01*
X149495318Y-113269800D01*
X149514716Y-113252667D01*
X149530449Y-113231925D01*
X149539444Y-113212605D01*
X149540634Y-113208409D01*
X149541687Y-113203334D01*
X149542613Y-113196874D01*
X149543419Y-113188520D01*
X149544113Y-113177766D01*
X149544704Y-113164103D01*
X149545199Y-113147024D01*
X149545607Y-113126021D01*
X149545936Y-113100587D01*
X149546195Y-113070214D01*
X149546390Y-113034394D01*
X149546531Y-112992620D01*
X149546625Y-112944384D01*
X149546681Y-112889178D01*
X149546706Y-112826494D01*
X149546710Y-112759639D01*
X149546662Y-112680684D01*
X149546528Y-112609048D01*
X149546309Y-112544854D01*
X149546006Y-112488228D01*
X149545620Y-112439295D01*
X149545154Y-112398182D01*
X149544607Y-112365013D01*
X149543981Y-112339913D01*
X149543278Y-112323008D01*
X149542498Y-112314424D01*
X149542363Y-112313816D01*
X149531558Y-112289065D01*
X149514356Y-112266369D01*
X149492811Y-112248299D01*
X149487467Y-112245073D01*
X149464183Y-112232017D01*
X149138217Y-112232017D01*
X149078011Y-112232019D01*
X149078011Y-112232019D01*
G37*
X149078011Y-112232019D02*
X149025686Y-112232037D01*
X148980655Y-112232087D01*
X148942333Y-112232184D01*
X148910134Y-112232343D01*
X148883471Y-112232580D01*
X148861759Y-112232911D01*
X148844412Y-112233351D01*
X148830843Y-112233916D01*
X148820466Y-112234622D01*
X148812696Y-112235484D01*
X148806947Y-112236518D01*
X148802632Y-112237739D01*
X148799165Y-112239164D01*
X148795961Y-112240807D01*
X148795317Y-112241154D01*
X148771929Y-112258069D01*
X148754555Y-112279475D01*
X148743425Y-112303968D01*
X148738769Y-112330146D01*
X148740814Y-112356606D01*
X148749791Y-112381944D01*
X148765927Y-112404758D01*
X148768214Y-112407117D01*
X148774333Y-112413197D01*
X148780060Y-112418401D01*
X148786075Y-112422798D01*
X148793054Y-112426456D01*
X148801674Y-112429442D01*
X148812614Y-112431824D01*
X148826552Y-112433672D01*
X148844164Y-112435052D01*
X148866129Y-112436033D01*
X148893123Y-112436683D01*
X148925826Y-112437070D01*
X148964913Y-112437262D01*
X149011064Y-112437327D01*
X149064955Y-112437333D01*
X149313900Y-112437333D01*
X149313900Y-112653233D01*
X149099058Y-112653326D01*
X149048776Y-112653351D01*
X149006225Y-112653431D01*
X148970670Y-112653648D01*
X148941375Y-112654082D01*
X148917605Y-112654812D01*
X148898624Y-112655919D01*
X148883696Y-112657484D01*
X148872087Y-112659586D01*
X148863061Y-112662307D01*
X148855882Y-112665725D01*
X148849815Y-112669923D01*
X148844124Y-112674980D01*
X148838074Y-112680976D01*
X148837122Y-112681930D01*
X148821423Y-112701369D01*
X148812147Y-112722805D01*
X148808411Y-112748530D01*
X148808238Y-112756950D01*
X148810957Y-112784976D01*
X148819578Y-112808095D01*
X148834895Y-112828150D01*
X148841574Y-112834427D01*
X148848255Y-112840072D01*
X148854882Y-112844844D01*
X148862198Y-112848816D01*
X148870943Y-112852062D01*
X148881860Y-112854654D01*
X148895690Y-112856667D01*
X148913174Y-112858172D01*
X148935054Y-112859244D01*
X148962072Y-112859956D01*
X148994968Y-112860380D01*
X149034485Y-112860591D01*
X149081364Y-112860661D01*
X149107235Y-112860666D01*
X149313900Y-112860666D01*
X149313900Y-113080800D01*
X149069135Y-113080800D01*
X149014068Y-113080806D01*
X148966793Y-113080871D01*
X148926639Y-113081065D01*
X148892932Y-113081456D01*
X148864997Y-113082114D01*
X148842163Y-113083109D01*
X148823755Y-113084509D01*
X148809101Y-113086384D01*
X148797526Y-113088803D01*
X148788358Y-113091836D01*
X148780923Y-113095552D01*
X148774548Y-113100021D01*
X148768560Y-113105311D01*
X148762284Y-113111492D01*
X148761271Y-113112506D01*
X148744529Y-113134562D01*
X148734674Y-113159214D01*
X148731377Y-113185077D01*
X148734310Y-113210763D01*
X148743143Y-113234887D01*
X148757546Y-113256063D01*
X148777191Y-113272904D01*
X148801749Y-113284023D01*
X148802007Y-113284097D01*
X148809059Y-113284886D01*
X148824177Y-113285594D01*
X148846963Y-113286217D01*
X148877016Y-113286750D01*
X148913937Y-113287189D01*
X148957327Y-113287529D01*
X149006787Y-113287766D01*
X149061916Y-113287894D01*
X149122315Y-113287911D01*
X149136072Y-113287899D01*
X149196660Y-113287819D01*
X149249361Y-113287705D01*
X149294759Y-113287546D01*
X149333432Y-113287330D01*
X149365963Y-113287044D01*
X149392932Y-113286678D01*
X149414920Y-113286218D01*
X149432508Y-113285653D01*
X149446278Y-113284971D01*
X149456810Y-113284159D01*
X149464685Y-113283207D01*
X149470484Y-113282101D01*
X149474540Y-113280919D01*
X149495318Y-113269800D01*
X149514716Y-113252667D01*
X149530449Y-113231925D01*
X149539444Y-113212605D01*
X149540634Y-113208409D01*
X149541687Y-113203334D01*
X149542613Y-113196874D01*
X149543419Y-113188520D01*
X149544113Y-113177766D01*
X149544704Y-113164103D01*
X149545199Y-113147024D01*
X149545607Y-113126021D01*
X149545936Y-113100587D01*
X149546195Y-113070214D01*
X149546390Y-113034394D01*
X149546531Y-112992620D01*
X149546625Y-112944384D01*
X149546681Y-112889178D01*
X149546706Y-112826494D01*
X149546710Y-112759639D01*
X149546662Y-112680684D01*
X149546528Y-112609048D01*
X149546309Y-112544854D01*
X149546006Y-112488228D01*
X149545620Y-112439295D01*
X149545154Y-112398182D01*
X149544607Y-112365013D01*
X149543981Y-112339913D01*
X149543278Y-112323008D01*
X149542498Y-112314424D01*
X149542363Y-112313816D01*
X149531558Y-112289065D01*
X149514356Y-112266369D01*
X149492811Y-112248299D01*
X149487467Y-112245073D01*
X149464183Y-112232017D01*
X149138217Y-112232017D01*
X149078011Y-112232019D01*
D11*
X164345714Y-120943714D02*
X164155238Y-121610381D01*
X163964761Y-121134190D01*
X163774285Y-121610381D01*
X163583809Y-120943714D01*
X163202857Y-121610381D02*
X163202857Y-120610381D01*
X162774285Y-121610381D02*
X162774285Y-121086571D01*
X162821904Y-120991333D01*
X162917142Y-120943714D01*
X163060000Y-120943714D01*
X163155238Y-120991333D01*
X163202857Y-121038952D01*
X162298095Y-121610381D02*
X162298095Y-120943714D01*
X162298095Y-120610381D02*
X162345714Y-120658000D01*
X162298095Y-120705619D01*
X162250476Y-120658000D01*
X162298095Y-120610381D01*
X162298095Y-120705619D01*
X161964762Y-120943714D02*
X161583810Y-120943714D01*
X161821905Y-120610381D02*
X161821905Y-121467524D01*
X161774286Y-121562762D01*
X161679048Y-121610381D01*
X161583810Y-121610381D01*
X160869523Y-121562762D02*
X160964761Y-121610381D01*
X161155238Y-121610381D01*
X161250476Y-121562762D01*
X161298095Y-121467524D01*
X161298095Y-121086571D01*
X161250476Y-120991333D01*
X161155238Y-120943714D01*
X160964761Y-120943714D01*
X160869523Y-120991333D01*
X160821904Y-121086571D01*
X160821904Y-121181810D01*
X161298095Y-121277048D01*
%LPC*%
D10*
G36*
X169865113Y-119997582D02*
X170928713Y-118155372D01*
X173034887Y-119371372D01*
X171971287Y-121213582D01*
X169865113Y-119997582D01*
X169865113Y-119997582D01*
G37*
D14*
X170048018Y-121807982D02*
X170311982Y-121960382D01*
X168778018Y-124007686D02*
X169041982Y-124160086D01*
X167508018Y-126207391D02*
X167771982Y-126359791D01*
X166238018Y-128407095D02*
X166501982Y-128559495D01*
X164968018Y-130606800D02*
X165231982Y-130759200D01*
D15*
X164465000Y-110236000D03*
D16*
X164465000Y-112776000D03*
D17*
X154730000Y-126619000D03*
D18*
X154730000Y-124079000D03*
X160230000Y-124079000D03*
X160230000Y-126619000D03*
D19*
X167005000Y-116205000D03*
D20*
X167005000Y-118745000D03*
X164465000Y-116205000D03*
X164465000Y-118745000D03*
X161925000Y-116205000D03*
X161925000Y-118745000D03*
D21*
X149479000Y-110236000D03*
X152019000Y-110236000D03*
D10*
G36*
X143115713Y-121294991D02*
X142052113Y-119452781D01*
X144158287Y-118236781D01*
X145221887Y-120078991D01*
X143115713Y-121294991D01*
X143115713Y-121294991D01*
G37*
D14*
X144775018Y-122041791D02*
X145038982Y-121889391D01*
X146045018Y-124241495D02*
X146308982Y-124089095D01*
X147315018Y-126441200D02*
X147578982Y-126288800D01*
X148585018Y-128640904D02*
X148848982Y-128488504D01*
X149855018Y-130840609D02*
X150118982Y-130688209D01*
D22*
X156210000Y-119380000D03*
D23*
X158750000Y-119380000D03*
D24*
X160020000Y-131064000D03*
D25*
X157480000Y-131064000D03*
X154940000Y-131064000D03*
M02*
