G04 #@! TF.FileFunction,Soldermask,Top*
%FSLAX46Y46*%
G04 Gerber Fmt 4.6, Leading zero omitted, Abs format (unit mm)*
G04 Created by KiCad (PCBNEW 4.0.2-stable) date Thursday, September 29, 2016 'amt' 01:44:10 am*
%MOMM*%
G01*
G04 APERTURE LIST*
%ADD10C,0.100000*%
%ADD11C,2.127200*%
%ADD12O,2.398980X2.398980*%
%ADD13R,2.398980X2.398980*%
%ADD14R,1.670000X1.365200*%
%ADD15R,1.150000X1.400000*%
%ADD16R,2.000000X2.000000*%
%ADD17C,2.000000*%
%ADD18R,2.127200X2.127200*%
%ADD19O,2.127200X2.127200*%
%ADD20R,1.400000X1.300000*%
%ADD21R,2.000200X3.000960*%
%ADD22R,1.000000X1.900000*%
%ADD23R,2.300000X0.800000*%
%ADD24R,2.300000X2.400000*%
%ADD25C,2.300000*%
%ADD26R,2.127200X2.432000*%
%ADD27O,2.127200X2.432000*%
G04 APERTURE END LIST*
D10*
G36*
X169865113Y-119997582D02*
X170928713Y-118155372D01*
X173034887Y-119371372D01*
X171971287Y-121213582D01*
X169865113Y-119997582D01*
X169865113Y-119997582D01*
G37*
D11*
X170048018Y-121807982D02*
X170311982Y-121960382D01*
X168778018Y-124007686D02*
X169041982Y-124160086D01*
X167508018Y-126207391D02*
X167771982Y-126359791D01*
X166238018Y-128407095D02*
X166501982Y-128559495D01*
X164968018Y-130606800D02*
X165231982Y-130759200D01*
D12*
X164465000Y-110236000D03*
D13*
X164465000Y-112776000D03*
D14*
X169545000Y-115570000D03*
D15*
X146177000Y-114388000D03*
X146177000Y-112688000D03*
D16*
X154730000Y-126619000D03*
D17*
X154730000Y-124079000D03*
X160230000Y-124079000D03*
X160230000Y-126619000D03*
D18*
X167005000Y-116205000D03*
D19*
X167005000Y-118745000D03*
X164465000Y-116205000D03*
X164465000Y-118745000D03*
X161925000Y-116205000D03*
X161925000Y-118745000D03*
D20*
X151241000Y-121793000D03*
X149241000Y-121793000D03*
D10*
G36*
X143115713Y-121294991D02*
X142052113Y-119452781D01*
X144158287Y-118236781D01*
X145221887Y-120078991D01*
X143115713Y-121294991D01*
X143115713Y-121294991D01*
G37*
D11*
X144775018Y-122041791D02*
X145038982Y-121889391D01*
X146045018Y-124241495D02*
X146308982Y-124089095D01*
X147315018Y-126441200D02*
X147578982Y-126288800D01*
X148585018Y-128640904D02*
X148848982Y-128488504D01*
X149855018Y-130840609D02*
X150118982Y-130688209D01*
D21*
X158750000Y-110213140D03*
X158750000Y-113814860D03*
D22*
X147701000Y-116111000D03*
X148971000Y-116111000D03*
X150241000Y-116111000D03*
X151511000Y-116111000D03*
X152781000Y-116111000D03*
X154051000Y-116111000D03*
X155321000Y-116111000D03*
X155321000Y-110711000D03*
X154051000Y-110711000D03*
X152781000Y-110711000D03*
X151511000Y-110711000D03*
X150241000Y-110711000D03*
X148971000Y-110711000D03*
X147701000Y-110711000D03*
D23*
X147447000Y-118053000D03*
X147447000Y-119253000D03*
X147447000Y-120453000D03*
D20*
X152130000Y-118491000D03*
X150130000Y-118491000D03*
X150130000Y-120015000D03*
X152130000Y-120015000D03*
X149241000Y-123317000D03*
X151241000Y-123317000D03*
D24*
X156210000Y-119380000D03*
D25*
X158750000Y-119380000D03*
D26*
X160020000Y-131064000D03*
D27*
X157480000Y-131064000D03*
X154940000Y-131064000D03*
D14*
X169545000Y-116776500D03*
X169545000Y-118046500D03*
X169545000Y-114363500D03*
M02*
