M48
INCH,TZ
T1C0.013
T2C0.031
T3C0.032
T4C0.039
T5C0.039
T6C0.040
T7C0.043
T8C0.039
T9C0.098
%
G90
G05
T1
X56000Y-46600
X56450Y-45950
X57308Y-47000
X57750Y-47700
X57950Y-45050
X58350Y-48250
X58600Y-49550
X58807Y-45020
X58900Y-48900
X59000Y-50100
X59300Y-49350
X59700Y-51800
X59700Y-44800
X60100Y-45600
X60100Y-51400
X60200Y-43200
X61150Y-47400
X61250Y-49950
X61400Y-44850
X62550Y-48700
X62800Y-43150
X62900Y-49950
X63550Y-43150
X63550Y-47300
X63800Y-47850
X63800Y-49150
X63900Y-50900
X63900Y-51900
X64150Y-47300
X64350Y-43150
X64450Y-47800
X64650Y-50400
X64750Y-47300
X65100Y-43150
X65400Y-43750
X65800Y-43150
X66100Y-43750
X66450Y-47350
X66600Y-44350
X66950Y-46500
X67000Y-45100
X67500Y-45750
X68000Y-46500
T2
X63666Y-46800
X64650Y-46800
T3
X58400Y-43250
X59400Y-43250
T4
X60917Y-48250
X60917Y-49250
X63083Y-48250
X63083Y-49250
T5
X61500Y-46500
X62500Y-46500
T6
X56500Y-47170
X57000Y-48036
X57500Y-48902
X58000Y-49768
X58500Y-50634
X59000Y-51500
X60950Y-50750
X60950Y-51750
X61950Y-50750
X61950Y-51750
X62950Y-50750
X62950Y-51750
X65000Y-51500
X65500Y-50634
X65900Y-44750
X65900Y-45750
X65900Y-46750
X66000Y-49768
X66500Y-48902
X67000Y-48036
X67500Y-47170
T7
X63650Y-44500
X64650Y-44500
T8
X60169Y-47785
T9
X62000Y-48002
X62000Y-49498
T0
M30
