G04 #@! TF.FileFunction,Soldermask,Bot*
%FSLAX46Y46*%
G04 Gerber Fmt 4.6, Leading zero omitted, Abs format (unit mm)*
G04 Created by KiCad (PCBNEW 4.0.2-stable) date Wednesday, September 07, 2016 'amt' 02:23:24 am*
%MOMM*%
G01*
G04 APERTURE LIST*
%ADD10C,0.100000*%
%ADD11R,1.700000X1.700000*%
%ADD12C,1.700000*%
%ADD13R,2.400000X2.400000*%
%ADD14C,2.400000*%
%ADD15O,2.398980X2.398980*%
%ADD16R,2.398980X2.398980*%
%ADD17R,2.127200X2.127200*%
%ADD18O,2.127200X2.127200*%
%ADD19C,1.797000*%
%ADD20R,2.000000X2.000000*%
%ADD21C,2.000000*%
%ADD22C,2.127200*%
%ADD23R,2.432000X2.127200*%
%ADD24O,2.432000X2.127200*%
G04 APERTURE END LIST*
D10*
D11*
X161711000Y-118872000D03*
D12*
X164211000Y-118872000D03*
D13*
X156210000Y-118110000D03*
D14*
X158750000Y-118110000D03*
D15*
X161671000Y-113030000D03*
D16*
X164211000Y-113030000D03*
D17*
X154813000Y-131445000D03*
D18*
X154813000Y-128905000D03*
X157353000Y-131445000D03*
X157353000Y-128905000D03*
X159893000Y-131445000D03*
X159893000Y-128905000D03*
D19*
X150876000Y-109855000D03*
X148336000Y-109855000D03*
D20*
X154730000Y-125095000D03*
D21*
X154730000Y-122555000D03*
X160230000Y-122555000D03*
X160230000Y-125095000D03*
D10*
G36*
X142988713Y-121340582D02*
X141925113Y-119498372D01*
X144031287Y-118282372D01*
X145094887Y-120124582D01*
X142988713Y-121340582D01*
X142988713Y-121340582D01*
G37*
D22*
X144648018Y-122087382D02*
X144911982Y-121934982D01*
X145918018Y-124287086D02*
X146181982Y-124134686D01*
X147188018Y-126486791D02*
X147451982Y-126334391D01*
X148458018Y-128686495D02*
X148721982Y-128534095D01*
X149728018Y-130886200D02*
X149991982Y-130733800D01*
D10*
G36*
X169865113Y-120124582D02*
X170928713Y-118282372D01*
X173034887Y-119498372D01*
X171971287Y-121340582D01*
X169865113Y-120124582D01*
X169865113Y-120124582D01*
G37*
D22*
X170048018Y-121934982D02*
X170311982Y-122087382D01*
X168778018Y-124134686D02*
X169041982Y-124287086D01*
X167508018Y-126334391D02*
X167771982Y-126486791D01*
X166238018Y-128534095D02*
X166501982Y-128686495D01*
X164968018Y-130733800D02*
X165231982Y-130886200D01*
D23*
X167386000Y-113665000D03*
D24*
X167386000Y-116205000D03*
X167386000Y-118745000D03*
M02*
