G04 #@! TF.FileFunction,Legend,Top*
%FSLAX46Y46*%
G04 Gerber Fmt 4.6, Leading zero omitted, Abs format (unit mm)*
G04 Created by KiCad (PCBNEW 4.0.2-stable) date Wednesday, September 07, 2016 'amt' 02:23:24 am*
%MOMM*%
G01*
G04 APERTURE LIST*
%ADD10C,0.100000*%
%ADD11C,0.150000*%
%ADD12C,0.010000*%
%ADD13R,1.700000X1.700000*%
%ADD14C,1.700000*%
%ADD15R,1.150000X1.200000*%
%ADD16R,2.000200X3.000960*%
%ADD17R,2.400000X2.400000*%
%ADD18C,2.400000*%
%ADD19R,1.000000X1.900000*%
%ADD20O,2.398980X2.398980*%
%ADD21R,2.398980X2.398980*%
%ADD22R,2.127200X2.127200*%
%ADD23O,2.127200X2.127200*%
%ADD24C,1.797000*%
%ADD25R,1.300000X0.900000*%
%ADD26R,0.900000X1.300000*%
%ADD27R,2.000000X2.000000*%
%ADD28C,2.000000*%
%ADD29R,0.800000X2.300000*%
%ADD30R,1.670000X1.365200*%
%ADD31C,2.127200*%
%ADD32R,2.432000X2.127200*%
%ADD33O,2.432000X2.127200*%
G04 APERTURE END LIST*
D10*
D11*
X151511191Y-119213381D02*
X151844524Y-120213381D01*
X152177858Y-119213381D01*
X153035001Y-120213381D02*
X152463572Y-120213381D01*
X152749286Y-120213381D02*
X152749286Y-119213381D01*
X152654048Y-119356238D01*
X152558810Y-119451476D01*
X152463572Y-119499095D01*
X153463572Y-120118143D02*
X153511191Y-120165762D01*
X153463572Y-120213381D01*
X153415953Y-120165762D01*
X153463572Y-120118143D01*
X153463572Y-120213381D01*
X154130238Y-119213381D02*
X154225477Y-119213381D01*
X154320715Y-119261000D01*
X154368334Y-119308619D01*
X154415953Y-119403857D01*
X154463572Y-119594333D01*
X154463572Y-119832429D01*
X154415953Y-120022905D01*
X154368334Y-120118143D01*
X154320715Y-120165762D01*
X154225477Y-120213381D01*
X154130238Y-120213381D01*
X154035000Y-120165762D01*
X153987381Y-120118143D01*
X153939762Y-120022905D01*
X153892143Y-119832429D01*
X153892143Y-119594333D01*
X153939762Y-119403857D01*
X153987381Y-119308619D01*
X154035000Y-119261000D01*
X154130238Y-119213381D01*
X151399952Y-129944762D02*
X151495190Y-129992381D01*
X151685666Y-129992381D01*
X151780905Y-129944762D01*
X151828524Y-129849524D01*
X151828524Y-129801905D01*
X151780905Y-129706667D01*
X151685666Y-129659048D01*
X151542809Y-129659048D01*
X151447571Y-129611429D01*
X151399952Y-129516190D01*
X151399952Y-129468571D01*
X151447571Y-129373333D01*
X151542809Y-129325714D01*
X151685666Y-129325714D01*
X151780905Y-129373333D01*
X152209476Y-129944762D02*
X152304714Y-129992381D01*
X152495190Y-129992381D01*
X152590429Y-129944762D01*
X152638048Y-129849524D01*
X152638048Y-129801905D01*
X152590429Y-129706667D01*
X152495190Y-129659048D01*
X152352333Y-129659048D01*
X152257095Y-129611429D01*
X152209476Y-129516190D01*
X152209476Y-129468571D01*
X152257095Y-129373333D01*
X152352333Y-129325714D01*
X152495190Y-129325714D01*
X152590429Y-129373333D01*
X169164048Y-113736429D02*
X169925953Y-113736429D01*
X169545001Y-114117381D02*
X169545001Y-113355476D01*
X167917762Y-123094619D02*
X167965381Y-122999381D01*
X167965381Y-122808905D01*
X167917762Y-122713666D01*
X167822524Y-122666047D01*
X167774905Y-122666047D01*
X167679667Y-122713666D01*
X167632048Y-122808905D01*
X167632048Y-122951762D01*
X167584429Y-123047000D01*
X167489190Y-123094619D01*
X167441571Y-123094619D01*
X167346333Y-123047000D01*
X167298714Y-122951762D01*
X167298714Y-122808905D01*
X167346333Y-122713666D01*
X167917762Y-121808904D02*
X167965381Y-121904142D01*
X167965381Y-122094619D01*
X167917762Y-122189857D01*
X167870143Y-122237476D01*
X167774905Y-122285095D01*
X167489190Y-122285095D01*
X167393952Y-122237476D01*
X167346333Y-122189857D01*
X167298714Y-122094619D01*
X167298714Y-121904142D01*
X167346333Y-121808904D01*
X167965381Y-121380333D02*
X166965381Y-121380333D01*
X167584429Y-121285095D02*
X167965381Y-120999380D01*
X167298714Y-120999380D02*
X167679667Y-121380333D01*
X169489429Y-119125952D02*
X169489429Y-118364047D01*
X150137952Y-128166762D02*
X150233190Y-128214381D01*
X150423666Y-128214381D01*
X150518905Y-128166762D01*
X150566524Y-128071524D01*
X150566524Y-128023905D01*
X150518905Y-127928667D01*
X150423666Y-127881048D01*
X150280809Y-127881048D01*
X150185571Y-127833429D01*
X150137952Y-127738190D01*
X150137952Y-127690571D01*
X150185571Y-127595333D01*
X150280809Y-127547714D01*
X150423666Y-127547714D01*
X150518905Y-127595333D01*
X151423667Y-128214381D02*
X151423667Y-127214381D01*
X151423667Y-128166762D02*
X151328429Y-128214381D01*
X151137952Y-128214381D01*
X151042714Y-128166762D01*
X150995095Y-128119143D01*
X150947476Y-128023905D01*
X150947476Y-127738190D01*
X150995095Y-127642952D01*
X151042714Y-127595333D01*
X151137952Y-127547714D01*
X151328429Y-127547714D01*
X151423667Y-127595333D01*
X152328429Y-128214381D02*
X152328429Y-127690571D01*
X152280810Y-127595333D01*
X152185572Y-127547714D01*
X151995095Y-127547714D01*
X151899857Y-127595333D01*
X152328429Y-128166762D02*
X152233191Y-128214381D01*
X151995095Y-128214381D01*
X151899857Y-128166762D01*
X151852238Y-128071524D01*
X151852238Y-127976286D01*
X151899857Y-127881048D01*
X151995095Y-127833429D01*
X152233191Y-127833429D01*
X152328429Y-127785810D01*
X147161381Y-123086762D02*
X147256619Y-123134381D01*
X147447095Y-123134381D01*
X147542334Y-123086762D01*
X147589953Y-122991524D01*
X147589953Y-122943905D01*
X147542334Y-122848667D01*
X147447095Y-122801048D01*
X147304238Y-122801048D01*
X147209000Y-122753429D01*
X147161381Y-122658190D01*
X147161381Y-122610571D01*
X147209000Y-122515333D01*
X147304238Y-122467714D01*
X147447095Y-122467714D01*
X147542334Y-122515333D01*
X148447096Y-123086762D02*
X148351858Y-123134381D01*
X148161381Y-123134381D01*
X148066143Y-123086762D01*
X148018524Y-123039143D01*
X147970905Y-122943905D01*
X147970905Y-122658190D01*
X148018524Y-122562952D01*
X148066143Y-122515333D01*
X148161381Y-122467714D01*
X148351858Y-122467714D01*
X148447096Y-122515333D01*
X148875667Y-123134381D02*
X148875667Y-122134381D01*
X148970905Y-122753429D02*
X149256620Y-123134381D01*
X149256620Y-122467714D02*
X148875667Y-122848667D01*
X145669048Y-120340429D02*
X146430953Y-120340429D01*
X171958048Y-117800429D02*
X172719953Y-117800429D01*
X172339001Y-118181381D02*
X172339001Y-117419476D01*
X144526048Y-117800429D02*
X145287953Y-117800429D01*
X144907001Y-118181381D02*
X144907001Y-117419476D01*
X161147381Y-108799381D02*
X160671190Y-108799381D01*
X160623571Y-109275571D01*
X160671190Y-109227952D01*
X160766428Y-109180333D01*
X161004524Y-109180333D01*
X161099762Y-109227952D01*
X161147381Y-109275571D01*
X161195000Y-109370810D01*
X161195000Y-109608905D01*
X161147381Y-109704143D01*
X161099762Y-109751762D01*
X161004524Y-109799381D01*
X160766428Y-109799381D01*
X160671190Y-109751762D01*
X160623571Y-109704143D01*
X161528333Y-109132714D02*
X161766428Y-109799381D01*
X162004524Y-109132714D01*
X163671191Y-108847000D02*
X163575953Y-108799381D01*
X163433096Y-108799381D01*
X163290238Y-108847000D01*
X163195000Y-108942238D01*
X163147381Y-109037476D01*
X163099762Y-109227952D01*
X163099762Y-109370810D01*
X163147381Y-109561286D01*
X163195000Y-109656524D01*
X163290238Y-109751762D01*
X163433096Y-109799381D01*
X163528334Y-109799381D01*
X163671191Y-109751762D01*
X163718810Y-109704143D01*
X163718810Y-109370810D01*
X163528334Y-109370810D01*
X164147381Y-109799381D02*
X164147381Y-108799381D01*
X164718810Y-109799381D01*
X164718810Y-108799381D01*
X165195000Y-109799381D02*
X165195000Y-108799381D01*
X165433095Y-108799381D01*
X165575953Y-108847000D01*
X165671191Y-108942238D01*
X165718810Y-109037476D01*
X165766429Y-109227952D01*
X165766429Y-109370810D01*
X165718810Y-109561286D01*
X165671191Y-109656524D01*
X165575953Y-109751762D01*
X165433095Y-109799381D01*
X165195000Y-109799381D01*
X152347381Y-110489905D02*
X152347381Y-109918476D01*
X153347381Y-110204191D02*
X152347381Y-110204191D01*
X152347381Y-109680381D02*
X153347381Y-109013714D01*
X152347381Y-109013714D02*
X153347381Y-109680381D01*
X154897381Y-109894666D02*
X154421190Y-110228000D01*
X154897381Y-110466095D02*
X153897381Y-110466095D01*
X153897381Y-110085142D01*
X153945000Y-109989904D01*
X153992619Y-109942285D01*
X154087857Y-109894666D01*
X154230714Y-109894666D01*
X154325952Y-109942285D01*
X154373571Y-109989904D01*
X154421190Y-110085142D01*
X154421190Y-110466095D01*
X153897381Y-109561333D02*
X154897381Y-108894666D01*
X153897381Y-108894666D02*
X154897381Y-109561333D01*
X163036000Y-116373000D02*
X163036000Y-121371000D01*
X163176000Y-116381000D02*
X163176000Y-121363000D01*
X163316000Y-116397000D02*
X163316000Y-118777000D01*
X163316000Y-118967000D02*
X163316000Y-121347000D01*
X163456000Y-116421000D02*
X163456000Y-118382000D01*
X163456000Y-119362000D02*
X163456000Y-121323000D01*
X163596000Y-116454000D02*
X163596000Y-118215000D01*
X163596000Y-119529000D02*
X163596000Y-121290000D01*
X163736000Y-116495000D02*
X163736000Y-118108000D01*
X163736000Y-119636000D02*
X163736000Y-121249000D01*
X163876000Y-116545000D02*
X163876000Y-118037000D01*
X163876000Y-119707000D02*
X163876000Y-121199000D01*
X164016000Y-116606000D02*
X164016000Y-117993000D01*
X164016000Y-119751000D02*
X164016000Y-121138000D01*
X164156000Y-116676000D02*
X164156000Y-117974000D01*
X164156000Y-119770000D02*
X164156000Y-121068000D01*
X164296000Y-116758000D02*
X164296000Y-117976000D01*
X164296000Y-119768000D02*
X164296000Y-120986000D01*
X164436000Y-116853000D02*
X164436000Y-118001000D01*
X164436000Y-119743000D02*
X164436000Y-120891000D01*
X164576000Y-116964000D02*
X164576000Y-118049000D01*
X164576000Y-119695000D02*
X164576000Y-120780000D01*
X164716000Y-117092000D02*
X164716000Y-118127000D01*
X164716000Y-119617000D02*
X164716000Y-120652000D01*
X164856000Y-117241000D02*
X164856000Y-118244000D01*
X164856000Y-119500000D02*
X164856000Y-120503000D01*
X164996000Y-117420000D02*
X164996000Y-118432000D01*
X164996000Y-119312000D02*
X164996000Y-120324000D01*
X165136000Y-117639000D02*
X165136000Y-120105000D01*
X165276000Y-117928000D02*
X165276000Y-119816000D01*
X165416000Y-118400000D02*
X165416000Y-119344000D01*
X165111000Y-118872000D02*
G75*
G03X165111000Y-118872000I-900000J0D01*
G01*
X165498500Y-118872000D02*
G75*
G03X165498500Y-118872000I-2537500J0D01*
G01*
X144434000Y-115297000D02*
X144434000Y-114597000D01*
X145634000Y-114597000D02*
X145634000Y-115297000D01*
X157480000Y-110848140D02*
X157480000Y-111610140D01*
X157099000Y-111229140D02*
X157861000Y-111229140D01*
X159766000Y-110975140D02*
X159766000Y-114785140D01*
X155956000Y-110213140D02*
X159004000Y-110213140D01*
X159766000Y-110975140D02*
X159004000Y-110213140D01*
X155194000Y-110975140D02*
X155194000Y-114785140D01*
X155194000Y-110975140D02*
X155956000Y-110213140D01*
X157607000Y-114531140D02*
X157353000Y-114531140D01*
X156845000Y-114404140D02*
X158115000Y-114404140D01*
X158369000Y-114277140D02*
X156591000Y-114277140D01*
X158623000Y-114150140D02*
X156337000Y-114150140D01*
X156210000Y-114023140D02*
X158750000Y-114023140D01*
X158877000Y-113896140D02*
X156083000Y-113896140D01*
X155956000Y-113769140D02*
X159004000Y-113769140D01*
X155829000Y-113642140D02*
X159131000Y-113642140D01*
X155194000Y-114785140D02*
X159766000Y-114785140D01*
X159512000Y-112499140D02*
G75*
G03X159512000Y-112499140I-2032000J0D01*
G01*
X145791000Y-116977000D02*
X145906000Y-116977000D01*
X145791000Y-112827000D02*
X145906000Y-112827000D01*
X154691000Y-112827000D02*
X154576000Y-112827000D01*
X154691000Y-116977000D02*
X154576000Y-116977000D01*
X145791000Y-116977000D02*
X145791000Y-112827000D01*
X154691000Y-116977000D02*
X154691000Y-112827000D01*
X145906000Y-116977000D02*
X145906000Y-118352000D01*
X160141920Y-110429040D02*
X165740080Y-110429040D01*
X165541960Y-109931200D02*
X165541960Y-110429040D01*
X160340040Y-110429040D02*
X160340040Y-109931200D01*
X162941000Y-109931200D02*
X162941000Y-110429040D01*
X165740080Y-115730020D02*
X160141920Y-115730020D01*
X165740080Y-109931200D02*
X160141920Y-109931200D01*
X160141920Y-109931200D02*
X160141920Y-116128800D01*
X160141920Y-116128800D02*
X165740080Y-116128800D01*
X165740080Y-116128800D02*
X165740080Y-109931200D01*
X156083000Y-132715000D02*
X161163000Y-132715000D01*
X153263000Y-132995000D02*
X153263000Y-131445000D01*
X153543000Y-130175000D02*
X156083000Y-130175000D01*
X156083000Y-130175000D02*
X156083000Y-132715000D01*
X161163000Y-132715000D02*
X161163000Y-127635000D01*
X161163000Y-127635000D02*
X156083000Y-127635000D01*
X153263000Y-132995000D02*
X154813000Y-132995000D01*
X153543000Y-127635000D02*
X153543000Y-130175000D01*
X156083000Y-127635000D02*
X153543000Y-127635000D01*
X148336000Y-108839000D02*
X150876000Y-108839000D01*
X148336000Y-110871000D02*
X150876000Y-110871000D01*
X148336000Y-108839000D02*
G75*
G03X147320000Y-109855000I0J-1016000D01*
G01*
X147320000Y-109855000D02*
G75*
G03X148336000Y-110871000I1016000J0D01*
G01*
X151892000Y-109855000D02*
G75*
G03X150876000Y-108839000I-1016000J0D01*
G01*
X150876000Y-110871000D02*
G75*
G03X151892000Y-109855000I0J1016000D01*
G01*
X162727000Y-126246000D02*
X162727000Y-127246000D01*
X161377000Y-127246000D02*
X161377000Y-126246000D01*
X150261000Y-121880000D02*
X151261000Y-121880000D01*
X151261000Y-123230000D02*
X150261000Y-123230000D01*
X157500000Y-119086000D02*
X158500000Y-119086000D01*
X158500000Y-120436000D02*
X157500000Y-120436000D01*
X147114000Y-119742000D02*
X147114000Y-120542000D01*
X147314000Y-120742000D02*
X147314000Y-119542000D01*
X150514000Y-119542000D02*
X150514000Y-120742000D01*
X148114000Y-119542000D02*
X148514000Y-119542000D01*
X149314000Y-119542000D02*
X149714000Y-119542000D01*
X148114000Y-120742000D02*
X148514000Y-120742000D01*
X149314000Y-120742000D02*
X149714000Y-120742000D01*
X151979000Y-126357000D02*
X151979000Y-125357000D01*
X153329000Y-125357000D02*
X153329000Y-126357000D01*
X163068000Y-122301000D02*
X163068000Y-126111000D01*
X163068000Y-126111000D02*
X164846000Y-126111000D01*
X164846000Y-126111000D02*
X164846000Y-122301000D01*
X163068000Y-122301000D02*
X164846000Y-122301000D01*
X145244852Y-120276329D02*
X151594852Y-131274852D01*
X151594852Y-131274852D02*
X149395148Y-132544852D01*
X149395148Y-132544852D02*
X143045148Y-121546329D01*
X144077339Y-117694138D02*
X144852339Y-119036477D01*
X145244852Y-120276329D02*
X143045148Y-121546329D01*
X142167661Y-120586477D02*
X141392661Y-119244138D01*
X141392661Y-119244138D02*
X144077339Y-117694138D01*
X171914852Y-121546329D02*
X165564852Y-132544852D01*
X165564852Y-132544852D02*
X163365148Y-131274852D01*
X163365148Y-131274852D02*
X169715148Y-120276329D01*
X173567339Y-119244138D02*
X172792339Y-120586477D01*
X171914852Y-121546329D02*
X169715148Y-120276329D01*
X170107661Y-119036477D02*
X170882661Y-117694138D01*
X170882661Y-117694138D02*
X173567339Y-119244138D01*
X166116000Y-114935000D02*
X166116000Y-120015000D01*
X166116000Y-120015000D02*
X168656000Y-120015000D01*
X168656000Y-120015000D02*
X168656000Y-114935000D01*
X168936000Y-112115000D02*
X168936000Y-113665000D01*
X168656000Y-114935000D02*
X166116000Y-114935000D01*
X165836000Y-113665000D02*
X165836000Y-112115000D01*
X165836000Y-112115000D02*
X168936000Y-112115000D01*
X166751000Y-124841000D02*
X166751000Y-121031000D01*
X166751000Y-121031000D02*
X164973000Y-121031000D01*
X164973000Y-121031000D02*
X164973000Y-124841000D01*
X166751000Y-124841000D02*
X164973000Y-124841000D01*
D12*
G36*
X150138709Y-123637211D02*
X150170917Y-123637683D01*
X150201336Y-123638538D01*
X150228904Y-123639776D01*
X150252563Y-123641397D01*
X150263578Y-123642457D01*
X150355477Y-123655285D01*
X150445425Y-123673368D01*
X150533317Y-123696661D01*
X150619046Y-123725116D01*
X150702507Y-123758689D01*
X150783592Y-123797333D01*
X150862196Y-123841002D01*
X150938212Y-123889652D01*
X151011534Y-123943235D01*
X151068739Y-123990103D01*
X151087077Y-124006417D01*
X151107791Y-124025732D01*
X151129948Y-124047108D01*
X151152613Y-124069604D01*
X151174854Y-124092279D01*
X151195735Y-124114192D01*
X151214323Y-124134402D01*
X151229684Y-124151969D01*
X151231212Y-124153789D01*
X151288422Y-124226501D01*
X151340418Y-124301348D01*
X151387235Y-124378384D01*
X151428905Y-124457665D01*
X151458280Y-124522089D01*
X151491120Y-124606209D01*
X151518549Y-124691624D01*
X151540584Y-124778090D01*
X151557244Y-124865360D01*
X151568543Y-124953187D01*
X151574501Y-125041326D01*
X151575133Y-125129531D01*
X151570457Y-125217554D01*
X151560490Y-125305151D01*
X151545249Y-125392075D01*
X151524751Y-125478079D01*
X151499014Y-125562917D01*
X151468053Y-125646344D01*
X151431887Y-125728114D01*
X151390531Y-125807979D01*
X151366218Y-125849945D01*
X151324126Y-125915761D01*
X151278655Y-125978738D01*
X151229155Y-126039701D01*
X151174974Y-126099476D01*
X151147051Y-126128051D01*
X151113741Y-126160642D01*
X151082311Y-126189795D01*
X151051402Y-126216696D01*
X151019654Y-126242531D01*
X150987635Y-126267050D01*
X150912995Y-126319266D01*
X150835876Y-126366427D01*
X150756392Y-126408491D01*
X150674656Y-126445416D01*
X150590785Y-126477162D01*
X150504892Y-126503685D01*
X150417091Y-126524943D01*
X150327498Y-126540896D01*
X150236226Y-126551501D01*
X150202949Y-126554003D01*
X150183470Y-126554986D01*
X150160391Y-126555714D01*
X150135223Y-126556177D01*
X150109475Y-126556364D01*
X150084658Y-126556266D01*
X150062280Y-126555872D01*
X150043853Y-126555174D01*
X150042034Y-126555072D01*
X149949228Y-126546950D01*
X149858230Y-126533529D01*
X149769144Y-126514851D01*
X149682074Y-126490959D01*
X149597125Y-126461896D01*
X149514401Y-126427703D01*
X149434007Y-126388422D01*
X149356046Y-126344098D01*
X149280623Y-126294771D01*
X149207843Y-126240485D01*
X149150451Y-126192512D01*
X149131823Y-126175599D01*
X149110767Y-126155557D01*
X149088302Y-126133426D01*
X149065446Y-126110249D01*
X149043217Y-126087064D01*
X149022632Y-126064913D01*
X149004711Y-126044837D01*
X148996122Y-126034773D01*
X148939451Y-125962610D01*
X148887733Y-125887777D01*
X148841022Y-125810410D01*
X148799372Y-125730643D01*
X148762837Y-125648610D01*
X148731472Y-125564446D01*
X148705330Y-125478287D01*
X148684465Y-125390266D01*
X148668933Y-125300518D01*
X148658786Y-125209178D01*
X148657521Y-125192367D01*
X148656354Y-125169717D01*
X148655654Y-125142937D01*
X148655654Y-125142903D01*
X149308465Y-125142903D01*
X149309719Y-125177485D01*
X149314710Y-125210435D01*
X149317170Y-125220589D01*
X149322467Y-125236649D01*
X149330177Y-125255304D01*
X149339367Y-125274604D01*
X149349109Y-125292597D01*
X149358470Y-125307330D01*
X149358705Y-125307659D01*
X149378546Y-125331725D01*
X149402225Y-125354455D01*
X149428377Y-125374768D01*
X149455634Y-125391582D01*
X149477971Y-125402049D01*
X149487555Y-125405856D01*
X149495935Y-125409103D01*
X149503636Y-125411838D01*
X149511183Y-125414108D01*
X149519099Y-125415960D01*
X149527911Y-125417442D01*
X149538142Y-125418600D01*
X149550318Y-125419483D01*
X149564964Y-125420136D01*
X149582603Y-125420609D01*
X149603762Y-125420947D01*
X149628964Y-125421199D01*
X149658734Y-125421411D01*
X149693598Y-125421631D01*
X149695477Y-125421643D01*
X149856921Y-125422675D01*
X149857840Y-125584099D01*
X149858049Y-125620420D01*
X149858272Y-125651621D01*
X149858569Y-125678222D01*
X149859003Y-125700748D01*
X149859633Y-125719720D01*
X149860522Y-125735662D01*
X149861729Y-125749096D01*
X149863317Y-125760545D01*
X149865345Y-125770533D01*
X149867876Y-125779580D01*
X149870970Y-125788212D01*
X149874688Y-125796949D01*
X149879091Y-125806315D01*
X149884241Y-125816833D01*
X149885257Y-125818900D01*
X149905108Y-125853022D01*
X149929320Y-125883614D01*
X149957669Y-125910438D01*
X149989930Y-125933257D01*
X149996876Y-125937344D01*
X150014641Y-125946207D01*
X150035676Y-125954738D01*
X150057772Y-125962166D01*
X150078721Y-125967719D01*
X150090012Y-125969859D01*
X150106203Y-125971336D01*
X150125882Y-125971657D01*
X150147102Y-125970920D01*
X150167920Y-125969223D01*
X150186391Y-125966664D01*
X150196528Y-125964504D01*
X150234407Y-125952091D01*
X150268819Y-125935316D01*
X150300088Y-125913999D01*
X150321491Y-125895100D01*
X150347570Y-125866092D01*
X150368878Y-125834607D01*
X150385819Y-125799978D01*
X150395408Y-125773147D01*
X150403098Y-125748345D01*
X150406100Y-125423789D01*
X150568378Y-125422274D01*
X150602784Y-125421947D01*
X150632037Y-125421646D01*
X150656628Y-125421350D01*
X150677050Y-125421037D01*
X150693794Y-125420686D01*
X150707350Y-125420277D01*
X150718212Y-125419787D01*
X150726869Y-125419196D01*
X150733814Y-125418483D01*
X150739539Y-125417626D01*
X150744533Y-125416604D01*
X150749290Y-125415396D01*
X150753149Y-125414312D01*
X150790100Y-125400893D01*
X150824535Y-125382719D01*
X150855982Y-125360189D01*
X150883969Y-125333705D01*
X150908025Y-125303666D01*
X150927679Y-125270474D01*
X150931189Y-125263169D01*
X150939099Y-125245067D01*
X150944963Y-125228876D01*
X150949062Y-125213156D01*
X150951680Y-125196465D01*
X150953097Y-125177362D01*
X150953597Y-125154406D01*
X150953612Y-125148623D01*
X150953524Y-125129720D01*
X150953190Y-125115237D01*
X150952498Y-125103947D01*
X150951338Y-125094628D01*
X150949599Y-125086054D01*
X150947172Y-125077002D01*
X150947158Y-125076952D01*
X150934702Y-125041695D01*
X150918525Y-125009877D01*
X150897928Y-124980287D01*
X150878973Y-124958633D01*
X150850590Y-124932766D01*
X150819056Y-124911207D01*
X150785058Y-124894341D01*
X150749284Y-124882551D01*
X150738538Y-124880109D01*
X150735386Y-124879495D01*
X150732026Y-124878932D01*
X150728223Y-124878416D01*
X150723741Y-124877946D01*
X150718344Y-124877520D01*
X150711797Y-124877137D01*
X150703865Y-124876795D01*
X150694311Y-124876492D01*
X150682900Y-124876226D01*
X150669396Y-124875996D01*
X150653565Y-124875800D01*
X150635170Y-124875636D01*
X150613975Y-124875502D01*
X150589746Y-124875396D01*
X150562246Y-124875317D01*
X150531241Y-124875264D01*
X150496494Y-124875234D01*
X150457769Y-124875225D01*
X150414832Y-124875236D01*
X150367447Y-124875265D01*
X150315377Y-124875310D01*
X150258388Y-124875370D01*
X150196244Y-124875443D01*
X150128710Y-124875527D01*
X150123265Y-124875534D01*
X149534034Y-124876278D01*
X149511540Y-124882830D01*
X149475468Y-124896074D01*
X149441277Y-124914027D01*
X149409772Y-124936129D01*
X149381756Y-124961817D01*
X149358705Y-124989586D01*
X149349366Y-125004207D01*
X149339623Y-125022138D01*
X149330405Y-125041429D01*
X149322645Y-125060127D01*
X149317272Y-125076280D01*
X149317170Y-125076656D01*
X149310949Y-125108641D01*
X149308465Y-125142903D01*
X148655654Y-125142903D01*
X148655400Y-125113262D01*
X148655570Y-125081928D01*
X148656142Y-125050171D01*
X148657095Y-125019226D01*
X148658407Y-124990330D01*
X148660058Y-124964718D01*
X148661822Y-124945423D01*
X148674639Y-124854089D01*
X148692713Y-124764616D01*
X148715943Y-124677168D01*
X148744228Y-124591911D01*
X148777470Y-124509010D01*
X148785315Y-124492456D01*
X149858812Y-124492456D01*
X149858852Y-124512060D01*
X149859238Y-124527227D01*
X149860061Y-124539155D01*
X149861412Y-124549046D01*
X149863381Y-124558100D01*
X149863931Y-124560189D01*
X149876880Y-124597810D01*
X149894492Y-124632759D01*
X149916402Y-124664636D01*
X149942247Y-124693041D01*
X149971664Y-124717574D01*
X150004290Y-124737834D01*
X150039212Y-124753225D01*
X150055619Y-124758687D01*
X150070643Y-124762567D01*
X150085786Y-124765068D01*
X150102547Y-124766391D01*
X150122425Y-124766739D01*
X150137989Y-124766532D01*
X150156333Y-124766026D01*
X150170449Y-124765285D01*
X150181757Y-124764139D01*
X150191673Y-124762418D01*
X150201614Y-124759950D01*
X150207971Y-124758104D01*
X150245117Y-124744080D01*
X150279293Y-124725398D01*
X150310179Y-124702379D01*
X150337457Y-124675348D01*
X150360807Y-124644628D01*
X150379911Y-124610542D01*
X150394450Y-124573413D01*
X150396377Y-124567055D01*
X150400458Y-124548198D01*
X150403121Y-124525617D01*
X150404322Y-124501062D01*
X150404017Y-124476283D01*
X150402162Y-124453032D01*
X150399629Y-124437169D01*
X150389218Y-124400343D01*
X150373893Y-124365836D01*
X150354041Y-124334028D01*
X150330050Y-124305303D01*
X150302307Y-124280042D01*
X150271201Y-124258628D01*
X150237118Y-124241444D01*
X150200448Y-124228871D01*
X150184569Y-124225100D01*
X150160814Y-124221745D01*
X150134048Y-124220576D01*
X150106438Y-124221537D01*
X150080151Y-124224568D01*
X150061789Y-124228377D01*
X150030888Y-124238816D01*
X149999817Y-124253711D01*
X149970215Y-124272175D01*
X149946262Y-124291038D01*
X149925318Y-124312536D01*
X149905817Y-124338312D01*
X149888585Y-124367033D01*
X149874449Y-124397366D01*
X149866715Y-124419252D01*
X149863833Y-124429166D01*
X149861766Y-124437863D01*
X149860373Y-124446635D01*
X149859515Y-124456775D01*
X149859053Y-124469578D01*
X149858846Y-124486335D01*
X149858812Y-124492456D01*
X148785315Y-124492456D01*
X148815567Y-124428628D01*
X148858419Y-124350931D01*
X148905927Y-124276084D01*
X148957990Y-124204251D01*
X149014508Y-124135597D01*
X149075380Y-124070287D01*
X149140508Y-124008486D01*
X149209790Y-123950358D01*
X149283126Y-123896069D01*
X149311078Y-123877113D01*
X149338496Y-123859207D01*
X149363035Y-123843788D01*
X149386305Y-123829923D01*
X149409918Y-123816678D01*
X149435484Y-123803120D01*
X149462067Y-123789591D01*
X149540949Y-123752877D01*
X149621241Y-123721215D01*
X149703352Y-123694487D01*
X149787692Y-123672573D01*
X149874670Y-123655354D01*
X149964695Y-123642712D01*
X149967245Y-123642424D01*
X149987928Y-123640597D01*
X150013182Y-123639153D01*
X150041947Y-123638093D01*
X150073164Y-123637416D01*
X150105771Y-123637122D01*
X150138709Y-123637211D01*
X150138709Y-123637211D01*
G37*
X150138709Y-123637211D02*
X150170917Y-123637683D01*
X150201336Y-123638538D01*
X150228904Y-123639776D01*
X150252563Y-123641397D01*
X150263578Y-123642457D01*
X150355477Y-123655285D01*
X150445425Y-123673368D01*
X150533317Y-123696661D01*
X150619046Y-123725116D01*
X150702507Y-123758689D01*
X150783592Y-123797333D01*
X150862196Y-123841002D01*
X150938212Y-123889652D01*
X151011534Y-123943235D01*
X151068739Y-123990103D01*
X151087077Y-124006417D01*
X151107791Y-124025732D01*
X151129948Y-124047108D01*
X151152613Y-124069604D01*
X151174854Y-124092279D01*
X151195735Y-124114192D01*
X151214323Y-124134402D01*
X151229684Y-124151969D01*
X151231212Y-124153789D01*
X151288422Y-124226501D01*
X151340418Y-124301348D01*
X151387235Y-124378384D01*
X151428905Y-124457665D01*
X151458280Y-124522089D01*
X151491120Y-124606209D01*
X151518549Y-124691624D01*
X151540584Y-124778090D01*
X151557244Y-124865360D01*
X151568543Y-124953187D01*
X151574501Y-125041326D01*
X151575133Y-125129531D01*
X151570457Y-125217554D01*
X151560490Y-125305151D01*
X151545249Y-125392075D01*
X151524751Y-125478079D01*
X151499014Y-125562917D01*
X151468053Y-125646344D01*
X151431887Y-125728114D01*
X151390531Y-125807979D01*
X151366218Y-125849945D01*
X151324126Y-125915761D01*
X151278655Y-125978738D01*
X151229155Y-126039701D01*
X151174974Y-126099476D01*
X151147051Y-126128051D01*
X151113741Y-126160642D01*
X151082311Y-126189795D01*
X151051402Y-126216696D01*
X151019654Y-126242531D01*
X150987635Y-126267050D01*
X150912995Y-126319266D01*
X150835876Y-126366427D01*
X150756392Y-126408491D01*
X150674656Y-126445416D01*
X150590785Y-126477162D01*
X150504892Y-126503685D01*
X150417091Y-126524943D01*
X150327498Y-126540896D01*
X150236226Y-126551501D01*
X150202949Y-126554003D01*
X150183470Y-126554986D01*
X150160391Y-126555714D01*
X150135223Y-126556177D01*
X150109475Y-126556364D01*
X150084658Y-126556266D01*
X150062280Y-126555872D01*
X150043853Y-126555174D01*
X150042034Y-126555072D01*
X149949228Y-126546950D01*
X149858230Y-126533529D01*
X149769144Y-126514851D01*
X149682074Y-126490959D01*
X149597125Y-126461896D01*
X149514401Y-126427703D01*
X149434007Y-126388422D01*
X149356046Y-126344098D01*
X149280623Y-126294771D01*
X149207843Y-126240485D01*
X149150451Y-126192512D01*
X149131823Y-126175599D01*
X149110767Y-126155557D01*
X149088302Y-126133426D01*
X149065446Y-126110249D01*
X149043217Y-126087064D01*
X149022632Y-126064913D01*
X149004711Y-126044837D01*
X148996122Y-126034773D01*
X148939451Y-125962610D01*
X148887733Y-125887777D01*
X148841022Y-125810410D01*
X148799372Y-125730643D01*
X148762837Y-125648610D01*
X148731472Y-125564446D01*
X148705330Y-125478287D01*
X148684465Y-125390266D01*
X148668933Y-125300518D01*
X148658786Y-125209178D01*
X148657521Y-125192367D01*
X148656354Y-125169717D01*
X148655654Y-125142937D01*
X148655654Y-125142903D01*
X149308465Y-125142903D01*
X149309719Y-125177485D01*
X149314710Y-125210435D01*
X149317170Y-125220589D01*
X149322467Y-125236649D01*
X149330177Y-125255304D01*
X149339367Y-125274604D01*
X149349109Y-125292597D01*
X149358470Y-125307330D01*
X149358705Y-125307659D01*
X149378546Y-125331725D01*
X149402225Y-125354455D01*
X149428377Y-125374768D01*
X149455634Y-125391582D01*
X149477971Y-125402049D01*
X149487555Y-125405856D01*
X149495935Y-125409103D01*
X149503636Y-125411838D01*
X149511183Y-125414108D01*
X149519099Y-125415960D01*
X149527911Y-125417442D01*
X149538142Y-125418600D01*
X149550318Y-125419483D01*
X149564964Y-125420136D01*
X149582603Y-125420609D01*
X149603762Y-125420947D01*
X149628964Y-125421199D01*
X149658734Y-125421411D01*
X149693598Y-125421631D01*
X149695477Y-125421643D01*
X149856921Y-125422675D01*
X149857840Y-125584099D01*
X149858049Y-125620420D01*
X149858272Y-125651621D01*
X149858569Y-125678222D01*
X149859003Y-125700748D01*
X149859633Y-125719720D01*
X149860522Y-125735662D01*
X149861729Y-125749096D01*
X149863317Y-125760545D01*
X149865345Y-125770533D01*
X149867876Y-125779580D01*
X149870970Y-125788212D01*
X149874688Y-125796949D01*
X149879091Y-125806315D01*
X149884241Y-125816833D01*
X149885257Y-125818900D01*
X149905108Y-125853022D01*
X149929320Y-125883614D01*
X149957669Y-125910438D01*
X149989930Y-125933257D01*
X149996876Y-125937344D01*
X150014641Y-125946207D01*
X150035676Y-125954738D01*
X150057772Y-125962166D01*
X150078721Y-125967719D01*
X150090012Y-125969859D01*
X150106203Y-125971336D01*
X150125882Y-125971657D01*
X150147102Y-125970920D01*
X150167920Y-125969223D01*
X150186391Y-125966664D01*
X150196528Y-125964504D01*
X150234407Y-125952091D01*
X150268819Y-125935316D01*
X150300088Y-125913999D01*
X150321491Y-125895100D01*
X150347570Y-125866092D01*
X150368878Y-125834607D01*
X150385819Y-125799978D01*
X150395408Y-125773147D01*
X150403098Y-125748345D01*
X150406100Y-125423789D01*
X150568378Y-125422274D01*
X150602784Y-125421947D01*
X150632037Y-125421646D01*
X150656628Y-125421350D01*
X150677050Y-125421037D01*
X150693794Y-125420686D01*
X150707350Y-125420277D01*
X150718212Y-125419787D01*
X150726869Y-125419196D01*
X150733814Y-125418483D01*
X150739539Y-125417626D01*
X150744533Y-125416604D01*
X150749290Y-125415396D01*
X150753149Y-125414312D01*
X150790100Y-125400893D01*
X150824535Y-125382719D01*
X150855982Y-125360189D01*
X150883969Y-125333705D01*
X150908025Y-125303666D01*
X150927679Y-125270474D01*
X150931189Y-125263169D01*
X150939099Y-125245067D01*
X150944963Y-125228876D01*
X150949062Y-125213156D01*
X150951680Y-125196465D01*
X150953097Y-125177362D01*
X150953597Y-125154406D01*
X150953612Y-125148623D01*
X150953524Y-125129720D01*
X150953190Y-125115237D01*
X150952498Y-125103947D01*
X150951338Y-125094628D01*
X150949599Y-125086054D01*
X150947172Y-125077002D01*
X150947158Y-125076952D01*
X150934702Y-125041695D01*
X150918525Y-125009877D01*
X150897928Y-124980287D01*
X150878973Y-124958633D01*
X150850590Y-124932766D01*
X150819056Y-124911207D01*
X150785058Y-124894341D01*
X150749284Y-124882551D01*
X150738538Y-124880109D01*
X150735386Y-124879495D01*
X150732026Y-124878932D01*
X150728223Y-124878416D01*
X150723741Y-124877946D01*
X150718344Y-124877520D01*
X150711797Y-124877137D01*
X150703865Y-124876795D01*
X150694311Y-124876492D01*
X150682900Y-124876226D01*
X150669396Y-124875996D01*
X150653565Y-124875800D01*
X150635170Y-124875636D01*
X150613975Y-124875502D01*
X150589746Y-124875396D01*
X150562246Y-124875317D01*
X150531241Y-124875264D01*
X150496494Y-124875234D01*
X150457769Y-124875225D01*
X150414832Y-124875236D01*
X150367447Y-124875265D01*
X150315377Y-124875310D01*
X150258388Y-124875370D01*
X150196244Y-124875443D01*
X150128710Y-124875527D01*
X150123265Y-124875534D01*
X149534034Y-124876278D01*
X149511540Y-124882830D01*
X149475468Y-124896074D01*
X149441277Y-124914027D01*
X149409772Y-124936129D01*
X149381756Y-124961817D01*
X149358705Y-124989586D01*
X149349366Y-125004207D01*
X149339623Y-125022138D01*
X149330405Y-125041429D01*
X149322645Y-125060127D01*
X149317272Y-125076280D01*
X149317170Y-125076656D01*
X149310949Y-125108641D01*
X149308465Y-125142903D01*
X148655654Y-125142903D01*
X148655400Y-125113262D01*
X148655570Y-125081928D01*
X148656142Y-125050171D01*
X148657095Y-125019226D01*
X148658407Y-124990330D01*
X148660058Y-124964718D01*
X148661822Y-124945423D01*
X148674639Y-124854089D01*
X148692713Y-124764616D01*
X148715943Y-124677168D01*
X148744228Y-124591911D01*
X148777470Y-124509010D01*
X148785315Y-124492456D01*
X149858812Y-124492456D01*
X149858852Y-124512060D01*
X149859238Y-124527227D01*
X149860061Y-124539155D01*
X149861412Y-124549046D01*
X149863381Y-124558100D01*
X149863931Y-124560189D01*
X149876880Y-124597810D01*
X149894492Y-124632759D01*
X149916402Y-124664636D01*
X149942247Y-124693041D01*
X149971664Y-124717574D01*
X150004290Y-124737834D01*
X150039212Y-124753225D01*
X150055619Y-124758687D01*
X150070643Y-124762567D01*
X150085786Y-124765068D01*
X150102547Y-124766391D01*
X150122425Y-124766739D01*
X150137989Y-124766532D01*
X150156333Y-124766026D01*
X150170449Y-124765285D01*
X150181757Y-124764139D01*
X150191673Y-124762418D01*
X150201614Y-124759950D01*
X150207971Y-124758104D01*
X150245117Y-124744080D01*
X150279293Y-124725398D01*
X150310179Y-124702379D01*
X150337457Y-124675348D01*
X150360807Y-124644628D01*
X150379911Y-124610542D01*
X150394450Y-124573413D01*
X150396377Y-124567055D01*
X150400458Y-124548198D01*
X150403121Y-124525617D01*
X150404322Y-124501062D01*
X150404017Y-124476283D01*
X150402162Y-124453032D01*
X150399629Y-124437169D01*
X150389218Y-124400343D01*
X150373893Y-124365836D01*
X150354041Y-124334028D01*
X150330050Y-124305303D01*
X150302307Y-124280042D01*
X150271201Y-124258628D01*
X150237118Y-124241444D01*
X150200448Y-124228871D01*
X150184569Y-124225100D01*
X150160814Y-124221745D01*
X150134048Y-124220576D01*
X150106438Y-124221537D01*
X150080151Y-124224568D01*
X150061789Y-124228377D01*
X150030888Y-124238816D01*
X149999817Y-124253711D01*
X149970215Y-124272175D01*
X149946262Y-124291038D01*
X149925318Y-124312536D01*
X149905817Y-124338312D01*
X149888585Y-124367033D01*
X149874449Y-124397366D01*
X149866715Y-124419252D01*
X149863833Y-124429166D01*
X149861766Y-124437863D01*
X149860373Y-124446635D01*
X149859515Y-124456775D01*
X149859053Y-124469578D01*
X149858846Y-124486335D01*
X149858812Y-124492456D01*
X148785315Y-124492456D01*
X148815567Y-124428628D01*
X148858419Y-124350931D01*
X148905927Y-124276084D01*
X148957990Y-124204251D01*
X149014508Y-124135597D01*
X149075380Y-124070287D01*
X149140508Y-124008486D01*
X149209790Y-123950358D01*
X149283126Y-123896069D01*
X149311078Y-123877113D01*
X149338496Y-123859207D01*
X149363035Y-123843788D01*
X149386305Y-123829923D01*
X149409918Y-123816678D01*
X149435484Y-123803120D01*
X149462067Y-123789591D01*
X149540949Y-123752877D01*
X149621241Y-123721215D01*
X149703352Y-123694487D01*
X149787692Y-123672573D01*
X149874670Y-123655354D01*
X149964695Y-123642712D01*
X149967245Y-123642424D01*
X149987928Y-123640597D01*
X150013182Y-123639153D01*
X150041947Y-123638093D01*
X150073164Y-123637416D01*
X150105771Y-123637122D01*
X150138709Y-123637211D01*
D11*
X146621952Y-115101667D02*
X147098143Y-115101667D01*
X146526714Y-115387381D02*
X146860047Y-114387381D01*
X147193381Y-115387381D01*
X147383857Y-114387381D02*
X147955286Y-114387381D01*
X147669571Y-115387381D02*
X147669571Y-114387381D01*
X148145762Y-114387381D02*
X148717191Y-114387381D01*
X148431476Y-115387381D02*
X148431476Y-114387381D01*
X149050524Y-115387381D02*
X149050524Y-114387381D01*
X149526714Y-115387381D02*
X149526714Y-114387381D01*
X150098143Y-115387381D01*
X150098143Y-114387381D01*
X150764809Y-114911190D02*
X150764809Y-115387381D01*
X150431476Y-114387381D02*
X150764809Y-114911190D01*
X151098143Y-114387381D01*
X151574333Y-114815952D02*
X151479095Y-114768333D01*
X151431476Y-114720714D01*
X151383857Y-114625476D01*
X151383857Y-114577857D01*
X151431476Y-114482619D01*
X151479095Y-114435000D01*
X151574333Y-114387381D01*
X151764810Y-114387381D01*
X151860048Y-114435000D01*
X151907667Y-114482619D01*
X151955286Y-114577857D01*
X151955286Y-114625476D01*
X151907667Y-114720714D01*
X151860048Y-114768333D01*
X151764810Y-114815952D01*
X151574333Y-114815952D01*
X151479095Y-114863571D01*
X151431476Y-114911190D01*
X151383857Y-115006429D01*
X151383857Y-115196905D01*
X151431476Y-115292143D01*
X151479095Y-115339762D01*
X151574333Y-115387381D01*
X151764810Y-115387381D01*
X151860048Y-115339762D01*
X151907667Y-115292143D01*
X151955286Y-115196905D01*
X151955286Y-115006429D01*
X151907667Y-114911190D01*
X151860048Y-114863571D01*
X151764810Y-114815952D01*
X152812429Y-114720714D02*
X152812429Y-115387381D01*
X152574333Y-114339762D02*
X152336238Y-115054048D01*
X152955286Y-115054048D01*
X153860048Y-115387381D02*
X153288619Y-115387381D01*
X153574333Y-115387381D02*
X153574333Y-114387381D01*
X153479095Y-114530238D01*
X153383857Y-114625476D01*
X153288619Y-114673095D01*
X151791559Y-132733678D02*
X151291559Y-131867653D01*
X152203951Y-132495583D02*
X151703951Y-131629558D01*
X152698823Y-132209868D01*
X152198823Y-131343843D01*
X162221784Y-130978748D02*
X162386742Y-131073987D01*
X162445411Y-131162845D01*
X162480271Y-131292942D01*
X162426272Y-131481709D01*
X162259605Y-131770385D01*
X162123128Y-131911532D01*
X161993030Y-131946392D01*
X161886742Y-131940012D01*
X161721784Y-131844773D01*
X161663115Y-131755915D01*
X161628256Y-131625818D01*
X161682254Y-131437051D01*
X161848921Y-131148375D01*
X161985399Y-131007228D01*
X162115496Y-130972368D01*
X162221784Y-130978748D01*
X162964092Y-131407320D02*
X162559330Y-132108388D01*
X162552950Y-132214676D01*
X162570380Y-132279725D01*
X162629049Y-132368583D01*
X162794007Y-132463821D01*
X162900295Y-132470201D01*
X162965343Y-132452771D01*
X163054202Y-132394102D01*
X163458964Y-131693034D01*
X163747639Y-131859701D02*
X164242511Y-132145415D01*
X163495074Y-132868583D02*
X163995074Y-132002558D01*
X169838667Y-117443095D02*
X169838667Y-116966904D01*
X170124381Y-117538333D02*
X169124381Y-117205000D01*
X170124381Y-116871666D01*
X169124381Y-116538333D02*
X169933905Y-116538333D01*
X170029143Y-116490714D01*
X170076762Y-116443095D01*
X170124381Y-116347857D01*
X170124381Y-116157380D01*
X170076762Y-116062142D01*
X170029143Y-116014523D01*
X169933905Y-115966904D01*
X169124381Y-115966904D01*
X169124381Y-115585952D02*
X170124381Y-114919285D01*
X169124381Y-114919285D02*
X170124381Y-115585952D01*
X162583762Y-124721809D02*
X162631381Y-124578952D01*
X162631381Y-124340856D01*
X162583762Y-124245618D01*
X162536143Y-124197999D01*
X162440905Y-124150380D01*
X162345667Y-124150380D01*
X162250429Y-124197999D01*
X162202810Y-124245618D01*
X162155190Y-124340856D01*
X162107571Y-124531333D01*
X162059952Y-124626571D01*
X162012333Y-124674190D01*
X161917095Y-124721809D01*
X161821857Y-124721809D01*
X161726619Y-124674190D01*
X161679000Y-124626571D01*
X161631381Y-124531333D01*
X161631381Y-124293237D01*
X161679000Y-124150380D01*
X162631381Y-123721809D02*
X161631381Y-123721809D01*
X161631381Y-123340856D01*
X161679000Y-123245618D01*
X161726619Y-123197999D01*
X161821857Y-123150380D01*
X161964714Y-123150380D01*
X162059952Y-123197999D01*
X162107571Y-123245618D01*
X162155190Y-123340856D01*
X162155190Y-123721809D01*
X162631381Y-122721809D02*
X161631381Y-122721809D01*
%LPC*%
D13*
X161711000Y-118872000D03*
D14*
X164211000Y-118872000D03*
D15*
X145034000Y-115697000D03*
X145034000Y-114197000D03*
D16*
X157480000Y-110698280D03*
X157480000Y-114300000D03*
D17*
X156210000Y-118110000D03*
D18*
X158750000Y-118110000D03*
D19*
X146431000Y-117602000D03*
X147701000Y-117602000D03*
X148971000Y-117602000D03*
X150241000Y-117602000D03*
X151511000Y-117602000D03*
X152781000Y-117602000D03*
X154051000Y-117602000D03*
X154051000Y-112202000D03*
X152781000Y-112202000D03*
X151511000Y-112202000D03*
X150241000Y-112202000D03*
X148971000Y-112202000D03*
X147701000Y-112202000D03*
X146431000Y-112202000D03*
D20*
X161671000Y-113030000D03*
D21*
X164211000Y-113030000D03*
D22*
X154813000Y-131445000D03*
D23*
X154813000Y-128905000D03*
X157353000Y-131445000D03*
X157353000Y-128905000D03*
X159893000Y-131445000D03*
X159893000Y-128905000D03*
D24*
X150876000Y-109855000D03*
X148336000Y-109855000D03*
D25*
X162052000Y-127496000D03*
X162052000Y-125996000D03*
D26*
X151511000Y-122555000D03*
X150011000Y-122555000D03*
X158750000Y-119761000D03*
X157250000Y-119761000D03*
D27*
X154730000Y-125095000D03*
D28*
X154730000Y-122555000D03*
X160230000Y-122555000D03*
X160230000Y-125095000D03*
D29*
X147714000Y-120142000D03*
X148914000Y-120142000D03*
X150114000Y-120142000D03*
D25*
X152654000Y-125107000D03*
X152654000Y-126607000D03*
D30*
X163957000Y-122936000D03*
X163957000Y-124206000D03*
X163957000Y-125476000D03*
D10*
G36*
X142988713Y-121340582D02*
X141925113Y-119498372D01*
X144031287Y-118282372D01*
X145094887Y-120124582D01*
X142988713Y-121340582D01*
X142988713Y-121340582D01*
G37*
D31*
X144648018Y-122087382D02*
X144911982Y-121934982D01*
X145918018Y-124287086D02*
X146181982Y-124134686D01*
X147188018Y-126486791D02*
X147451982Y-126334391D01*
X148458018Y-128686495D02*
X148721982Y-128534095D01*
X149728018Y-130886200D02*
X149991982Y-130733800D01*
D10*
G36*
X169865113Y-120124582D02*
X170928713Y-118282372D01*
X173034887Y-119498372D01*
X171971287Y-121340582D01*
X169865113Y-120124582D01*
X169865113Y-120124582D01*
G37*
D31*
X170048018Y-121934982D02*
X170311982Y-122087382D01*
X168778018Y-124134686D02*
X169041982Y-124287086D01*
X167508018Y-126334391D02*
X167771982Y-126486791D01*
X166238018Y-128534095D02*
X166501982Y-128686495D01*
X164968018Y-130733800D02*
X165231982Y-130886200D01*
D32*
X167386000Y-113665000D03*
D33*
X167386000Y-116205000D03*
X167386000Y-118745000D03*
D30*
X165862000Y-124206000D03*
X165862000Y-122936000D03*
X165862000Y-121666000D03*
M02*
