G04 #@! TF.FileFunction,Legend,Bot*
%FSLAX46Y46*%
G04 Gerber Fmt 4.6, Leading zero omitted, Abs format (unit mm)*
G04 Created by KiCad (PCBNEW 4.0.2-stable) date Wednesday, September 07, 2016 'amt' 02:23:24 am*
%MOMM*%
G01*
G04 APERTURE LIST*
%ADD10C,0.100000*%
%ADD11C,0.150000*%
%ADD12C,0.200000*%
%ADD13C,0.010000*%
%ADD14R,1.700000X1.700000*%
%ADD15C,1.700000*%
%ADD16R,2.400000X2.400000*%
%ADD17C,2.400000*%
%ADD18O,2.398980X2.398980*%
%ADD19R,2.398980X2.398980*%
%ADD20R,2.127200X2.127200*%
%ADD21O,2.127200X2.127200*%
%ADD22C,1.797000*%
%ADD23R,2.000000X2.000000*%
%ADD24C,2.000000*%
%ADD25C,2.127200*%
%ADD26R,2.432000X2.127200*%
%ADD27O,2.432000X2.127200*%
G04 APERTURE END LIST*
D10*
D11*
X152299714Y-112776334D02*
X153109238Y-112776334D01*
X153204476Y-112728715D01*
X153252095Y-112681096D01*
X153299714Y-112585857D01*
X153299714Y-112443000D01*
X153252095Y-112347762D01*
X152918762Y-112776334D02*
X152966381Y-112681096D01*
X152966381Y-112490619D01*
X152918762Y-112395381D01*
X152871143Y-112347762D01*
X152775905Y-112300143D01*
X152490190Y-112300143D01*
X152394952Y-112347762D01*
X152347333Y-112395381D01*
X152299714Y-112490619D01*
X152299714Y-112681096D01*
X152347333Y-112776334D01*
X152918762Y-113633477D02*
X152966381Y-113538239D01*
X152966381Y-113347762D01*
X152918762Y-113252524D01*
X152823524Y-113204905D01*
X152442571Y-113204905D01*
X152347333Y-113252524D01*
X152299714Y-113347762D01*
X152299714Y-113538239D01*
X152347333Y-113633477D01*
X152442571Y-113681096D01*
X152537810Y-113681096D01*
X152633048Y-113204905D01*
X152966381Y-114252524D02*
X152918762Y-114157286D01*
X152871143Y-114109667D01*
X152775905Y-114062048D01*
X152490190Y-114062048D01*
X152394952Y-114109667D01*
X152347333Y-114157286D01*
X152299714Y-114252524D01*
X152299714Y-114395382D01*
X152347333Y-114490620D01*
X152394952Y-114538239D01*
X152490190Y-114585858D01*
X152775905Y-114585858D01*
X152871143Y-114538239D01*
X152918762Y-114490620D01*
X152966381Y-114395382D01*
X152966381Y-114252524D01*
X152966381Y-115443001D02*
X151966381Y-115443001D01*
X152918762Y-115443001D02*
X152966381Y-115347763D01*
X152966381Y-115157286D01*
X152918762Y-115062048D01*
X152871143Y-115014429D01*
X152775905Y-114966810D01*
X152490190Y-114966810D01*
X152394952Y-115014429D01*
X152347333Y-115062048D01*
X152299714Y-115157286D01*
X152299714Y-115347763D01*
X152347333Y-115443001D01*
X152966381Y-116062048D02*
X152918762Y-115966810D01*
X152871143Y-115919191D01*
X152775905Y-115871572D01*
X152490190Y-115871572D01*
X152394952Y-115919191D01*
X152347333Y-115966810D01*
X152299714Y-116062048D01*
X152299714Y-116204906D01*
X152347333Y-116300144D01*
X152394952Y-116347763D01*
X152490190Y-116395382D01*
X152775905Y-116395382D01*
X152871143Y-116347763D01*
X152918762Y-116300144D01*
X152966381Y-116204906D01*
X152966381Y-116062048D01*
X152966381Y-116823953D02*
X152299714Y-116823953D01*
X152394952Y-116823953D02*
X152347333Y-116871572D01*
X152299714Y-116966810D01*
X152299714Y-117109668D01*
X152347333Y-117204906D01*
X152442571Y-117252525D01*
X152966381Y-117252525D01*
X152442571Y-117252525D02*
X152347333Y-117300144D01*
X152299714Y-117395382D01*
X152299714Y-117538239D01*
X152347333Y-117633477D01*
X152442571Y-117681096D01*
X152966381Y-117681096D01*
X152918762Y-118538239D02*
X152966381Y-118443001D01*
X152966381Y-118252524D01*
X152918762Y-118157286D01*
X152823524Y-118109667D01*
X152442571Y-118109667D01*
X152347333Y-118157286D01*
X152299714Y-118252524D01*
X152299714Y-118443001D01*
X152347333Y-118538239D01*
X152442571Y-118585858D01*
X152537810Y-118585858D01*
X152633048Y-118109667D01*
X154516381Y-112990619D02*
X153849714Y-112990619D01*
X154040190Y-112990619D02*
X153944952Y-113038238D01*
X153897333Y-113085857D01*
X153849714Y-113181095D01*
X153849714Y-113276334D01*
X154468762Y-113990620D02*
X154516381Y-113895382D01*
X154516381Y-113704905D01*
X154468762Y-113609667D01*
X154373524Y-113562048D01*
X153992571Y-113562048D01*
X153897333Y-113609667D01*
X153849714Y-113704905D01*
X153849714Y-113895382D01*
X153897333Y-113990620D01*
X153992571Y-114038239D01*
X154087810Y-114038239D01*
X154183048Y-113562048D01*
X153849714Y-114371572D02*
X154516381Y-114609667D01*
X153849714Y-114847763D01*
X154516381Y-116514430D02*
X154516381Y-115943001D01*
X154516381Y-116228715D02*
X153516381Y-116228715D01*
X153659238Y-116133477D01*
X153754476Y-116038239D01*
X153802095Y-115943001D01*
X154421143Y-116943001D02*
X154468762Y-116990620D01*
X154516381Y-116943001D01*
X154468762Y-116895382D01*
X154421143Y-116943001D01*
X154516381Y-116943001D01*
X153516381Y-117609667D02*
X153516381Y-117704906D01*
X153564000Y-117800144D01*
X153611619Y-117847763D01*
X153706857Y-117895382D01*
X153897333Y-117943001D01*
X154135429Y-117943001D01*
X154325905Y-117895382D01*
X154421143Y-117847763D01*
X154468762Y-117800144D01*
X154516381Y-117704906D01*
X154516381Y-117609667D01*
X154468762Y-117514429D01*
X154421143Y-117466810D01*
X154325905Y-117419191D01*
X154135429Y-117371572D01*
X153897333Y-117371572D01*
X153706857Y-117419191D01*
X153611619Y-117466810D01*
X153564000Y-117514429D01*
X153516381Y-117609667D01*
X156011000Y-116796000D02*
X156011000Y-116996000D01*
X156011000Y-119390000D02*
X156011000Y-119210000D01*
X159238744Y-119079643D02*
G75*
G02X156011000Y-119396000I-1727744J1003643D01*
G01*
X158563006Y-119209068D02*
G75*
G02X156460000Y-119210000I-1052006J1133068D01*
G01*
X156023780Y-116769274D02*
G75*
G02X159261000Y-117116000I1497220J-1306726D01*
G01*
X156497111Y-116996747D02*
G75*
G02X158545000Y-117016000I1013889J-1079253D01*
G01*
D12*
X152380000Y-126725000D02*
X156180000Y-126725000D01*
X158880000Y-126725000D02*
X160880000Y-126725000D01*
X160880000Y-120925000D02*
X158880000Y-120925000D01*
X156180000Y-120925000D02*
X153780000Y-120925000D01*
X152380000Y-122125000D02*
X152380000Y-126725000D01*
X160880000Y-126725000D02*
X162580000Y-125025000D01*
X162580000Y-125025000D02*
X162580000Y-122625000D01*
X162580000Y-122625000D02*
X160880000Y-120925000D01*
D13*
G36*
X147447740Y-113545511D02*
X147448890Y-113597229D01*
X147450741Y-113647716D01*
X147453254Y-113695089D01*
X147456388Y-113737468D01*
X147459461Y-113767741D01*
X147479773Y-113903714D01*
X147507979Y-114037039D01*
X147543921Y-114167444D01*
X147587445Y-114294654D01*
X147638393Y-114418394D01*
X147696611Y-114538392D01*
X147761942Y-114654373D01*
X147834229Y-114766063D01*
X147913318Y-114873188D01*
X147999052Y-114975474D01*
X148091275Y-115072646D01*
X148189831Y-115164432D01*
X148294564Y-115250557D01*
X148310600Y-115262821D01*
X148421615Y-115341689D01*
X148536479Y-115413112D01*
X148654862Y-115477010D01*
X148776433Y-115533302D01*
X148900862Y-115581905D01*
X149027819Y-115622740D01*
X149156974Y-115655725D01*
X149287997Y-115680780D01*
X149420557Y-115697822D01*
X149554324Y-115706772D01*
X149688969Y-115707548D01*
X149824160Y-115700069D01*
X149959568Y-115684254D01*
X150001057Y-115677726D01*
X150133445Y-115651373D01*
X150263400Y-115617003D01*
X150390607Y-115574792D01*
X150514751Y-115524922D01*
X150635515Y-115467571D01*
X150752584Y-115402919D01*
X150865640Y-115331145D01*
X150974370Y-115252428D01*
X151078455Y-115166947D01*
X151177581Y-115074883D01*
X151271432Y-114976414D01*
X151305850Y-114937116D01*
X151319604Y-114920583D01*
X151336711Y-114899325D01*
X151355513Y-114875443D01*
X151374352Y-114851037D01*
X151386108Y-114835516D01*
X151465178Y-114723434D01*
X151536408Y-114608271D01*
X151599838Y-114489921D01*
X151655512Y-114368281D01*
X151703470Y-114243243D01*
X151743754Y-114114705D01*
X151776406Y-113982559D01*
X151801467Y-113846701D01*
X151814042Y-113753461D01*
X151815886Y-113732779D01*
X151817549Y-113705026D01*
X151819011Y-113671597D01*
X151820252Y-113633885D01*
X151821253Y-113593286D01*
X151821995Y-113551193D01*
X151822458Y-113509001D01*
X151822623Y-113468104D01*
X151822471Y-113429896D01*
X151821982Y-113395772D01*
X151821137Y-113367126D01*
X151819916Y-113345353D01*
X151819743Y-113343267D01*
X151803641Y-113204895D01*
X151779602Y-113069320D01*
X151747692Y-112936696D01*
X151707976Y-112807179D01*
X151660519Y-112680922D01*
X151605385Y-112558082D01*
X151542639Y-112438813D01*
X151472346Y-112323269D01*
X151394571Y-112211607D01*
X151309379Y-112103980D01*
X151292984Y-112084726D01*
X151267803Y-112056424D01*
X151238148Y-112024651D01*
X151205477Y-111990853D01*
X151171250Y-111956479D01*
X151136925Y-111922975D01*
X151103961Y-111891789D01*
X151073815Y-111864369D01*
X151051683Y-111845259D01*
X150942125Y-111759041D01*
X150829278Y-111680623D01*
X150713133Y-111610004D01*
X150593680Y-111547178D01*
X150470911Y-111492141D01*
X150344817Y-111444891D01*
X150215390Y-111405424D01*
X150082620Y-111373735D01*
X149946498Y-111349821D01*
X149853650Y-111338171D01*
X149818356Y-111335191D01*
X149776363Y-111332896D01*
X149729411Y-111331286D01*
X149694752Y-111330647D01*
X149694752Y-112307459D01*
X149748155Y-112308370D01*
X149801244Y-112316375D01*
X149853311Y-112331548D01*
X149903649Y-112353961D01*
X149951551Y-112383686D01*
X149996309Y-112420798D01*
X150004255Y-112428545D01*
X150043812Y-112473981D01*
X150076304Y-112524055D01*
X150101617Y-112578574D01*
X150114436Y-112617250D01*
X150116478Y-112624688D01*
X150118212Y-112631896D01*
X150119670Y-112639618D01*
X150120882Y-112648597D01*
X150121878Y-112659576D01*
X150122688Y-112673299D01*
X150123342Y-112690509D01*
X150123871Y-112711949D01*
X150124305Y-112738364D01*
X150124673Y-112770495D01*
X150125007Y-112809087D01*
X150125336Y-112854884D01*
X150125579Y-112891531D01*
X150127150Y-113131945D01*
X150356583Y-113131430D01*
X150410238Y-113131338D01*
X150456215Y-113131359D01*
X150495303Y-113131551D01*
X150528292Y-113131970D01*
X150555969Y-113132673D01*
X150579125Y-113133718D01*
X150598548Y-113135161D01*
X150615026Y-113137060D01*
X150629349Y-113139471D01*
X150642306Y-113142451D01*
X150654685Y-113146057D01*
X150667276Y-113150347D01*
X150679169Y-113154737D01*
X150732352Y-113179112D01*
X150781078Y-113210207D01*
X150824784Y-113247343D01*
X150862913Y-113289838D01*
X150894903Y-113337011D01*
X150920194Y-113388181D01*
X150938226Y-113442667D01*
X150945662Y-113478733D01*
X150949958Y-113511315D01*
X150951448Y-113539940D01*
X150950143Y-113568584D01*
X150946056Y-113601221D01*
X150946013Y-113601500D01*
X150933298Y-113657966D01*
X150913162Y-113711450D01*
X150886194Y-113761292D01*
X150852979Y-113806831D01*
X150814107Y-113847407D01*
X150770163Y-113882358D01*
X150721735Y-113911025D01*
X150669410Y-113932746D01*
X150645157Y-113939971D01*
X150630140Y-113943660D01*
X150614836Y-113946788D01*
X150598423Y-113949398D01*
X150580080Y-113951537D01*
X150558985Y-113953247D01*
X150534316Y-113954575D01*
X150505254Y-113955564D01*
X150470976Y-113956259D01*
X150430660Y-113956705D01*
X150383486Y-113956946D01*
X150331153Y-113957026D01*
X150127090Y-113957100D01*
X150125695Y-114197342D01*
X150125389Y-114248563D01*
X150125096Y-114292060D01*
X150124785Y-114328578D01*
X150124426Y-114358858D01*
X150123989Y-114383645D01*
X150123444Y-114403681D01*
X150122761Y-114419709D01*
X150121910Y-114432474D01*
X150120862Y-114442717D01*
X150119585Y-114451182D01*
X150118051Y-114458612D01*
X150116228Y-114465750D01*
X150114629Y-114471450D01*
X150094560Y-114527438D01*
X150068001Y-114578784D01*
X150035583Y-114625131D01*
X149997932Y-114666124D01*
X149955678Y-114701405D01*
X149909448Y-114730617D01*
X149859872Y-114753404D01*
X149807577Y-114769410D01*
X149753192Y-114778277D01*
X149697345Y-114779650D01*
X149640665Y-114773170D01*
X149599996Y-114763531D01*
X149547788Y-114744137D01*
X149497917Y-114717244D01*
X149451650Y-114683754D01*
X149410251Y-114644567D01*
X149378998Y-114606288D01*
X149360921Y-114577701D01*
X149343401Y-114543914D01*
X149327919Y-114508142D01*
X149315953Y-114473601D01*
X149312953Y-114462729D01*
X149303316Y-114424883D01*
X149303316Y-113546467D01*
X149303319Y-113444824D01*
X149303328Y-113351295D01*
X149303346Y-113265529D01*
X149303377Y-113187173D01*
X149303424Y-113115874D01*
X149303489Y-113051280D01*
X149303576Y-112993039D01*
X149303688Y-112940800D01*
X149303827Y-112894208D01*
X149303998Y-112852913D01*
X149304202Y-112816561D01*
X149304444Y-112784801D01*
X149304725Y-112757280D01*
X149305050Y-112733647D01*
X149305420Y-112713548D01*
X149305840Y-112696631D01*
X149306311Y-112682545D01*
X149306838Y-112670937D01*
X149307423Y-112661454D01*
X149308070Y-112653744D01*
X149308781Y-112647456D01*
X149309559Y-112642236D01*
X149310407Y-112637733D01*
X149311191Y-112634183D01*
X149327720Y-112579802D01*
X149351108Y-112527904D01*
X149371499Y-112493626D01*
X149407310Y-112446910D01*
X149447756Y-112406780D01*
X149492128Y-112373308D01*
X149539721Y-112346568D01*
X149589828Y-112326631D01*
X149641740Y-112313570D01*
X149694752Y-112307459D01*
X149694752Y-111330647D01*
X149679242Y-111330361D01*
X149627594Y-111330121D01*
X149576209Y-111330567D01*
X149526826Y-111331699D01*
X149481186Y-111333516D01*
X149441029Y-111336019D01*
X149417617Y-111338127D01*
X149282315Y-111356203D01*
X149151009Y-111381584D01*
X149023152Y-111414428D01*
X148898194Y-111454896D01*
X148775589Y-111503148D01*
X148745591Y-111517102D01*
X148745591Y-113130850D01*
X148795077Y-113135213D01*
X148842311Y-113144607D01*
X148863268Y-113150829D01*
X148916039Y-113172856D01*
X148965216Y-113202214D01*
X149010084Y-113238272D01*
X149049926Y-113280399D01*
X149084026Y-113327963D01*
X149103183Y-113362317D01*
X149119164Y-113397251D01*
X149130648Y-113429982D01*
X149138137Y-113462911D01*
X149142129Y-113498437D01*
X149143127Y-113538960D01*
X149142909Y-113552817D01*
X149142056Y-113580000D01*
X149140752Y-113601029D01*
X149138705Y-113618214D01*
X149135627Y-113633865D01*
X149131227Y-113650292D01*
X149130269Y-113653520D01*
X149109247Y-113709675D01*
X149081525Y-113761222D01*
X149047650Y-113807701D01*
X149008170Y-113848654D01*
X148963632Y-113883624D01*
X148914583Y-113912152D01*
X148861572Y-113933779D01*
X148805145Y-113948047D01*
X148773092Y-113952567D01*
X148715815Y-113954362D01*
X148660002Y-113948180D01*
X148606273Y-113934471D01*
X148555246Y-113913682D01*
X148507541Y-113886262D01*
X148463775Y-113852659D01*
X148424569Y-113813322D01*
X148390542Y-113768698D01*
X148362311Y-113719236D01*
X148340497Y-113665384D01*
X148331058Y-113632433D01*
X148324396Y-113594121D01*
X148321614Y-113551677D01*
X148322710Y-113508496D01*
X148327684Y-113467970D01*
X148331058Y-113452034D01*
X148349083Y-113395365D01*
X148374149Y-113342649D01*
X148405691Y-113294438D01*
X148443146Y-113251284D01*
X148485951Y-113213739D01*
X148533544Y-113182355D01*
X148585360Y-113157686D01*
X148640837Y-113140282D01*
X148651383Y-113137918D01*
X148696733Y-113131693D01*
X148745591Y-113130850D01*
X148745591Y-111517102D01*
X148654787Y-111559344D01*
X148647150Y-111563192D01*
X148562772Y-111607867D01*
X148483577Y-111654066D01*
X148407490Y-111703152D01*
X148332442Y-111756488D01*
X148256360Y-111815437D01*
X148225933Y-111840265D01*
X148204085Y-111859089D01*
X148177927Y-111882861D01*
X148148677Y-111910370D01*
X148117555Y-111940403D01*
X148085782Y-111971748D01*
X148054576Y-112003192D01*
X148025157Y-112033523D01*
X147998746Y-112061528D01*
X147976561Y-112085996D01*
X147963854Y-112100783D01*
X147877227Y-112211330D01*
X147798435Y-112325046D01*
X147727499Y-112441882D01*
X147664439Y-112561788D01*
X147609273Y-112684718D01*
X147562023Y-112810620D01*
X147522708Y-112939448D01*
X147491347Y-113071152D01*
X147467960Y-113205683D01*
X147452568Y-113342992D01*
X147450943Y-113363926D01*
X147448892Y-113401767D01*
X147447702Y-113445899D01*
X147447331Y-113494440D01*
X147447740Y-113545511D01*
X147447740Y-113545511D01*
G37*
X147447740Y-113545511D02*
X147448890Y-113597229D01*
X147450741Y-113647716D01*
X147453254Y-113695089D01*
X147456388Y-113737468D01*
X147459461Y-113767741D01*
X147479773Y-113903714D01*
X147507979Y-114037039D01*
X147543921Y-114167444D01*
X147587445Y-114294654D01*
X147638393Y-114418394D01*
X147696611Y-114538392D01*
X147761942Y-114654373D01*
X147834229Y-114766063D01*
X147913318Y-114873188D01*
X147999052Y-114975474D01*
X148091275Y-115072646D01*
X148189831Y-115164432D01*
X148294564Y-115250557D01*
X148310600Y-115262821D01*
X148421615Y-115341689D01*
X148536479Y-115413112D01*
X148654862Y-115477010D01*
X148776433Y-115533302D01*
X148900862Y-115581905D01*
X149027819Y-115622740D01*
X149156974Y-115655725D01*
X149287997Y-115680780D01*
X149420557Y-115697822D01*
X149554324Y-115706772D01*
X149688969Y-115707548D01*
X149824160Y-115700069D01*
X149959568Y-115684254D01*
X150001057Y-115677726D01*
X150133445Y-115651373D01*
X150263400Y-115617003D01*
X150390607Y-115574792D01*
X150514751Y-115524922D01*
X150635515Y-115467571D01*
X150752584Y-115402919D01*
X150865640Y-115331145D01*
X150974370Y-115252428D01*
X151078455Y-115166947D01*
X151177581Y-115074883D01*
X151271432Y-114976414D01*
X151305850Y-114937116D01*
X151319604Y-114920583D01*
X151336711Y-114899325D01*
X151355513Y-114875443D01*
X151374352Y-114851037D01*
X151386108Y-114835516D01*
X151465178Y-114723434D01*
X151536408Y-114608271D01*
X151599838Y-114489921D01*
X151655512Y-114368281D01*
X151703470Y-114243243D01*
X151743754Y-114114705D01*
X151776406Y-113982559D01*
X151801467Y-113846701D01*
X151814042Y-113753461D01*
X151815886Y-113732779D01*
X151817549Y-113705026D01*
X151819011Y-113671597D01*
X151820252Y-113633885D01*
X151821253Y-113593286D01*
X151821995Y-113551193D01*
X151822458Y-113509001D01*
X151822623Y-113468104D01*
X151822471Y-113429896D01*
X151821982Y-113395772D01*
X151821137Y-113367126D01*
X151819916Y-113345353D01*
X151819743Y-113343267D01*
X151803641Y-113204895D01*
X151779602Y-113069320D01*
X151747692Y-112936696D01*
X151707976Y-112807179D01*
X151660519Y-112680922D01*
X151605385Y-112558082D01*
X151542639Y-112438813D01*
X151472346Y-112323269D01*
X151394571Y-112211607D01*
X151309379Y-112103980D01*
X151292984Y-112084726D01*
X151267803Y-112056424D01*
X151238148Y-112024651D01*
X151205477Y-111990853D01*
X151171250Y-111956479D01*
X151136925Y-111922975D01*
X151103961Y-111891789D01*
X151073815Y-111864369D01*
X151051683Y-111845259D01*
X150942125Y-111759041D01*
X150829278Y-111680623D01*
X150713133Y-111610004D01*
X150593680Y-111547178D01*
X150470911Y-111492141D01*
X150344817Y-111444891D01*
X150215390Y-111405424D01*
X150082620Y-111373735D01*
X149946498Y-111349821D01*
X149853650Y-111338171D01*
X149818356Y-111335191D01*
X149776363Y-111332896D01*
X149729411Y-111331286D01*
X149694752Y-111330647D01*
X149694752Y-112307459D01*
X149748155Y-112308370D01*
X149801244Y-112316375D01*
X149853311Y-112331548D01*
X149903649Y-112353961D01*
X149951551Y-112383686D01*
X149996309Y-112420798D01*
X150004255Y-112428545D01*
X150043812Y-112473981D01*
X150076304Y-112524055D01*
X150101617Y-112578574D01*
X150114436Y-112617250D01*
X150116478Y-112624688D01*
X150118212Y-112631896D01*
X150119670Y-112639618D01*
X150120882Y-112648597D01*
X150121878Y-112659576D01*
X150122688Y-112673299D01*
X150123342Y-112690509D01*
X150123871Y-112711949D01*
X150124305Y-112738364D01*
X150124673Y-112770495D01*
X150125007Y-112809087D01*
X150125336Y-112854884D01*
X150125579Y-112891531D01*
X150127150Y-113131945D01*
X150356583Y-113131430D01*
X150410238Y-113131338D01*
X150456215Y-113131359D01*
X150495303Y-113131551D01*
X150528292Y-113131970D01*
X150555969Y-113132673D01*
X150579125Y-113133718D01*
X150598548Y-113135161D01*
X150615026Y-113137060D01*
X150629349Y-113139471D01*
X150642306Y-113142451D01*
X150654685Y-113146057D01*
X150667276Y-113150347D01*
X150679169Y-113154737D01*
X150732352Y-113179112D01*
X150781078Y-113210207D01*
X150824784Y-113247343D01*
X150862913Y-113289838D01*
X150894903Y-113337011D01*
X150920194Y-113388181D01*
X150938226Y-113442667D01*
X150945662Y-113478733D01*
X150949958Y-113511315D01*
X150951448Y-113539940D01*
X150950143Y-113568584D01*
X150946056Y-113601221D01*
X150946013Y-113601500D01*
X150933298Y-113657966D01*
X150913162Y-113711450D01*
X150886194Y-113761292D01*
X150852979Y-113806831D01*
X150814107Y-113847407D01*
X150770163Y-113882358D01*
X150721735Y-113911025D01*
X150669410Y-113932746D01*
X150645157Y-113939971D01*
X150630140Y-113943660D01*
X150614836Y-113946788D01*
X150598423Y-113949398D01*
X150580080Y-113951537D01*
X150558985Y-113953247D01*
X150534316Y-113954575D01*
X150505254Y-113955564D01*
X150470976Y-113956259D01*
X150430660Y-113956705D01*
X150383486Y-113956946D01*
X150331153Y-113957026D01*
X150127090Y-113957100D01*
X150125695Y-114197342D01*
X150125389Y-114248563D01*
X150125096Y-114292060D01*
X150124785Y-114328578D01*
X150124426Y-114358858D01*
X150123989Y-114383645D01*
X150123444Y-114403681D01*
X150122761Y-114419709D01*
X150121910Y-114432474D01*
X150120862Y-114442717D01*
X150119585Y-114451182D01*
X150118051Y-114458612D01*
X150116228Y-114465750D01*
X150114629Y-114471450D01*
X150094560Y-114527438D01*
X150068001Y-114578784D01*
X150035583Y-114625131D01*
X149997932Y-114666124D01*
X149955678Y-114701405D01*
X149909448Y-114730617D01*
X149859872Y-114753404D01*
X149807577Y-114769410D01*
X149753192Y-114778277D01*
X149697345Y-114779650D01*
X149640665Y-114773170D01*
X149599996Y-114763531D01*
X149547788Y-114744137D01*
X149497917Y-114717244D01*
X149451650Y-114683754D01*
X149410251Y-114644567D01*
X149378998Y-114606288D01*
X149360921Y-114577701D01*
X149343401Y-114543914D01*
X149327919Y-114508142D01*
X149315953Y-114473601D01*
X149312953Y-114462729D01*
X149303316Y-114424883D01*
X149303316Y-113546467D01*
X149303319Y-113444824D01*
X149303328Y-113351295D01*
X149303346Y-113265529D01*
X149303377Y-113187173D01*
X149303424Y-113115874D01*
X149303489Y-113051280D01*
X149303576Y-112993039D01*
X149303688Y-112940800D01*
X149303827Y-112894208D01*
X149303998Y-112852913D01*
X149304202Y-112816561D01*
X149304444Y-112784801D01*
X149304725Y-112757280D01*
X149305050Y-112733647D01*
X149305420Y-112713548D01*
X149305840Y-112696631D01*
X149306311Y-112682545D01*
X149306838Y-112670937D01*
X149307423Y-112661454D01*
X149308070Y-112653744D01*
X149308781Y-112647456D01*
X149309559Y-112642236D01*
X149310407Y-112637733D01*
X149311191Y-112634183D01*
X149327720Y-112579802D01*
X149351108Y-112527904D01*
X149371499Y-112493626D01*
X149407310Y-112446910D01*
X149447756Y-112406780D01*
X149492128Y-112373308D01*
X149539721Y-112346568D01*
X149589828Y-112326631D01*
X149641740Y-112313570D01*
X149694752Y-112307459D01*
X149694752Y-111330647D01*
X149679242Y-111330361D01*
X149627594Y-111330121D01*
X149576209Y-111330567D01*
X149526826Y-111331699D01*
X149481186Y-111333516D01*
X149441029Y-111336019D01*
X149417617Y-111338127D01*
X149282315Y-111356203D01*
X149151009Y-111381584D01*
X149023152Y-111414428D01*
X148898194Y-111454896D01*
X148775589Y-111503148D01*
X148745591Y-111517102D01*
X148745591Y-113130850D01*
X148795077Y-113135213D01*
X148842311Y-113144607D01*
X148863268Y-113150829D01*
X148916039Y-113172856D01*
X148965216Y-113202214D01*
X149010084Y-113238272D01*
X149049926Y-113280399D01*
X149084026Y-113327963D01*
X149103183Y-113362317D01*
X149119164Y-113397251D01*
X149130648Y-113429982D01*
X149138137Y-113462911D01*
X149142129Y-113498437D01*
X149143127Y-113538960D01*
X149142909Y-113552817D01*
X149142056Y-113580000D01*
X149140752Y-113601029D01*
X149138705Y-113618214D01*
X149135627Y-113633865D01*
X149131227Y-113650292D01*
X149130269Y-113653520D01*
X149109247Y-113709675D01*
X149081525Y-113761222D01*
X149047650Y-113807701D01*
X149008170Y-113848654D01*
X148963632Y-113883624D01*
X148914583Y-113912152D01*
X148861572Y-113933779D01*
X148805145Y-113948047D01*
X148773092Y-113952567D01*
X148715815Y-113954362D01*
X148660002Y-113948180D01*
X148606273Y-113934471D01*
X148555246Y-113913682D01*
X148507541Y-113886262D01*
X148463775Y-113852659D01*
X148424569Y-113813322D01*
X148390542Y-113768698D01*
X148362311Y-113719236D01*
X148340497Y-113665384D01*
X148331058Y-113632433D01*
X148324396Y-113594121D01*
X148321614Y-113551677D01*
X148322710Y-113508496D01*
X148327684Y-113467970D01*
X148331058Y-113452034D01*
X148349083Y-113395365D01*
X148374149Y-113342649D01*
X148405691Y-113294438D01*
X148443146Y-113251284D01*
X148485951Y-113213739D01*
X148533544Y-113182355D01*
X148585360Y-113157686D01*
X148640837Y-113140282D01*
X148651383Y-113137918D01*
X148696733Y-113131693D01*
X148745591Y-113130850D01*
X148745591Y-111517102D01*
X148654787Y-111559344D01*
X148647150Y-111563192D01*
X148562772Y-111607867D01*
X148483577Y-111654066D01*
X148407490Y-111703152D01*
X148332442Y-111756488D01*
X148256360Y-111815437D01*
X148225933Y-111840265D01*
X148204085Y-111859089D01*
X148177927Y-111882861D01*
X148148677Y-111910370D01*
X148117555Y-111940403D01*
X148085782Y-111971748D01*
X148054576Y-112003192D01*
X148025157Y-112033523D01*
X147998746Y-112061528D01*
X147976561Y-112085996D01*
X147963854Y-112100783D01*
X147877227Y-112211330D01*
X147798435Y-112325046D01*
X147727499Y-112441882D01*
X147664439Y-112561788D01*
X147609273Y-112684718D01*
X147562023Y-112810620D01*
X147522708Y-112939448D01*
X147491347Y-113071152D01*
X147467960Y-113205683D01*
X147452568Y-113342992D01*
X147450943Y-113363926D01*
X147448892Y-113401767D01*
X147447702Y-113445899D01*
X147447331Y-113494440D01*
X147447740Y-113545511D01*
G36*
X149770236Y-123016156D02*
X149777925Y-123082535D01*
X149781947Y-123104171D01*
X149792350Y-123146115D01*
X149805950Y-123187095D01*
X149822134Y-123225968D01*
X149840288Y-123261590D01*
X149859798Y-123292820D01*
X149880049Y-123318515D01*
X149900428Y-123337530D01*
X149911083Y-123344517D01*
X149924256Y-123351180D01*
X149935854Y-123355023D01*
X149949200Y-123356787D01*
X149967618Y-123357216D01*
X149967950Y-123357217D01*
X149986489Y-123356799D01*
X149999884Y-123355059D01*
X150011438Y-123351263D01*
X150024454Y-123344678D01*
X150024456Y-123344676D01*
X150048558Y-123326827D01*
X150066033Y-123303852D01*
X150076639Y-123276186D01*
X150080133Y-123244934D01*
X150079287Y-123227841D01*
X150076263Y-123212130D01*
X150070331Y-123195912D01*
X150060764Y-123177301D01*
X150046833Y-123154407D01*
X150042720Y-123148005D01*
X150016262Y-123100295D01*
X149997732Y-123051784D01*
X149986968Y-123003118D01*
X149983811Y-122954945D01*
X149988099Y-122907914D01*
X149999671Y-122862672D01*
X150018365Y-122819867D01*
X150044021Y-122780147D01*
X150076478Y-122744159D01*
X150115574Y-122712552D01*
X150157091Y-122687988D01*
X150203404Y-122669209D01*
X150253175Y-122657388D01*
X150304968Y-122652572D01*
X150357351Y-122654808D01*
X150408887Y-122664144D01*
X150452353Y-122678251D01*
X150497819Y-122700775D01*
X150538827Y-122729909D01*
X150574600Y-122764838D01*
X150604359Y-122804745D01*
X150627326Y-122848813D01*
X150635438Y-122870383D01*
X150639409Y-122883389D01*
X150642162Y-122895752D01*
X150643910Y-122909489D01*
X150644867Y-122926616D01*
X150645244Y-122949152D01*
X150645283Y-122963517D01*
X150645109Y-122989837D01*
X150644443Y-123009782D01*
X150643066Y-123025436D01*
X150640760Y-123038886D01*
X150637309Y-123052219D01*
X150635347Y-123058660D01*
X150625485Y-123086881D01*
X150614219Y-123111954D01*
X150600048Y-123136785D01*
X150581470Y-123164278D01*
X150579039Y-123167665D01*
X150563722Y-123189684D01*
X150553137Y-123207276D01*
X150546473Y-123222415D01*
X150542917Y-123237073D01*
X150541659Y-123253223D01*
X150541608Y-123258656D01*
X150545413Y-123288833D01*
X150556269Y-123315404D01*
X150573483Y-123337403D01*
X150596365Y-123353866D01*
X150615360Y-123361571D01*
X150634208Y-123366239D01*
X150650212Y-123367352D01*
X150667286Y-123364885D01*
X150681556Y-123361134D01*
X150694233Y-123356634D01*
X150705318Y-123350319D01*
X150717082Y-123340590D01*
X150731796Y-123325848D01*
X150732066Y-123325564D01*
X150768026Y-123281891D01*
X150798867Y-123232135D01*
X150824162Y-123177262D01*
X150843482Y-123118238D01*
X150856400Y-123056028D01*
X150858625Y-123039717D01*
X150861235Y-123009805D01*
X150862540Y-122975541D01*
X150862563Y-122939747D01*
X150861328Y-122905250D01*
X150858859Y-122874873D01*
X150857139Y-122861917D01*
X150842727Y-122795803D01*
X150821202Y-122733765D01*
X150793039Y-122676124D01*
X150758711Y-122623202D01*
X150718693Y-122575318D01*
X150673460Y-122532793D01*
X150623487Y-122495949D01*
X150569247Y-122465107D01*
X150511217Y-122440586D01*
X150449870Y-122422708D01*
X150385681Y-122411793D01*
X150319125Y-122408163D01*
X150250676Y-122412138D01*
X150202578Y-122419485D01*
X150137863Y-122436023D01*
X150076658Y-122459937D01*
X150019492Y-122490774D01*
X149966897Y-122528087D01*
X149919403Y-122571425D01*
X149877541Y-122620339D01*
X149841841Y-122674377D01*
X149812834Y-122733092D01*
X149803074Y-122758200D01*
X149785536Y-122818106D01*
X149774146Y-122882217D01*
X149769011Y-122948809D01*
X149770236Y-123016156D01*
X149770236Y-123016156D01*
G37*
X149770236Y-123016156D02*
X149777925Y-123082535D01*
X149781947Y-123104171D01*
X149792350Y-123146115D01*
X149805950Y-123187095D01*
X149822134Y-123225968D01*
X149840288Y-123261590D01*
X149859798Y-123292820D01*
X149880049Y-123318515D01*
X149900428Y-123337530D01*
X149911083Y-123344517D01*
X149924256Y-123351180D01*
X149935854Y-123355023D01*
X149949200Y-123356787D01*
X149967618Y-123357216D01*
X149967950Y-123357217D01*
X149986489Y-123356799D01*
X149999884Y-123355059D01*
X150011438Y-123351263D01*
X150024454Y-123344678D01*
X150024456Y-123344676D01*
X150048558Y-123326827D01*
X150066033Y-123303852D01*
X150076639Y-123276186D01*
X150080133Y-123244934D01*
X150079287Y-123227841D01*
X150076263Y-123212130D01*
X150070331Y-123195912D01*
X150060764Y-123177301D01*
X150046833Y-123154407D01*
X150042720Y-123148005D01*
X150016262Y-123100295D01*
X149997732Y-123051784D01*
X149986968Y-123003118D01*
X149983811Y-122954945D01*
X149988099Y-122907914D01*
X149999671Y-122862672D01*
X150018365Y-122819867D01*
X150044021Y-122780147D01*
X150076478Y-122744159D01*
X150115574Y-122712552D01*
X150157091Y-122687988D01*
X150203404Y-122669209D01*
X150253175Y-122657388D01*
X150304968Y-122652572D01*
X150357351Y-122654808D01*
X150408887Y-122664144D01*
X150452353Y-122678251D01*
X150497819Y-122700775D01*
X150538827Y-122729909D01*
X150574600Y-122764838D01*
X150604359Y-122804745D01*
X150627326Y-122848813D01*
X150635438Y-122870383D01*
X150639409Y-122883389D01*
X150642162Y-122895752D01*
X150643910Y-122909489D01*
X150644867Y-122926616D01*
X150645244Y-122949152D01*
X150645283Y-122963517D01*
X150645109Y-122989837D01*
X150644443Y-123009782D01*
X150643066Y-123025436D01*
X150640760Y-123038886D01*
X150637309Y-123052219D01*
X150635347Y-123058660D01*
X150625485Y-123086881D01*
X150614219Y-123111954D01*
X150600048Y-123136785D01*
X150581470Y-123164278D01*
X150579039Y-123167665D01*
X150563722Y-123189684D01*
X150553137Y-123207276D01*
X150546473Y-123222415D01*
X150542917Y-123237073D01*
X150541659Y-123253223D01*
X150541608Y-123258656D01*
X150545413Y-123288833D01*
X150556269Y-123315404D01*
X150573483Y-123337403D01*
X150596365Y-123353866D01*
X150615360Y-123361571D01*
X150634208Y-123366239D01*
X150650212Y-123367352D01*
X150667286Y-123364885D01*
X150681556Y-123361134D01*
X150694233Y-123356634D01*
X150705318Y-123350319D01*
X150717082Y-123340590D01*
X150731796Y-123325848D01*
X150732066Y-123325564D01*
X150768026Y-123281891D01*
X150798867Y-123232135D01*
X150824162Y-123177262D01*
X150843482Y-123118238D01*
X150856400Y-123056028D01*
X150858625Y-123039717D01*
X150861235Y-123009805D01*
X150862540Y-122975541D01*
X150862563Y-122939747D01*
X150861328Y-122905250D01*
X150858859Y-122874873D01*
X150857139Y-122861917D01*
X150842727Y-122795803D01*
X150821202Y-122733765D01*
X150793039Y-122676124D01*
X150758711Y-122623202D01*
X150718693Y-122575318D01*
X150673460Y-122532793D01*
X150623487Y-122495949D01*
X150569247Y-122465107D01*
X150511217Y-122440586D01*
X150449870Y-122422708D01*
X150385681Y-122411793D01*
X150319125Y-122408163D01*
X150250676Y-122412138D01*
X150202578Y-122419485D01*
X150137863Y-122436023D01*
X150076658Y-122459937D01*
X150019492Y-122490774D01*
X149966897Y-122528087D01*
X149919403Y-122571425D01*
X149877541Y-122620339D01*
X149841841Y-122674377D01*
X149812834Y-122733092D01*
X149803074Y-122758200D01*
X149785536Y-122818106D01*
X149774146Y-122882217D01*
X149769011Y-122948809D01*
X149770236Y-123016156D01*
G36*
X149771168Y-125632960D02*
X149780749Y-125698226D01*
X149797134Y-125761365D01*
X149820075Y-125821688D01*
X149849326Y-125878504D01*
X149884639Y-125931126D01*
X149925767Y-125978863D01*
X149972464Y-126021026D01*
X150005791Y-126045187D01*
X150047906Y-126070935D01*
X150089339Y-126091601D01*
X150133004Y-126108452D01*
X150181820Y-126122758D01*
X150187677Y-126124242D01*
X150212891Y-126129011D01*
X150244176Y-126132569D01*
X150279216Y-126134849D01*
X150315693Y-126135784D01*
X150351289Y-126135310D01*
X150383687Y-126133358D01*
X150406760Y-126130525D01*
X150472786Y-126115561D01*
X150535172Y-126093177D01*
X150593489Y-126063787D01*
X150647310Y-126027806D01*
X150696205Y-125985648D01*
X150739746Y-125937725D01*
X150777504Y-125884454D01*
X150809051Y-125826248D01*
X150833959Y-125763520D01*
X150850808Y-125701399D01*
X150855444Y-125673444D01*
X150858889Y-125639836D01*
X150861072Y-125603029D01*
X150861925Y-125565475D01*
X150861379Y-125529627D01*
X150859364Y-125497940D01*
X150857064Y-125479681D01*
X150841845Y-125409633D01*
X150819859Y-125344611D01*
X150791015Y-125284430D01*
X150755219Y-125228907D01*
X150712381Y-125177859D01*
X150698833Y-125164067D01*
X150669881Y-125138193D01*
X150636208Y-125112327D01*
X150601024Y-125088776D01*
X150567692Y-125069919D01*
X150540159Y-125057632D01*
X150507376Y-125045453D01*
X150472511Y-125034411D01*
X150438731Y-125025531D01*
X150417187Y-125021110D01*
X150389868Y-125017654D01*
X150356957Y-125015515D01*
X150321138Y-125014693D01*
X150312967Y-125014805D01*
X150312967Y-125258535D01*
X150345568Y-125259011D01*
X150372633Y-125261182D01*
X150397009Y-125265561D01*
X150421543Y-125272658D01*
X150449082Y-125282985D01*
X150449101Y-125282993D01*
X150492654Y-125304850D01*
X150532833Y-125333425D01*
X150568491Y-125367576D01*
X150598479Y-125406163D01*
X150621648Y-125448043D01*
X150626308Y-125459066D01*
X150639215Y-125501676D01*
X150646136Y-125547951D01*
X150646911Y-125595412D01*
X150641381Y-125641579D01*
X150638840Y-125653275D01*
X150623539Y-125699553D01*
X150601119Y-125742221D01*
X150572352Y-125780736D01*
X150538011Y-125814552D01*
X150498871Y-125843122D01*
X150455704Y-125865902D01*
X150409284Y-125882346D01*
X150360383Y-125891908D01*
X150309776Y-125894044D01*
X150298366Y-125893454D01*
X150261087Y-125889450D01*
X150227783Y-125882393D01*
X150194971Y-125871349D01*
X150162355Y-125856926D01*
X150117950Y-125831017D01*
X150079081Y-125798962D01*
X150046190Y-125761376D01*
X150019721Y-125718877D01*
X150000114Y-125672081D01*
X149987814Y-125621604D01*
X149986333Y-125611607D01*
X149984028Y-125562928D01*
X149989693Y-125513692D01*
X150003049Y-125465240D01*
X150023815Y-125418913D01*
X150028171Y-125411157D01*
X150048023Y-125382719D01*
X150073898Y-125354338D01*
X150103592Y-125328069D01*
X150134899Y-125305963D01*
X150150941Y-125296868D01*
X150183324Y-125281495D01*
X150213069Y-125270622D01*
X150242913Y-125263601D01*
X150275589Y-125259787D01*
X150312967Y-125258535D01*
X150312967Y-125014805D01*
X150285095Y-125015191D01*
X150251510Y-125017012D01*
X150223067Y-125020157D01*
X150218234Y-125020945D01*
X150153044Y-125036471D01*
X150091342Y-125059460D01*
X150033600Y-125089466D01*
X149980289Y-125126040D01*
X149931881Y-125168736D01*
X149888848Y-125217105D01*
X149851661Y-125270701D01*
X149820791Y-125329076D01*
X149796711Y-125391782D01*
X149785720Y-125431294D01*
X149773406Y-125498805D01*
X149768638Y-125566257D01*
X149771168Y-125632960D01*
X149771168Y-125632960D01*
G37*
X149771168Y-125632960D02*
X149780749Y-125698226D01*
X149797134Y-125761365D01*
X149820075Y-125821688D01*
X149849326Y-125878504D01*
X149884639Y-125931126D01*
X149925767Y-125978863D01*
X149972464Y-126021026D01*
X150005791Y-126045187D01*
X150047906Y-126070935D01*
X150089339Y-126091601D01*
X150133004Y-126108452D01*
X150181820Y-126122758D01*
X150187677Y-126124242D01*
X150212891Y-126129011D01*
X150244176Y-126132569D01*
X150279216Y-126134849D01*
X150315693Y-126135784D01*
X150351289Y-126135310D01*
X150383687Y-126133358D01*
X150406760Y-126130525D01*
X150472786Y-126115561D01*
X150535172Y-126093177D01*
X150593489Y-126063787D01*
X150647310Y-126027806D01*
X150696205Y-125985648D01*
X150739746Y-125937725D01*
X150777504Y-125884454D01*
X150809051Y-125826248D01*
X150833959Y-125763520D01*
X150850808Y-125701399D01*
X150855444Y-125673444D01*
X150858889Y-125639836D01*
X150861072Y-125603029D01*
X150861925Y-125565475D01*
X150861379Y-125529627D01*
X150859364Y-125497940D01*
X150857064Y-125479681D01*
X150841845Y-125409633D01*
X150819859Y-125344611D01*
X150791015Y-125284430D01*
X150755219Y-125228907D01*
X150712381Y-125177859D01*
X150698833Y-125164067D01*
X150669881Y-125138193D01*
X150636208Y-125112327D01*
X150601024Y-125088776D01*
X150567692Y-125069919D01*
X150540159Y-125057632D01*
X150507376Y-125045453D01*
X150472511Y-125034411D01*
X150438731Y-125025531D01*
X150417187Y-125021110D01*
X150389868Y-125017654D01*
X150356957Y-125015515D01*
X150321138Y-125014693D01*
X150312967Y-125014805D01*
X150312967Y-125258535D01*
X150345568Y-125259011D01*
X150372633Y-125261182D01*
X150397009Y-125265561D01*
X150421543Y-125272658D01*
X150449082Y-125282985D01*
X150449101Y-125282993D01*
X150492654Y-125304850D01*
X150532833Y-125333425D01*
X150568491Y-125367576D01*
X150598479Y-125406163D01*
X150621648Y-125448043D01*
X150626308Y-125459066D01*
X150639215Y-125501676D01*
X150646136Y-125547951D01*
X150646911Y-125595412D01*
X150641381Y-125641579D01*
X150638840Y-125653275D01*
X150623539Y-125699553D01*
X150601119Y-125742221D01*
X150572352Y-125780736D01*
X150538011Y-125814552D01*
X150498871Y-125843122D01*
X150455704Y-125865902D01*
X150409284Y-125882346D01*
X150360383Y-125891908D01*
X150309776Y-125894044D01*
X150298366Y-125893454D01*
X150261087Y-125889450D01*
X150227783Y-125882393D01*
X150194971Y-125871349D01*
X150162355Y-125856926D01*
X150117950Y-125831017D01*
X150079081Y-125798962D01*
X150046190Y-125761376D01*
X150019721Y-125718877D01*
X150000114Y-125672081D01*
X149987814Y-125621604D01*
X149986333Y-125611607D01*
X149984028Y-125562928D01*
X149989693Y-125513692D01*
X150003049Y-125465240D01*
X150023815Y-125418913D01*
X150028171Y-125411157D01*
X150048023Y-125382719D01*
X150073898Y-125354338D01*
X150103592Y-125328069D01*
X150134899Y-125305963D01*
X150150941Y-125296868D01*
X150183324Y-125281495D01*
X150213069Y-125270622D01*
X150242913Y-125263601D01*
X150275589Y-125259787D01*
X150312967Y-125258535D01*
X150312967Y-125014805D01*
X150285095Y-125015191D01*
X150251510Y-125017012D01*
X150223067Y-125020157D01*
X150218234Y-125020945D01*
X150153044Y-125036471D01*
X150091342Y-125059460D01*
X150033600Y-125089466D01*
X149980289Y-125126040D01*
X149931881Y-125168736D01*
X149888848Y-125217105D01*
X149851661Y-125270701D01*
X149820791Y-125329076D01*
X149796711Y-125391782D01*
X149785720Y-125431294D01*
X149773406Y-125498805D01*
X149768638Y-125566257D01*
X149771168Y-125632960D01*
G36*
X149782821Y-116703085D02*
X149792531Y-116730417D01*
X149808976Y-116752826D01*
X149832397Y-116770703D01*
X149845183Y-116777331D01*
X149866350Y-116787083D01*
X150317200Y-116787083D01*
X150388728Y-116787081D01*
X150452284Y-116787069D01*
X150508361Y-116787037D01*
X150557453Y-116786976D01*
X150600053Y-116786878D01*
X150636657Y-116786731D01*
X150667757Y-116786529D01*
X150693848Y-116786260D01*
X150715423Y-116785916D01*
X150732977Y-116785487D01*
X150747003Y-116784964D01*
X150757995Y-116784338D01*
X150766447Y-116783600D01*
X150772853Y-116782740D01*
X150777707Y-116781749D01*
X150781502Y-116780618D01*
X150784733Y-116779337D01*
X150787147Y-116778243D01*
X150812436Y-116762094D01*
X150833313Y-116739780D01*
X150842931Y-116724152D01*
X150849800Y-116704117D01*
X150853184Y-116679812D01*
X150852866Y-116654780D01*
X150848627Y-116632563D01*
X150848586Y-116632437D01*
X150837395Y-116609541D01*
X150820108Y-116588404D01*
X150799055Y-116571628D01*
X150789452Y-116566415D01*
X150768050Y-116556449D01*
X150315083Y-116556501D01*
X150243190Y-116556515D01*
X150179273Y-116556544D01*
X150122845Y-116556597D01*
X150073415Y-116556682D01*
X150030494Y-116556806D01*
X149993592Y-116556979D01*
X149962221Y-116557207D01*
X149935891Y-116557500D01*
X149914111Y-116557865D01*
X149896394Y-116558310D01*
X149882250Y-116558844D01*
X149871188Y-116559474D01*
X149862720Y-116560209D01*
X149856357Y-116561057D01*
X149851608Y-116562025D01*
X149847985Y-116563122D01*
X149845183Y-116564272D01*
X149818508Y-116580433D01*
X149798767Y-116601444D01*
X149785949Y-116627323D01*
X149780044Y-116658088D01*
X149779608Y-116670439D01*
X149782821Y-116703085D01*
X149782821Y-116703085D01*
G37*
X149782821Y-116703085D02*
X149792531Y-116730417D01*
X149808976Y-116752826D01*
X149832397Y-116770703D01*
X149845183Y-116777331D01*
X149866350Y-116787083D01*
X150317200Y-116787083D01*
X150388728Y-116787081D01*
X150452284Y-116787069D01*
X150508361Y-116787037D01*
X150557453Y-116786976D01*
X150600053Y-116786878D01*
X150636657Y-116786731D01*
X150667757Y-116786529D01*
X150693848Y-116786260D01*
X150715423Y-116785916D01*
X150732977Y-116785487D01*
X150747003Y-116784964D01*
X150757995Y-116784338D01*
X150766447Y-116783600D01*
X150772853Y-116782740D01*
X150777707Y-116781749D01*
X150781502Y-116780618D01*
X150784733Y-116779337D01*
X150787147Y-116778243D01*
X150812436Y-116762094D01*
X150833313Y-116739780D01*
X150842931Y-116724152D01*
X150849800Y-116704117D01*
X150853184Y-116679812D01*
X150852866Y-116654780D01*
X150848627Y-116632563D01*
X150848586Y-116632437D01*
X150837395Y-116609541D01*
X150820108Y-116588404D01*
X150799055Y-116571628D01*
X150789452Y-116566415D01*
X150768050Y-116556449D01*
X150315083Y-116556501D01*
X150243190Y-116556515D01*
X150179273Y-116556544D01*
X150122845Y-116556597D01*
X150073415Y-116556682D01*
X150030494Y-116556806D01*
X149993592Y-116556979D01*
X149962221Y-116557207D01*
X149935891Y-116557500D01*
X149914111Y-116557865D01*
X149896394Y-116558310D01*
X149882250Y-116558844D01*
X149871188Y-116559474D01*
X149862720Y-116560209D01*
X149856357Y-116561057D01*
X149851608Y-116562025D01*
X149847985Y-116563122D01*
X149845183Y-116564272D01*
X149818508Y-116580433D01*
X149798767Y-116601444D01*
X149785949Y-116627323D01*
X149780044Y-116658088D01*
X149779608Y-116670439D01*
X149782821Y-116703085D01*
G36*
X149783432Y-117912875D02*
X149794761Y-117939877D01*
X149813153Y-117962503D01*
X149838208Y-117980135D01*
X149845183Y-117983561D01*
X149848209Y-117984791D01*
X149851906Y-117985884D01*
X149856765Y-117986847D01*
X149863278Y-117987689D01*
X149871936Y-117988419D01*
X149883231Y-117989044D01*
X149897655Y-117989572D01*
X149915699Y-117990013D01*
X149937855Y-117990374D01*
X149964615Y-117990663D01*
X149996470Y-117990889D01*
X150033911Y-117991060D01*
X150077431Y-117991183D01*
X150127521Y-117991269D01*
X150184673Y-117991324D01*
X150249378Y-117991357D01*
X150311276Y-117991374D01*
X150388900Y-117991362D01*
X150458374Y-117991292D01*
X150520015Y-117991160D01*
X150574140Y-117990963D01*
X150621066Y-117990697D01*
X150661109Y-117990359D01*
X150694588Y-117989946D01*
X150721817Y-117989454D01*
X150743115Y-117988881D01*
X150758798Y-117988223D01*
X150769182Y-117987476D01*
X150774585Y-117986638D01*
X150774826Y-117986562D01*
X150801864Y-117973314D01*
X150823273Y-117953793D01*
X150837551Y-117931560D01*
X150844704Y-117915867D01*
X150848677Y-117902335D01*
X150850342Y-117887055D01*
X150850600Y-117873011D01*
X150849035Y-117844346D01*
X150843635Y-117821028D01*
X150833346Y-117800408D01*
X150817111Y-117779835D01*
X150810841Y-117773192D01*
X150803591Y-117766642D01*
X150790124Y-117755415D01*
X150770980Y-117739934D01*
X150746700Y-117720622D01*
X150717825Y-117697902D01*
X150684897Y-117672195D01*
X150648455Y-117643926D01*
X150609041Y-117613516D01*
X150567196Y-117581388D01*
X150523461Y-117547964D01*
X150488650Y-117521469D01*
X150444354Y-117487797D01*
X150401876Y-117455469D01*
X150361716Y-117424869D01*
X150324372Y-117396379D01*
X150290346Y-117370382D01*
X150260137Y-117347260D01*
X150234246Y-117327396D01*
X150213172Y-117311173D01*
X150197416Y-117298974D01*
X150187477Y-117291180D01*
X150183967Y-117288298D01*
X150182531Y-117286749D01*
X150182055Y-117285412D01*
X150183106Y-117284274D01*
X150186250Y-117283317D01*
X150192054Y-117282525D01*
X150201084Y-117281884D01*
X150213908Y-117281378D01*
X150231092Y-117280990D01*
X150253203Y-117280704D01*
X150280807Y-117280506D01*
X150314471Y-117280379D01*
X150354762Y-117280307D01*
X150402247Y-117280275D01*
X150457492Y-117280267D01*
X150472375Y-117280267D01*
X150531256Y-117280275D01*
X150582289Y-117280268D01*
X150626093Y-117280194D01*
X150663287Y-117280002D01*
X150694490Y-117279640D01*
X150720321Y-117279059D01*
X150741399Y-117278207D01*
X150758342Y-117277034D01*
X150771769Y-117275487D01*
X150782299Y-117273517D01*
X150790552Y-117271072D01*
X150797145Y-117268101D01*
X150802698Y-117264554D01*
X150807830Y-117260380D01*
X150813160Y-117255527D01*
X150817134Y-117251884D01*
X150829082Y-117239255D01*
X150839624Y-117225085D01*
X150843074Y-117219172D01*
X150848980Y-117202082D01*
X150852604Y-117180472D01*
X150853623Y-117158055D01*
X150851718Y-117138544D01*
X150850476Y-117133644D01*
X150839462Y-117110121D01*
X150822389Y-117088139D01*
X150801570Y-117070510D01*
X150795566Y-117066839D01*
X150772283Y-117053783D01*
X150319317Y-117053783D01*
X150247611Y-117053785D01*
X150183880Y-117053797D01*
X150127630Y-117053829D01*
X150078368Y-117053889D01*
X150035603Y-117053987D01*
X149998841Y-117054132D01*
X149967590Y-117054334D01*
X149941358Y-117054600D01*
X149919650Y-117054942D01*
X149901976Y-117055368D01*
X149887842Y-117055886D01*
X149876756Y-117056508D01*
X149868224Y-117057240D01*
X149861755Y-117058094D01*
X149856856Y-117059078D01*
X149853034Y-117060201D01*
X149849796Y-117061473D01*
X149847252Y-117062623D01*
X149821979Y-117078772D01*
X149801318Y-117100966D01*
X149790523Y-117119352D01*
X149786262Y-117130220D01*
X149783605Y-117142049D01*
X149782231Y-117157181D01*
X149781820Y-117177958D01*
X149781824Y-117182900D01*
X149783110Y-117212938D01*
X149787324Y-117236942D01*
X149795320Y-117257085D01*
X149807955Y-117275542D01*
X149825489Y-117293928D01*
X149832461Y-117299900D01*
X149845642Y-117310565D01*
X149864492Y-117325505D01*
X149888472Y-117344300D01*
X149917040Y-117366532D01*
X149949656Y-117391782D01*
X149985780Y-117419633D01*
X150024872Y-117449665D01*
X150066392Y-117481460D01*
X150109799Y-117514599D01*
X150141385Y-117538652D01*
X150433353Y-117760750D01*
X150147735Y-117762866D01*
X150089437Y-117763286D01*
X150038978Y-117763665D01*
X149995733Y-117764074D01*
X149959075Y-117764584D01*
X149928378Y-117765264D01*
X149903015Y-117766185D01*
X149882361Y-117767418D01*
X149865789Y-117769032D01*
X149852673Y-117771098D01*
X149842386Y-117773687D01*
X149834302Y-117776867D01*
X149827795Y-117780711D01*
X149822240Y-117785287D01*
X149817008Y-117790666D01*
X149811475Y-117796919D01*
X149807850Y-117801008D01*
X149793427Y-117820045D01*
X149784544Y-117839980D01*
X149780287Y-117863438D01*
X149779567Y-117882118D01*
X149783432Y-117912875D01*
X149783432Y-117912875D01*
G37*
X149783432Y-117912875D02*
X149794761Y-117939877D01*
X149813153Y-117962503D01*
X149838208Y-117980135D01*
X149845183Y-117983561D01*
X149848209Y-117984791D01*
X149851906Y-117985884D01*
X149856765Y-117986847D01*
X149863278Y-117987689D01*
X149871936Y-117988419D01*
X149883231Y-117989044D01*
X149897655Y-117989572D01*
X149915699Y-117990013D01*
X149937855Y-117990374D01*
X149964615Y-117990663D01*
X149996470Y-117990889D01*
X150033911Y-117991060D01*
X150077431Y-117991183D01*
X150127521Y-117991269D01*
X150184673Y-117991324D01*
X150249378Y-117991357D01*
X150311276Y-117991374D01*
X150388900Y-117991362D01*
X150458374Y-117991292D01*
X150520015Y-117991160D01*
X150574140Y-117990963D01*
X150621066Y-117990697D01*
X150661109Y-117990359D01*
X150694588Y-117989946D01*
X150721817Y-117989454D01*
X150743115Y-117988881D01*
X150758798Y-117988223D01*
X150769182Y-117987476D01*
X150774585Y-117986638D01*
X150774826Y-117986562D01*
X150801864Y-117973314D01*
X150823273Y-117953793D01*
X150837551Y-117931560D01*
X150844704Y-117915867D01*
X150848677Y-117902335D01*
X150850342Y-117887055D01*
X150850600Y-117873011D01*
X150849035Y-117844346D01*
X150843635Y-117821028D01*
X150833346Y-117800408D01*
X150817111Y-117779835D01*
X150810841Y-117773192D01*
X150803591Y-117766642D01*
X150790124Y-117755415D01*
X150770980Y-117739934D01*
X150746700Y-117720622D01*
X150717825Y-117697902D01*
X150684897Y-117672195D01*
X150648455Y-117643926D01*
X150609041Y-117613516D01*
X150567196Y-117581388D01*
X150523461Y-117547964D01*
X150488650Y-117521469D01*
X150444354Y-117487797D01*
X150401876Y-117455469D01*
X150361716Y-117424869D01*
X150324372Y-117396379D01*
X150290346Y-117370382D01*
X150260137Y-117347260D01*
X150234246Y-117327396D01*
X150213172Y-117311173D01*
X150197416Y-117298974D01*
X150187477Y-117291180D01*
X150183967Y-117288298D01*
X150182531Y-117286749D01*
X150182055Y-117285412D01*
X150183106Y-117284274D01*
X150186250Y-117283317D01*
X150192054Y-117282525D01*
X150201084Y-117281884D01*
X150213908Y-117281378D01*
X150231092Y-117280990D01*
X150253203Y-117280704D01*
X150280807Y-117280506D01*
X150314471Y-117280379D01*
X150354762Y-117280307D01*
X150402247Y-117280275D01*
X150457492Y-117280267D01*
X150472375Y-117280267D01*
X150531256Y-117280275D01*
X150582289Y-117280268D01*
X150626093Y-117280194D01*
X150663287Y-117280002D01*
X150694490Y-117279640D01*
X150720321Y-117279059D01*
X150741399Y-117278207D01*
X150758342Y-117277034D01*
X150771769Y-117275487D01*
X150782299Y-117273517D01*
X150790552Y-117271072D01*
X150797145Y-117268101D01*
X150802698Y-117264554D01*
X150807830Y-117260380D01*
X150813160Y-117255527D01*
X150817134Y-117251884D01*
X150829082Y-117239255D01*
X150839624Y-117225085D01*
X150843074Y-117219172D01*
X150848980Y-117202082D01*
X150852604Y-117180472D01*
X150853623Y-117158055D01*
X150851718Y-117138544D01*
X150850476Y-117133644D01*
X150839462Y-117110121D01*
X150822389Y-117088139D01*
X150801570Y-117070510D01*
X150795566Y-117066839D01*
X150772283Y-117053783D01*
X150319317Y-117053783D01*
X150247611Y-117053785D01*
X150183880Y-117053797D01*
X150127630Y-117053829D01*
X150078368Y-117053889D01*
X150035603Y-117053987D01*
X149998841Y-117054132D01*
X149967590Y-117054334D01*
X149941358Y-117054600D01*
X149919650Y-117054942D01*
X149901976Y-117055368D01*
X149887842Y-117055886D01*
X149876756Y-117056508D01*
X149868224Y-117057240D01*
X149861755Y-117058094D01*
X149856856Y-117059078D01*
X149853034Y-117060201D01*
X149849796Y-117061473D01*
X149847252Y-117062623D01*
X149821979Y-117078772D01*
X149801318Y-117100966D01*
X149790523Y-117119352D01*
X149786262Y-117130220D01*
X149783605Y-117142049D01*
X149782231Y-117157181D01*
X149781820Y-117177958D01*
X149781824Y-117182900D01*
X149783110Y-117212938D01*
X149787324Y-117236942D01*
X149795320Y-117257085D01*
X149807955Y-117275542D01*
X149825489Y-117293928D01*
X149832461Y-117299900D01*
X149845642Y-117310565D01*
X149864492Y-117325505D01*
X149888472Y-117344300D01*
X149917040Y-117366532D01*
X149949656Y-117391782D01*
X149985780Y-117419633D01*
X150024872Y-117449665D01*
X150066392Y-117481460D01*
X150109799Y-117514599D01*
X150141385Y-117538652D01*
X150433353Y-117760750D01*
X150147735Y-117762866D01*
X150089437Y-117763286D01*
X150038978Y-117763665D01*
X149995733Y-117764074D01*
X149959075Y-117764584D01*
X149928378Y-117765264D01*
X149903015Y-117766185D01*
X149882361Y-117767418D01*
X149865789Y-117769032D01*
X149852673Y-117771098D01*
X149842386Y-117773687D01*
X149834302Y-117776867D01*
X149827795Y-117780711D01*
X149822240Y-117785287D01*
X149817008Y-117790666D01*
X149811475Y-117796919D01*
X149807850Y-117801008D01*
X149793427Y-117820045D01*
X149784544Y-117839980D01*
X149780287Y-117863438D01*
X149779567Y-117882118D01*
X149783432Y-117912875D01*
G36*
X149788070Y-118676932D02*
X149788182Y-118739106D01*
X149788375Y-118793481D01*
X149788653Y-118840392D01*
X149789019Y-118880172D01*
X149789479Y-118913155D01*
X149790036Y-118939675D01*
X149790695Y-118960067D01*
X149791461Y-118974664D01*
X149792336Y-118983800D01*
X149792946Y-118986899D01*
X149801981Y-119005822D01*
X149816650Y-119024588D01*
X149834539Y-119040401D01*
X149844580Y-119046673D01*
X149857530Y-119052144D01*
X149872197Y-119055036D01*
X149891761Y-119055948D01*
X149893867Y-119055954D01*
X149920866Y-119053843D01*
X149942847Y-119046830D01*
X149962315Y-119033896D01*
X149973027Y-119023712D01*
X149980247Y-119015882D01*
X149986032Y-119008386D01*
X149990541Y-119000211D01*
X149993932Y-118990340D01*
X149996364Y-118977760D01*
X149997996Y-118961454D01*
X149998987Y-118940409D01*
X149999495Y-118913608D01*
X149999679Y-118880038D01*
X149999700Y-118853194D01*
X149999700Y-118728282D01*
X150383875Y-118727116D01*
X150449609Y-118726913D01*
X150507415Y-118726720D01*
X150557833Y-118726524D01*
X150601401Y-118726311D01*
X150638658Y-118726067D01*
X150670145Y-118725780D01*
X150696398Y-118725436D01*
X150717958Y-118725022D01*
X150735363Y-118724523D01*
X150749153Y-118723928D01*
X150759867Y-118723222D01*
X150768043Y-118722392D01*
X150774221Y-118721425D01*
X150778939Y-118720308D01*
X150782737Y-118719026D01*
X150786153Y-118717567D01*
X150787147Y-118717110D01*
X150812436Y-118700960D01*
X150833313Y-118678647D01*
X150842931Y-118663019D01*
X150849800Y-118642984D01*
X150853184Y-118618679D01*
X150852866Y-118593647D01*
X150848627Y-118571430D01*
X150848586Y-118571304D01*
X150838180Y-118549781D01*
X150822109Y-118529085D01*
X150802897Y-118512203D01*
X150794053Y-118506729D01*
X150776516Y-118497350D01*
X150389167Y-118495233D01*
X150001817Y-118493116D01*
X149999700Y-118364000D01*
X149999088Y-118327545D01*
X149998521Y-118298539D01*
X149997913Y-118275967D01*
X149997176Y-118258813D01*
X149996224Y-118246060D01*
X149994969Y-118236694D01*
X149993323Y-118229697D01*
X149991200Y-118224053D01*
X149988512Y-118218748D01*
X149987000Y-118216031D01*
X149969873Y-118193287D01*
X149948466Y-118176813D01*
X149924145Y-118166582D01*
X149898274Y-118162566D01*
X149872215Y-118164737D01*
X149847335Y-118173068D01*
X149824996Y-118187532D01*
X149806563Y-118208102D01*
X149799675Y-118219796D01*
X149788033Y-118242751D01*
X149788033Y-118606626D01*
X149788070Y-118676932D01*
X149788070Y-118676932D01*
G37*
X149788070Y-118676932D02*
X149788182Y-118739106D01*
X149788375Y-118793481D01*
X149788653Y-118840392D01*
X149789019Y-118880172D01*
X149789479Y-118913155D01*
X149790036Y-118939675D01*
X149790695Y-118960067D01*
X149791461Y-118974664D01*
X149792336Y-118983800D01*
X149792946Y-118986899D01*
X149801981Y-119005822D01*
X149816650Y-119024588D01*
X149834539Y-119040401D01*
X149844580Y-119046673D01*
X149857530Y-119052144D01*
X149872197Y-119055036D01*
X149891761Y-119055948D01*
X149893867Y-119055954D01*
X149920866Y-119053843D01*
X149942847Y-119046830D01*
X149962315Y-119033896D01*
X149973027Y-119023712D01*
X149980247Y-119015882D01*
X149986032Y-119008386D01*
X149990541Y-119000211D01*
X149993932Y-118990340D01*
X149996364Y-118977760D01*
X149997996Y-118961454D01*
X149998987Y-118940409D01*
X149999495Y-118913608D01*
X149999679Y-118880038D01*
X149999700Y-118853194D01*
X149999700Y-118728282D01*
X150383875Y-118727116D01*
X150449609Y-118726913D01*
X150507415Y-118726720D01*
X150557833Y-118726524D01*
X150601401Y-118726311D01*
X150638658Y-118726067D01*
X150670145Y-118725780D01*
X150696398Y-118725436D01*
X150717958Y-118725022D01*
X150735363Y-118724523D01*
X150749153Y-118723928D01*
X150759867Y-118723222D01*
X150768043Y-118722392D01*
X150774221Y-118721425D01*
X150778939Y-118720308D01*
X150782737Y-118719026D01*
X150786153Y-118717567D01*
X150787147Y-118717110D01*
X150812436Y-118700960D01*
X150833313Y-118678647D01*
X150842931Y-118663019D01*
X150849800Y-118642984D01*
X150853184Y-118618679D01*
X150852866Y-118593647D01*
X150848627Y-118571430D01*
X150848586Y-118571304D01*
X150838180Y-118549781D01*
X150822109Y-118529085D01*
X150802897Y-118512203D01*
X150794053Y-118506729D01*
X150776516Y-118497350D01*
X150389167Y-118495233D01*
X150001817Y-118493116D01*
X149999700Y-118364000D01*
X149999088Y-118327545D01*
X149998521Y-118298539D01*
X149997913Y-118275967D01*
X149997176Y-118258813D01*
X149996224Y-118246060D01*
X149994969Y-118236694D01*
X149993323Y-118229697D01*
X149991200Y-118224053D01*
X149988512Y-118218748D01*
X149987000Y-118216031D01*
X149969873Y-118193287D01*
X149948466Y-118176813D01*
X149924145Y-118166582D01*
X149898274Y-118162566D01*
X149872215Y-118164737D01*
X149847335Y-118173068D01*
X149824996Y-118187532D01*
X149806563Y-118208102D01*
X149799675Y-118219796D01*
X149788033Y-118242751D01*
X149788033Y-118606626D01*
X149788070Y-118676932D01*
G36*
X149788866Y-120535623D02*
X149789114Y-120579416D01*
X149789462Y-120630955D01*
X149789796Y-120674773D01*
X149790147Y-120711617D01*
X149790542Y-120742231D01*
X149791012Y-120767362D01*
X149791586Y-120787756D01*
X149792293Y-120804159D01*
X149793163Y-120817316D01*
X149794224Y-120827973D01*
X149795506Y-120836877D01*
X149797038Y-120844773D01*
X149798849Y-120852406D01*
X149799999Y-120856854D01*
X149815306Y-120906567D01*
X149833583Y-120949483D01*
X149855584Y-120986974D01*
X149882064Y-121020414D01*
X149899891Y-121038607D01*
X149935947Y-121067958D01*
X149975734Y-121090791D01*
X150019957Y-121107378D01*
X150069316Y-121117988D01*
X150118233Y-121122628D01*
X150176695Y-121121902D01*
X150230941Y-121114058D01*
X150280772Y-121099202D01*
X150325991Y-121077439D01*
X150366399Y-121048872D01*
X150401798Y-121013608D01*
X150431991Y-120971749D01*
X150444063Y-120950335D01*
X150451966Y-120935461D01*
X150458393Y-120923953D01*
X150462385Y-120917503D01*
X150463147Y-120916700D01*
X150466674Y-120919295D01*
X150475927Y-120926649D01*
X150490114Y-120938119D01*
X150508441Y-120953059D01*
X150530117Y-120970824D01*
X150554351Y-120990771D01*
X150567707Y-121001798D01*
X150601770Y-121029748D01*
X150630285Y-121052600D01*
X150654059Y-121070848D01*
X150673901Y-121084987D01*
X150690619Y-121095509D01*
X150705021Y-121102911D01*
X150717916Y-121107686D01*
X150730111Y-121110328D01*
X150742414Y-121111333D01*
X150746883Y-121111388D01*
X150776885Y-121107485D01*
X150803268Y-121096323D01*
X150825113Y-121078586D01*
X150841497Y-121054958D01*
X150849148Y-121035537D01*
X150853916Y-121004870D01*
X150851240Y-120973444D01*
X150841650Y-120943276D01*
X150825673Y-120916382D01*
X150814595Y-120903947D01*
X150808084Y-120898219D01*
X150795689Y-120887884D01*
X150778184Y-120873567D01*
X150756342Y-120855892D01*
X150730938Y-120835483D01*
X150702743Y-120812966D01*
X150672533Y-120788965D01*
X150654606Y-120774780D01*
X150509817Y-120660377D01*
X150508677Y-120566288D01*
X150507538Y-120472200D01*
X150637794Y-120472158D01*
X150674476Y-120472129D01*
X150703721Y-120472023D01*
X150726561Y-120471770D01*
X150744025Y-120471304D01*
X150757143Y-120470556D01*
X150766947Y-120469459D01*
X150774465Y-120467944D01*
X150780730Y-120465943D01*
X150786770Y-120463389D01*
X150789452Y-120462151D01*
X150813304Y-120446607D01*
X150832419Y-120425292D01*
X150846101Y-120399872D01*
X150853656Y-120372014D01*
X150854389Y-120343388D01*
X150848989Y-120319301D01*
X150834740Y-120290706D01*
X150814825Y-120268119D01*
X150789790Y-120252029D01*
X150764478Y-120243738D01*
X150756512Y-120242899D01*
X150741168Y-120242171D01*
X150718328Y-120241555D01*
X150687876Y-120241048D01*
X150649697Y-120240651D01*
X150603674Y-120240362D01*
X150549692Y-120240180D01*
X150487633Y-120240105D01*
X150417382Y-120240136D01*
X150338822Y-120240272D01*
X150308733Y-120240345D01*
X150300267Y-120240367D01*
X150300267Y-120472093D01*
X150300267Y-120605288D01*
X150300104Y-120645913D01*
X150299633Y-120681826D01*
X150298878Y-120712235D01*
X150297861Y-120736348D01*
X150296608Y-120753372D01*
X150295548Y-120760916D01*
X150284329Y-120796745D01*
X150267026Y-120827923D01*
X150244283Y-120853561D01*
X150216742Y-120872770D01*
X150213483Y-120874434D01*
X150202535Y-120879308D01*
X150191949Y-120882401D01*
X150179298Y-120884100D01*
X150162155Y-120884791D01*
X150147867Y-120884883D01*
X150126455Y-120884615D01*
X150111117Y-120883566D01*
X150099469Y-120881369D01*
X150089128Y-120877658D01*
X150083368Y-120874954D01*
X150062940Y-120862008D01*
X150043301Y-120844671D01*
X150027288Y-120825657D01*
X150020912Y-120815190D01*
X150014830Y-120802761D01*
X150009906Y-120791041D01*
X150006018Y-120778969D01*
X150003045Y-120765485D01*
X150000866Y-120749529D01*
X149999359Y-120730040D01*
X149998402Y-120705958D01*
X149997874Y-120676221D01*
X149997654Y-120639770D01*
X149997618Y-120611900D01*
X149997583Y-120474317D01*
X150300267Y-120472093D01*
X150300267Y-120240367D01*
X149874817Y-120241483D01*
X149849417Y-120254183D01*
X149824739Y-120270535D01*
X149805675Y-120291561D01*
X149793471Y-120315823D01*
X149792131Y-120320302D01*
X149791017Y-120328413D01*
X149790122Y-120343772D01*
X149789445Y-120366559D01*
X149788983Y-120396957D01*
X149788734Y-120435146D01*
X149788696Y-120481308D01*
X149788866Y-120535623D01*
X149788866Y-120535623D01*
G37*
X149788866Y-120535623D02*
X149789114Y-120579416D01*
X149789462Y-120630955D01*
X149789796Y-120674773D01*
X149790147Y-120711617D01*
X149790542Y-120742231D01*
X149791012Y-120767362D01*
X149791586Y-120787756D01*
X149792293Y-120804159D01*
X149793163Y-120817316D01*
X149794224Y-120827973D01*
X149795506Y-120836877D01*
X149797038Y-120844773D01*
X149798849Y-120852406D01*
X149799999Y-120856854D01*
X149815306Y-120906567D01*
X149833583Y-120949483D01*
X149855584Y-120986974D01*
X149882064Y-121020414D01*
X149899891Y-121038607D01*
X149935947Y-121067958D01*
X149975734Y-121090791D01*
X150019957Y-121107378D01*
X150069316Y-121117988D01*
X150118233Y-121122628D01*
X150176695Y-121121902D01*
X150230941Y-121114058D01*
X150280772Y-121099202D01*
X150325991Y-121077439D01*
X150366399Y-121048872D01*
X150401798Y-121013608D01*
X150431991Y-120971749D01*
X150444063Y-120950335D01*
X150451966Y-120935461D01*
X150458393Y-120923953D01*
X150462385Y-120917503D01*
X150463147Y-120916700D01*
X150466674Y-120919295D01*
X150475927Y-120926649D01*
X150490114Y-120938119D01*
X150508441Y-120953059D01*
X150530117Y-120970824D01*
X150554351Y-120990771D01*
X150567707Y-121001798D01*
X150601770Y-121029748D01*
X150630285Y-121052600D01*
X150654059Y-121070848D01*
X150673901Y-121084987D01*
X150690619Y-121095509D01*
X150705021Y-121102911D01*
X150717916Y-121107686D01*
X150730111Y-121110328D01*
X150742414Y-121111333D01*
X150746883Y-121111388D01*
X150776885Y-121107485D01*
X150803268Y-121096323D01*
X150825113Y-121078586D01*
X150841497Y-121054958D01*
X150849148Y-121035537D01*
X150853916Y-121004870D01*
X150851240Y-120973444D01*
X150841650Y-120943276D01*
X150825673Y-120916382D01*
X150814595Y-120903947D01*
X150808084Y-120898219D01*
X150795689Y-120887884D01*
X150778184Y-120873567D01*
X150756342Y-120855892D01*
X150730938Y-120835483D01*
X150702743Y-120812966D01*
X150672533Y-120788965D01*
X150654606Y-120774780D01*
X150509817Y-120660377D01*
X150508677Y-120566288D01*
X150507538Y-120472200D01*
X150637794Y-120472158D01*
X150674476Y-120472129D01*
X150703721Y-120472023D01*
X150726561Y-120471770D01*
X150744025Y-120471304D01*
X150757143Y-120470556D01*
X150766947Y-120469459D01*
X150774465Y-120467944D01*
X150780730Y-120465943D01*
X150786770Y-120463389D01*
X150789452Y-120462151D01*
X150813304Y-120446607D01*
X150832419Y-120425292D01*
X150846101Y-120399872D01*
X150853656Y-120372014D01*
X150854389Y-120343388D01*
X150848989Y-120319301D01*
X150834740Y-120290706D01*
X150814825Y-120268119D01*
X150789790Y-120252029D01*
X150764478Y-120243738D01*
X150756512Y-120242899D01*
X150741168Y-120242171D01*
X150718328Y-120241555D01*
X150687876Y-120241048D01*
X150649697Y-120240651D01*
X150603674Y-120240362D01*
X150549692Y-120240180D01*
X150487633Y-120240105D01*
X150417382Y-120240136D01*
X150338822Y-120240272D01*
X150308733Y-120240345D01*
X150300267Y-120240367D01*
X150300267Y-120472093D01*
X150300267Y-120605288D01*
X150300104Y-120645913D01*
X150299633Y-120681826D01*
X150298878Y-120712235D01*
X150297861Y-120736348D01*
X150296608Y-120753372D01*
X150295548Y-120760916D01*
X150284329Y-120796745D01*
X150267026Y-120827923D01*
X150244283Y-120853561D01*
X150216742Y-120872770D01*
X150213483Y-120874434D01*
X150202535Y-120879308D01*
X150191949Y-120882401D01*
X150179298Y-120884100D01*
X150162155Y-120884791D01*
X150147867Y-120884883D01*
X150126455Y-120884615D01*
X150111117Y-120883566D01*
X150099469Y-120881369D01*
X150089128Y-120877658D01*
X150083368Y-120874954D01*
X150062940Y-120862008D01*
X150043301Y-120844671D01*
X150027288Y-120825657D01*
X150020912Y-120815190D01*
X150014830Y-120802761D01*
X150009906Y-120791041D01*
X150006018Y-120778969D01*
X150003045Y-120765485D01*
X150000866Y-120749529D01*
X149999359Y-120730040D01*
X149998402Y-120705958D01*
X149997874Y-120676221D01*
X149997654Y-120639770D01*
X149997618Y-120611900D01*
X149997583Y-120474317D01*
X150300267Y-120472093D01*
X150300267Y-120240367D01*
X149874817Y-120241483D01*
X149849417Y-120254183D01*
X149824739Y-120270535D01*
X149805675Y-120291561D01*
X149793471Y-120315823D01*
X149792131Y-120320302D01*
X149791017Y-120328413D01*
X149790122Y-120343772D01*
X149789445Y-120366559D01*
X149788983Y-120396957D01*
X149788734Y-120435146D01*
X149788696Y-120481308D01*
X149788866Y-120535623D01*
G36*
X149771523Y-121807124D02*
X149773956Y-121829227D01*
X149775043Y-121834267D01*
X149785330Y-121860500D01*
X149802079Y-121885272D01*
X149823381Y-121905882D01*
X149828250Y-121909426D01*
X149834898Y-121913064D01*
X149848770Y-121919880D01*
X149869340Y-121929636D01*
X149896085Y-121942094D01*
X149928483Y-121957016D01*
X149966007Y-121974163D01*
X150008137Y-121993296D01*
X150054346Y-122014178D01*
X150104112Y-122036569D01*
X150156911Y-122060232D01*
X150212219Y-122084927D01*
X150269513Y-122110418D01*
X150281217Y-122115614D01*
X150713016Y-122307244D01*
X150744766Y-122307297D01*
X150776335Y-122303895D01*
X150803070Y-122293549D01*
X150825042Y-122276217D01*
X150842322Y-122251856D01*
X150844474Y-122247674D01*
X150850269Y-122229435D01*
X150852912Y-122206773D01*
X150852435Y-122182897D01*
X150848869Y-122161013D01*
X150843489Y-122146483D01*
X150837121Y-122135471D01*
X150830164Y-122125821D01*
X150821731Y-122116986D01*
X150810934Y-122108418D01*
X150796885Y-122099569D01*
X150778699Y-122089892D01*
X150755486Y-122078838D01*
X150726361Y-122065859D01*
X150690435Y-122050407D01*
X150682289Y-122046944D01*
X150609229Y-122015920D01*
X150610323Y-121782851D01*
X150611416Y-121549782D01*
X150706666Y-121509434D01*
X150737439Y-121496297D01*
X150761484Y-121485732D01*
X150779928Y-121477153D01*
X150793898Y-121469972D01*
X150804522Y-121463601D01*
X150812927Y-121457454D01*
X150820239Y-121450944D01*
X150821715Y-121449503D01*
X150839724Y-121425961D01*
X150850802Y-121398606D01*
X150854562Y-121368999D01*
X150850616Y-121338699D01*
X150849901Y-121336102D01*
X150838412Y-121310673D01*
X150820524Y-121289686D01*
X150797559Y-121274115D01*
X150770842Y-121264931D01*
X150750169Y-121262820D01*
X150733509Y-121263920D01*
X150716087Y-121267871D01*
X150694985Y-121275385D01*
X150689733Y-121277514D01*
X150679949Y-121281668D01*
X150663310Y-121288878D01*
X150640451Y-121298863D01*
X150612006Y-121311341D01*
X150578610Y-121326032D01*
X150540898Y-121342654D01*
X150499504Y-121360924D01*
X150455064Y-121380562D01*
X150408211Y-121401286D01*
X150398680Y-121405505D01*
X150398680Y-121640533D01*
X150398692Y-121640534D01*
X150399441Y-121644621D01*
X150400127Y-121656202D01*
X150400729Y-121674303D01*
X150401224Y-121697953D01*
X150401593Y-121726177D01*
X150401812Y-121758003D01*
X150401867Y-121784428D01*
X150401867Y-121928257D01*
X150392342Y-121924627D01*
X150382408Y-121920683D01*
X150366462Y-121914156D01*
X150345493Y-121905466D01*
X150320488Y-121895032D01*
X150292438Y-121883270D01*
X150262330Y-121870602D01*
X150231155Y-121857444D01*
X150199901Y-121844215D01*
X150169557Y-121831335D01*
X150141112Y-121819221D01*
X150115555Y-121808293D01*
X150093875Y-121798968D01*
X150077061Y-121791665D01*
X150066102Y-121786804D01*
X150061997Y-121784812D01*
X150065209Y-121782751D01*
X150075276Y-121777843D01*
X150091240Y-121770500D01*
X150112139Y-121761133D01*
X150137016Y-121750153D01*
X150164909Y-121737972D01*
X150194860Y-121725000D01*
X150225909Y-121711649D01*
X150257096Y-121698330D01*
X150287462Y-121685455D01*
X150316048Y-121673433D01*
X150341893Y-121662678D01*
X150364038Y-121653598D01*
X150381524Y-121646607D01*
X150393391Y-121642115D01*
X150398680Y-121640533D01*
X150398680Y-121405505D01*
X150359582Y-121422815D01*
X150309809Y-121444867D01*
X150259529Y-121467160D01*
X150209376Y-121489413D01*
X150159984Y-121511344D01*
X150111989Y-121532672D01*
X150066024Y-121553116D01*
X150022726Y-121572393D01*
X149982727Y-121590223D01*
X149946664Y-121606324D01*
X149915171Y-121620414D01*
X149888882Y-121632212D01*
X149868432Y-121641436D01*
X149854457Y-121647804D01*
X149847590Y-121651036D01*
X149847580Y-121651041D01*
X149823692Y-121666835D01*
X149802166Y-121687878D01*
X149785773Y-121711369D01*
X149783505Y-121715802D01*
X149777662Y-121733326D01*
X149773582Y-121756302D01*
X149771467Y-121781858D01*
X149771523Y-121807124D01*
X149771523Y-121807124D01*
G37*
X149771523Y-121807124D02*
X149773956Y-121829227D01*
X149775043Y-121834267D01*
X149785330Y-121860500D01*
X149802079Y-121885272D01*
X149823381Y-121905882D01*
X149828250Y-121909426D01*
X149834898Y-121913064D01*
X149848770Y-121919880D01*
X149869340Y-121929636D01*
X149896085Y-121942094D01*
X149928483Y-121957016D01*
X149966007Y-121974163D01*
X150008137Y-121993296D01*
X150054346Y-122014178D01*
X150104112Y-122036569D01*
X150156911Y-122060232D01*
X150212219Y-122084927D01*
X150269513Y-122110418D01*
X150281217Y-122115614D01*
X150713016Y-122307244D01*
X150744766Y-122307297D01*
X150776335Y-122303895D01*
X150803070Y-122293549D01*
X150825042Y-122276217D01*
X150842322Y-122251856D01*
X150844474Y-122247674D01*
X150850269Y-122229435D01*
X150852912Y-122206773D01*
X150852435Y-122182897D01*
X150848869Y-122161013D01*
X150843489Y-122146483D01*
X150837121Y-122135471D01*
X150830164Y-122125821D01*
X150821731Y-122116986D01*
X150810934Y-122108418D01*
X150796885Y-122099569D01*
X150778699Y-122089892D01*
X150755486Y-122078838D01*
X150726361Y-122065859D01*
X150690435Y-122050407D01*
X150682289Y-122046944D01*
X150609229Y-122015920D01*
X150610323Y-121782851D01*
X150611416Y-121549782D01*
X150706666Y-121509434D01*
X150737439Y-121496297D01*
X150761484Y-121485732D01*
X150779928Y-121477153D01*
X150793898Y-121469972D01*
X150804522Y-121463601D01*
X150812927Y-121457454D01*
X150820239Y-121450944D01*
X150821715Y-121449503D01*
X150839724Y-121425961D01*
X150850802Y-121398606D01*
X150854562Y-121368999D01*
X150850616Y-121338699D01*
X150849901Y-121336102D01*
X150838412Y-121310673D01*
X150820524Y-121289686D01*
X150797559Y-121274115D01*
X150770842Y-121264931D01*
X150750169Y-121262820D01*
X150733509Y-121263920D01*
X150716087Y-121267871D01*
X150694985Y-121275385D01*
X150689733Y-121277514D01*
X150679949Y-121281668D01*
X150663310Y-121288878D01*
X150640451Y-121298863D01*
X150612006Y-121311341D01*
X150578610Y-121326032D01*
X150540898Y-121342654D01*
X150499504Y-121360924D01*
X150455064Y-121380562D01*
X150408211Y-121401286D01*
X150398680Y-121405505D01*
X150398680Y-121640533D01*
X150398692Y-121640534D01*
X150399441Y-121644621D01*
X150400127Y-121656202D01*
X150400729Y-121674303D01*
X150401224Y-121697953D01*
X150401593Y-121726177D01*
X150401812Y-121758003D01*
X150401867Y-121784428D01*
X150401867Y-121928257D01*
X150392342Y-121924627D01*
X150382408Y-121920683D01*
X150366462Y-121914156D01*
X150345493Y-121905466D01*
X150320488Y-121895032D01*
X150292438Y-121883270D01*
X150262330Y-121870602D01*
X150231155Y-121857444D01*
X150199901Y-121844215D01*
X150169557Y-121831335D01*
X150141112Y-121819221D01*
X150115555Y-121808293D01*
X150093875Y-121798968D01*
X150077061Y-121791665D01*
X150066102Y-121786804D01*
X150061997Y-121784812D01*
X150065209Y-121782751D01*
X150075276Y-121777843D01*
X150091240Y-121770500D01*
X150112139Y-121761133D01*
X150137016Y-121750153D01*
X150164909Y-121737972D01*
X150194860Y-121725000D01*
X150225909Y-121711649D01*
X150257096Y-121698330D01*
X150287462Y-121685455D01*
X150316048Y-121673433D01*
X150341893Y-121662678D01*
X150364038Y-121653598D01*
X150381524Y-121646607D01*
X150393391Y-121642115D01*
X150398680Y-121640533D01*
X150398680Y-121405505D01*
X150359582Y-121422815D01*
X150309809Y-121444867D01*
X150259529Y-121467160D01*
X150209376Y-121489413D01*
X150159984Y-121511344D01*
X150111989Y-121532672D01*
X150066024Y-121553116D01*
X150022726Y-121572393D01*
X149982727Y-121590223D01*
X149946664Y-121606324D01*
X149915171Y-121620414D01*
X149888882Y-121632212D01*
X149868432Y-121641436D01*
X149854457Y-121647804D01*
X149847590Y-121651036D01*
X149847580Y-121651041D01*
X149823692Y-121666835D01*
X149802166Y-121687878D01*
X149785773Y-121711369D01*
X149783505Y-121715802D01*
X149777662Y-121733326D01*
X149773582Y-121756302D01*
X149771467Y-121781858D01*
X149771523Y-121807124D01*
G36*
X149788067Y-124001031D02*
X149788114Y-124057869D01*
X149788205Y-124107309D01*
X149788351Y-124149883D01*
X149788560Y-124186127D01*
X149788841Y-124216574D01*
X149789204Y-124241758D01*
X149789657Y-124262213D01*
X149790210Y-124278474D01*
X149790872Y-124291073D01*
X149791652Y-124300546D01*
X149792559Y-124307426D01*
X149793602Y-124312246D01*
X149794514Y-124314916D01*
X149809721Y-124341469D01*
X149830152Y-124361462D01*
X149855270Y-124374541D01*
X149884537Y-124380350D01*
X149893867Y-124380623D01*
X149924958Y-124376860D01*
X149951509Y-124366122D01*
X149973181Y-124348601D01*
X149988244Y-124327176D01*
X149990896Y-124321854D01*
X149993017Y-124316218D01*
X149994687Y-124309258D01*
X149995986Y-124299961D01*
X149996990Y-124287317D01*
X149997781Y-124270313D01*
X149998437Y-124247939D01*
X149999037Y-124219182D01*
X149999660Y-124183031D01*
X149999700Y-124180600D01*
X150001817Y-124051483D01*
X150389167Y-124049366D01*
X150776516Y-124047250D01*
X150794053Y-124037871D01*
X150816958Y-124021080D01*
X150835063Y-123998704D01*
X150847684Y-123972509D01*
X150854135Y-123944258D01*
X150853731Y-123915714D01*
X150848989Y-123896468D01*
X150835308Y-123868243D01*
X150816928Y-123846575D01*
X150808697Y-123840115D01*
X150802997Y-123836155D01*
X150797672Y-123832665D01*
X150792175Y-123829615D01*
X150785962Y-123826975D01*
X150778490Y-123824717D01*
X150769214Y-123822810D01*
X150757588Y-123821225D01*
X150743069Y-123819931D01*
X150725113Y-123818900D01*
X150703174Y-123818101D01*
X150676708Y-123817505D01*
X150645172Y-123817083D01*
X150608019Y-123816804D01*
X150564707Y-123816640D01*
X150514689Y-123816559D01*
X150457423Y-123816534D01*
X150392363Y-123816533D01*
X149999700Y-123816533D01*
X149999607Y-123690592D01*
X149999523Y-123651485D01*
X149999210Y-123619839D01*
X149998482Y-123594648D01*
X149997152Y-123574906D01*
X149995035Y-123559608D01*
X149991942Y-123547747D01*
X149987689Y-123538317D01*
X149982088Y-123530314D01*
X149974952Y-123522731D01*
X149967145Y-123515507D01*
X149942449Y-123498458D01*
X149915493Y-123488927D01*
X149887645Y-123486830D01*
X149860272Y-123492082D01*
X149834740Y-123504601D01*
X149812418Y-123524301D01*
X149811755Y-123525069D01*
X149802112Y-123538233D01*
X149794604Y-123551845D01*
X149792273Y-123558023D01*
X149791497Y-123565119D01*
X149790790Y-123580364D01*
X149790156Y-123603443D01*
X149789599Y-123634039D01*
X149789122Y-123671835D01*
X149788728Y-123716515D01*
X149788422Y-123767762D01*
X149788206Y-123825261D01*
X149788084Y-123888694D01*
X149788057Y-123936261D01*
X149788067Y-124001031D01*
X149788067Y-124001031D01*
G37*
X149788067Y-124001031D02*
X149788114Y-124057869D01*
X149788205Y-124107309D01*
X149788351Y-124149883D01*
X149788560Y-124186127D01*
X149788841Y-124216574D01*
X149789204Y-124241758D01*
X149789657Y-124262213D01*
X149790210Y-124278474D01*
X149790872Y-124291073D01*
X149791652Y-124300546D01*
X149792559Y-124307426D01*
X149793602Y-124312246D01*
X149794514Y-124314916D01*
X149809721Y-124341469D01*
X149830152Y-124361462D01*
X149855270Y-124374541D01*
X149884537Y-124380350D01*
X149893867Y-124380623D01*
X149924958Y-124376860D01*
X149951509Y-124366122D01*
X149973181Y-124348601D01*
X149988244Y-124327176D01*
X149990896Y-124321854D01*
X149993017Y-124316218D01*
X149994687Y-124309258D01*
X149995986Y-124299961D01*
X149996990Y-124287317D01*
X149997781Y-124270313D01*
X149998437Y-124247939D01*
X149999037Y-124219182D01*
X149999660Y-124183031D01*
X149999700Y-124180600D01*
X150001817Y-124051483D01*
X150389167Y-124049366D01*
X150776516Y-124047250D01*
X150794053Y-124037871D01*
X150816958Y-124021080D01*
X150835063Y-123998704D01*
X150847684Y-123972509D01*
X150854135Y-123944258D01*
X150853731Y-123915714D01*
X150848989Y-123896468D01*
X150835308Y-123868243D01*
X150816928Y-123846575D01*
X150808697Y-123840115D01*
X150802997Y-123836155D01*
X150797672Y-123832665D01*
X150792175Y-123829615D01*
X150785962Y-123826975D01*
X150778490Y-123824717D01*
X150769214Y-123822810D01*
X150757588Y-123821225D01*
X150743069Y-123819931D01*
X150725113Y-123818900D01*
X150703174Y-123818101D01*
X150676708Y-123817505D01*
X150645172Y-123817083D01*
X150608019Y-123816804D01*
X150564707Y-123816640D01*
X150514689Y-123816559D01*
X150457423Y-123816534D01*
X150392363Y-123816533D01*
X149999700Y-123816533D01*
X149999607Y-123690592D01*
X149999523Y-123651485D01*
X149999210Y-123619839D01*
X149998482Y-123594648D01*
X149997152Y-123574906D01*
X149995035Y-123559608D01*
X149991942Y-123547747D01*
X149987689Y-123538317D01*
X149982088Y-123530314D01*
X149974952Y-123522731D01*
X149967145Y-123515507D01*
X149942449Y-123498458D01*
X149915493Y-123488927D01*
X149887645Y-123486830D01*
X149860272Y-123492082D01*
X149834740Y-123504601D01*
X149812418Y-123524301D01*
X149811755Y-123525069D01*
X149802112Y-123538233D01*
X149794604Y-123551845D01*
X149792273Y-123558023D01*
X149791497Y-123565119D01*
X149790790Y-123580364D01*
X149790156Y-123603443D01*
X149789599Y-123634039D01*
X149789122Y-123671835D01*
X149788728Y-123716515D01*
X149788422Y-123767762D01*
X149788206Y-123825261D01*
X149788084Y-123888694D01*
X149788057Y-123936261D01*
X149788067Y-124001031D01*
G36*
X149782552Y-124705598D02*
X149787193Y-124725504D01*
X149789920Y-124732290D01*
X149805814Y-124755860D01*
X149828278Y-124775601D01*
X149840381Y-124782955D01*
X149857883Y-124792316D01*
X150308472Y-124793450D01*
X150382292Y-124793649D01*
X150448131Y-124793831D01*
X150506477Y-124793965D01*
X150557816Y-124794020D01*
X150602635Y-124793964D01*
X150641420Y-124793768D01*
X150674658Y-124793398D01*
X150702835Y-124792824D01*
X150726438Y-124792015D01*
X150745953Y-124790939D01*
X150761867Y-124789565D01*
X150774667Y-124787861D01*
X150784839Y-124785798D01*
X150792870Y-124783342D01*
X150799246Y-124780464D01*
X150804454Y-124777131D01*
X150808981Y-124773312D01*
X150813312Y-124768976D01*
X150817935Y-124764093D01*
X150821459Y-124760477D01*
X150839216Y-124736969D01*
X150850492Y-124709381D01*
X150854827Y-124679587D01*
X150851760Y-124649460D01*
X150850223Y-124643577D01*
X150839585Y-124619942D01*
X150822821Y-124597961D01*
X150802199Y-124580416D01*
X150795566Y-124576416D01*
X150772283Y-124563716D01*
X150322850Y-124562583D01*
X150251432Y-124562405D01*
X150187981Y-124562258D01*
X150131997Y-124562150D01*
X150082982Y-124562089D01*
X150040435Y-124562083D01*
X150003858Y-124562140D01*
X149972751Y-124562268D01*
X149946614Y-124562475D01*
X149924948Y-124562770D01*
X149907254Y-124563160D01*
X149893032Y-124563653D01*
X149881782Y-124564258D01*
X149873006Y-124564983D01*
X149866204Y-124565835D01*
X149860875Y-124566823D01*
X149856522Y-124567955D01*
X149852644Y-124569239D01*
X149849954Y-124570229D01*
X149827868Y-124582126D01*
X149807974Y-124599505D01*
X149792417Y-124620116D01*
X149783923Y-124639477D01*
X149780697Y-124659192D01*
X149780314Y-124682363D01*
X149782552Y-124705598D01*
X149782552Y-124705598D01*
G37*
X149782552Y-124705598D02*
X149787193Y-124725504D01*
X149789920Y-124732290D01*
X149805814Y-124755860D01*
X149828278Y-124775601D01*
X149840381Y-124782955D01*
X149857883Y-124792316D01*
X150308472Y-124793450D01*
X150382292Y-124793649D01*
X150448131Y-124793831D01*
X150506477Y-124793965D01*
X150557816Y-124794020D01*
X150602635Y-124793964D01*
X150641420Y-124793768D01*
X150674658Y-124793398D01*
X150702835Y-124792824D01*
X150726438Y-124792015D01*
X150745953Y-124790939D01*
X150761867Y-124789565D01*
X150774667Y-124787861D01*
X150784839Y-124785798D01*
X150792870Y-124783342D01*
X150799246Y-124780464D01*
X150804454Y-124777131D01*
X150808981Y-124773312D01*
X150813312Y-124768976D01*
X150817935Y-124764093D01*
X150821459Y-124760477D01*
X150839216Y-124736969D01*
X150850492Y-124709381D01*
X150854827Y-124679587D01*
X150851760Y-124649460D01*
X150850223Y-124643577D01*
X150839585Y-124619942D01*
X150822821Y-124597961D01*
X150802199Y-124580416D01*
X150795566Y-124576416D01*
X150772283Y-124563716D01*
X150322850Y-124562583D01*
X150251432Y-124562405D01*
X150187981Y-124562258D01*
X150131997Y-124562150D01*
X150082982Y-124562089D01*
X150040435Y-124562083D01*
X150003858Y-124562140D01*
X149972751Y-124562268D01*
X149946614Y-124562475D01*
X149924948Y-124562770D01*
X149907254Y-124563160D01*
X149893032Y-124563653D01*
X149881782Y-124564258D01*
X149873006Y-124564983D01*
X149866204Y-124565835D01*
X149860875Y-124566823D01*
X149856522Y-124567955D01*
X149852644Y-124569239D01*
X149849954Y-124570229D01*
X149827868Y-124582126D01*
X149807974Y-124599505D01*
X149792417Y-124620116D01*
X149783923Y-124639477D01*
X149780697Y-124659192D01*
X149780314Y-124682363D01*
X149782552Y-124705598D01*
G36*
X149783082Y-127203499D02*
X149793433Y-127230683D01*
X149810779Y-127253123D01*
X149835196Y-127270942D01*
X149845183Y-127275998D01*
X149866350Y-127285750D01*
X150763816Y-127285750D01*
X150788626Y-127273568D01*
X150813953Y-127256991D01*
X150832565Y-127235371D01*
X150844536Y-127208582D01*
X150849937Y-127176500D01*
X150850278Y-127166927D01*
X150848797Y-127136972D01*
X150843040Y-127112377D01*
X150832110Y-127090736D01*
X150815113Y-127069648D01*
X150813367Y-127067811D01*
X150806443Y-127061543D01*
X150793291Y-127050581D01*
X150774437Y-127035336D01*
X150750407Y-127016220D01*
X150721728Y-126993642D01*
X150688925Y-126968015D01*
X150652526Y-126939749D01*
X150613055Y-126909257D01*
X150571040Y-126876948D01*
X150527007Y-126843234D01*
X150483162Y-126809806D01*
X150177108Y-126576941D01*
X150472579Y-126575746D01*
X150529763Y-126575509D01*
X150579104Y-126575281D01*
X150621226Y-126575042D01*
X150656752Y-126574772D01*
X150686308Y-126574451D01*
X150710515Y-126574060D01*
X150729999Y-126573579D01*
X150745382Y-126572987D01*
X150757290Y-126572264D01*
X150766344Y-126571392D01*
X150773171Y-126570349D01*
X150778392Y-126569117D01*
X150782632Y-126567674D01*
X150786515Y-126566002D01*
X150787147Y-126565710D01*
X150812436Y-126549560D01*
X150833313Y-126527247D01*
X150842931Y-126511619D01*
X150848944Y-126494301D01*
X150852621Y-126472522D01*
X150853635Y-126449992D01*
X150851660Y-126430422D01*
X150850476Y-126425810D01*
X150838251Y-126399768D01*
X150819476Y-126377082D01*
X150795985Y-126359921D01*
X150793749Y-126358745D01*
X150768648Y-126345950D01*
X150319616Y-126345950D01*
X150246149Y-126345935D01*
X150180661Y-126345913D01*
X150122665Y-126345918D01*
X150071674Y-126345985D01*
X150027199Y-126346146D01*
X149988753Y-126346436D01*
X149955850Y-126346889D01*
X149928001Y-126347539D01*
X149904719Y-126348420D01*
X149885517Y-126349565D01*
X149869907Y-126351010D01*
X149857402Y-126352787D01*
X149847515Y-126354931D01*
X149839757Y-126357476D01*
X149833642Y-126360455D01*
X149828682Y-126363903D01*
X149824389Y-126367854D01*
X149820277Y-126372342D01*
X149815857Y-126377400D01*
X149812308Y-126381311D01*
X149799375Y-126396803D01*
X149790537Y-126412190D01*
X149785109Y-126429621D01*
X149782407Y-126451245D01*
X149781739Y-126477183D01*
X149782066Y-126498160D01*
X149783280Y-126513362D01*
X149785830Y-126525469D01*
X149790164Y-126537161D01*
X149792722Y-126542800D01*
X149802164Y-126559337D01*
X149814159Y-126575752D01*
X149820830Y-126583166D01*
X149826733Y-126588258D01*
X149838863Y-126598064D01*
X149856701Y-126612183D01*
X149879730Y-126630213D01*
X149907429Y-126651752D01*
X149939281Y-126676400D01*
X149974766Y-126703753D01*
X150013366Y-126733411D01*
X150054561Y-126764973D01*
X150097833Y-126798035D01*
X150135287Y-126826583D01*
X150432563Y-127052916D01*
X150147340Y-127055033D01*
X150089829Y-127055451D01*
X150040150Y-127055827D01*
X149997665Y-127056221D01*
X149961741Y-127056689D01*
X149931740Y-127057288D01*
X149907029Y-127058078D01*
X149886972Y-127059115D01*
X149870932Y-127060458D01*
X149858275Y-127062164D01*
X149848366Y-127064290D01*
X149840568Y-127066895D01*
X149834247Y-127070036D01*
X149828767Y-127073770D01*
X149823493Y-127078157D01*
X149817788Y-127083252D01*
X149815629Y-127085164D01*
X149796616Y-127107305D01*
X149784638Y-127134091D01*
X149779766Y-127165351D01*
X149779649Y-127171450D01*
X149783082Y-127203499D01*
X149783082Y-127203499D01*
G37*
X149783082Y-127203499D02*
X149793433Y-127230683D01*
X149810779Y-127253123D01*
X149835196Y-127270942D01*
X149845183Y-127275998D01*
X149866350Y-127285750D01*
X150763816Y-127285750D01*
X150788626Y-127273568D01*
X150813953Y-127256991D01*
X150832565Y-127235371D01*
X150844536Y-127208582D01*
X150849937Y-127176500D01*
X150850278Y-127166927D01*
X150848797Y-127136972D01*
X150843040Y-127112377D01*
X150832110Y-127090736D01*
X150815113Y-127069648D01*
X150813367Y-127067811D01*
X150806443Y-127061543D01*
X150793291Y-127050581D01*
X150774437Y-127035336D01*
X150750407Y-127016220D01*
X150721728Y-126993642D01*
X150688925Y-126968015D01*
X150652526Y-126939749D01*
X150613055Y-126909257D01*
X150571040Y-126876948D01*
X150527007Y-126843234D01*
X150483162Y-126809806D01*
X150177108Y-126576941D01*
X150472579Y-126575746D01*
X150529763Y-126575509D01*
X150579104Y-126575281D01*
X150621226Y-126575042D01*
X150656752Y-126574772D01*
X150686308Y-126574451D01*
X150710515Y-126574060D01*
X150729999Y-126573579D01*
X150745382Y-126572987D01*
X150757290Y-126572264D01*
X150766344Y-126571392D01*
X150773171Y-126570349D01*
X150778392Y-126569117D01*
X150782632Y-126567674D01*
X150786515Y-126566002D01*
X150787147Y-126565710D01*
X150812436Y-126549560D01*
X150833313Y-126527247D01*
X150842931Y-126511619D01*
X150848944Y-126494301D01*
X150852621Y-126472522D01*
X150853635Y-126449992D01*
X150851660Y-126430422D01*
X150850476Y-126425810D01*
X150838251Y-126399768D01*
X150819476Y-126377082D01*
X150795985Y-126359921D01*
X150793749Y-126358745D01*
X150768648Y-126345950D01*
X150319616Y-126345950D01*
X150246149Y-126345935D01*
X150180661Y-126345913D01*
X150122665Y-126345918D01*
X150071674Y-126345985D01*
X150027199Y-126346146D01*
X149988753Y-126346436D01*
X149955850Y-126346889D01*
X149928001Y-126347539D01*
X149904719Y-126348420D01*
X149885517Y-126349565D01*
X149869907Y-126351010D01*
X149857402Y-126352787D01*
X149847515Y-126354931D01*
X149839757Y-126357476D01*
X149833642Y-126360455D01*
X149828682Y-126363903D01*
X149824389Y-126367854D01*
X149820277Y-126372342D01*
X149815857Y-126377400D01*
X149812308Y-126381311D01*
X149799375Y-126396803D01*
X149790537Y-126412190D01*
X149785109Y-126429621D01*
X149782407Y-126451245D01*
X149781739Y-126477183D01*
X149782066Y-126498160D01*
X149783280Y-126513362D01*
X149785830Y-126525469D01*
X149790164Y-126537161D01*
X149792722Y-126542800D01*
X149802164Y-126559337D01*
X149814159Y-126575752D01*
X149820830Y-126583166D01*
X149826733Y-126588258D01*
X149838863Y-126598064D01*
X149856701Y-126612183D01*
X149879730Y-126630213D01*
X149907429Y-126651752D01*
X149939281Y-126676400D01*
X149974766Y-126703753D01*
X150013366Y-126733411D01*
X150054561Y-126764973D01*
X150097833Y-126798035D01*
X150135287Y-126826583D01*
X150432563Y-127052916D01*
X150147340Y-127055033D01*
X150089829Y-127055451D01*
X150040150Y-127055827D01*
X149997665Y-127056221D01*
X149961741Y-127056689D01*
X149931740Y-127057288D01*
X149907029Y-127058078D01*
X149886972Y-127059115D01*
X149870932Y-127060458D01*
X149858275Y-127062164D01*
X149848366Y-127064290D01*
X149840568Y-127066895D01*
X149834247Y-127070036D01*
X149828767Y-127073770D01*
X149823493Y-127078157D01*
X149817788Y-127083252D01*
X149815629Y-127085164D01*
X149796616Y-127107305D01*
X149784638Y-127134091D01*
X149779766Y-127165351D01*
X149779649Y-127171450D01*
X149783082Y-127203499D01*
G36*
X149788228Y-119696125D02*
X149788263Y-119748256D01*
X149788339Y-119793100D01*
X149788469Y-119831247D01*
X149788665Y-119863286D01*
X149788943Y-119889807D01*
X149789316Y-119911400D01*
X149789796Y-119928655D01*
X149790399Y-119942161D01*
X149791136Y-119952508D01*
X149792023Y-119960287D01*
X149793072Y-119966085D01*
X149794297Y-119970495D01*
X149795712Y-119974104D01*
X149796019Y-119974783D01*
X149811698Y-119999642D01*
X149832603Y-120017931D01*
X149858302Y-120029377D01*
X149888364Y-120033710D01*
X149889741Y-120033733D01*
X149918808Y-120030270D01*
X149944569Y-120019743D01*
X149965938Y-120002987D01*
X149981832Y-119980840D01*
X149990843Y-119955707D01*
X149992009Y-119945680D01*
X149993010Y-119927324D01*
X149993844Y-119900773D01*
X149994508Y-119866164D01*
X149995001Y-119823630D01*
X149995318Y-119773309D01*
X149995459Y-119715334D01*
X149995467Y-119697291D01*
X149995467Y-119460433D01*
X150206770Y-119460433D01*
X150209250Y-119890117D01*
X150220303Y-119911283D01*
X150230185Y-119926363D01*
X150242683Y-119940540D01*
X150248696Y-119945818D01*
X150272611Y-119959370D01*
X150298732Y-119965882D01*
X150325479Y-119965682D01*
X150351269Y-119959097D01*
X150374521Y-119946453D01*
X150393654Y-119928077D01*
X150402741Y-119913975D01*
X150414567Y-119891266D01*
X150414567Y-119460433D01*
X150638933Y-119460433D01*
X150638975Y-119711258D01*
X150639016Y-119962083D01*
X150648953Y-119983423D01*
X150664268Y-120007943D01*
X150684255Y-120025507D01*
X150709154Y-120036261D01*
X150739206Y-120040350D01*
X150743294Y-120040400D01*
X150772942Y-120037227D01*
X150797558Y-120027516D01*
X150817823Y-120010976D01*
X150821093Y-120007211D01*
X150825690Y-120001611D01*
X150829693Y-119996278D01*
X150833142Y-119990616D01*
X150836077Y-119984031D01*
X150838538Y-119975925D01*
X150840564Y-119965705D01*
X150842196Y-119952774D01*
X150843473Y-119936537D01*
X150844435Y-119916399D01*
X150845121Y-119891763D01*
X150845572Y-119862035D01*
X150845827Y-119826619D01*
X150845927Y-119784919D01*
X150845910Y-119736341D01*
X150845817Y-119680287D01*
X150845732Y-119638523D01*
X150845606Y-119587663D01*
X150845442Y-119539087D01*
X150845244Y-119493487D01*
X150845019Y-119451556D01*
X150844770Y-119413986D01*
X150844504Y-119381470D01*
X150844224Y-119354702D01*
X150843937Y-119334373D01*
X150843647Y-119321176D01*
X150843380Y-119315919D01*
X150838537Y-119301288D01*
X150829083Y-119284057D01*
X150816915Y-119267042D01*
X150803931Y-119253061D01*
X150797683Y-119248059D01*
X150782671Y-119239874D01*
X150765307Y-119233269D01*
X150759583Y-119231764D01*
X150752509Y-119230925D01*
X150739244Y-119230198D01*
X150719562Y-119229582D01*
X150693236Y-119229073D01*
X150660038Y-119228671D01*
X150619741Y-119228373D01*
X150572118Y-119228179D01*
X150516941Y-119228086D01*
X150453984Y-119228094D01*
X150383019Y-119228199D01*
X150303819Y-119228401D01*
X150302383Y-119228405D01*
X149866350Y-119229716D01*
X149849417Y-119238871D01*
X149824824Y-119256718D01*
X149805070Y-119280294D01*
X149796832Y-119295333D01*
X149795230Y-119299070D01*
X149793840Y-119303099D01*
X149792647Y-119308015D01*
X149791636Y-119314412D01*
X149790792Y-119322887D01*
X149790099Y-119334032D01*
X149789544Y-119348443D01*
X149789110Y-119366715D01*
X149788783Y-119389442D01*
X149788547Y-119417219D01*
X149788388Y-119450640D01*
X149788291Y-119490300D01*
X149788241Y-119536795D01*
X149788222Y-119590717D01*
X149788219Y-119636117D01*
X149788228Y-119696125D01*
X149788228Y-119696125D01*
G37*
X149788228Y-119696125D02*
X149788263Y-119748256D01*
X149788339Y-119793100D01*
X149788469Y-119831247D01*
X149788665Y-119863286D01*
X149788943Y-119889807D01*
X149789316Y-119911400D01*
X149789796Y-119928655D01*
X149790399Y-119942161D01*
X149791136Y-119952508D01*
X149792023Y-119960287D01*
X149793072Y-119966085D01*
X149794297Y-119970495D01*
X149795712Y-119974104D01*
X149796019Y-119974783D01*
X149811698Y-119999642D01*
X149832603Y-120017931D01*
X149858302Y-120029377D01*
X149888364Y-120033710D01*
X149889741Y-120033733D01*
X149918808Y-120030270D01*
X149944569Y-120019743D01*
X149965938Y-120002987D01*
X149981832Y-119980840D01*
X149990843Y-119955707D01*
X149992009Y-119945680D01*
X149993010Y-119927324D01*
X149993844Y-119900773D01*
X149994508Y-119866164D01*
X149995001Y-119823630D01*
X149995318Y-119773309D01*
X149995459Y-119715334D01*
X149995467Y-119697291D01*
X149995467Y-119460433D01*
X150206770Y-119460433D01*
X150209250Y-119890117D01*
X150220303Y-119911283D01*
X150230185Y-119926363D01*
X150242683Y-119940540D01*
X150248696Y-119945818D01*
X150272611Y-119959370D01*
X150298732Y-119965882D01*
X150325479Y-119965682D01*
X150351269Y-119959097D01*
X150374521Y-119946453D01*
X150393654Y-119928077D01*
X150402741Y-119913975D01*
X150414567Y-119891266D01*
X150414567Y-119460433D01*
X150638933Y-119460433D01*
X150638975Y-119711258D01*
X150639016Y-119962083D01*
X150648953Y-119983423D01*
X150664268Y-120007943D01*
X150684255Y-120025507D01*
X150709154Y-120036261D01*
X150739206Y-120040350D01*
X150743294Y-120040400D01*
X150772942Y-120037227D01*
X150797558Y-120027516D01*
X150817823Y-120010976D01*
X150821093Y-120007211D01*
X150825690Y-120001611D01*
X150829693Y-119996278D01*
X150833142Y-119990616D01*
X150836077Y-119984031D01*
X150838538Y-119975925D01*
X150840564Y-119965705D01*
X150842196Y-119952774D01*
X150843473Y-119936537D01*
X150844435Y-119916399D01*
X150845121Y-119891763D01*
X150845572Y-119862035D01*
X150845827Y-119826619D01*
X150845927Y-119784919D01*
X150845910Y-119736341D01*
X150845817Y-119680287D01*
X150845732Y-119638523D01*
X150845606Y-119587663D01*
X150845442Y-119539087D01*
X150845244Y-119493487D01*
X150845019Y-119451556D01*
X150844770Y-119413986D01*
X150844504Y-119381470D01*
X150844224Y-119354702D01*
X150843937Y-119334373D01*
X150843647Y-119321176D01*
X150843380Y-119315919D01*
X150838537Y-119301288D01*
X150829083Y-119284057D01*
X150816915Y-119267042D01*
X150803931Y-119253061D01*
X150797683Y-119248059D01*
X150782671Y-119239874D01*
X150765307Y-119233269D01*
X150759583Y-119231764D01*
X150752509Y-119230925D01*
X150739244Y-119230198D01*
X150719562Y-119229582D01*
X150693236Y-119229073D01*
X150660038Y-119228671D01*
X150619741Y-119228373D01*
X150572118Y-119228179D01*
X150516941Y-119228086D01*
X150453984Y-119228094D01*
X150383019Y-119228199D01*
X150303819Y-119228401D01*
X150302383Y-119228405D01*
X149866350Y-119229716D01*
X149849417Y-119238871D01*
X149824824Y-119256718D01*
X149805070Y-119280294D01*
X149796832Y-119295333D01*
X149795230Y-119299070D01*
X149793840Y-119303099D01*
X149792647Y-119308015D01*
X149791636Y-119314412D01*
X149790792Y-119322887D01*
X149790099Y-119334032D01*
X149789544Y-119348443D01*
X149789110Y-119366715D01*
X149788783Y-119389442D01*
X149788547Y-119417219D01*
X149788388Y-119450640D01*
X149788291Y-119490300D01*
X149788241Y-119536795D01*
X149788222Y-119590717D01*
X149788219Y-119636117D01*
X149788228Y-119696125D01*
G36*
X148410057Y-120080161D02*
X148411666Y-120116432D01*
X148414304Y-120149440D01*
X148417957Y-120177243D01*
X148419866Y-120187247D01*
X148436368Y-120249833D01*
X148457764Y-120306593D01*
X148484672Y-120359011D01*
X148504754Y-120390501D01*
X148517110Y-120407106D01*
X148528531Y-120418656D01*
X148541787Y-120427712D01*
X148549492Y-120431862D01*
X148565339Y-120439165D01*
X148579048Y-120442995D01*
X148594861Y-120444315D01*
X148604526Y-120444338D01*
X148631016Y-120442179D01*
X148652620Y-120435684D01*
X148672260Y-120423797D01*
X148680937Y-120416669D01*
X148699957Y-120394526D01*
X148711932Y-120367717D01*
X148716831Y-120336319D01*
X148716958Y-120330084D01*
X148716680Y-120317329D01*
X148715408Y-120306175D01*
X148712548Y-120295164D01*
X148707503Y-120282836D01*
X148699678Y-120267734D01*
X148688476Y-120248398D01*
X148673508Y-120223705D01*
X148662627Y-120203786D01*
X148651544Y-120179987D01*
X148642223Y-120156616D01*
X148640108Y-120150467D01*
X148634512Y-120132435D01*
X148630606Y-120116710D01*
X148628000Y-120100754D01*
X148626308Y-120082033D01*
X148625142Y-120058011D01*
X148624889Y-120050932D01*
X148624383Y-120017616D01*
X148625719Y-119990218D01*
X148629373Y-119966302D01*
X148635821Y-119943429D01*
X148645538Y-119919163D01*
X148654219Y-119900700D01*
X148663216Y-119883526D01*
X148672631Y-119868723D01*
X148684098Y-119854144D01*
X148699250Y-119837646D01*
X148712405Y-119824322D01*
X148731332Y-119805984D01*
X148746982Y-119792294D01*
X148761660Y-119781529D01*
X148777669Y-119771967D01*
X148793200Y-119763918D01*
X148828306Y-119747911D01*
X148860439Y-119736831D01*
X148892593Y-119729984D01*
X148927762Y-119726675D01*
X148956183Y-119726093D01*
X148995534Y-119727446D01*
X149029755Y-119731826D01*
X149061856Y-119739931D01*
X149094847Y-119752454D01*
X149119166Y-119763772D01*
X149138399Y-119773765D01*
X149154182Y-119783523D01*
X149168965Y-119794860D01*
X149185197Y-119809591D01*
X149197998Y-119822157D01*
X149215687Y-119840338D01*
X149228765Y-119855330D01*
X149238988Y-119869523D01*
X149248114Y-119885306D01*
X149255879Y-119900835D01*
X149269621Y-119932127D01*
X149279171Y-119961121D01*
X149285013Y-119990353D01*
X149287633Y-120022355D01*
X149287515Y-120059662D01*
X149287317Y-120065204D01*
X149285712Y-120092715D01*
X149283222Y-120118368D01*
X149280123Y-120139696D01*
X149277808Y-120150467D01*
X149271187Y-120171576D01*
X149262133Y-120195191D01*
X149251848Y-120218559D01*
X149241535Y-120238923D01*
X149233430Y-120252118D01*
X149224423Y-120264767D01*
X149076833Y-120264767D01*
X149076833Y-120180868D01*
X149076580Y-120145061D01*
X149075647Y-120116502D01*
X149073772Y-120093983D01*
X149070693Y-120076297D01*
X149066149Y-120062237D01*
X149059877Y-120050593D01*
X149051616Y-120040159D01*
X149044837Y-120033242D01*
X149025854Y-120018500D01*
X149004978Y-120009969D01*
X148979756Y-120006739D01*
X148973116Y-120006650D01*
X148944707Y-120010764D01*
X148919177Y-120022376D01*
X148897875Y-120040680D01*
X148884863Y-120059450D01*
X148882558Y-120063976D01*
X148880679Y-120068722D01*
X148879181Y-120074555D01*
X148878022Y-120082339D01*
X148877159Y-120092940D01*
X148876547Y-120107225D01*
X148876144Y-120126058D01*
X148875906Y-120150305D01*
X148875790Y-120180833D01*
X148875753Y-120218506D01*
X148875750Y-120241483D01*
X148875750Y-120406583D01*
X148888308Y-120429255D01*
X148906525Y-120454820D01*
X148929014Y-120473197D01*
X148950426Y-120482980D01*
X148956644Y-120484693D01*
X148964489Y-120486067D01*
X148974823Y-120487126D01*
X148988505Y-120487897D01*
X149006395Y-120488404D01*
X149029356Y-120488671D01*
X149058246Y-120488724D01*
X149093927Y-120488587D01*
X149134710Y-120488305D01*
X149299083Y-120487017D01*
X149325717Y-120474718D01*
X149350421Y-120459983D01*
X149373107Y-120439201D01*
X149394580Y-120411517D01*
X149411915Y-120382939D01*
X149444654Y-120315540D01*
X149470528Y-120244643D01*
X149488844Y-120172227D01*
X149491938Y-120155423D01*
X149495722Y-120126273D01*
X149498297Y-120091707D01*
X149499644Y-120054133D01*
X149499747Y-120015960D01*
X149498588Y-119979596D01*
X149496149Y-119947449D01*
X149493582Y-119928217D01*
X149482700Y-119879008D01*
X149466882Y-119828824D01*
X149447056Y-119779902D01*
X149424147Y-119734478D01*
X149399081Y-119694788D01*
X149394077Y-119687981D01*
X149351264Y-119638155D01*
X149303035Y-119594789D01*
X149249599Y-119558015D01*
X149191163Y-119527963D01*
X149127936Y-119504763D01*
X149085300Y-119493628D01*
X149057001Y-119488827D01*
X149022976Y-119485445D01*
X148985475Y-119483500D01*
X148946749Y-119483010D01*
X148909049Y-119483993D01*
X148874625Y-119486468D01*
X148845728Y-119490452D01*
X148839767Y-119491656D01*
X148772705Y-119510402D01*
X148710179Y-119536172D01*
X148652499Y-119568651D01*
X148599974Y-119607528D01*
X148552916Y-119652488D01*
X148511634Y-119703219D01*
X148476438Y-119759407D01*
X148447638Y-119820739D01*
X148425544Y-119886902D01*
X148417941Y-119917856D01*
X148414194Y-119941301D01*
X148411546Y-119971197D01*
X148409984Y-120005601D01*
X148409492Y-120042569D01*
X148410057Y-120080161D01*
X148410057Y-120080161D01*
G37*
X148410057Y-120080161D02*
X148411666Y-120116432D01*
X148414304Y-120149440D01*
X148417957Y-120177243D01*
X148419866Y-120187247D01*
X148436368Y-120249833D01*
X148457764Y-120306593D01*
X148484672Y-120359011D01*
X148504754Y-120390501D01*
X148517110Y-120407106D01*
X148528531Y-120418656D01*
X148541787Y-120427712D01*
X148549492Y-120431862D01*
X148565339Y-120439165D01*
X148579048Y-120442995D01*
X148594861Y-120444315D01*
X148604526Y-120444338D01*
X148631016Y-120442179D01*
X148652620Y-120435684D01*
X148672260Y-120423797D01*
X148680937Y-120416669D01*
X148699957Y-120394526D01*
X148711932Y-120367717D01*
X148716831Y-120336319D01*
X148716958Y-120330084D01*
X148716680Y-120317329D01*
X148715408Y-120306175D01*
X148712548Y-120295164D01*
X148707503Y-120282836D01*
X148699678Y-120267734D01*
X148688476Y-120248398D01*
X148673508Y-120223705D01*
X148662627Y-120203786D01*
X148651544Y-120179987D01*
X148642223Y-120156616D01*
X148640108Y-120150467D01*
X148634512Y-120132435D01*
X148630606Y-120116710D01*
X148628000Y-120100754D01*
X148626308Y-120082033D01*
X148625142Y-120058011D01*
X148624889Y-120050932D01*
X148624383Y-120017616D01*
X148625719Y-119990218D01*
X148629373Y-119966302D01*
X148635821Y-119943429D01*
X148645538Y-119919163D01*
X148654219Y-119900700D01*
X148663216Y-119883526D01*
X148672631Y-119868723D01*
X148684098Y-119854144D01*
X148699250Y-119837646D01*
X148712405Y-119824322D01*
X148731332Y-119805984D01*
X148746982Y-119792294D01*
X148761660Y-119781529D01*
X148777669Y-119771967D01*
X148793200Y-119763918D01*
X148828306Y-119747911D01*
X148860439Y-119736831D01*
X148892593Y-119729984D01*
X148927762Y-119726675D01*
X148956183Y-119726093D01*
X148995534Y-119727446D01*
X149029755Y-119731826D01*
X149061856Y-119739931D01*
X149094847Y-119752454D01*
X149119166Y-119763772D01*
X149138399Y-119773765D01*
X149154182Y-119783523D01*
X149168965Y-119794860D01*
X149185197Y-119809591D01*
X149197998Y-119822157D01*
X149215687Y-119840338D01*
X149228765Y-119855330D01*
X149238988Y-119869523D01*
X149248114Y-119885306D01*
X149255879Y-119900835D01*
X149269621Y-119932127D01*
X149279171Y-119961121D01*
X149285013Y-119990353D01*
X149287633Y-120022355D01*
X149287515Y-120059662D01*
X149287317Y-120065204D01*
X149285712Y-120092715D01*
X149283222Y-120118368D01*
X149280123Y-120139696D01*
X149277808Y-120150467D01*
X149271187Y-120171576D01*
X149262133Y-120195191D01*
X149251848Y-120218559D01*
X149241535Y-120238923D01*
X149233430Y-120252118D01*
X149224423Y-120264767D01*
X149076833Y-120264767D01*
X149076833Y-120180868D01*
X149076580Y-120145061D01*
X149075647Y-120116502D01*
X149073772Y-120093983D01*
X149070693Y-120076297D01*
X149066149Y-120062237D01*
X149059877Y-120050593D01*
X149051616Y-120040159D01*
X149044837Y-120033242D01*
X149025854Y-120018500D01*
X149004978Y-120009969D01*
X148979756Y-120006739D01*
X148973116Y-120006650D01*
X148944707Y-120010764D01*
X148919177Y-120022376D01*
X148897875Y-120040680D01*
X148884863Y-120059450D01*
X148882558Y-120063976D01*
X148880679Y-120068722D01*
X148879181Y-120074555D01*
X148878022Y-120082339D01*
X148877159Y-120092940D01*
X148876547Y-120107225D01*
X148876144Y-120126058D01*
X148875906Y-120150305D01*
X148875790Y-120180833D01*
X148875753Y-120218506D01*
X148875750Y-120241483D01*
X148875750Y-120406583D01*
X148888308Y-120429255D01*
X148906525Y-120454820D01*
X148929014Y-120473197D01*
X148950426Y-120482980D01*
X148956644Y-120484693D01*
X148964489Y-120486067D01*
X148974823Y-120487126D01*
X148988505Y-120487897D01*
X149006395Y-120488404D01*
X149029356Y-120488671D01*
X149058246Y-120488724D01*
X149093927Y-120488587D01*
X149134710Y-120488305D01*
X149299083Y-120487017D01*
X149325717Y-120474718D01*
X149350421Y-120459983D01*
X149373107Y-120439201D01*
X149394580Y-120411517D01*
X149411915Y-120382939D01*
X149444654Y-120315540D01*
X149470528Y-120244643D01*
X149488844Y-120172227D01*
X149491938Y-120155423D01*
X149495722Y-120126273D01*
X149498297Y-120091707D01*
X149499644Y-120054133D01*
X149499747Y-120015960D01*
X149498588Y-119979596D01*
X149496149Y-119947449D01*
X149493582Y-119928217D01*
X149482700Y-119879008D01*
X149466882Y-119828824D01*
X149447056Y-119779902D01*
X149424147Y-119734478D01*
X149399081Y-119694788D01*
X149394077Y-119687981D01*
X149351264Y-119638155D01*
X149303035Y-119594789D01*
X149249599Y-119558015D01*
X149191163Y-119527963D01*
X149127936Y-119504763D01*
X149085300Y-119493628D01*
X149057001Y-119488827D01*
X149022976Y-119485445D01*
X148985475Y-119483500D01*
X148946749Y-119483010D01*
X148909049Y-119483993D01*
X148874625Y-119486468D01*
X148845728Y-119490452D01*
X148839767Y-119491656D01*
X148772705Y-119510402D01*
X148710179Y-119536172D01*
X148652499Y-119568651D01*
X148599974Y-119607528D01*
X148552916Y-119652488D01*
X148511634Y-119703219D01*
X148476438Y-119759407D01*
X148447638Y-119820739D01*
X148425544Y-119886902D01*
X148417941Y-119917856D01*
X148414194Y-119941301D01*
X148411546Y-119971197D01*
X148409984Y-120005601D01*
X148409492Y-120042569D01*
X148410057Y-120080161D01*
G36*
X148425431Y-116881366D02*
X148425566Y-116918650D01*
X148425860Y-116950225D01*
X148426341Y-116976642D01*
X148427039Y-116998452D01*
X148427983Y-117016207D01*
X148429202Y-117030459D01*
X148430726Y-117041759D01*
X148432584Y-117050658D01*
X148434805Y-117057708D01*
X148437418Y-117063460D01*
X148440453Y-117068465D01*
X148443939Y-117073276D01*
X148447874Y-117078402D01*
X148457893Y-117088558D01*
X148471824Y-117099184D01*
X148480973Y-117104797D01*
X148506972Y-117114706D01*
X148534362Y-117117643D01*
X148561433Y-117113998D01*
X148586477Y-117104161D01*
X148607784Y-117088522D01*
X148620437Y-117072979D01*
X148628412Y-117058751D01*
X148634792Y-117044480D01*
X148636596Y-117039113D01*
X148637683Y-117031034D01*
X148638666Y-117015740D01*
X148639505Y-116994482D01*
X148640162Y-116968513D01*
X148640598Y-116939083D01*
X148640774Y-116907445D01*
X148640776Y-116904558D01*
X148640800Y-116784967D01*
X149409604Y-116784967D01*
X149431609Y-116774001D01*
X149456525Y-116757241D01*
X149474911Y-116735193D01*
X149486593Y-116708162D01*
X149491397Y-116676452D01*
X149491514Y-116668854D01*
X149490399Y-116651615D01*
X149487738Y-116635011D01*
X149485485Y-116626756D01*
X149472121Y-116601681D01*
X149451566Y-116580594D01*
X149430204Y-116566950D01*
X149405523Y-116554250D01*
X149023393Y-116553063D01*
X148641262Y-116551876D01*
X148639973Y-116426063D01*
X148638683Y-116300250D01*
X148625589Y-116276967D01*
X148608831Y-116255150D01*
X148586542Y-116237760D01*
X148561081Y-116226431D01*
X148548683Y-116223664D01*
X148520093Y-116223347D01*
X148492650Y-116230421D01*
X148468028Y-116244051D01*
X148447898Y-116263402D01*
X148437831Y-116279007D01*
X148427017Y-116300019D01*
X148425888Y-116664105D01*
X148425683Y-116729742D01*
X148425519Y-116787463D01*
X148425425Y-116837820D01*
X148425431Y-116881366D01*
X148425431Y-116881366D01*
G37*
X148425431Y-116881366D02*
X148425566Y-116918650D01*
X148425860Y-116950225D01*
X148426341Y-116976642D01*
X148427039Y-116998452D01*
X148427983Y-117016207D01*
X148429202Y-117030459D01*
X148430726Y-117041759D01*
X148432584Y-117050658D01*
X148434805Y-117057708D01*
X148437418Y-117063460D01*
X148440453Y-117068465D01*
X148443939Y-117073276D01*
X148447874Y-117078402D01*
X148457893Y-117088558D01*
X148471824Y-117099184D01*
X148480973Y-117104797D01*
X148506972Y-117114706D01*
X148534362Y-117117643D01*
X148561433Y-117113998D01*
X148586477Y-117104161D01*
X148607784Y-117088522D01*
X148620437Y-117072979D01*
X148628412Y-117058751D01*
X148634792Y-117044480D01*
X148636596Y-117039113D01*
X148637683Y-117031034D01*
X148638666Y-117015740D01*
X148639505Y-116994482D01*
X148640162Y-116968513D01*
X148640598Y-116939083D01*
X148640774Y-116907445D01*
X148640776Y-116904558D01*
X148640800Y-116784967D01*
X149409604Y-116784967D01*
X149431609Y-116774001D01*
X149456525Y-116757241D01*
X149474911Y-116735193D01*
X149486593Y-116708162D01*
X149491397Y-116676452D01*
X149491514Y-116668854D01*
X149490399Y-116651615D01*
X149487738Y-116635011D01*
X149485485Y-116626756D01*
X149472121Y-116601681D01*
X149451566Y-116580594D01*
X149430204Y-116566950D01*
X149405523Y-116554250D01*
X149023393Y-116553063D01*
X148641262Y-116551876D01*
X148639973Y-116426063D01*
X148638683Y-116300250D01*
X148625589Y-116276967D01*
X148608831Y-116255150D01*
X148586542Y-116237760D01*
X148561081Y-116226431D01*
X148548683Y-116223664D01*
X148520093Y-116223347D01*
X148492650Y-116230421D01*
X148468028Y-116244051D01*
X148447898Y-116263402D01*
X148437831Y-116279007D01*
X148427017Y-116300019D01*
X148425888Y-116664105D01*
X148425683Y-116729742D01*
X148425519Y-116787463D01*
X148425425Y-116837820D01*
X148425431Y-116881366D01*
G36*
X148410390Y-117648644D02*
X148411431Y-117663955D01*
X148413656Y-117675860D01*
X148417477Y-117686886D01*
X148421181Y-117695133D01*
X148439433Y-117723958D01*
X148464291Y-117747789D01*
X148488400Y-117762757D01*
X148495370Y-117766035D01*
X148509550Y-117772496D01*
X148530408Y-117781904D01*
X148557408Y-117794020D01*
X148590018Y-117808606D01*
X148627703Y-117825423D01*
X148669931Y-117844236D01*
X148716166Y-117864804D01*
X148765876Y-117886890D01*
X148818527Y-117910257D01*
X148873584Y-117934666D01*
X148930514Y-117959879D01*
X148933718Y-117961297D01*
X149000218Y-117990722D01*
X149059432Y-118016898D01*
X149111812Y-118040013D01*
X149157810Y-118060256D01*
X149197876Y-118077816D01*
X149232463Y-118092883D01*
X149262022Y-118105645D01*
X149287004Y-118116292D01*
X149307861Y-118125012D01*
X149325044Y-118131994D01*
X149339005Y-118137428D01*
X149350194Y-118141502D01*
X149359064Y-118144406D01*
X149366066Y-118146329D01*
X149371652Y-118147459D01*
X149376272Y-118147985D01*
X149379843Y-118148100D01*
X149406392Y-118146264D01*
X149427827Y-118140056D01*
X149446825Y-118128420D01*
X149460093Y-118116493D01*
X149476660Y-118096828D01*
X149486649Y-118076459D01*
X149491158Y-118052667D01*
X149491700Y-118038033D01*
X149489142Y-118009893D01*
X149480885Y-117986261D01*
X149466050Y-117964684D01*
X149465019Y-117963499D01*
X149458573Y-117956492D01*
X149451949Y-117950308D01*
X149444161Y-117944419D01*
X149434221Y-117938295D01*
X149421145Y-117931409D01*
X149403946Y-117923234D01*
X149381639Y-117913241D01*
X149353237Y-117900901D01*
X149327658Y-117889924D01*
X149246166Y-117855042D01*
X149246166Y-117391739D01*
X149341522Y-117350955D01*
X149368947Y-117339022D01*
X149394548Y-117327504D01*
X149417031Y-117317011D01*
X149435105Y-117308156D01*
X149447478Y-117301548D01*
X149451798Y-117298789D01*
X149470230Y-117280694D01*
X149482512Y-117258684D01*
X149489219Y-117231516D01*
X149490691Y-117215040D01*
X149491217Y-117196727D01*
X149490340Y-117183701D01*
X149487531Y-117172825D01*
X149482261Y-117160964D01*
X149481224Y-117158903D01*
X149464909Y-117135526D01*
X149443404Y-117117990D01*
X149418077Y-117106779D01*
X149390297Y-117102379D01*
X149361430Y-117105275D01*
X149344748Y-117110482D01*
X149336032Y-117114117D01*
X149320371Y-117120856D01*
X149298390Y-117130420D01*
X149270714Y-117142531D01*
X149237971Y-117156912D01*
X149200785Y-117173285D01*
X149159782Y-117191373D01*
X149115589Y-117210896D01*
X149068831Y-117231579D01*
X149034998Y-117246560D01*
X149034998Y-117479939D01*
X149035910Y-117483668D01*
X149036732Y-117494991D01*
X149037444Y-117513035D01*
X149038021Y-117536925D01*
X149038442Y-117565790D01*
X149038683Y-117598756D01*
X149038733Y-117623267D01*
X149038672Y-117663544D01*
X149038473Y-117696036D01*
X149038110Y-117721423D01*
X149037558Y-117740388D01*
X149036791Y-117753611D01*
X149035785Y-117761772D01*
X149034514Y-117765553D01*
X149033441Y-117765953D01*
X149019988Y-117760587D01*
X149001109Y-117752844D01*
X148977766Y-117743135D01*
X148950925Y-117731874D01*
X148921548Y-117719473D01*
X148890599Y-117706343D01*
X148859043Y-117692897D01*
X148827842Y-117679546D01*
X148797961Y-117666704D01*
X148770364Y-117654781D01*
X148746013Y-117644191D01*
X148725873Y-117635346D01*
X148710908Y-117628656D01*
X148702081Y-117624536D01*
X148700067Y-117623387D01*
X148703807Y-117621411D01*
X148714383Y-117616561D01*
X148730829Y-117609249D01*
X148752180Y-117599891D01*
X148777469Y-117588899D01*
X148805730Y-117576686D01*
X148835998Y-117563668D01*
X148867307Y-117550257D01*
X148898691Y-117536867D01*
X148929183Y-117523912D01*
X148957819Y-117511805D01*
X148983632Y-117500961D01*
X149005656Y-117491792D01*
X149022925Y-117484713D01*
X149034474Y-117480138D01*
X149034998Y-117479939D01*
X149034998Y-117246560D01*
X149020134Y-117253142D01*
X148970123Y-117275307D01*
X148919425Y-117297798D01*
X148868664Y-117320337D01*
X148818468Y-117342645D01*
X148769462Y-117364444D01*
X148722272Y-117385458D01*
X148677522Y-117405407D01*
X148635841Y-117424015D01*
X148597852Y-117441004D01*
X148564182Y-117456095D01*
X148535456Y-117469011D01*
X148512302Y-117479474D01*
X148495343Y-117487207D01*
X148485206Y-117491931D01*
X148482959Y-117493042D01*
X148457732Y-117509647D01*
X148437973Y-117530589D01*
X148421896Y-117557783D01*
X148421095Y-117559473D01*
X148415965Y-117571424D01*
X148412714Y-117582503D01*
X148410934Y-117595247D01*
X148410214Y-117612189D01*
X148410121Y-117627400D01*
X148410390Y-117648644D01*
X148410390Y-117648644D01*
G37*
X148410390Y-117648644D02*
X148411431Y-117663955D01*
X148413656Y-117675860D01*
X148417477Y-117686886D01*
X148421181Y-117695133D01*
X148439433Y-117723958D01*
X148464291Y-117747789D01*
X148488400Y-117762757D01*
X148495370Y-117766035D01*
X148509550Y-117772496D01*
X148530408Y-117781904D01*
X148557408Y-117794020D01*
X148590018Y-117808606D01*
X148627703Y-117825423D01*
X148669931Y-117844236D01*
X148716166Y-117864804D01*
X148765876Y-117886890D01*
X148818527Y-117910257D01*
X148873584Y-117934666D01*
X148930514Y-117959879D01*
X148933718Y-117961297D01*
X149000218Y-117990722D01*
X149059432Y-118016898D01*
X149111812Y-118040013D01*
X149157810Y-118060256D01*
X149197876Y-118077816D01*
X149232463Y-118092883D01*
X149262022Y-118105645D01*
X149287004Y-118116292D01*
X149307861Y-118125012D01*
X149325044Y-118131994D01*
X149339005Y-118137428D01*
X149350194Y-118141502D01*
X149359064Y-118144406D01*
X149366066Y-118146329D01*
X149371652Y-118147459D01*
X149376272Y-118147985D01*
X149379843Y-118148100D01*
X149406392Y-118146264D01*
X149427827Y-118140056D01*
X149446825Y-118128420D01*
X149460093Y-118116493D01*
X149476660Y-118096828D01*
X149486649Y-118076459D01*
X149491158Y-118052667D01*
X149491700Y-118038033D01*
X149489142Y-118009893D01*
X149480885Y-117986261D01*
X149466050Y-117964684D01*
X149465019Y-117963499D01*
X149458573Y-117956492D01*
X149451949Y-117950308D01*
X149444161Y-117944419D01*
X149434221Y-117938295D01*
X149421145Y-117931409D01*
X149403946Y-117923234D01*
X149381639Y-117913241D01*
X149353237Y-117900901D01*
X149327658Y-117889924D01*
X149246166Y-117855042D01*
X149246166Y-117391739D01*
X149341522Y-117350955D01*
X149368947Y-117339022D01*
X149394548Y-117327504D01*
X149417031Y-117317011D01*
X149435105Y-117308156D01*
X149447478Y-117301548D01*
X149451798Y-117298789D01*
X149470230Y-117280694D01*
X149482512Y-117258684D01*
X149489219Y-117231516D01*
X149490691Y-117215040D01*
X149491217Y-117196727D01*
X149490340Y-117183701D01*
X149487531Y-117172825D01*
X149482261Y-117160964D01*
X149481224Y-117158903D01*
X149464909Y-117135526D01*
X149443404Y-117117990D01*
X149418077Y-117106779D01*
X149390297Y-117102379D01*
X149361430Y-117105275D01*
X149344748Y-117110482D01*
X149336032Y-117114117D01*
X149320371Y-117120856D01*
X149298390Y-117130420D01*
X149270714Y-117142531D01*
X149237971Y-117156912D01*
X149200785Y-117173285D01*
X149159782Y-117191373D01*
X149115589Y-117210896D01*
X149068831Y-117231579D01*
X149034998Y-117246560D01*
X149034998Y-117479939D01*
X149035910Y-117483668D01*
X149036732Y-117494991D01*
X149037444Y-117513035D01*
X149038021Y-117536925D01*
X149038442Y-117565790D01*
X149038683Y-117598756D01*
X149038733Y-117623267D01*
X149038672Y-117663544D01*
X149038473Y-117696036D01*
X149038110Y-117721423D01*
X149037558Y-117740388D01*
X149036791Y-117753611D01*
X149035785Y-117761772D01*
X149034514Y-117765553D01*
X149033441Y-117765953D01*
X149019988Y-117760587D01*
X149001109Y-117752844D01*
X148977766Y-117743135D01*
X148950925Y-117731874D01*
X148921548Y-117719473D01*
X148890599Y-117706343D01*
X148859043Y-117692897D01*
X148827842Y-117679546D01*
X148797961Y-117666704D01*
X148770364Y-117654781D01*
X148746013Y-117644191D01*
X148725873Y-117635346D01*
X148710908Y-117628656D01*
X148702081Y-117624536D01*
X148700067Y-117623387D01*
X148703807Y-117621411D01*
X148714383Y-117616561D01*
X148730829Y-117609249D01*
X148752180Y-117599891D01*
X148777469Y-117588899D01*
X148805730Y-117576686D01*
X148835998Y-117563668D01*
X148867307Y-117550257D01*
X148898691Y-117536867D01*
X148929183Y-117523912D01*
X148957819Y-117511805D01*
X148983632Y-117500961D01*
X149005656Y-117491792D01*
X149022925Y-117484713D01*
X149034474Y-117480138D01*
X149034998Y-117479939D01*
X149034998Y-117246560D01*
X149020134Y-117253142D01*
X148970123Y-117275307D01*
X148919425Y-117297798D01*
X148868664Y-117320337D01*
X148818468Y-117342645D01*
X148769462Y-117364444D01*
X148722272Y-117385458D01*
X148677522Y-117405407D01*
X148635841Y-117424015D01*
X148597852Y-117441004D01*
X148564182Y-117456095D01*
X148535456Y-117469011D01*
X148512302Y-117479474D01*
X148495343Y-117487207D01*
X148485206Y-117491931D01*
X148482959Y-117493042D01*
X148457732Y-117509647D01*
X148437973Y-117530589D01*
X148421896Y-117557783D01*
X148421095Y-117559473D01*
X148415965Y-117571424D01*
X148412714Y-117582503D01*
X148410934Y-117595247D01*
X148410214Y-117612189D01*
X148410121Y-117627400D01*
X148410390Y-117648644D01*
G36*
X148418378Y-119180357D02*
X148426627Y-119207755D01*
X148442585Y-119232340D01*
X148450389Y-119240793D01*
X148455443Y-119245992D01*
X148459941Y-119250624D01*
X148464378Y-119254719D01*
X148469246Y-119258312D01*
X148475038Y-119261435D01*
X148482247Y-119264120D01*
X148491367Y-119266401D01*
X148502890Y-119268311D01*
X148517309Y-119269881D01*
X148535117Y-119271146D01*
X148556807Y-119272137D01*
X148582872Y-119272888D01*
X148613805Y-119273431D01*
X148650100Y-119273800D01*
X148692248Y-119274026D01*
X148740744Y-119274143D01*
X148796079Y-119274184D01*
X148858748Y-119274181D01*
X148929242Y-119274168D01*
X148951950Y-119274166D01*
X149024766Y-119274174D01*
X149089610Y-119274175D01*
X149146976Y-119274142D01*
X149197358Y-119274043D01*
X149241250Y-119273848D01*
X149279148Y-119273529D01*
X149311545Y-119273054D01*
X149338936Y-119272394D01*
X149361814Y-119271519D01*
X149380675Y-119270400D01*
X149396012Y-119269005D01*
X149408320Y-119267305D01*
X149418094Y-119265271D01*
X149425826Y-119262872D01*
X149432013Y-119260078D01*
X149437148Y-119256860D01*
X149441725Y-119253187D01*
X149446239Y-119249030D01*
X149451184Y-119244359D01*
X149451675Y-119243905D01*
X149469481Y-119224529D01*
X149481089Y-119204026D01*
X149487390Y-119180198D01*
X149489273Y-119151180D01*
X149486974Y-119120450D01*
X149479425Y-119094422D01*
X149465673Y-119070978D01*
X149444762Y-119048001D01*
X149441334Y-119044815D01*
X149434306Y-119038903D01*
X149421065Y-119028286D01*
X149402143Y-119013375D01*
X149378072Y-118994582D01*
X149349385Y-118972319D01*
X149316613Y-118946997D01*
X149280290Y-118919027D01*
X149240948Y-118888822D01*
X149199119Y-118856791D01*
X149155335Y-118823347D01*
X149116411Y-118793683D01*
X148816131Y-118565083D01*
X149112641Y-118562966D01*
X149170247Y-118562543D01*
X149220002Y-118562141D01*
X149262521Y-118561743D01*
X149298418Y-118561327D01*
X149328309Y-118560876D01*
X149352807Y-118560371D01*
X149372530Y-118559792D01*
X149388091Y-118559120D01*
X149400105Y-118558336D01*
X149409188Y-118557421D01*
X149415955Y-118556356D01*
X149421020Y-118555121D01*
X149424999Y-118553698D01*
X149426083Y-118553227D01*
X149451370Y-118537418D01*
X149471114Y-118515819D01*
X149484575Y-118489612D01*
X149491015Y-118459978D01*
X149491473Y-118448666D01*
X149490457Y-118431131D01*
X149487980Y-118414336D01*
X149485485Y-118404756D01*
X149472301Y-118379982D01*
X149452279Y-118358965D01*
X149432553Y-118346008D01*
X149410300Y-118334366D01*
X148960991Y-118334390D01*
X148878063Y-118334437D01*
X148803106Y-118334568D01*
X148736174Y-118334784D01*
X148677322Y-118335082D01*
X148626602Y-118335464D01*
X148584068Y-118335927D01*
X148549774Y-118336473D01*
X148523773Y-118337100D01*
X148506119Y-118337808D01*
X148496865Y-118338596D01*
X148495915Y-118338793D01*
X148474681Y-118348381D01*
X148454577Y-118364023D01*
X148438286Y-118383449D01*
X148433598Y-118391461D01*
X148429022Y-118401048D01*
X148425951Y-118410054D01*
X148424089Y-118420499D01*
X148423140Y-118434405D01*
X148422809Y-118453795D01*
X148422783Y-118465505D01*
X148422898Y-118487929D01*
X148423443Y-118503824D01*
X148424721Y-118515127D01*
X148427034Y-118523775D01*
X148430684Y-118531705D01*
X148434019Y-118537566D01*
X148444341Y-118552700D01*
X148456785Y-118567864D01*
X148461032Y-118572341D01*
X148466713Y-118577220D01*
X148478624Y-118586819D01*
X148496252Y-118600741D01*
X148519083Y-118618590D01*
X148546604Y-118639966D01*
X148578300Y-118664474D01*
X148613657Y-118691716D01*
X148652162Y-118721293D01*
X148693301Y-118752810D01*
X148736560Y-118785868D01*
X148775763Y-118815758D01*
X149074716Y-119043450D01*
X148782617Y-119045566D01*
X148724061Y-119046016D01*
X148673414Y-119046467D01*
X148630117Y-119046934D01*
X148593611Y-119047431D01*
X148563337Y-119047974D01*
X148538738Y-119048578D01*
X148519255Y-119049257D01*
X148504330Y-119050026D01*
X148493403Y-119050900D01*
X148485917Y-119051894D01*
X148481313Y-119053024D01*
X148479933Y-119053635D01*
X148453298Y-119072784D01*
X148433975Y-119096191D01*
X148421922Y-119123922D01*
X148417491Y-119149184D01*
X148418378Y-119180357D01*
X148418378Y-119180357D01*
G37*
X148418378Y-119180357D02*
X148426627Y-119207755D01*
X148442585Y-119232340D01*
X148450389Y-119240793D01*
X148455443Y-119245992D01*
X148459941Y-119250624D01*
X148464378Y-119254719D01*
X148469246Y-119258312D01*
X148475038Y-119261435D01*
X148482247Y-119264120D01*
X148491367Y-119266401D01*
X148502890Y-119268311D01*
X148517309Y-119269881D01*
X148535117Y-119271146D01*
X148556807Y-119272137D01*
X148582872Y-119272888D01*
X148613805Y-119273431D01*
X148650100Y-119273800D01*
X148692248Y-119274026D01*
X148740744Y-119274143D01*
X148796079Y-119274184D01*
X148858748Y-119274181D01*
X148929242Y-119274168D01*
X148951950Y-119274166D01*
X149024766Y-119274174D01*
X149089610Y-119274175D01*
X149146976Y-119274142D01*
X149197358Y-119274043D01*
X149241250Y-119273848D01*
X149279148Y-119273529D01*
X149311545Y-119273054D01*
X149338936Y-119272394D01*
X149361814Y-119271519D01*
X149380675Y-119270400D01*
X149396012Y-119269005D01*
X149408320Y-119267305D01*
X149418094Y-119265271D01*
X149425826Y-119262872D01*
X149432013Y-119260078D01*
X149437148Y-119256860D01*
X149441725Y-119253187D01*
X149446239Y-119249030D01*
X149451184Y-119244359D01*
X149451675Y-119243905D01*
X149469481Y-119224529D01*
X149481089Y-119204026D01*
X149487390Y-119180198D01*
X149489273Y-119151180D01*
X149486974Y-119120450D01*
X149479425Y-119094422D01*
X149465673Y-119070978D01*
X149444762Y-119048001D01*
X149441334Y-119044815D01*
X149434306Y-119038903D01*
X149421065Y-119028286D01*
X149402143Y-119013375D01*
X149378072Y-118994582D01*
X149349385Y-118972319D01*
X149316613Y-118946997D01*
X149280290Y-118919027D01*
X149240948Y-118888822D01*
X149199119Y-118856791D01*
X149155335Y-118823347D01*
X149116411Y-118793683D01*
X148816131Y-118565083D01*
X149112641Y-118562966D01*
X149170247Y-118562543D01*
X149220002Y-118562141D01*
X149262521Y-118561743D01*
X149298418Y-118561327D01*
X149328309Y-118560876D01*
X149352807Y-118560371D01*
X149372530Y-118559792D01*
X149388091Y-118559120D01*
X149400105Y-118558336D01*
X149409188Y-118557421D01*
X149415955Y-118556356D01*
X149421020Y-118555121D01*
X149424999Y-118553698D01*
X149426083Y-118553227D01*
X149451370Y-118537418D01*
X149471114Y-118515819D01*
X149484575Y-118489612D01*
X149491015Y-118459978D01*
X149491473Y-118448666D01*
X149490457Y-118431131D01*
X149487980Y-118414336D01*
X149485485Y-118404756D01*
X149472301Y-118379982D01*
X149452279Y-118358965D01*
X149432553Y-118346008D01*
X149410300Y-118334366D01*
X148960991Y-118334390D01*
X148878063Y-118334437D01*
X148803106Y-118334568D01*
X148736174Y-118334784D01*
X148677322Y-118335082D01*
X148626602Y-118335464D01*
X148584068Y-118335927D01*
X148549774Y-118336473D01*
X148523773Y-118337100D01*
X148506119Y-118337808D01*
X148496865Y-118338596D01*
X148495915Y-118338793D01*
X148474681Y-118348381D01*
X148454577Y-118364023D01*
X148438286Y-118383449D01*
X148433598Y-118391461D01*
X148429022Y-118401048D01*
X148425951Y-118410054D01*
X148424089Y-118420499D01*
X148423140Y-118434405D01*
X148422809Y-118453795D01*
X148422783Y-118465505D01*
X148422898Y-118487929D01*
X148423443Y-118503824D01*
X148424721Y-118515127D01*
X148427034Y-118523775D01*
X148430684Y-118531705D01*
X148434019Y-118537566D01*
X148444341Y-118552700D01*
X148456785Y-118567864D01*
X148461032Y-118572341D01*
X148466713Y-118577220D01*
X148478624Y-118586819D01*
X148496252Y-118600741D01*
X148519083Y-118618590D01*
X148546604Y-118639966D01*
X148578300Y-118664474D01*
X148613657Y-118691716D01*
X148652162Y-118721293D01*
X148693301Y-118752810D01*
X148736560Y-118785868D01*
X148775763Y-118815758D01*
X149074716Y-119043450D01*
X148782617Y-119045566D01*
X148724061Y-119046016D01*
X148673414Y-119046467D01*
X148630117Y-119046934D01*
X148593611Y-119047431D01*
X148563337Y-119047974D01*
X148538738Y-119048578D01*
X148519255Y-119049257D01*
X148504330Y-119050026D01*
X148493403Y-119050900D01*
X148485917Y-119051894D01*
X148481313Y-119053024D01*
X148479933Y-119053635D01*
X148453298Y-119072784D01*
X148433975Y-119096191D01*
X148421922Y-119123922D01*
X148417491Y-119149184D01*
X148418378Y-119180357D01*
G36*
X148419131Y-120860739D02*
X148420980Y-120875328D01*
X148424632Y-120887046D01*
X148427962Y-120893986D01*
X148445786Y-120919352D01*
X148468850Y-120939446D01*
X148484119Y-120948077D01*
X148487252Y-120949479D01*
X148490569Y-120950725D01*
X148494565Y-120951823D01*
X148499732Y-120952783D01*
X148506565Y-120953614D01*
X148515557Y-120954325D01*
X148527203Y-120954927D01*
X148541997Y-120955427D01*
X148560432Y-120955835D01*
X148583002Y-120956161D01*
X148610201Y-120956414D01*
X148642523Y-120956603D01*
X148680462Y-120956738D01*
X148724512Y-120956827D01*
X148775167Y-120956880D01*
X148832920Y-120956906D01*
X148898266Y-120956916D01*
X148954066Y-120956917D01*
X149404917Y-120956917D01*
X149429172Y-120945006D01*
X149455077Y-120928125D01*
X149474084Y-120906350D01*
X149486144Y-120879764D01*
X149491209Y-120848450D01*
X149491366Y-120838687D01*
X149490121Y-120821263D01*
X149487290Y-120804305D01*
X149484963Y-120795892D01*
X149471647Y-120770790D01*
X149451322Y-120749859D01*
X149429172Y-120735994D01*
X149404917Y-120724083D01*
X148954066Y-120724083D01*
X148882142Y-120724091D01*
X148818198Y-120724119D01*
X148761748Y-120724174D01*
X148712304Y-120724265D01*
X148669380Y-120724399D01*
X148632490Y-120724583D01*
X148601147Y-120724824D01*
X148574864Y-120725131D01*
X148553155Y-120725510D01*
X148535532Y-120725970D01*
X148521511Y-120726518D01*
X148510603Y-120727160D01*
X148502322Y-120727906D01*
X148496182Y-120728762D01*
X148491695Y-120729735D01*
X148488376Y-120730834D01*
X148487343Y-120731275D01*
X148460911Y-120746808D01*
X148440719Y-120767089D01*
X148430874Y-120782273D01*
X148424622Y-120794560D01*
X148420920Y-120805504D01*
X148419128Y-120818136D01*
X148418608Y-120835487D01*
X148418601Y-120840500D01*
X148419131Y-120860739D01*
X148419131Y-120860739D01*
G37*
X148419131Y-120860739D02*
X148420980Y-120875328D01*
X148424632Y-120887046D01*
X148427962Y-120893986D01*
X148445786Y-120919352D01*
X148468850Y-120939446D01*
X148484119Y-120948077D01*
X148487252Y-120949479D01*
X148490569Y-120950725D01*
X148494565Y-120951823D01*
X148499732Y-120952783D01*
X148506565Y-120953614D01*
X148515557Y-120954325D01*
X148527203Y-120954927D01*
X148541997Y-120955427D01*
X148560432Y-120955835D01*
X148583002Y-120956161D01*
X148610201Y-120956414D01*
X148642523Y-120956603D01*
X148680462Y-120956738D01*
X148724512Y-120956827D01*
X148775167Y-120956880D01*
X148832920Y-120956906D01*
X148898266Y-120956916D01*
X148954066Y-120956917D01*
X149404917Y-120956917D01*
X149429172Y-120945006D01*
X149455077Y-120928125D01*
X149474084Y-120906350D01*
X149486144Y-120879764D01*
X149491209Y-120848450D01*
X149491366Y-120838687D01*
X149490121Y-120821263D01*
X149487290Y-120804305D01*
X149484963Y-120795892D01*
X149471647Y-120770790D01*
X149451322Y-120749859D01*
X149429172Y-120735994D01*
X149404917Y-120724083D01*
X148954066Y-120724083D01*
X148882142Y-120724091D01*
X148818198Y-120724119D01*
X148761748Y-120724174D01*
X148712304Y-120724265D01*
X148669380Y-120724399D01*
X148632490Y-120724583D01*
X148601147Y-120724824D01*
X148574864Y-120725131D01*
X148553155Y-120725510D01*
X148535532Y-120725970D01*
X148521511Y-120726518D01*
X148510603Y-120727160D01*
X148502322Y-120727906D01*
X148496182Y-120728762D01*
X148491695Y-120729735D01*
X148488376Y-120730834D01*
X148487343Y-120731275D01*
X148460911Y-120746808D01*
X148440719Y-120767089D01*
X148430874Y-120782273D01*
X148424622Y-120794560D01*
X148420920Y-120805504D01*
X148419128Y-120818136D01*
X148418608Y-120835487D01*
X148418601Y-120840500D01*
X148419131Y-120860739D01*
G36*
X148425520Y-121665450D02*
X148425951Y-121700121D01*
X148426696Y-121729591D01*
X148427795Y-121754675D01*
X148429288Y-121776188D01*
X148431216Y-121794948D01*
X148433619Y-121811770D01*
X148436536Y-121827469D01*
X148440008Y-121842862D01*
X148441847Y-121850240D01*
X148457512Y-121896994D01*
X148479178Y-121939214D01*
X148506260Y-121976249D01*
X148538173Y-122007449D01*
X148574331Y-122032163D01*
X148614149Y-122049741D01*
X148624088Y-122052798D01*
X148665428Y-122060685D01*
X148709585Y-122062362D01*
X148753726Y-122057921D01*
X148795018Y-122047459D01*
X148796184Y-122047053D01*
X148831802Y-122030255D01*
X148865537Y-122005885D01*
X148896336Y-121974797D01*
X148914719Y-121950761D01*
X148930011Y-121928557D01*
X148949615Y-121968242D01*
X148972842Y-122009780D01*
X148998069Y-122043693D01*
X149026203Y-122070753D01*
X149058150Y-122091732D01*
X149094819Y-122107400D01*
X149122618Y-122115343D01*
X149141622Y-122118312D01*
X149166250Y-122119913D01*
X149193777Y-122120188D01*
X149221481Y-122119176D01*
X149246635Y-122116916D01*
X149266515Y-122113448D01*
X149267333Y-122113240D01*
X149310872Y-122097806D01*
X149349904Y-122075291D01*
X149384238Y-122045900D01*
X149413680Y-122009836D01*
X149438036Y-121967306D01*
X149457113Y-121918514D01*
X149459934Y-121909208D01*
X149464607Y-121892611D01*
X149468609Y-121876835D01*
X149471992Y-121861083D01*
X149474807Y-121844561D01*
X149477104Y-121826476D01*
X149478934Y-121806032D01*
X149480349Y-121782434D01*
X149481399Y-121754889D01*
X149482135Y-121722601D01*
X149482608Y-121684776D01*
X149482869Y-121640620D01*
X149482968Y-121589337D01*
X149482970Y-121549583D01*
X149482901Y-121495463D01*
X149482738Y-121449241D01*
X149482470Y-121410347D01*
X149482083Y-121378213D01*
X149481565Y-121352271D01*
X149480904Y-121331951D01*
X149480086Y-121316686D01*
X149479099Y-121305905D01*
X149477931Y-121299040D01*
X149477393Y-121297213D01*
X149463782Y-121270879D01*
X149444073Y-121249179D01*
X149419686Y-121233379D01*
X149397196Y-121225714D01*
X149390145Y-121224869D01*
X149377191Y-121224136D01*
X149358081Y-121223514D01*
X149332563Y-121222999D01*
X149300384Y-121222591D01*
X149280643Y-121222438D01*
X149280643Y-121450100D01*
X149279024Y-121616258D01*
X149278561Y-121659428D01*
X149278065Y-121694998D01*
X149277494Y-121723838D01*
X149276809Y-121746815D01*
X149275969Y-121764798D01*
X149274933Y-121778653D01*
X149273660Y-121789250D01*
X149272110Y-121797456D01*
X149270241Y-121804138D01*
X149270214Y-121804222D01*
X149257672Y-121832937D01*
X149241076Y-121856499D01*
X149221461Y-121873539D01*
X149215155Y-121877167D01*
X149186663Y-121887362D01*
X149157976Y-121889633D01*
X149130363Y-121884391D01*
X149105095Y-121872045D01*
X149083443Y-121853004D01*
X149067637Y-121829593D01*
X149062645Y-121818945D01*
X149058527Y-121807688D01*
X149055202Y-121794917D01*
X149052588Y-121779727D01*
X149050604Y-121761213D01*
X149049168Y-121738471D01*
X149048198Y-121710595D01*
X149047614Y-121676680D01*
X149047333Y-121635822D01*
X149047273Y-121603558D01*
X149047200Y-121450100D01*
X149280643Y-121450100D01*
X149280643Y-121222438D01*
X149261292Y-121222288D01*
X149215033Y-121222087D01*
X149161355Y-121221986D01*
X149100006Y-121221984D01*
X149030733Y-121222080D01*
X148953282Y-121222270D01*
X148941366Y-121222305D01*
X148852467Y-121222573D01*
X148852467Y-121450100D01*
X148852393Y-121576042D01*
X148852241Y-121617339D01*
X148851812Y-121651087D01*
X148851071Y-121678200D01*
X148849980Y-121699592D01*
X148848502Y-121716177D01*
X148846601Y-121728870D01*
X148846164Y-121731039D01*
X148835918Y-121763938D01*
X148820645Y-121790785D01*
X148800794Y-121811153D01*
X148776817Y-121824617D01*
X148749163Y-121830752D01*
X148740283Y-121831100D01*
X148711887Y-121827208D01*
X148686884Y-121815891D01*
X148665792Y-121797686D01*
X148649127Y-121773131D01*
X148637405Y-121742762D01*
X148632499Y-121718917D01*
X148631375Y-121706780D01*
X148630357Y-121687625D01*
X148629487Y-121662901D01*
X148628807Y-121634056D01*
X148628359Y-121602539D01*
X148628184Y-121569797D01*
X148628184Y-121569692D01*
X148628100Y-121450100D01*
X148852467Y-121450100D01*
X148852467Y-121222573D01*
X148507450Y-121223617D01*
X148486283Y-121234839D01*
X148467105Y-121246687D01*
X148452845Y-121260211D01*
X148440667Y-121278298D01*
X148437019Y-121285000D01*
X148427017Y-121304050D01*
X148425712Y-121522067D01*
X148425441Y-121577238D01*
X148425364Y-121624761D01*
X148425520Y-121665450D01*
X148425520Y-121665450D01*
G37*
X148425520Y-121665450D02*
X148425951Y-121700121D01*
X148426696Y-121729591D01*
X148427795Y-121754675D01*
X148429288Y-121776188D01*
X148431216Y-121794948D01*
X148433619Y-121811770D01*
X148436536Y-121827469D01*
X148440008Y-121842862D01*
X148441847Y-121850240D01*
X148457512Y-121896994D01*
X148479178Y-121939214D01*
X148506260Y-121976249D01*
X148538173Y-122007449D01*
X148574331Y-122032163D01*
X148614149Y-122049741D01*
X148624088Y-122052798D01*
X148665428Y-122060685D01*
X148709585Y-122062362D01*
X148753726Y-122057921D01*
X148795018Y-122047459D01*
X148796184Y-122047053D01*
X148831802Y-122030255D01*
X148865537Y-122005885D01*
X148896336Y-121974797D01*
X148914719Y-121950761D01*
X148930011Y-121928557D01*
X148949615Y-121968242D01*
X148972842Y-122009780D01*
X148998069Y-122043693D01*
X149026203Y-122070753D01*
X149058150Y-122091732D01*
X149094819Y-122107400D01*
X149122618Y-122115343D01*
X149141622Y-122118312D01*
X149166250Y-122119913D01*
X149193777Y-122120188D01*
X149221481Y-122119176D01*
X149246635Y-122116916D01*
X149266515Y-122113448D01*
X149267333Y-122113240D01*
X149310872Y-122097806D01*
X149349904Y-122075291D01*
X149384238Y-122045900D01*
X149413680Y-122009836D01*
X149438036Y-121967306D01*
X149457113Y-121918514D01*
X149459934Y-121909208D01*
X149464607Y-121892611D01*
X149468609Y-121876835D01*
X149471992Y-121861083D01*
X149474807Y-121844561D01*
X149477104Y-121826476D01*
X149478934Y-121806032D01*
X149480349Y-121782434D01*
X149481399Y-121754889D01*
X149482135Y-121722601D01*
X149482608Y-121684776D01*
X149482869Y-121640620D01*
X149482968Y-121589337D01*
X149482970Y-121549583D01*
X149482901Y-121495463D01*
X149482738Y-121449241D01*
X149482470Y-121410347D01*
X149482083Y-121378213D01*
X149481565Y-121352271D01*
X149480904Y-121331951D01*
X149480086Y-121316686D01*
X149479099Y-121305905D01*
X149477931Y-121299040D01*
X149477393Y-121297213D01*
X149463782Y-121270879D01*
X149444073Y-121249179D01*
X149419686Y-121233379D01*
X149397196Y-121225714D01*
X149390145Y-121224869D01*
X149377191Y-121224136D01*
X149358081Y-121223514D01*
X149332563Y-121222999D01*
X149300384Y-121222591D01*
X149280643Y-121222438D01*
X149280643Y-121450100D01*
X149279024Y-121616258D01*
X149278561Y-121659428D01*
X149278065Y-121694998D01*
X149277494Y-121723838D01*
X149276809Y-121746815D01*
X149275969Y-121764798D01*
X149274933Y-121778653D01*
X149273660Y-121789250D01*
X149272110Y-121797456D01*
X149270241Y-121804138D01*
X149270214Y-121804222D01*
X149257672Y-121832937D01*
X149241076Y-121856499D01*
X149221461Y-121873539D01*
X149215155Y-121877167D01*
X149186663Y-121887362D01*
X149157976Y-121889633D01*
X149130363Y-121884391D01*
X149105095Y-121872045D01*
X149083443Y-121853004D01*
X149067637Y-121829593D01*
X149062645Y-121818945D01*
X149058527Y-121807688D01*
X149055202Y-121794917D01*
X149052588Y-121779727D01*
X149050604Y-121761213D01*
X149049168Y-121738471D01*
X149048198Y-121710595D01*
X149047614Y-121676680D01*
X149047333Y-121635822D01*
X149047273Y-121603558D01*
X149047200Y-121450100D01*
X149280643Y-121450100D01*
X149280643Y-121222438D01*
X149261292Y-121222288D01*
X149215033Y-121222087D01*
X149161355Y-121221986D01*
X149100006Y-121221984D01*
X149030733Y-121222080D01*
X148953282Y-121222270D01*
X148941366Y-121222305D01*
X148852467Y-121222573D01*
X148852467Y-121450100D01*
X148852393Y-121576042D01*
X148852241Y-121617339D01*
X148851812Y-121651087D01*
X148851071Y-121678200D01*
X148849980Y-121699592D01*
X148848502Y-121716177D01*
X148846601Y-121728870D01*
X148846164Y-121731039D01*
X148835918Y-121763938D01*
X148820645Y-121790785D01*
X148800794Y-121811153D01*
X148776817Y-121824617D01*
X148749163Y-121830752D01*
X148740283Y-121831100D01*
X148711887Y-121827208D01*
X148686884Y-121815891D01*
X148665792Y-121797686D01*
X148649127Y-121773131D01*
X148637405Y-121742762D01*
X148632499Y-121718917D01*
X148631375Y-121706780D01*
X148630357Y-121687625D01*
X148629487Y-121662901D01*
X148628807Y-121634056D01*
X148628359Y-121602539D01*
X148628184Y-121569797D01*
X148628184Y-121569692D01*
X148628100Y-121450100D01*
X148852467Y-121450100D01*
X148852467Y-121222573D01*
X148507450Y-121223617D01*
X148486283Y-121234839D01*
X148467105Y-121246687D01*
X148452845Y-121260211D01*
X148440667Y-121278298D01*
X148437019Y-121285000D01*
X148427017Y-121304050D01*
X148425712Y-121522067D01*
X148425441Y-121577238D01*
X148425364Y-121624761D01*
X148425520Y-121665450D01*
G36*
X148419005Y-122456341D02*
X148429091Y-122483981D01*
X148446314Y-122508866D01*
X148450488Y-122513257D01*
X148455897Y-122518777D01*
X148460769Y-122523651D01*
X148465636Y-122527920D01*
X148471031Y-122531624D01*
X148477487Y-122534802D01*
X148485536Y-122537495D01*
X148495711Y-122539743D01*
X148508544Y-122541586D01*
X148524569Y-122543063D01*
X148544318Y-122544216D01*
X148568323Y-122545083D01*
X148597118Y-122545705D01*
X148631234Y-122546122D01*
X148671205Y-122546374D01*
X148717563Y-122546502D01*
X148770841Y-122546544D01*
X148831572Y-122546541D01*
X148893314Y-122546533D01*
X149271291Y-122546533D01*
X149272487Y-122778308D01*
X149272752Y-122828473D01*
X149273007Y-122870882D01*
X149273282Y-122906246D01*
X149273606Y-122935276D01*
X149274010Y-122958682D01*
X149274523Y-122977176D01*
X149275176Y-122991467D01*
X149275998Y-123002268D01*
X149277018Y-123010288D01*
X149278268Y-123016239D01*
X149279776Y-123020830D01*
X149281573Y-123024774D01*
X149282959Y-123027417D01*
X149299659Y-123050169D01*
X149321556Y-123067364D01*
X149347063Y-123078516D01*
X149374595Y-123083137D01*
X149402565Y-123080739D01*
X149427455Y-123071846D01*
X149445432Y-123059362D01*
X149461839Y-123042146D01*
X149474157Y-123023119D01*
X149478320Y-123012799D01*
X149479403Y-123004903D01*
X149480356Y-122989450D01*
X149481181Y-122967289D01*
X149481878Y-122939273D01*
X149482450Y-122906250D01*
X149482898Y-122869071D01*
X149483223Y-122828587D01*
X149483427Y-122785648D01*
X149483513Y-122741104D01*
X149483480Y-122695806D01*
X149483331Y-122650604D01*
X149483067Y-122606349D01*
X149482690Y-122563890D01*
X149482201Y-122524079D01*
X149481602Y-122487765D01*
X149480895Y-122455800D01*
X149480080Y-122429033D01*
X149479160Y-122408315D01*
X149478136Y-122394496D01*
X149477193Y-122388833D01*
X149466192Y-122367015D01*
X149450363Y-122346854D01*
X149436956Y-122335073D01*
X149432281Y-122331705D01*
X149427926Y-122328711D01*
X149423392Y-122326068D01*
X149418181Y-122323755D01*
X149411792Y-122321749D01*
X149403728Y-122320029D01*
X149393487Y-122318573D01*
X149380573Y-122317359D01*
X149364484Y-122316364D01*
X149344723Y-122315568D01*
X149320790Y-122314948D01*
X149292186Y-122314482D01*
X149258411Y-122314148D01*
X149218967Y-122313925D01*
X149173355Y-122313790D01*
X149121075Y-122313722D01*
X149061627Y-122313699D01*
X148994514Y-122313698D01*
X148950055Y-122313700D01*
X148877267Y-122313688D01*
X148812452Y-122313673D01*
X148755116Y-122313690D01*
X148704766Y-122313772D01*
X148660908Y-122313951D01*
X148623048Y-122314261D01*
X148590693Y-122314734D01*
X148563349Y-122315406D01*
X148540522Y-122316308D01*
X148521720Y-122317473D01*
X148506447Y-122318936D01*
X148494210Y-122320729D01*
X148484517Y-122322886D01*
X148476873Y-122325439D01*
X148470784Y-122328423D01*
X148465757Y-122331870D01*
X148461298Y-122335813D01*
X148456914Y-122340286D01*
X148452111Y-122345322D01*
X148450098Y-122347365D01*
X148431603Y-122371458D01*
X148420258Y-122398623D01*
X148416060Y-122427403D01*
X148419005Y-122456341D01*
X148419005Y-122456341D01*
G37*
X148419005Y-122456341D02*
X148429091Y-122483981D01*
X148446314Y-122508866D01*
X148450488Y-122513257D01*
X148455897Y-122518777D01*
X148460769Y-122523651D01*
X148465636Y-122527920D01*
X148471031Y-122531624D01*
X148477487Y-122534802D01*
X148485536Y-122537495D01*
X148495711Y-122539743D01*
X148508544Y-122541586D01*
X148524569Y-122543063D01*
X148544318Y-122544216D01*
X148568323Y-122545083D01*
X148597118Y-122545705D01*
X148631234Y-122546122D01*
X148671205Y-122546374D01*
X148717563Y-122546502D01*
X148770841Y-122546544D01*
X148831572Y-122546541D01*
X148893314Y-122546533D01*
X149271291Y-122546533D01*
X149272487Y-122778308D01*
X149272752Y-122828473D01*
X149273007Y-122870882D01*
X149273282Y-122906246D01*
X149273606Y-122935276D01*
X149274010Y-122958682D01*
X149274523Y-122977176D01*
X149275176Y-122991467D01*
X149275998Y-123002268D01*
X149277018Y-123010288D01*
X149278268Y-123016239D01*
X149279776Y-123020830D01*
X149281573Y-123024774D01*
X149282959Y-123027417D01*
X149299659Y-123050169D01*
X149321556Y-123067364D01*
X149347063Y-123078516D01*
X149374595Y-123083137D01*
X149402565Y-123080739D01*
X149427455Y-123071846D01*
X149445432Y-123059362D01*
X149461839Y-123042146D01*
X149474157Y-123023119D01*
X149478320Y-123012799D01*
X149479403Y-123004903D01*
X149480356Y-122989450D01*
X149481181Y-122967289D01*
X149481878Y-122939273D01*
X149482450Y-122906250D01*
X149482898Y-122869071D01*
X149483223Y-122828587D01*
X149483427Y-122785648D01*
X149483513Y-122741104D01*
X149483480Y-122695806D01*
X149483331Y-122650604D01*
X149483067Y-122606349D01*
X149482690Y-122563890D01*
X149482201Y-122524079D01*
X149481602Y-122487765D01*
X149480895Y-122455800D01*
X149480080Y-122429033D01*
X149479160Y-122408315D01*
X149478136Y-122394496D01*
X149477193Y-122388833D01*
X149466192Y-122367015D01*
X149450363Y-122346854D01*
X149436956Y-122335073D01*
X149432281Y-122331705D01*
X149427926Y-122328711D01*
X149423392Y-122326068D01*
X149418181Y-122323755D01*
X149411792Y-122321749D01*
X149403728Y-122320029D01*
X149393487Y-122318573D01*
X149380573Y-122317359D01*
X149364484Y-122316364D01*
X149344723Y-122315568D01*
X149320790Y-122314948D01*
X149292186Y-122314482D01*
X149258411Y-122314148D01*
X149218967Y-122313925D01*
X149173355Y-122313790D01*
X149121075Y-122313722D01*
X149061627Y-122313699D01*
X148994514Y-122313698D01*
X148950055Y-122313700D01*
X148877267Y-122313688D01*
X148812452Y-122313673D01*
X148755116Y-122313690D01*
X148704766Y-122313772D01*
X148660908Y-122313951D01*
X148623048Y-122314261D01*
X148590693Y-122314734D01*
X148563349Y-122315406D01*
X148540522Y-122316308D01*
X148521720Y-122317473D01*
X148506447Y-122318936D01*
X148494210Y-122320729D01*
X148484517Y-122322886D01*
X148476873Y-122325439D01*
X148470784Y-122328423D01*
X148465757Y-122331870D01*
X148461298Y-122335813D01*
X148456914Y-122340286D01*
X148452111Y-122345322D01*
X148450098Y-122347365D01*
X148431603Y-122371458D01*
X148420258Y-122398623D01*
X148416060Y-122427403D01*
X148419005Y-122456341D01*
G36*
X148427019Y-123717989D02*
X148427037Y-123770314D01*
X148427087Y-123815345D01*
X148427184Y-123853667D01*
X148427343Y-123885866D01*
X148427580Y-123912529D01*
X148427911Y-123934241D01*
X148428351Y-123951588D01*
X148428916Y-123965157D01*
X148429622Y-123975534D01*
X148430484Y-123983304D01*
X148431518Y-123989053D01*
X148432739Y-123993368D01*
X148434164Y-123996835D01*
X148435807Y-124000039D01*
X148436154Y-124000683D01*
X148453069Y-124024071D01*
X148474475Y-124041445D01*
X148498968Y-124052575D01*
X148525146Y-124057231D01*
X148551606Y-124055186D01*
X148576944Y-124046209D01*
X148599758Y-124030073D01*
X148602117Y-124027786D01*
X148608197Y-124021667D01*
X148613401Y-124015940D01*
X148617798Y-124009925D01*
X148621456Y-124002946D01*
X148624442Y-123994326D01*
X148626824Y-123983386D01*
X148628672Y-123969448D01*
X148630052Y-123951836D01*
X148631033Y-123929871D01*
X148631683Y-123902877D01*
X148632070Y-123870174D01*
X148632262Y-123831087D01*
X148632327Y-123784936D01*
X148632333Y-123731045D01*
X148632333Y-123482100D01*
X148848233Y-123482100D01*
X148848326Y-123696942D01*
X148848351Y-123747224D01*
X148848431Y-123789775D01*
X148848648Y-123825330D01*
X148849082Y-123854625D01*
X148849812Y-123878395D01*
X148850919Y-123897376D01*
X148852484Y-123912304D01*
X148854586Y-123923913D01*
X148857307Y-123932939D01*
X148860725Y-123940118D01*
X148864923Y-123946185D01*
X148869980Y-123951876D01*
X148875976Y-123957926D01*
X148876930Y-123958878D01*
X148896369Y-123974577D01*
X148917805Y-123983853D01*
X148943530Y-123987589D01*
X148951950Y-123987762D01*
X148979976Y-123985043D01*
X149003095Y-123976422D01*
X149023150Y-123961105D01*
X149029427Y-123954426D01*
X149035072Y-123947745D01*
X149039844Y-123941118D01*
X149043816Y-123933802D01*
X149047062Y-123925057D01*
X149049654Y-123914140D01*
X149051667Y-123900310D01*
X149053172Y-123882826D01*
X149054244Y-123860946D01*
X149054956Y-123833928D01*
X149055380Y-123801032D01*
X149055591Y-123761515D01*
X149055661Y-123714636D01*
X149055666Y-123688765D01*
X149055666Y-123482100D01*
X149275800Y-123482100D01*
X149275800Y-123726865D01*
X149275806Y-123781932D01*
X149275871Y-123829207D01*
X149276065Y-123869361D01*
X149276456Y-123903068D01*
X149277114Y-123931003D01*
X149278109Y-123953837D01*
X149279509Y-123972245D01*
X149281384Y-123986899D01*
X149283803Y-123998474D01*
X149286836Y-124007642D01*
X149290552Y-124015077D01*
X149295021Y-124021452D01*
X149300311Y-124027440D01*
X149306492Y-124033716D01*
X149307506Y-124034729D01*
X149329562Y-124051471D01*
X149354214Y-124061326D01*
X149380077Y-124064623D01*
X149405763Y-124061690D01*
X149429887Y-124052857D01*
X149451063Y-124038454D01*
X149467904Y-124018809D01*
X149479023Y-123994251D01*
X149479097Y-123993993D01*
X149479886Y-123986941D01*
X149480594Y-123971823D01*
X149481217Y-123949037D01*
X149481750Y-123918984D01*
X149482189Y-123882063D01*
X149482529Y-123838673D01*
X149482766Y-123789213D01*
X149482894Y-123734084D01*
X149482911Y-123673685D01*
X149482899Y-123659928D01*
X149482819Y-123599340D01*
X149482705Y-123546639D01*
X149482546Y-123501241D01*
X149482330Y-123462568D01*
X149482044Y-123430037D01*
X149481678Y-123403068D01*
X149481218Y-123381080D01*
X149480653Y-123363492D01*
X149479971Y-123349722D01*
X149479159Y-123339190D01*
X149478207Y-123331315D01*
X149477101Y-123325516D01*
X149475919Y-123321460D01*
X149464800Y-123300682D01*
X149447667Y-123281284D01*
X149426925Y-123265551D01*
X149407605Y-123256556D01*
X149403409Y-123255366D01*
X149398334Y-123254313D01*
X149391874Y-123253387D01*
X149383520Y-123252581D01*
X149372766Y-123251887D01*
X149359103Y-123251296D01*
X149342024Y-123250801D01*
X149321021Y-123250393D01*
X149295587Y-123250064D01*
X149265214Y-123249805D01*
X149229394Y-123249610D01*
X149187620Y-123249469D01*
X149139384Y-123249375D01*
X149084178Y-123249319D01*
X149021494Y-123249294D01*
X148954639Y-123249290D01*
X148875684Y-123249338D01*
X148804048Y-123249472D01*
X148739854Y-123249691D01*
X148683228Y-123249994D01*
X148634295Y-123250380D01*
X148593182Y-123250846D01*
X148560013Y-123251393D01*
X148534913Y-123252019D01*
X148518008Y-123252722D01*
X148509424Y-123253502D01*
X148508816Y-123253637D01*
X148484065Y-123264442D01*
X148461369Y-123281644D01*
X148443299Y-123303189D01*
X148440073Y-123308533D01*
X148427017Y-123331817D01*
X148427017Y-123657783D01*
X148427019Y-123717989D01*
X148427019Y-123717989D01*
G37*
X148427019Y-123717989D02*
X148427037Y-123770314D01*
X148427087Y-123815345D01*
X148427184Y-123853667D01*
X148427343Y-123885866D01*
X148427580Y-123912529D01*
X148427911Y-123934241D01*
X148428351Y-123951588D01*
X148428916Y-123965157D01*
X148429622Y-123975534D01*
X148430484Y-123983304D01*
X148431518Y-123989053D01*
X148432739Y-123993368D01*
X148434164Y-123996835D01*
X148435807Y-124000039D01*
X148436154Y-124000683D01*
X148453069Y-124024071D01*
X148474475Y-124041445D01*
X148498968Y-124052575D01*
X148525146Y-124057231D01*
X148551606Y-124055186D01*
X148576944Y-124046209D01*
X148599758Y-124030073D01*
X148602117Y-124027786D01*
X148608197Y-124021667D01*
X148613401Y-124015940D01*
X148617798Y-124009925D01*
X148621456Y-124002946D01*
X148624442Y-123994326D01*
X148626824Y-123983386D01*
X148628672Y-123969448D01*
X148630052Y-123951836D01*
X148631033Y-123929871D01*
X148631683Y-123902877D01*
X148632070Y-123870174D01*
X148632262Y-123831087D01*
X148632327Y-123784936D01*
X148632333Y-123731045D01*
X148632333Y-123482100D01*
X148848233Y-123482100D01*
X148848326Y-123696942D01*
X148848351Y-123747224D01*
X148848431Y-123789775D01*
X148848648Y-123825330D01*
X148849082Y-123854625D01*
X148849812Y-123878395D01*
X148850919Y-123897376D01*
X148852484Y-123912304D01*
X148854586Y-123923913D01*
X148857307Y-123932939D01*
X148860725Y-123940118D01*
X148864923Y-123946185D01*
X148869980Y-123951876D01*
X148875976Y-123957926D01*
X148876930Y-123958878D01*
X148896369Y-123974577D01*
X148917805Y-123983853D01*
X148943530Y-123987589D01*
X148951950Y-123987762D01*
X148979976Y-123985043D01*
X149003095Y-123976422D01*
X149023150Y-123961105D01*
X149029427Y-123954426D01*
X149035072Y-123947745D01*
X149039844Y-123941118D01*
X149043816Y-123933802D01*
X149047062Y-123925057D01*
X149049654Y-123914140D01*
X149051667Y-123900310D01*
X149053172Y-123882826D01*
X149054244Y-123860946D01*
X149054956Y-123833928D01*
X149055380Y-123801032D01*
X149055591Y-123761515D01*
X149055661Y-123714636D01*
X149055666Y-123688765D01*
X149055666Y-123482100D01*
X149275800Y-123482100D01*
X149275800Y-123726865D01*
X149275806Y-123781932D01*
X149275871Y-123829207D01*
X149276065Y-123869361D01*
X149276456Y-123903068D01*
X149277114Y-123931003D01*
X149278109Y-123953837D01*
X149279509Y-123972245D01*
X149281384Y-123986899D01*
X149283803Y-123998474D01*
X149286836Y-124007642D01*
X149290552Y-124015077D01*
X149295021Y-124021452D01*
X149300311Y-124027440D01*
X149306492Y-124033716D01*
X149307506Y-124034729D01*
X149329562Y-124051471D01*
X149354214Y-124061326D01*
X149380077Y-124064623D01*
X149405763Y-124061690D01*
X149429887Y-124052857D01*
X149451063Y-124038454D01*
X149467904Y-124018809D01*
X149479023Y-123994251D01*
X149479097Y-123993993D01*
X149479886Y-123986941D01*
X149480594Y-123971823D01*
X149481217Y-123949037D01*
X149481750Y-123918984D01*
X149482189Y-123882063D01*
X149482529Y-123838673D01*
X149482766Y-123789213D01*
X149482894Y-123734084D01*
X149482911Y-123673685D01*
X149482899Y-123659928D01*
X149482819Y-123599340D01*
X149482705Y-123546639D01*
X149482546Y-123501241D01*
X149482330Y-123462568D01*
X149482044Y-123430037D01*
X149481678Y-123403068D01*
X149481218Y-123381080D01*
X149480653Y-123363492D01*
X149479971Y-123349722D01*
X149479159Y-123339190D01*
X149478207Y-123331315D01*
X149477101Y-123325516D01*
X149475919Y-123321460D01*
X149464800Y-123300682D01*
X149447667Y-123281284D01*
X149426925Y-123265551D01*
X149407605Y-123256556D01*
X149403409Y-123255366D01*
X149398334Y-123254313D01*
X149391874Y-123253387D01*
X149383520Y-123252581D01*
X149372766Y-123251887D01*
X149359103Y-123251296D01*
X149342024Y-123250801D01*
X149321021Y-123250393D01*
X149295587Y-123250064D01*
X149265214Y-123249805D01*
X149229394Y-123249610D01*
X149187620Y-123249469D01*
X149139384Y-123249375D01*
X149084178Y-123249319D01*
X149021494Y-123249294D01*
X148954639Y-123249290D01*
X148875684Y-123249338D01*
X148804048Y-123249472D01*
X148739854Y-123249691D01*
X148683228Y-123249994D01*
X148634295Y-123250380D01*
X148593182Y-123250846D01*
X148560013Y-123251393D01*
X148534913Y-123252019D01*
X148518008Y-123252722D01*
X148509424Y-123253502D01*
X148508816Y-123253637D01*
X148484065Y-123264442D01*
X148461369Y-123281644D01*
X148443299Y-123303189D01*
X148440073Y-123308533D01*
X148427017Y-123331817D01*
X148427017Y-123657783D01*
X148427019Y-123717989D01*
D11*
X163123333Y-115784381D02*
X162885238Y-116784381D01*
X162694761Y-116070095D01*
X162504285Y-116784381D01*
X162266190Y-115784381D01*
X161885238Y-116784381D02*
X161885238Y-115784381D01*
X161456666Y-116784381D02*
X161456666Y-116260571D01*
X161504285Y-116165333D01*
X161599523Y-116117714D01*
X161742381Y-116117714D01*
X161837619Y-116165333D01*
X161885238Y-116212952D01*
X160980476Y-116784381D02*
X160980476Y-116117714D01*
X160980476Y-115784381D02*
X161028095Y-115832000D01*
X160980476Y-115879619D01*
X160932857Y-115832000D01*
X160980476Y-115784381D01*
X160980476Y-115879619D01*
X160647143Y-116117714D02*
X160266191Y-116117714D01*
X160504286Y-115784381D02*
X160504286Y-116641524D01*
X160456667Y-116736762D01*
X160361429Y-116784381D01*
X160266191Y-116784381D01*
X159551904Y-116736762D02*
X159647142Y-116784381D01*
X159837619Y-116784381D01*
X159932857Y-116736762D01*
X159980476Y-116641524D01*
X159980476Y-116260571D01*
X159932857Y-116165333D01*
X159837619Y-116117714D01*
X159647142Y-116117714D01*
X159551904Y-116165333D01*
X159504285Y-116260571D01*
X159504285Y-116355810D01*
X159980476Y-116451048D01*
X153713905Y-127212381D02*
X153713905Y-128021905D01*
X153666286Y-128117143D01*
X153618667Y-128164762D01*
X153523429Y-128212381D01*
X153332952Y-128212381D01*
X153237714Y-128164762D01*
X153190095Y-128117143D01*
X153142476Y-128021905D01*
X153142476Y-127212381D01*
X152142476Y-128212381D02*
X152713905Y-128212381D01*
X152428191Y-128212381D02*
X152428191Y-127212381D01*
X152523429Y-127355238D01*
X152618667Y-127450476D01*
X152713905Y-127498095D01*
%LPC*%
D14*
X161711000Y-118872000D03*
D15*
X164211000Y-118872000D03*
D16*
X156210000Y-118110000D03*
D17*
X158750000Y-118110000D03*
D18*
X161671000Y-113030000D03*
D19*
X164211000Y-113030000D03*
D20*
X154813000Y-131445000D03*
D21*
X154813000Y-128905000D03*
X157353000Y-131445000D03*
X157353000Y-128905000D03*
X159893000Y-131445000D03*
X159893000Y-128905000D03*
D22*
X150876000Y-109855000D03*
X148336000Y-109855000D03*
D23*
X154730000Y-125095000D03*
D24*
X154730000Y-122555000D03*
X160230000Y-122555000D03*
X160230000Y-125095000D03*
D10*
G36*
X142988713Y-121340582D02*
X141925113Y-119498372D01*
X144031287Y-118282372D01*
X145094887Y-120124582D01*
X142988713Y-121340582D01*
X142988713Y-121340582D01*
G37*
D25*
X144648018Y-122087382D02*
X144911982Y-121934982D01*
X145918018Y-124287086D02*
X146181982Y-124134686D01*
X147188018Y-126486791D02*
X147451982Y-126334391D01*
X148458018Y-128686495D02*
X148721982Y-128534095D01*
X149728018Y-130886200D02*
X149991982Y-130733800D01*
D10*
G36*
X169865113Y-120124582D02*
X170928713Y-118282372D01*
X173034887Y-119498372D01*
X171971287Y-121340582D01*
X169865113Y-120124582D01*
X169865113Y-120124582D01*
G37*
D25*
X170048018Y-121934982D02*
X170311982Y-122087382D01*
X168778018Y-124134686D02*
X169041982Y-124287086D01*
X167508018Y-126334391D02*
X167771982Y-126486791D01*
X166238018Y-128534095D02*
X166501982Y-128686495D01*
X164968018Y-130733800D02*
X165231982Y-130886200D01*
D26*
X167386000Y-113665000D03*
D27*
X167386000Y-116205000D03*
X167386000Y-118745000D03*
M02*
