G04 #@! TF.FileFunction,Copper,L2,Bot,Signal*
%FSLAX46Y46*%
G04 Gerber Fmt 4.6, Leading zero omitted, Abs format (unit mm)*
G04 Created by KiCad (PCBNEW 4.0.2-stable) date Wednesday, September 07, 2016 'amt' 02:23:24 am*
%MOMM*%
G01*
G04 APERTURE LIST*
%ADD10C,0.100000*%
%ADD11R,1.300000X1.300000*%
%ADD12C,1.300000*%
%ADD13R,2.000000X2.000000*%
%ADD14C,2.000000*%
%ADD15O,1.998980X1.998980*%
%ADD16R,1.998980X1.998980*%
%ADD17R,1.727200X1.727200*%
%ADD18O,1.727200X1.727200*%
%ADD19C,1.397000*%
%ADD20R,1.600000X1.600000*%
%ADD21C,1.600000*%
%ADD22C,1.727200*%
%ADD23R,2.032000X1.727200*%
%ADD24O,2.032000X1.727200*%
%ADD25C,0.685800*%
%ADD26C,0.152400*%
%ADD27C,0.200000*%
G04 APERTURE END LIST*
D10*
D11*
X161711000Y-118872000D03*
D12*
X164211000Y-118872000D03*
D13*
X156210000Y-118110000D03*
D14*
X158750000Y-118110000D03*
D15*
X161671000Y-113030000D03*
D16*
X164211000Y-113030000D03*
D17*
X154813000Y-131445000D03*
D18*
X154813000Y-128905000D03*
X157353000Y-131445000D03*
X157353000Y-128905000D03*
X159893000Y-131445000D03*
X159893000Y-128905000D03*
D19*
X150876000Y-109855000D03*
X148336000Y-109855000D03*
D20*
X154730000Y-125095000D03*
D21*
X154730000Y-122555000D03*
X160230000Y-122555000D03*
X160230000Y-125095000D03*
D10*
G36*
X143061918Y-121067377D02*
X142198318Y-119571577D01*
X143958082Y-118555577D01*
X144821682Y-120051377D01*
X143061918Y-121067377D01*
X143061918Y-121067377D01*
G37*
D22*
X144648018Y-122087382D02*
X144911982Y-121934982D01*
X145918018Y-124287086D02*
X146181982Y-124134686D01*
X147188018Y-126486791D02*
X147451982Y-126334391D01*
X148458018Y-128686495D02*
X148721982Y-128534095D01*
X149728018Y-130886200D02*
X149991982Y-130733800D01*
D10*
G36*
X170138318Y-120051377D02*
X171001918Y-118555577D01*
X172761682Y-119571577D01*
X171898082Y-121067377D01*
X170138318Y-120051377D01*
X170138318Y-120051377D01*
G37*
D22*
X170048018Y-121934982D02*
X170311982Y-122087382D01*
X168778018Y-124134686D02*
X169041982Y-124287086D01*
X167508018Y-126334391D02*
X167771982Y-126486791D01*
X166238018Y-128534095D02*
X166501982Y-128686495D01*
X164968018Y-130733800D02*
X165231982Y-130886200D01*
D23*
X167386000Y-113665000D03*
D24*
X167386000Y-116205000D03*
X167386000Y-118745000D03*
D25*
X158877000Y-123698000D03*
X159766000Y-126873000D03*
X155575000Y-126873000D03*
X152908000Y-109728000D03*
X151638000Y-113792000D03*
X162306000Y-129286000D03*
X164211000Y-128016000D03*
X162052000Y-124841000D03*
X162306000Y-131826000D03*
X155321000Y-120396000D03*
X146685000Y-121158000D03*
X145563134Y-119380000D03*
X143383000Y-116713000D03*
X142240000Y-118364000D03*
X147193000Y-114427000D03*
X168783000Y-120269000D03*
X170053000Y-118110000D03*
X172720000Y-118110000D03*
X171450000Y-116205000D03*
X170180000Y-114554000D03*
X169164000Y-112649000D03*
X166116000Y-111125000D03*
X167894000Y-111125000D03*
X167132000Y-109601000D03*
X165354000Y-109601000D03*
X163449000Y-109601000D03*
X161417000Y-109601000D03*
X159512000Y-109601000D03*
X163703000Y-121412000D03*
X162052000Y-121539000D03*
X161417000Y-120142000D03*
X162941000Y-120142000D03*
X164465000Y-120142000D03*
X148209000Y-122555000D03*
X155956000Y-113919000D03*
X150622000Y-125349004D03*
X149860000Y-127254010D03*
X151637988Y-131572000D03*
X152654000Y-130556000D03*
X148844000Y-125857008D03*
X149606006Y-124206000D03*
X149370308Y-114350998D03*
X152654000Y-115824000D03*
D26*
X161711000Y-118364000D02*
X161711000Y-118110000D01*
X161711000Y-118110000D02*
X161711000Y-112435000D01*
X161711000Y-118872000D02*
X161711000Y-118110000D01*
X159766000Y-126873000D02*
X159004000Y-126111000D01*
X159004000Y-126111000D02*
X159004000Y-123952000D01*
X159004000Y-123952000D02*
X158877000Y-123825000D01*
X158877000Y-123825000D02*
X158877000Y-123698000D01*
X154813000Y-128905000D02*
X155676599Y-128041401D01*
X155676599Y-126974599D02*
X155575000Y-126873000D01*
X155676599Y-128041401D02*
X155676599Y-126974599D01*
X152908000Y-109728000D02*
X152908000Y-112522000D01*
X152908000Y-112522000D02*
X151638000Y-113792000D01*
X161711000Y-112435000D02*
X161671000Y-112395000D01*
X155956000Y-113919000D02*
X158708091Y-111166909D01*
X158708091Y-111166909D02*
X164134799Y-111166909D01*
X165100000Y-117983000D02*
X164211000Y-118872000D01*
X164134799Y-111166909D02*
X164211000Y-111243110D01*
X164211000Y-111243110D02*
X164211000Y-114554000D01*
X164211000Y-114554000D02*
X165100000Y-115443000D01*
X165100000Y-115443000D02*
X165100000Y-117983000D01*
X164211000Y-118364000D02*
X164211000Y-118872000D01*
X164211000Y-118872000D02*
X165862000Y-120523000D01*
X165862000Y-120523000D02*
X167005000Y-120523000D01*
X167005000Y-120523000D02*
X167386000Y-120142000D01*
X164211000Y-118364000D02*
X164211000Y-118745000D01*
X160401000Y-122555000D02*
X160230000Y-122555000D01*
X164211000Y-118745000D02*
X160401000Y-122555000D01*
X163703000Y-119380000D02*
X164211000Y-118872000D01*
X162306000Y-131826000D02*
X162306000Y-129286000D01*
X162052000Y-125857000D02*
X164211000Y-128016000D01*
X162052000Y-124841000D02*
X162052000Y-125857000D01*
X162052000Y-124841000D02*
X162052000Y-121539000D01*
X155321000Y-120396000D02*
X155321000Y-121964000D01*
X155321000Y-121964000D02*
X154730000Y-122555000D01*
X148209000Y-122555000D02*
X146812000Y-121158000D01*
X146812000Y-121158000D02*
X146685000Y-121158000D01*
X144780000Y-122011182D02*
X145252182Y-121539000D01*
X145252182Y-121539000D02*
X147193000Y-121539000D01*
X147193000Y-121539000D02*
X148209000Y-122555000D01*
X145563134Y-121228048D02*
X145563134Y-119380000D01*
X145563134Y-119380000D02*
X145563134Y-118893134D01*
X144907000Y-116713000D02*
X143383000Y-116713000D01*
X147193000Y-114427000D02*
X144907000Y-116713000D01*
X145563134Y-118893134D02*
X143383000Y-116713000D01*
X144780000Y-122011182D02*
X145563134Y-121228048D01*
X145034000Y-115570000D02*
X146050000Y-115570000D01*
X146050000Y-115570000D02*
X147193000Y-114427000D01*
X142240000Y-118364000D02*
X145034000Y-115570000D01*
X167513000Y-120142000D02*
X167894000Y-120523000D01*
X167894000Y-120523000D02*
X168783000Y-121412000D01*
X168783000Y-120269000D02*
X168148000Y-120269000D01*
X168148000Y-120269000D02*
X167894000Y-120523000D01*
X172720000Y-118110000D02*
X170053000Y-118110000D01*
X170180000Y-114554000D02*
X171450000Y-115824000D01*
X171450000Y-115824000D02*
X171450000Y-116205000D01*
X166116000Y-111125000D02*
X167640000Y-111125000D01*
X167640000Y-111125000D02*
X169164000Y-112649000D01*
X167132000Y-109601000D02*
X167132000Y-110363000D01*
X167132000Y-110363000D02*
X167894000Y-111125000D01*
X163449000Y-109601000D02*
X165354000Y-109601000D01*
X159512000Y-109601000D02*
X161417000Y-109601000D01*
X163703000Y-121412000D02*
X161373000Y-121412000D01*
X161373000Y-121412000D02*
X160230000Y-122555000D01*
X161417000Y-120142000D02*
X161417000Y-120904000D01*
X161417000Y-120904000D02*
X162052000Y-121539000D01*
X164465000Y-120142000D02*
X162941000Y-120142000D01*
X148209000Y-122555000D02*
X149098000Y-123444000D01*
X149098000Y-123444000D02*
X153841000Y-123444000D01*
X153841000Y-123444000D02*
X154730000Y-122555000D01*
X167386000Y-120142000D02*
X167513000Y-120142000D01*
X170180000Y-122011182D02*
X169580818Y-121412000D01*
X169580818Y-121412000D02*
X168783000Y-121412000D01*
X163830000Y-128905000D02*
X159893000Y-128905000D01*
X168783000Y-121412000D02*
X165100000Y-125095000D01*
X165100000Y-125095000D02*
X165100000Y-127635000D01*
X165100000Y-127635000D02*
X163830000Y-128905000D01*
X160230000Y-122555000D02*
X160230000Y-122599000D01*
X167386000Y-120142000D02*
X167386000Y-118745000D01*
X156210000Y-118110000D02*
X156210000Y-120015000D01*
X156210000Y-120015000D02*
X155702000Y-120523000D01*
X155702000Y-120523000D02*
X155702000Y-121583000D01*
X155702000Y-121583000D02*
X154730000Y-122555000D01*
X156210000Y-118110000D02*
X156210000Y-114173000D01*
X156210000Y-114173000D02*
X155956000Y-113919000D01*
X150622000Y-126492010D02*
X150622000Y-125349004D01*
X149860000Y-127254010D02*
X150622000Y-126492010D01*
X151638000Y-131572000D02*
X151637988Y-131572000D01*
X152654000Y-130556000D02*
X151638000Y-131572000D01*
X148844000Y-124968006D02*
X148844000Y-125857008D01*
X149606006Y-124206000D02*
X148844000Y-124968006D01*
X150843310Y-115824000D02*
X149370308Y-114350998D01*
X152654000Y-115824000D02*
X150843310Y-115824000D01*
D27*
G36*
X173634201Y-118624196D02*
X173063763Y-119611821D01*
X173058202Y-119496499D01*
X173005631Y-119387052D01*
X172914620Y-119306680D01*
X171154856Y-118290680D01*
X171048118Y-118253209D01*
X170926840Y-118259057D01*
X170817392Y-118311628D01*
X170737021Y-118402639D01*
X169873421Y-119898439D01*
X169835950Y-120005177D01*
X169841798Y-120126455D01*
X169894369Y-120235902D01*
X169985380Y-120316274D01*
X171745144Y-121332274D01*
X171851882Y-121369745D01*
X171973160Y-121363897D01*
X172081977Y-121311629D01*
X171380353Y-122526380D01*
X171322257Y-122492838D01*
X171443929Y-122356939D01*
X171469270Y-121967354D01*
X171335244Y-121533616D01*
X171045436Y-121184184D01*
X170857615Y-121145519D01*
X170390368Y-121954814D01*
X170407688Y-121964814D01*
X170253688Y-122231550D01*
X170236368Y-122221550D01*
X169769121Y-123030845D01*
X169896517Y-123174171D01*
X170344038Y-123250436D01*
X170786679Y-123149637D01*
X171111399Y-122932898D01*
X171168255Y-122759578D01*
X171226304Y-122793093D01*
X170146297Y-124662955D01*
X170217955Y-124451858D01*
X170188261Y-123998816D01*
X169987456Y-123591623D01*
X169646111Y-123292270D01*
X169337490Y-123114088D01*
X168907571Y-122968150D01*
X168454529Y-122997844D01*
X168047336Y-123198649D01*
X167747983Y-123539995D01*
X167602045Y-123969914D01*
X167631739Y-124422956D01*
X167832544Y-124830149D01*
X168173890Y-125129502D01*
X168482510Y-125307684D01*
X168912429Y-125453622D01*
X169365471Y-125423928D01*
X169772665Y-125223123D01*
X169919380Y-125055827D01*
X168877037Y-126860479D01*
X168947955Y-126651563D01*
X168918261Y-126198521D01*
X168717456Y-125791328D01*
X168376111Y-125491975D01*
X168067490Y-125313793D01*
X167637571Y-125167855D01*
X167184529Y-125197549D01*
X166777336Y-125398354D01*
X166477983Y-125739700D01*
X166332045Y-126169619D01*
X166361739Y-126622661D01*
X166562544Y-127029854D01*
X166903890Y-127329207D01*
X167212510Y-127507389D01*
X167642429Y-127653327D01*
X168095471Y-127623633D01*
X168502665Y-127422828D01*
X168647859Y-127257266D01*
X167607777Y-129058005D01*
X167677955Y-128851267D01*
X167648261Y-128398225D01*
X167447456Y-127991032D01*
X167106111Y-127691679D01*
X166797490Y-127513497D01*
X166367571Y-127367559D01*
X165914529Y-127397253D01*
X165507336Y-127598058D01*
X165207983Y-127939404D01*
X165062045Y-128369323D01*
X165091739Y-128822365D01*
X165292544Y-129229558D01*
X165633890Y-129528911D01*
X165942510Y-129707093D01*
X166372429Y-129853031D01*
X166825471Y-129823337D01*
X167232665Y-129622532D01*
X167376339Y-129458703D01*
X166338517Y-131255530D01*
X166407955Y-131050972D01*
X166378261Y-130597930D01*
X166177456Y-130190737D01*
X165836111Y-129891384D01*
X165527490Y-129713202D01*
X165097571Y-129567264D01*
X164644529Y-129596958D01*
X164237336Y-129797763D01*
X163937983Y-130139109D01*
X163792045Y-130569028D01*
X163821739Y-131022070D01*
X164022544Y-131429263D01*
X164363890Y-131728616D01*
X164672510Y-131906798D01*
X165102429Y-132052736D01*
X165555471Y-132023042D01*
X165962665Y-131822237D01*
X166104818Y-131660142D01*
X165304944Y-133045000D01*
X149655056Y-133045000D01*
X148855178Y-131660137D01*
X148997336Y-131822237D01*
X149404529Y-132023042D01*
X149857571Y-132052736D01*
X150287490Y-131906798D01*
X150596111Y-131728616D01*
X150629516Y-131699320D01*
X150994977Y-131699320D01*
X151092646Y-131935698D01*
X151273339Y-132116706D01*
X151509546Y-132214788D01*
X151765308Y-132215011D01*
X152001686Y-132117342D01*
X152182694Y-131936649D01*
X152280776Y-131700442D01*
X152280985Y-131461043D01*
X152543225Y-131198803D01*
X152781320Y-131199011D01*
X153017698Y-131101342D01*
X153198706Y-130920649D01*
X153296788Y-130684442D01*
X153296877Y-130581400D01*
X153643523Y-130581400D01*
X153643523Y-132308600D01*
X153664442Y-132419773D01*
X153730145Y-132521879D01*
X153830397Y-132590378D01*
X153949400Y-132614477D01*
X155676600Y-132614477D01*
X155787773Y-132593558D01*
X155889879Y-132527855D01*
X155958378Y-132427603D01*
X155982477Y-132308600D01*
X155982477Y-131422204D01*
X156189400Y-131422204D01*
X156189400Y-131467796D01*
X156277974Y-131913086D01*
X156530211Y-132290585D01*
X156907710Y-132542822D01*
X157353000Y-132631396D01*
X157798290Y-132542822D01*
X158175789Y-132290585D01*
X158428026Y-131913086D01*
X158516600Y-131467796D01*
X158516600Y-131422204D01*
X158729400Y-131422204D01*
X158729400Y-131467796D01*
X158817974Y-131913086D01*
X159070211Y-132290585D01*
X159447710Y-132542822D01*
X159893000Y-132631396D01*
X160338290Y-132542822D01*
X160715789Y-132290585D01*
X160968026Y-131913086D01*
X161056600Y-131467796D01*
X161056600Y-131422204D01*
X160968026Y-130976914D01*
X160715789Y-130599415D01*
X160338290Y-130347178D01*
X159893000Y-130258604D01*
X159447710Y-130347178D01*
X159070211Y-130599415D01*
X158817974Y-130976914D01*
X158729400Y-131422204D01*
X158516600Y-131422204D01*
X158428026Y-130976914D01*
X158175789Y-130599415D01*
X157798290Y-130347178D01*
X157353000Y-130258604D01*
X156907710Y-130347178D01*
X156530211Y-130599415D01*
X156277974Y-130976914D01*
X156189400Y-131422204D01*
X155982477Y-131422204D01*
X155982477Y-130581400D01*
X155961558Y-130470227D01*
X155895855Y-130368121D01*
X155795603Y-130299622D01*
X155676600Y-130275523D01*
X153949400Y-130275523D01*
X153838227Y-130296442D01*
X153736121Y-130362145D01*
X153667622Y-130462397D01*
X153643523Y-130581400D01*
X153296877Y-130581400D01*
X153297011Y-130428680D01*
X153199342Y-130192302D01*
X153018649Y-130011294D01*
X152782442Y-129913212D01*
X152526680Y-129912989D01*
X152290302Y-130010658D01*
X152109294Y-130191351D01*
X152011212Y-130427558D01*
X152011003Y-130666969D01*
X151748775Y-130929197D01*
X151510668Y-130928989D01*
X151274290Y-131026658D01*
X151093282Y-131207351D01*
X150995200Y-131443558D01*
X150994977Y-131699320D01*
X150629516Y-131699320D01*
X150937456Y-131429263D01*
X151138261Y-131022070D01*
X151167955Y-130569028D01*
X151022017Y-130139108D01*
X150722665Y-129797763D01*
X150315471Y-129596958D01*
X149862429Y-129567264D01*
X149432510Y-129713202D01*
X149123890Y-129891384D01*
X148782544Y-130190737D01*
X148581739Y-130597930D01*
X148552045Y-131050972D01*
X148621484Y-131255533D01*
X147583657Y-129458698D01*
X147727336Y-129622532D01*
X148134529Y-129823337D01*
X148587571Y-129853031D01*
X149017490Y-129707093D01*
X149326111Y-129528911D01*
X149667456Y-129229558D01*
X149838751Y-128882204D01*
X153649400Y-128882204D01*
X153649400Y-128927796D01*
X153737974Y-129373086D01*
X153990211Y-129750585D01*
X154367710Y-130002822D01*
X154813000Y-130091396D01*
X155258290Y-130002822D01*
X155635789Y-129750585D01*
X155888026Y-129373086D01*
X155976600Y-128927796D01*
X155976600Y-128882204D01*
X156189400Y-128882204D01*
X156189400Y-128927796D01*
X156277974Y-129373086D01*
X156530211Y-129750585D01*
X156907710Y-130002822D01*
X157353000Y-130091396D01*
X157798290Y-130002822D01*
X158175789Y-129750585D01*
X158428026Y-129373086D01*
X158454989Y-129237532D01*
X158777912Y-129237532D01*
X158990048Y-129638945D01*
X159339650Y-129928622D01*
X159560470Y-130020073D01*
X159739000Y-129982652D01*
X159739000Y-129059000D01*
X160047000Y-129059000D01*
X160047000Y-129982652D01*
X160225530Y-130020073D01*
X160446350Y-129928622D01*
X160795952Y-129638945D01*
X161008088Y-129237532D01*
X160971379Y-129059000D01*
X160047000Y-129059000D01*
X159739000Y-129059000D01*
X158814621Y-129059000D01*
X158777912Y-129237532D01*
X158454989Y-129237532D01*
X158516600Y-128927796D01*
X158516600Y-128882204D01*
X158454990Y-128572468D01*
X158777912Y-128572468D01*
X158814621Y-128751000D01*
X159739000Y-128751000D01*
X159739000Y-127827348D01*
X160047000Y-127827348D01*
X160047000Y-128751000D01*
X160971379Y-128751000D01*
X161008088Y-128572468D01*
X160795952Y-128171055D01*
X160446350Y-127881378D01*
X160225530Y-127789927D01*
X160047000Y-127827348D01*
X159739000Y-127827348D01*
X159560470Y-127789927D01*
X159339650Y-127881378D01*
X158990048Y-128171055D01*
X158777912Y-128572468D01*
X158454990Y-128572468D01*
X158428026Y-128436914D01*
X158175789Y-128059415D01*
X157798290Y-127807178D01*
X157353000Y-127718604D01*
X156907710Y-127807178D01*
X156530211Y-128059415D01*
X156277974Y-128436914D01*
X156189400Y-128882204D01*
X155976600Y-128882204D01*
X155888026Y-128436914D01*
X155858020Y-128392007D01*
X155942610Y-128307417D01*
X155942613Y-128307415D01*
X156024162Y-128185367D01*
X156052799Y-128041401D01*
X156052799Y-127304440D01*
X156119706Y-127237649D01*
X156217788Y-127001442D01*
X156218011Y-126745680D01*
X156120342Y-126509302D01*
X155939649Y-126328294D01*
X155703442Y-126230212D01*
X155447680Y-126229989D01*
X155211302Y-126327658D01*
X155030294Y-126508351D01*
X154932212Y-126744558D01*
X154931989Y-127000320D01*
X155029658Y-127236698D01*
X155210351Y-127417706D01*
X155300399Y-127455097D01*
X155300399Y-127835314D01*
X155258290Y-127807178D01*
X154813000Y-127718604D01*
X154367710Y-127807178D01*
X153990211Y-128059415D01*
X153737974Y-128436914D01*
X153649400Y-128882204D01*
X149838751Y-128882204D01*
X149868261Y-128822365D01*
X149897955Y-128369323D01*
X149752017Y-127939403D01*
X149704972Y-127885758D01*
X149731558Y-127896798D01*
X149987320Y-127897021D01*
X150223698Y-127799352D01*
X150404706Y-127618659D01*
X150502788Y-127382452D01*
X150502997Y-127143041D01*
X150888011Y-126758026D01*
X150888014Y-126758024D01*
X150969563Y-126635976D01*
X150969564Y-126635975D01*
X150998201Y-126492010D01*
X150998200Y-126492005D01*
X150998200Y-125881866D01*
X151166706Y-125713653D01*
X151264788Y-125477446D01*
X151265011Y-125221684D01*
X151167342Y-124985306D01*
X150986649Y-124804298D01*
X150750442Y-124706216D01*
X150494680Y-124705993D01*
X150258302Y-124803662D01*
X150077294Y-124984355D01*
X149979212Y-125220562D01*
X149978989Y-125476324D01*
X150076658Y-125712702D01*
X150245800Y-125882139D01*
X150245800Y-126336183D01*
X149970776Y-126611207D01*
X149732680Y-126610999D01*
X149496302Y-126708668D01*
X149315294Y-126889361D01*
X149217212Y-127125568D01*
X149216989Y-127381330D01*
X149269144Y-127507556D01*
X149045471Y-127397253D01*
X148592429Y-127367559D01*
X148162510Y-127513497D01*
X147853890Y-127691679D01*
X147512544Y-127991032D01*
X147311739Y-128398225D01*
X147282045Y-128851267D01*
X147352224Y-129058008D01*
X146312138Y-127257262D01*
X146457336Y-127422828D01*
X146864529Y-127623633D01*
X147317571Y-127653327D01*
X147747490Y-127507389D01*
X148056111Y-127329207D01*
X148397456Y-127029854D01*
X148598261Y-126622661D01*
X148609208Y-126455636D01*
X148715558Y-126499796D01*
X148971320Y-126500019D01*
X149207698Y-126402350D01*
X149388706Y-126221657D01*
X149486788Y-125985450D01*
X149487011Y-125729688D01*
X149389342Y-125493310D01*
X149220200Y-125323873D01*
X149220200Y-125123834D01*
X149495230Y-124848803D01*
X149733326Y-124849011D01*
X149969704Y-124751342D01*
X150150712Y-124570649D01*
X150248794Y-124334442D01*
X150248828Y-124295000D01*
X153624123Y-124295000D01*
X153624123Y-125895000D01*
X153645042Y-126006173D01*
X153710745Y-126108279D01*
X153810997Y-126176778D01*
X153930000Y-126200877D01*
X155530000Y-126200877D01*
X155641173Y-126179958D01*
X155743279Y-126114255D01*
X155799507Y-126031961D01*
X155929732Y-126031961D01*
X156165208Y-126601857D01*
X156600849Y-127038260D01*
X157170333Y-127274730D01*
X157786961Y-127275268D01*
X158356857Y-127039792D01*
X158793260Y-126604151D01*
X158843685Y-126482713D01*
X159123197Y-126762224D01*
X159122989Y-127000320D01*
X159220658Y-127236698D01*
X159401351Y-127417706D01*
X159637558Y-127515788D01*
X159893320Y-127516011D01*
X160129698Y-127418342D01*
X160310706Y-127237649D01*
X160408788Y-127001442D01*
X160409011Y-126745680D01*
X160311342Y-126509302D01*
X160130649Y-126328294D01*
X159894442Y-126230212D01*
X159655031Y-126230003D01*
X159380200Y-125955172D01*
X159380200Y-125800709D01*
X159606087Y-126026991D01*
X160010237Y-126194808D01*
X160447844Y-126195190D01*
X160852286Y-126028078D01*
X161161991Y-125718913D01*
X161329808Y-125314763D01*
X161330190Y-124877156D01*
X161163078Y-124472714D01*
X160853913Y-124163009D01*
X160449763Y-123995192D01*
X160012156Y-123994810D01*
X159607714Y-124161922D01*
X159380200Y-124389039D01*
X159380200Y-124104083D01*
X159421706Y-124062649D01*
X159519788Y-123826442D01*
X159520011Y-123570680D01*
X159447778Y-123395861D01*
X159606928Y-123395861D01*
X159701602Y-123544278D01*
X160120403Y-123671183D01*
X160555891Y-123628160D01*
X160758398Y-123544278D01*
X160853072Y-123395861D01*
X160230000Y-122772789D01*
X159606928Y-123395861D01*
X159447778Y-123395861D01*
X159422342Y-123334302D01*
X159241649Y-123153294D01*
X159005442Y-123055212D01*
X158749680Y-123054989D01*
X158513302Y-123152658D01*
X158332294Y-123333351D01*
X158234212Y-123569558D01*
X158233989Y-123825320D01*
X158331658Y-124061698D01*
X158512351Y-124242706D01*
X158627800Y-124290645D01*
X158627800Y-124680859D01*
X158359151Y-124411740D01*
X157789667Y-124175270D01*
X157173039Y-124174732D01*
X156603143Y-124410208D01*
X156166740Y-124845849D01*
X155930270Y-125415333D01*
X155929732Y-126031961D01*
X155799507Y-126031961D01*
X155811778Y-126014003D01*
X155835877Y-125895000D01*
X155835877Y-124295000D01*
X155814958Y-124183827D01*
X155749255Y-124081721D01*
X155649003Y-124013222D01*
X155530000Y-123989123D01*
X153930000Y-123989123D01*
X153818827Y-124010042D01*
X153716721Y-124075745D01*
X153648222Y-124175997D01*
X153624123Y-124295000D01*
X150248828Y-124295000D01*
X150249017Y-124078680D01*
X150151348Y-123842302D01*
X149970655Y-123661294D01*
X149734448Y-123563212D01*
X149478686Y-123562989D01*
X149242308Y-123660658D01*
X149061300Y-123841351D01*
X148963218Y-124077558D01*
X148963009Y-124316969D01*
X148577986Y-124701992D01*
X148496437Y-124824040D01*
X148496437Y-124824041D01*
X148467799Y-124968006D01*
X148467800Y-124968011D01*
X148467800Y-125324146D01*
X148299294Y-125492359D01*
X148288308Y-125518816D01*
X148182665Y-125398354D01*
X147775471Y-125197549D01*
X147322429Y-125167855D01*
X146892510Y-125313793D01*
X146583890Y-125491975D01*
X146242544Y-125791328D01*
X146041739Y-126198521D01*
X146012045Y-126651563D01*
X146082963Y-126860482D01*
X145040618Y-125055823D01*
X145187336Y-125223123D01*
X145594529Y-125423928D01*
X146047571Y-125453622D01*
X146477490Y-125307684D01*
X146786111Y-125129502D01*
X147127456Y-124830149D01*
X147328261Y-124422956D01*
X147357955Y-123969914D01*
X147212017Y-123539994D01*
X147085616Y-123395861D01*
X154106928Y-123395861D01*
X154201602Y-123544278D01*
X154620403Y-123671183D01*
X155055891Y-123628160D01*
X155258398Y-123544278D01*
X155353072Y-123395861D01*
X154730000Y-122772789D01*
X154106928Y-123395861D01*
X147085616Y-123395861D01*
X146912665Y-123198649D01*
X146505471Y-122997844D01*
X146052429Y-122968150D01*
X145622510Y-123114088D01*
X145313890Y-123292270D01*
X144972544Y-123591623D01*
X144771739Y-123998816D01*
X144742045Y-124451858D01*
X144813702Y-124662955D01*
X143733696Y-122793093D01*
X143791745Y-122759578D01*
X143848601Y-122932898D01*
X144173321Y-123149637D01*
X144615962Y-123250436D01*
X145063483Y-123174171D01*
X145190879Y-123030845D01*
X144723632Y-122221550D01*
X144706312Y-122231550D01*
X144611627Y-122067550D01*
X144990368Y-122067550D01*
X145457615Y-122876845D01*
X145645436Y-122838180D01*
X145935244Y-122488748D01*
X145948637Y-122445403D01*
X153613817Y-122445403D01*
X153656840Y-122880891D01*
X153740722Y-123083398D01*
X153889139Y-123178072D01*
X154512211Y-122555000D01*
X154947789Y-122555000D01*
X155570861Y-123178072D01*
X155719278Y-123083398D01*
X155846183Y-122664597D01*
X155803442Y-122231961D01*
X155929732Y-122231961D01*
X156165208Y-122801857D01*
X156600849Y-123238260D01*
X157170333Y-123474730D01*
X157786961Y-123475268D01*
X158356857Y-123239792D01*
X158793260Y-122804151D01*
X158942224Y-122445403D01*
X159113817Y-122445403D01*
X159156840Y-122880891D01*
X159240722Y-123083398D01*
X159389139Y-123178072D01*
X160012211Y-122555000D01*
X160447789Y-122555000D01*
X161070861Y-123178072D01*
X161219278Y-123083398D01*
X161346183Y-122664597D01*
X161303160Y-122229109D01*
X161231046Y-122055010D01*
X168890730Y-122055010D01*
X169024756Y-122488748D01*
X169314564Y-122838180D01*
X169502385Y-122876845D01*
X169969632Y-122067550D01*
X169037744Y-121529524D01*
X168916071Y-121665425D01*
X168890730Y-122055010D01*
X161231046Y-122055010D01*
X161219278Y-122026602D01*
X161070861Y-121931928D01*
X160447789Y-122555000D01*
X160012211Y-122555000D01*
X159389139Y-121931928D01*
X159240722Y-122026602D01*
X159113817Y-122445403D01*
X158942224Y-122445403D01*
X159029730Y-122234667D01*
X159030184Y-121714139D01*
X159606928Y-121714139D01*
X160230000Y-122337211D01*
X160853072Y-121714139D01*
X160758398Y-121565722D01*
X160339597Y-121438817D01*
X159904109Y-121481840D01*
X159701602Y-121565722D01*
X159606928Y-121714139D01*
X159030184Y-121714139D01*
X159030268Y-121618039D01*
X158883482Y-121262788D01*
X169191744Y-121262788D01*
X170123632Y-121800814D01*
X170590879Y-120991519D01*
X170463483Y-120848193D01*
X170015962Y-120771928D01*
X169573321Y-120872727D01*
X169248601Y-121089466D01*
X169191744Y-121262788D01*
X158883482Y-121262788D01*
X158794792Y-121048143D01*
X158359151Y-120611740D01*
X157789667Y-120375270D01*
X157173039Y-120374732D01*
X156603143Y-120610208D01*
X156166740Y-121045849D01*
X155930270Y-121615333D01*
X155929732Y-122231961D01*
X155803442Y-122231961D01*
X155803160Y-122229109D01*
X155719278Y-122026602D01*
X155570861Y-121931928D01*
X154947789Y-122555000D01*
X154512211Y-122555000D01*
X153889139Y-121931928D01*
X153740722Y-122026602D01*
X153613817Y-122445403D01*
X145948637Y-122445403D01*
X146069270Y-122055010D01*
X146043929Y-121665425D01*
X145925755Y-121533432D01*
X152029861Y-121533432D01*
X152151397Y-121827572D01*
X152376245Y-122052812D01*
X152670172Y-122174861D01*
X152988432Y-122175139D01*
X153282572Y-122053603D01*
X153507812Y-121828755D01*
X153555404Y-121714139D01*
X154106928Y-121714139D01*
X154730000Y-122337211D01*
X155353072Y-121714139D01*
X155258398Y-121565722D01*
X154839597Y-121438817D01*
X154404109Y-121481840D01*
X154201602Y-121565722D01*
X154106928Y-121714139D01*
X153555404Y-121714139D01*
X153629861Y-121534828D01*
X153630139Y-121216568D01*
X153508603Y-120922428D01*
X153283755Y-120697188D01*
X152989828Y-120575139D01*
X152671568Y-120574861D01*
X152377428Y-120696397D01*
X152152188Y-120921245D01*
X152030139Y-121215172D01*
X152029861Y-121533432D01*
X145925755Y-121533432D01*
X145922256Y-121529524D01*
X144990368Y-122067550D01*
X144611627Y-122067550D01*
X144552312Y-121964814D01*
X144569632Y-121954814D01*
X144102385Y-121145519D01*
X143914564Y-121184184D01*
X143624756Y-121533616D01*
X143490730Y-121967354D01*
X143516071Y-122356939D01*
X143637743Y-122492838D01*
X143579646Y-122526380D01*
X142876596Y-121309158D01*
X142978677Y-121361710D01*
X143099747Y-121370906D01*
X143214856Y-121332274D01*
X143805061Y-120991519D01*
X144369121Y-120991519D01*
X144836368Y-121800814D01*
X145768256Y-121262788D01*
X145711399Y-121089466D01*
X145386679Y-120872727D01*
X144944038Y-120771928D01*
X144496517Y-120848193D01*
X144369121Y-120991519D01*
X143805061Y-120991519D01*
X144974620Y-120316274D01*
X145060440Y-120242572D01*
X145116015Y-120134618D01*
X145125211Y-120013548D01*
X145086579Y-119898439D01*
X144222979Y-118402639D01*
X144168326Y-118339000D01*
X154910000Y-118339000D01*
X154910000Y-119169674D01*
X154955672Y-119279937D01*
X155040064Y-119364328D01*
X155150327Y-119410000D01*
X155981000Y-119410000D01*
X156056000Y-119335000D01*
X156056000Y-118264000D01*
X154985000Y-118264000D01*
X154910000Y-118339000D01*
X144168326Y-118339000D01*
X144149277Y-118316819D01*
X144041323Y-118261244D01*
X143920253Y-118252048D01*
X143805144Y-118290680D01*
X142045380Y-119306680D01*
X141959560Y-119380382D01*
X141903985Y-119488336D01*
X141894795Y-119609324D01*
X141325798Y-118624195D01*
X142309465Y-117050326D01*
X154910000Y-117050326D01*
X154910000Y-117881000D01*
X154985000Y-117956000D01*
X156056000Y-117956000D01*
X156056000Y-116885000D01*
X156364000Y-116885000D01*
X156364000Y-117956000D01*
X156384000Y-117956000D01*
X156384000Y-118264000D01*
X156364000Y-118264000D01*
X156364000Y-119335000D01*
X156439000Y-119410000D01*
X157269673Y-119410000D01*
X157379936Y-119364328D01*
X157464328Y-119279937D01*
X157510000Y-119169674D01*
X157510000Y-118513209D01*
X157647271Y-118845429D01*
X158012647Y-119211444D01*
X158490279Y-119409774D01*
X159007452Y-119410226D01*
X159485429Y-119212729D01*
X159851444Y-118847353D01*
X160049774Y-118369721D01*
X160050226Y-117852548D01*
X159852729Y-117374571D01*
X159487353Y-117008556D01*
X159009721Y-116810226D01*
X158492548Y-116809774D01*
X158014571Y-117007271D01*
X157648556Y-117372647D01*
X157510000Y-117706327D01*
X157510000Y-117050326D01*
X157464328Y-116940063D01*
X157379936Y-116855672D01*
X157269673Y-116810000D01*
X156439000Y-116810000D01*
X156364000Y-116885000D01*
X156056000Y-116885000D01*
X155981000Y-116810000D01*
X155150327Y-116810000D01*
X155040064Y-116855672D01*
X154955672Y-116940063D01*
X154910000Y-117050326D01*
X142309465Y-117050326D01*
X143916970Y-114478318D01*
X148727297Y-114478318D01*
X148824966Y-114714696D01*
X149005659Y-114895704D01*
X149241866Y-114993786D01*
X149481277Y-114993995D01*
X150577294Y-116090011D01*
X150577296Y-116090014D01*
X150699344Y-116171563D01*
X150843310Y-116200200D01*
X152121138Y-116200200D01*
X152289351Y-116368706D01*
X152525558Y-116466788D01*
X152781320Y-116467011D01*
X153017698Y-116369342D01*
X153198706Y-116188649D01*
X153296788Y-115952442D01*
X153297011Y-115696680D01*
X153199342Y-115460302D01*
X153018649Y-115279294D01*
X152782442Y-115181212D01*
X152526680Y-115180989D01*
X152290302Y-115278658D01*
X152120865Y-115447800D01*
X150999137Y-115447800D01*
X150013111Y-114461774D01*
X150013319Y-114223678D01*
X149915650Y-113987300D01*
X149847789Y-113919320D01*
X150994989Y-113919320D01*
X151092658Y-114155698D01*
X151273351Y-114336706D01*
X151509558Y-114434788D01*
X151765320Y-114435011D01*
X152001698Y-114337342D01*
X152182706Y-114156649D01*
X152280788Y-113920442D01*
X152280997Y-113681031D01*
X152932027Y-113030000D01*
X160346051Y-113030000D01*
X160444969Y-113527293D01*
X160726663Y-113948878D01*
X161148248Y-114230572D01*
X161334800Y-114267680D01*
X161334800Y-117916123D01*
X161061000Y-117916123D01*
X160949827Y-117937042D01*
X160847721Y-118002745D01*
X160779222Y-118102997D01*
X160755123Y-118222000D01*
X160755123Y-119522000D01*
X160776042Y-119633173D01*
X160841745Y-119735279D01*
X160941997Y-119803778D01*
X161061000Y-119827877D01*
X162361000Y-119827877D01*
X162472173Y-119806958D01*
X162574279Y-119741255D01*
X162642778Y-119641003D01*
X162650409Y-119603320D01*
X163697469Y-119603320D01*
X163773495Y-119736175D01*
X164137503Y-119837820D01*
X164512702Y-119792427D01*
X164648505Y-119736175D01*
X164724531Y-119603320D01*
X164211000Y-119089789D01*
X163697469Y-119603320D01*
X162650409Y-119603320D01*
X162666877Y-119522000D01*
X162666877Y-118798503D01*
X163245180Y-118798503D01*
X163290573Y-119173702D01*
X163346825Y-119309505D01*
X163479680Y-119385531D01*
X163993211Y-118872000D01*
X164428789Y-118872000D01*
X164942320Y-119385531D01*
X165075175Y-119309505D01*
X165139951Y-119077530D01*
X166118527Y-119077530D01*
X166291373Y-119427591D01*
X166624312Y-119736206D01*
X167050009Y-119893919D01*
X167232000Y-119833494D01*
X167232000Y-118899000D01*
X167540000Y-118899000D01*
X167540000Y-119833494D01*
X167721991Y-119893919D01*
X168147688Y-119736206D01*
X168480627Y-119427591D01*
X168653473Y-119077530D01*
X168616052Y-118899000D01*
X167540000Y-118899000D01*
X167232000Y-118899000D01*
X166155948Y-118899000D01*
X166118527Y-119077530D01*
X165139951Y-119077530D01*
X165176820Y-118945497D01*
X165131427Y-118570298D01*
X165075175Y-118434495D01*
X165036687Y-118412470D01*
X166118527Y-118412470D01*
X166155948Y-118591000D01*
X167232000Y-118591000D01*
X167232000Y-117656506D01*
X167540000Y-117656506D01*
X167540000Y-118591000D01*
X168616052Y-118591000D01*
X168653473Y-118412470D01*
X168480627Y-118062409D01*
X168147688Y-117753794D01*
X167721991Y-117596081D01*
X167540000Y-117656506D01*
X167232000Y-117656506D01*
X167050009Y-117596081D01*
X166624312Y-117753794D01*
X166291373Y-118062409D01*
X166118527Y-118412470D01*
X165036687Y-118412470D01*
X164942320Y-118358469D01*
X164428789Y-118872000D01*
X163993211Y-118872000D01*
X163479680Y-118358469D01*
X163346825Y-118434495D01*
X163245180Y-118798503D01*
X162666877Y-118798503D01*
X162666877Y-118222000D01*
X162651576Y-118140680D01*
X163697469Y-118140680D01*
X164211000Y-118654211D01*
X164724531Y-118140680D01*
X164648505Y-118007825D01*
X164284497Y-117906180D01*
X163909298Y-117951573D01*
X163773495Y-118007825D01*
X163697469Y-118140680D01*
X162651576Y-118140680D01*
X162645958Y-118110827D01*
X162580255Y-118008721D01*
X162480003Y-117940222D01*
X162361000Y-117916123D01*
X162087200Y-117916123D01*
X162087200Y-116205000D01*
X166044218Y-116205000D01*
X166132792Y-116650290D01*
X166385029Y-117027789D01*
X166762528Y-117280026D01*
X167207818Y-117368600D01*
X167564182Y-117368600D01*
X168009472Y-117280026D01*
X168386971Y-117027789D01*
X168639208Y-116650290D01*
X168727782Y-116205000D01*
X168639208Y-115759710D01*
X168386971Y-115382211D01*
X168009472Y-115129974D01*
X167564182Y-115041400D01*
X167207818Y-115041400D01*
X166762528Y-115129974D01*
X166385029Y-115382211D01*
X166132792Y-115759710D01*
X166044218Y-116205000D01*
X162087200Y-116205000D01*
X162087200Y-114251767D01*
X162193752Y-114230572D01*
X162615337Y-113948878D01*
X162897031Y-113527293D01*
X162911510Y-113454502D01*
X162911510Y-114089163D01*
X162957182Y-114199426D01*
X163041573Y-114283818D01*
X163151836Y-114329490D01*
X163982000Y-114329490D01*
X164057000Y-114254490D01*
X164057000Y-113184000D01*
X164365000Y-113184000D01*
X164365000Y-114254490D01*
X164440000Y-114329490D01*
X165270164Y-114329490D01*
X165380427Y-114283818D01*
X165464818Y-114199426D01*
X165510490Y-114089163D01*
X165510490Y-113259000D01*
X165435490Y-113184000D01*
X164365000Y-113184000D01*
X164057000Y-113184000D01*
X164037000Y-113184000D01*
X164037000Y-112876000D01*
X164057000Y-112876000D01*
X164057000Y-111805510D01*
X164365000Y-111805510D01*
X164365000Y-112876000D01*
X165435490Y-112876000D01*
X165510090Y-112801400D01*
X166064123Y-112801400D01*
X166064123Y-114528600D01*
X166085042Y-114639773D01*
X166150745Y-114741879D01*
X166250997Y-114810378D01*
X166370000Y-114834477D01*
X168402000Y-114834477D01*
X168513173Y-114813558D01*
X168615279Y-114747855D01*
X168683778Y-114647603D01*
X168707877Y-114528600D01*
X168707877Y-112801400D01*
X168686958Y-112690227D01*
X168621255Y-112588121D01*
X168521003Y-112519622D01*
X168402000Y-112495523D01*
X166370000Y-112495523D01*
X166258827Y-112516442D01*
X166156721Y-112582145D01*
X166088222Y-112682397D01*
X166064123Y-112801400D01*
X165510090Y-112801400D01*
X165510490Y-112801000D01*
X165510490Y-111970837D01*
X165464818Y-111860574D01*
X165380427Y-111776182D01*
X165270164Y-111730510D01*
X164440000Y-111730510D01*
X164365000Y-111805510D01*
X164057000Y-111805510D01*
X163982000Y-111730510D01*
X163151836Y-111730510D01*
X163041573Y-111776182D01*
X162957182Y-111860574D01*
X162911510Y-111970837D01*
X162911510Y-112605498D01*
X162897031Y-112532707D01*
X162615337Y-112111122D01*
X162193752Y-111829428D01*
X161696459Y-111730510D01*
X161645541Y-111730510D01*
X161148248Y-111829428D01*
X160726663Y-112111122D01*
X160444969Y-112532707D01*
X160346051Y-113030000D01*
X152932027Y-113030000D01*
X153174011Y-112788016D01*
X153174014Y-112788014D01*
X153255563Y-112665966D01*
X153284200Y-112522000D01*
X153284200Y-110260862D01*
X153452706Y-110092649D01*
X153550788Y-109856442D01*
X153551011Y-109600680D01*
X153453342Y-109364302D01*
X153272649Y-109183294D01*
X153036442Y-109085212D01*
X152780680Y-109084989D01*
X152544302Y-109182658D01*
X152363294Y-109363351D01*
X152265212Y-109599558D01*
X152264989Y-109855320D01*
X152362658Y-110091698D01*
X152531800Y-110261135D01*
X152531800Y-112366173D01*
X151748776Y-113149197D01*
X151510680Y-113148989D01*
X151274302Y-113246658D01*
X151093294Y-113427351D01*
X150995212Y-113663558D01*
X150994989Y-113919320D01*
X149847789Y-113919320D01*
X149734957Y-113806292D01*
X149498750Y-113708210D01*
X149242988Y-113707987D01*
X149006610Y-113805656D01*
X148825602Y-113986349D01*
X148727520Y-114222556D01*
X148727297Y-114478318D01*
X143916970Y-114478318D01*
X146682955Y-110052743D01*
X147337327Y-110052743D01*
X147489019Y-110419866D01*
X147769657Y-110700994D01*
X148136515Y-110853327D01*
X148533743Y-110853673D01*
X148900866Y-110701981D01*
X149181994Y-110421343D01*
X149334327Y-110054485D01*
X149334328Y-110052743D01*
X149877327Y-110052743D01*
X150029019Y-110419866D01*
X150309657Y-110700994D01*
X150676515Y-110853327D01*
X151073743Y-110853673D01*
X151440866Y-110701981D01*
X151721994Y-110421343D01*
X151874327Y-110054485D01*
X151874673Y-109657257D01*
X151722981Y-109290134D01*
X151442343Y-109009006D01*
X151075485Y-108856673D01*
X150678257Y-108856327D01*
X150311134Y-109008019D01*
X150030006Y-109288657D01*
X149877673Y-109655515D01*
X149877327Y-110052743D01*
X149334328Y-110052743D01*
X149334673Y-109657257D01*
X149182981Y-109290134D01*
X148902343Y-109009006D01*
X148535485Y-108856673D01*
X148138257Y-108856327D01*
X147771134Y-109008019D01*
X147490006Y-109288657D01*
X147337673Y-109655515D01*
X147337327Y-110052743D01*
X146682955Y-110052743D01*
X147489045Y-108763000D01*
X167470955Y-108763000D01*
X173634201Y-118624196D01*
X173634201Y-118624196D01*
G37*
X173634201Y-118624196D02*
X173063763Y-119611821D01*
X173058202Y-119496499D01*
X173005631Y-119387052D01*
X172914620Y-119306680D01*
X171154856Y-118290680D01*
X171048118Y-118253209D01*
X170926840Y-118259057D01*
X170817392Y-118311628D01*
X170737021Y-118402639D01*
X169873421Y-119898439D01*
X169835950Y-120005177D01*
X169841798Y-120126455D01*
X169894369Y-120235902D01*
X169985380Y-120316274D01*
X171745144Y-121332274D01*
X171851882Y-121369745D01*
X171973160Y-121363897D01*
X172081977Y-121311629D01*
X171380353Y-122526380D01*
X171322257Y-122492838D01*
X171443929Y-122356939D01*
X171469270Y-121967354D01*
X171335244Y-121533616D01*
X171045436Y-121184184D01*
X170857615Y-121145519D01*
X170390368Y-121954814D01*
X170407688Y-121964814D01*
X170253688Y-122231550D01*
X170236368Y-122221550D01*
X169769121Y-123030845D01*
X169896517Y-123174171D01*
X170344038Y-123250436D01*
X170786679Y-123149637D01*
X171111399Y-122932898D01*
X171168255Y-122759578D01*
X171226304Y-122793093D01*
X170146297Y-124662955D01*
X170217955Y-124451858D01*
X170188261Y-123998816D01*
X169987456Y-123591623D01*
X169646111Y-123292270D01*
X169337490Y-123114088D01*
X168907571Y-122968150D01*
X168454529Y-122997844D01*
X168047336Y-123198649D01*
X167747983Y-123539995D01*
X167602045Y-123969914D01*
X167631739Y-124422956D01*
X167832544Y-124830149D01*
X168173890Y-125129502D01*
X168482510Y-125307684D01*
X168912429Y-125453622D01*
X169365471Y-125423928D01*
X169772665Y-125223123D01*
X169919380Y-125055827D01*
X168877037Y-126860479D01*
X168947955Y-126651563D01*
X168918261Y-126198521D01*
X168717456Y-125791328D01*
X168376111Y-125491975D01*
X168067490Y-125313793D01*
X167637571Y-125167855D01*
X167184529Y-125197549D01*
X166777336Y-125398354D01*
X166477983Y-125739700D01*
X166332045Y-126169619D01*
X166361739Y-126622661D01*
X166562544Y-127029854D01*
X166903890Y-127329207D01*
X167212510Y-127507389D01*
X167642429Y-127653327D01*
X168095471Y-127623633D01*
X168502665Y-127422828D01*
X168647859Y-127257266D01*
X167607777Y-129058005D01*
X167677955Y-128851267D01*
X167648261Y-128398225D01*
X167447456Y-127991032D01*
X167106111Y-127691679D01*
X166797490Y-127513497D01*
X166367571Y-127367559D01*
X165914529Y-127397253D01*
X165507336Y-127598058D01*
X165207983Y-127939404D01*
X165062045Y-128369323D01*
X165091739Y-128822365D01*
X165292544Y-129229558D01*
X165633890Y-129528911D01*
X165942510Y-129707093D01*
X166372429Y-129853031D01*
X166825471Y-129823337D01*
X167232665Y-129622532D01*
X167376339Y-129458703D01*
X166338517Y-131255530D01*
X166407955Y-131050972D01*
X166378261Y-130597930D01*
X166177456Y-130190737D01*
X165836111Y-129891384D01*
X165527490Y-129713202D01*
X165097571Y-129567264D01*
X164644529Y-129596958D01*
X164237336Y-129797763D01*
X163937983Y-130139109D01*
X163792045Y-130569028D01*
X163821739Y-131022070D01*
X164022544Y-131429263D01*
X164363890Y-131728616D01*
X164672510Y-131906798D01*
X165102429Y-132052736D01*
X165555471Y-132023042D01*
X165962665Y-131822237D01*
X166104818Y-131660142D01*
X165304944Y-133045000D01*
X149655056Y-133045000D01*
X148855178Y-131660137D01*
X148997336Y-131822237D01*
X149404529Y-132023042D01*
X149857571Y-132052736D01*
X150287490Y-131906798D01*
X150596111Y-131728616D01*
X150629516Y-131699320D01*
X150994977Y-131699320D01*
X151092646Y-131935698D01*
X151273339Y-132116706D01*
X151509546Y-132214788D01*
X151765308Y-132215011D01*
X152001686Y-132117342D01*
X152182694Y-131936649D01*
X152280776Y-131700442D01*
X152280985Y-131461043D01*
X152543225Y-131198803D01*
X152781320Y-131199011D01*
X153017698Y-131101342D01*
X153198706Y-130920649D01*
X153296788Y-130684442D01*
X153296877Y-130581400D01*
X153643523Y-130581400D01*
X153643523Y-132308600D01*
X153664442Y-132419773D01*
X153730145Y-132521879D01*
X153830397Y-132590378D01*
X153949400Y-132614477D01*
X155676600Y-132614477D01*
X155787773Y-132593558D01*
X155889879Y-132527855D01*
X155958378Y-132427603D01*
X155982477Y-132308600D01*
X155982477Y-131422204D01*
X156189400Y-131422204D01*
X156189400Y-131467796D01*
X156277974Y-131913086D01*
X156530211Y-132290585D01*
X156907710Y-132542822D01*
X157353000Y-132631396D01*
X157798290Y-132542822D01*
X158175789Y-132290585D01*
X158428026Y-131913086D01*
X158516600Y-131467796D01*
X158516600Y-131422204D01*
X158729400Y-131422204D01*
X158729400Y-131467796D01*
X158817974Y-131913086D01*
X159070211Y-132290585D01*
X159447710Y-132542822D01*
X159893000Y-132631396D01*
X160338290Y-132542822D01*
X160715789Y-132290585D01*
X160968026Y-131913086D01*
X161056600Y-131467796D01*
X161056600Y-131422204D01*
X160968026Y-130976914D01*
X160715789Y-130599415D01*
X160338290Y-130347178D01*
X159893000Y-130258604D01*
X159447710Y-130347178D01*
X159070211Y-130599415D01*
X158817974Y-130976914D01*
X158729400Y-131422204D01*
X158516600Y-131422204D01*
X158428026Y-130976914D01*
X158175789Y-130599415D01*
X157798290Y-130347178D01*
X157353000Y-130258604D01*
X156907710Y-130347178D01*
X156530211Y-130599415D01*
X156277974Y-130976914D01*
X156189400Y-131422204D01*
X155982477Y-131422204D01*
X155982477Y-130581400D01*
X155961558Y-130470227D01*
X155895855Y-130368121D01*
X155795603Y-130299622D01*
X155676600Y-130275523D01*
X153949400Y-130275523D01*
X153838227Y-130296442D01*
X153736121Y-130362145D01*
X153667622Y-130462397D01*
X153643523Y-130581400D01*
X153296877Y-130581400D01*
X153297011Y-130428680D01*
X153199342Y-130192302D01*
X153018649Y-130011294D01*
X152782442Y-129913212D01*
X152526680Y-129912989D01*
X152290302Y-130010658D01*
X152109294Y-130191351D01*
X152011212Y-130427558D01*
X152011003Y-130666969D01*
X151748775Y-130929197D01*
X151510668Y-130928989D01*
X151274290Y-131026658D01*
X151093282Y-131207351D01*
X150995200Y-131443558D01*
X150994977Y-131699320D01*
X150629516Y-131699320D01*
X150937456Y-131429263D01*
X151138261Y-131022070D01*
X151167955Y-130569028D01*
X151022017Y-130139108D01*
X150722665Y-129797763D01*
X150315471Y-129596958D01*
X149862429Y-129567264D01*
X149432510Y-129713202D01*
X149123890Y-129891384D01*
X148782544Y-130190737D01*
X148581739Y-130597930D01*
X148552045Y-131050972D01*
X148621484Y-131255533D01*
X147583657Y-129458698D01*
X147727336Y-129622532D01*
X148134529Y-129823337D01*
X148587571Y-129853031D01*
X149017490Y-129707093D01*
X149326111Y-129528911D01*
X149667456Y-129229558D01*
X149838751Y-128882204D01*
X153649400Y-128882204D01*
X153649400Y-128927796D01*
X153737974Y-129373086D01*
X153990211Y-129750585D01*
X154367710Y-130002822D01*
X154813000Y-130091396D01*
X155258290Y-130002822D01*
X155635789Y-129750585D01*
X155888026Y-129373086D01*
X155976600Y-128927796D01*
X155976600Y-128882204D01*
X156189400Y-128882204D01*
X156189400Y-128927796D01*
X156277974Y-129373086D01*
X156530211Y-129750585D01*
X156907710Y-130002822D01*
X157353000Y-130091396D01*
X157798290Y-130002822D01*
X158175789Y-129750585D01*
X158428026Y-129373086D01*
X158454989Y-129237532D01*
X158777912Y-129237532D01*
X158990048Y-129638945D01*
X159339650Y-129928622D01*
X159560470Y-130020073D01*
X159739000Y-129982652D01*
X159739000Y-129059000D01*
X160047000Y-129059000D01*
X160047000Y-129982652D01*
X160225530Y-130020073D01*
X160446350Y-129928622D01*
X160795952Y-129638945D01*
X161008088Y-129237532D01*
X160971379Y-129059000D01*
X160047000Y-129059000D01*
X159739000Y-129059000D01*
X158814621Y-129059000D01*
X158777912Y-129237532D01*
X158454989Y-129237532D01*
X158516600Y-128927796D01*
X158516600Y-128882204D01*
X158454990Y-128572468D01*
X158777912Y-128572468D01*
X158814621Y-128751000D01*
X159739000Y-128751000D01*
X159739000Y-127827348D01*
X160047000Y-127827348D01*
X160047000Y-128751000D01*
X160971379Y-128751000D01*
X161008088Y-128572468D01*
X160795952Y-128171055D01*
X160446350Y-127881378D01*
X160225530Y-127789927D01*
X160047000Y-127827348D01*
X159739000Y-127827348D01*
X159560470Y-127789927D01*
X159339650Y-127881378D01*
X158990048Y-128171055D01*
X158777912Y-128572468D01*
X158454990Y-128572468D01*
X158428026Y-128436914D01*
X158175789Y-128059415D01*
X157798290Y-127807178D01*
X157353000Y-127718604D01*
X156907710Y-127807178D01*
X156530211Y-128059415D01*
X156277974Y-128436914D01*
X156189400Y-128882204D01*
X155976600Y-128882204D01*
X155888026Y-128436914D01*
X155858020Y-128392007D01*
X155942610Y-128307417D01*
X155942613Y-128307415D01*
X156024162Y-128185367D01*
X156052799Y-128041401D01*
X156052799Y-127304440D01*
X156119706Y-127237649D01*
X156217788Y-127001442D01*
X156218011Y-126745680D01*
X156120342Y-126509302D01*
X155939649Y-126328294D01*
X155703442Y-126230212D01*
X155447680Y-126229989D01*
X155211302Y-126327658D01*
X155030294Y-126508351D01*
X154932212Y-126744558D01*
X154931989Y-127000320D01*
X155029658Y-127236698D01*
X155210351Y-127417706D01*
X155300399Y-127455097D01*
X155300399Y-127835314D01*
X155258290Y-127807178D01*
X154813000Y-127718604D01*
X154367710Y-127807178D01*
X153990211Y-128059415D01*
X153737974Y-128436914D01*
X153649400Y-128882204D01*
X149838751Y-128882204D01*
X149868261Y-128822365D01*
X149897955Y-128369323D01*
X149752017Y-127939403D01*
X149704972Y-127885758D01*
X149731558Y-127896798D01*
X149987320Y-127897021D01*
X150223698Y-127799352D01*
X150404706Y-127618659D01*
X150502788Y-127382452D01*
X150502997Y-127143041D01*
X150888011Y-126758026D01*
X150888014Y-126758024D01*
X150969563Y-126635976D01*
X150969564Y-126635975D01*
X150998201Y-126492010D01*
X150998200Y-126492005D01*
X150998200Y-125881866D01*
X151166706Y-125713653D01*
X151264788Y-125477446D01*
X151265011Y-125221684D01*
X151167342Y-124985306D01*
X150986649Y-124804298D01*
X150750442Y-124706216D01*
X150494680Y-124705993D01*
X150258302Y-124803662D01*
X150077294Y-124984355D01*
X149979212Y-125220562D01*
X149978989Y-125476324D01*
X150076658Y-125712702D01*
X150245800Y-125882139D01*
X150245800Y-126336183D01*
X149970776Y-126611207D01*
X149732680Y-126610999D01*
X149496302Y-126708668D01*
X149315294Y-126889361D01*
X149217212Y-127125568D01*
X149216989Y-127381330D01*
X149269144Y-127507556D01*
X149045471Y-127397253D01*
X148592429Y-127367559D01*
X148162510Y-127513497D01*
X147853890Y-127691679D01*
X147512544Y-127991032D01*
X147311739Y-128398225D01*
X147282045Y-128851267D01*
X147352224Y-129058008D01*
X146312138Y-127257262D01*
X146457336Y-127422828D01*
X146864529Y-127623633D01*
X147317571Y-127653327D01*
X147747490Y-127507389D01*
X148056111Y-127329207D01*
X148397456Y-127029854D01*
X148598261Y-126622661D01*
X148609208Y-126455636D01*
X148715558Y-126499796D01*
X148971320Y-126500019D01*
X149207698Y-126402350D01*
X149388706Y-126221657D01*
X149486788Y-125985450D01*
X149487011Y-125729688D01*
X149389342Y-125493310D01*
X149220200Y-125323873D01*
X149220200Y-125123834D01*
X149495230Y-124848803D01*
X149733326Y-124849011D01*
X149969704Y-124751342D01*
X150150712Y-124570649D01*
X150248794Y-124334442D01*
X150248828Y-124295000D01*
X153624123Y-124295000D01*
X153624123Y-125895000D01*
X153645042Y-126006173D01*
X153710745Y-126108279D01*
X153810997Y-126176778D01*
X153930000Y-126200877D01*
X155530000Y-126200877D01*
X155641173Y-126179958D01*
X155743279Y-126114255D01*
X155799507Y-126031961D01*
X155929732Y-126031961D01*
X156165208Y-126601857D01*
X156600849Y-127038260D01*
X157170333Y-127274730D01*
X157786961Y-127275268D01*
X158356857Y-127039792D01*
X158793260Y-126604151D01*
X158843685Y-126482713D01*
X159123197Y-126762224D01*
X159122989Y-127000320D01*
X159220658Y-127236698D01*
X159401351Y-127417706D01*
X159637558Y-127515788D01*
X159893320Y-127516011D01*
X160129698Y-127418342D01*
X160310706Y-127237649D01*
X160408788Y-127001442D01*
X160409011Y-126745680D01*
X160311342Y-126509302D01*
X160130649Y-126328294D01*
X159894442Y-126230212D01*
X159655031Y-126230003D01*
X159380200Y-125955172D01*
X159380200Y-125800709D01*
X159606087Y-126026991D01*
X160010237Y-126194808D01*
X160447844Y-126195190D01*
X160852286Y-126028078D01*
X161161991Y-125718913D01*
X161329808Y-125314763D01*
X161330190Y-124877156D01*
X161163078Y-124472714D01*
X160853913Y-124163009D01*
X160449763Y-123995192D01*
X160012156Y-123994810D01*
X159607714Y-124161922D01*
X159380200Y-124389039D01*
X159380200Y-124104083D01*
X159421706Y-124062649D01*
X159519788Y-123826442D01*
X159520011Y-123570680D01*
X159447778Y-123395861D01*
X159606928Y-123395861D01*
X159701602Y-123544278D01*
X160120403Y-123671183D01*
X160555891Y-123628160D01*
X160758398Y-123544278D01*
X160853072Y-123395861D01*
X160230000Y-122772789D01*
X159606928Y-123395861D01*
X159447778Y-123395861D01*
X159422342Y-123334302D01*
X159241649Y-123153294D01*
X159005442Y-123055212D01*
X158749680Y-123054989D01*
X158513302Y-123152658D01*
X158332294Y-123333351D01*
X158234212Y-123569558D01*
X158233989Y-123825320D01*
X158331658Y-124061698D01*
X158512351Y-124242706D01*
X158627800Y-124290645D01*
X158627800Y-124680859D01*
X158359151Y-124411740D01*
X157789667Y-124175270D01*
X157173039Y-124174732D01*
X156603143Y-124410208D01*
X156166740Y-124845849D01*
X155930270Y-125415333D01*
X155929732Y-126031961D01*
X155799507Y-126031961D01*
X155811778Y-126014003D01*
X155835877Y-125895000D01*
X155835877Y-124295000D01*
X155814958Y-124183827D01*
X155749255Y-124081721D01*
X155649003Y-124013222D01*
X155530000Y-123989123D01*
X153930000Y-123989123D01*
X153818827Y-124010042D01*
X153716721Y-124075745D01*
X153648222Y-124175997D01*
X153624123Y-124295000D01*
X150248828Y-124295000D01*
X150249017Y-124078680D01*
X150151348Y-123842302D01*
X149970655Y-123661294D01*
X149734448Y-123563212D01*
X149478686Y-123562989D01*
X149242308Y-123660658D01*
X149061300Y-123841351D01*
X148963218Y-124077558D01*
X148963009Y-124316969D01*
X148577986Y-124701992D01*
X148496437Y-124824040D01*
X148496437Y-124824041D01*
X148467799Y-124968006D01*
X148467800Y-124968011D01*
X148467800Y-125324146D01*
X148299294Y-125492359D01*
X148288308Y-125518816D01*
X148182665Y-125398354D01*
X147775471Y-125197549D01*
X147322429Y-125167855D01*
X146892510Y-125313793D01*
X146583890Y-125491975D01*
X146242544Y-125791328D01*
X146041739Y-126198521D01*
X146012045Y-126651563D01*
X146082963Y-126860482D01*
X145040618Y-125055823D01*
X145187336Y-125223123D01*
X145594529Y-125423928D01*
X146047571Y-125453622D01*
X146477490Y-125307684D01*
X146786111Y-125129502D01*
X147127456Y-124830149D01*
X147328261Y-124422956D01*
X147357955Y-123969914D01*
X147212017Y-123539994D01*
X147085616Y-123395861D01*
X154106928Y-123395861D01*
X154201602Y-123544278D01*
X154620403Y-123671183D01*
X155055891Y-123628160D01*
X155258398Y-123544278D01*
X155353072Y-123395861D01*
X154730000Y-122772789D01*
X154106928Y-123395861D01*
X147085616Y-123395861D01*
X146912665Y-123198649D01*
X146505471Y-122997844D01*
X146052429Y-122968150D01*
X145622510Y-123114088D01*
X145313890Y-123292270D01*
X144972544Y-123591623D01*
X144771739Y-123998816D01*
X144742045Y-124451858D01*
X144813702Y-124662955D01*
X143733696Y-122793093D01*
X143791745Y-122759578D01*
X143848601Y-122932898D01*
X144173321Y-123149637D01*
X144615962Y-123250436D01*
X145063483Y-123174171D01*
X145190879Y-123030845D01*
X144723632Y-122221550D01*
X144706312Y-122231550D01*
X144611627Y-122067550D01*
X144990368Y-122067550D01*
X145457615Y-122876845D01*
X145645436Y-122838180D01*
X145935244Y-122488748D01*
X145948637Y-122445403D01*
X153613817Y-122445403D01*
X153656840Y-122880891D01*
X153740722Y-123083398D01*
X153889139Y-123178072D01*
X154512211Y-122555000D01*
X154947789Y-122555000D01*
X155570861Y-123178072D01*
X155719278Y-123083398D01*
X155846183Y-122664597D01*
X155803442Y-122231961D01*
X155929732Y-122231961D01*
X156165208Y-122801857D01*
X156600849Y-123238260D01*
X157170333Y-123474730D01*
X157786961Y-123475268D01*
X158356857Y-123239792D01*
X158793260Y-122804151D01*
X158942224Y-122445403D01*
X159113817Y-122445403D01*
X159156840Y-122880891D01*
X159240722Y-123083398D01*
X159389139Y-123178072D01*
X160012211Y-122555000D01*
X160447789Y-122555000D01*
X161070861Y-123178072D01*
X161219278Y-123083398D01*
X161346183Y-122664597D01*
X161303160Y-122229109D01*
X161231046Y-122055010D01*
X168890730Y-122055010D01*
X169024756Y-122488748D01*
X169314564Y-122838180D01*
X169502385Y-122876845D01*
X169969632Y-122067550D01*
X169037744Y-121529524D01*
X168916071Y-121665425D01*
X168890730Y-122055010D01*
X161231046Y-122055010D01*
X161219278Y-122026602D01*
X161070861Y-121931928D01*
X160447789Y-122555000D01*
X160012211Y-122555000D01*
X159389139Y-121931928D01*
X159240722Y-122026602D01*
X159113817Y-122445403D01*
X158942224Y-122445403D01*
X159029730Y-122234667D01*
X159030184Y-121714139D01*
X159606928Y-121714139D01*
X160230000Y-122337211D01*
X160853072Y-121714139D01*
X160758398Y-121565722D01*
X160339597Y-121438817D01*
X159904109Y-121481840D01*
X159701602Y-121565722D01*
X159606928Y-121714139D01*
X159030184Y-121714139D01*
X159030268Y-121618039D01*
X158883482Y-121262788D01*
X169191744Y-121262788D01*
X170123632Y-121800814D01*
X170590879Y-120991519D01*
X170463483Y-120848193D01*
X170015962Y-120771928D01*
X169573321Y-120872727D01*
X169248601Y-121089466D01*
X169191744Y-121262788D01*
X158883482Y-121262788D01*
X158794792Y-121048143D01*
X158359151Y-120611740D01*
X157789667Y-120375270D01*
X157173039Y-120374732D01*
X156603143Y-120610208D01*
X156166740Y-121045849D01*
X155930270Y-121615333D01*
X155929732Y-122231961D01*
X155803442Y-122231961D01*
X155803160Y-122229109D01*
X155719278Y-122026602D01*
X155570861Y-121931928D01*
X154947789Y-122555000D01*
X154512211Y-122555000D01*
X153889139Y-121931928D01*
X153740722Y-122026602D01*
X153613817Y-122445403D01*
X145948637Y-122445403D01*
X146069270Y-122055010D01*
X146043929Y-121665425D01*
X145925755Y-121533432D01*
X152029861Y-121533432D01*
X152151397Y-121827572D01*
X152376245Y-122052812D01*
X152670172Y-122174861D01*
X152988432Y-122175139D01*
X153282572Y-122053603D01*
X153507812Y-121828755D01*
X153555404Y-121714139D01*
X154106928Y-121714139D01*
X154730000Y-122337211D01*
X155353072Y-121714139D01*
X155258398Y-121565722D01*
X154839597Y-121438817D01*
X154404109Y-121481840D01*
X154201602Y-121565722D01*
X154106928Y-121714139D01*
X153555404Y-121714139D01*
X153629861Y-121534828D01*
X153630139Y-121216568D01*
X153508603Y-120922428D01*
X153283755Y-120697188D01*
X152989828Y-120575139D01*
X152671568Y-120574861D01*
X152377428Y-120696397D01*
X152152188Y-120921245D01*
X152030139Y-121215172D01*
X152029861Y-121533432D01*
X145925755Y-121533432D01*
X145922256Y-121529524D01*
X144990368Y-122067550D01*
X144611627Y-122067550D01*
X144552312Y-121964814D01*
X144569632Y-121954814D01*
X144102385Y-121145519D01*
X143914564Y-121184184D01*
X143624756Y-121533616D01*
X143490730Y-121967354D01*
X143516071Y-122356939D01*
X143637743Y-122492838D01*
X143579646Y-122526380D01*
X142876596Y-121309158D01*
X142978677Y-121361710D01*
X143099747Y-121370906D01*
X143214856Y-121332274D01*
X143805061Y-120991519D01*
X144369121Y-120991519D01*
X144836368Y-121800814D01*
X145768256Y-121262788D01*
X145711399Y-121089466D01*
X145386679Y-120872727D01*
X144944038Y-120771928D01*
X144496517Y-120848193D01*
X144369121Y-120991519D01*
X143805061Y-120991519D01*
X144974620Y-120316274D01*
X145060440Y-120242572D01*
X145116015Y-120134618D01*
X145125211Y-120013548D01*
X145086579Y-119898439D01*
X144222979Y-118402639D01*
X144168326Y-118339000D01*
X154910000Y-118339000D01*
X154910000Y-119169674D01*
X154955672Y-119279937D01*
X155040064Y-119364328D01*
X155150327Y-119410000D01*
X155981000Y-119410000D01*
X156056000Y-119335000D01*
X156056000Y-118264000D01*
X154985000Y-118264000D01*
X154910000Y-118339000D01*
X144168326Y-118339000D01*
X144149277Y-118316819D01*
X144041323Y-118261244D01*
X143920253Y-118252048D01*
X143805144Y-118290680D01*
X142045380Y-119306680D01*
X141959560Y-119380382D01*
X141903985Y-119488336D01*
X141894795Y-119609324D01*
X141325798Y-118624195D01*
X142309465Y-117050326D01*
X154910000Y-117050326D01*
X154910000Y-117881000D01*
X154985000Y-117956000D01*
X156056000Y-117956000D01*
X156056000Y-116885000D01*
X156364000Y-116885000D01*
X156364000Y-117956000D01*
X156384000Y-117956000D01*
X156384000Y-118264000D01*
X156364000Y-118264000D01*
X156364000Y-119335000D01*
X156439000Y-119410000D01*
X157269673Y-119410000D01*
X157379936Y-119364328D01*
X157464328Y-119279937D01*
X157510000Y-119169674D01*
X157510000Y-118513209D01*
X157647271Y-118845429D01*
X158012647Y-119211444D01*
X158490279Y-119409774D01*
X159007452Y-119410226D01*
X159485429Y-119212729D01*
X159851444Y-118847353D01*
X160049774Y-118369721D01*
X160050226Y-117852548D01*
X159852729Y-117374571D01*
X159487353Y-117008556D01*
X159009721Y-116810226D01*
X158492548Y-116809774D01*
X158014571Y-117007271D01*
X157648556Y-117372647D01*
X157510000Y-117706327D01*
X157510000Y-117050326D01*
X157464328Y-116940063D01*
X157379936Y-116855672D01*
X157269673Y-116810000D01*
X156439000Y-116810000D01*
X156364000Y-116885000D01*
X156056000Y-116885000D01*
X155981000Y-116810000D01*
X155150327Y-116810000D01*
X155040064Y-116855672D01*
X154955672Y-116940063D01*
X154910000Y-117050326D01*
X142309465Y-117050326D01*
X143916970Y-114478318D01*
X148727297Y-114478318D01*
X148824966Y-114714696D01*
X149005659Y-114895704D01*
X149241866Y-114993786D01*
X149481277Y-114993995D01*
X150577294Y-116090011D01*
X150577296Y-116090014D01*
X150699344Y-116171563D01*
X150843310Y-116200200D01*
X152121138Y-116200200D01*
X152289351Y-116368706D01*
X152525558Y-116466788D01*
X152781320Y-116467011D01*
X153017698Y-116369342D01*
X153198706Y-116188649D01*
X153296788Y-115952442D01*
X153297011Y-115696680D01*
X153199342Y-115460302D01*
X153018649Y-115279294D01*
X152782442Y-115181212D01*
X152526680Y-115180989D01*
X152290302Y-115278658D01*
X152120865Y-115447800D01*
X150999137Y-115447800D01*
X150013111Y-114461774D01*
X150013319Y-114223678D01*
X149915650Y-113987300D01*
X149847789Y-113919320D01*
X150994989Y-113919320D01*
X151092658Y-114155698D01*
X151273351Y-114336706D01*
X151509558Y-114434788D01*
X151765320Y-114435011D01*
X152001698Y-114337342D01*
X152182706Y-114156649D01*
X152280788Y-113920442D01*
X152280997Y-113681031D01*
X152932027Y-113030000D01*
X160346051Y-113030000D01*
X160444969Y-113527293D01*
X160726663Y-113948878D01*
X161148248Y-114230572D01*
X161334800Y-114267680D01*
X161334800Y-117916123D01*
X161061000Y-117916123D01*
X160949827Y-117937042D01*
X160847721Y-118002745D01*
X160779222Y-118102997D01*
X160755123Y-118222000D01*
X160755123Y-119522000D01*
X160776042Y-119633173D01*
X160841745Y-119735279D01*
X160941997Y-119803778D01*
X161061000Y-119827877D01*
X162361000Y-119827877D01*
X162472173Y-119806958D01*
X162574279Y-119741255D01*
X162642778Y-119641003D01*
X162650409Y-119603320D01*
X163697469Y-119603320D01*
X163773495Y-119736175D01*
X164137503Y-119837820D01*
X164512702Y-119792427D01*
X164648505Y-119736175D01*
X164724531Y-119603320D01*
X164211000Y-119089789D01*
X163697469Y-119603320D01*
X162650409Y-119603320D01*
X162666877Y-119522000D01*
X162666877Y-118798503D01*
X163245180Y-118798503D01*
X163290573Y-119173702D01*
X163346825Y-119309505D01*
X163479680Y-119385531D01*
X163993211Y-118872000D01*
X164428789Y-118872000D01*
X164942320Y-119385531D01*
X165075175Y-119309505D01*
X165139951Y-119077530D01*
X166118527Y-119077530D01*
X166291373Y-119427591D01*
X166624312Y-119736206D01*
X167050009Y-119893919D01*
X167232000Y-119833494D01*
X167232000Y-118899000D01*
X167540000Y-118899000D01*
X167540000Y-119833494D01*
X167721991Y-119893919D01*
X168147688Y-119736206D01*
X168480627Y-119427591D01*
X168653473Y-119077530D01*
X168616052Y-118899000D01*
X167540000Y-118899000D01*
X167232000Y-118899000D01*
X166155948Y-118899000D01*
X166118527Y-119077530D01*
X165139951Y-119077530D01*
X165176820Y-118945497D01*
X165131427Y-118570298D01*
X165075175Y-118434495D01*
X165036687Y-118412470D01*
X166118527Y-118412470D01*
X166155948Y-118591000D01*
X167232000Y-118591000D01*
X167232000Y-117656506D01*
X167540000Y-117656506D01*
X167540000Y-118591000D01*
X168616052Y-118591000D01*
X168653473Y-118412470D01*
X168480627Y-118062409D01*
X168147688Y-117753794D01*
X167721991Y-117596081D01*
X167540000Y-117656506D01*
X167232000Y-117656506D01*
X167050009Y-117596081D01*
X166624312Y-117753794D01*
X166291373Y-118062409D01*
X166118527Y-118412470D01*
X165036687Y-118412470D01*
X164942320Y-118358469D01*
X164428789Y-118872000D01*
X163993211Y-118872000D01*
X163479680Y-118358469D01*
X163346825Y-118434495D01*
X163245180Y-118798503D01*
X162666877Y-118798503D01*
X162666877Y-118222000D01*
X162651576Y-118140680D01*
X163697469Y-118140680D01*
X164211000Y-118654211D01*
X164724531Y-118140680D01*
X164648505Y-118007825D01*
X164284497Y-117906180D01*
X163909298Y-117951573D01*
X163773495Y-118007825D01*
X163697469Y-118140680D01*
X162651576Y-118140680D01*
X162645958Y-118110827D01*
X162580255Y-118008721D01*
X162480003Y-117940222D01*
X162361000Y-117916123D01*
X162087200Y-117916123D01*
X162087200Y-116205000D01*
X166044218Y-116205000D01*
X166132792Y-116650290D01*
X166385029Y-117027789D01*
X166762528Y-117280026D01*
X167207818Y-117368600D01*
X167564182Y-117368600D01*
X168009472Y-117280026D01*
X168386971Y-117027789D01*
X168639208Y-116650290D01*
X168727782Y-116205000D01*
X168639208Y-115759710D01*
X168386971Y-115382211D01*
X168009472Y-115129974D01*
X167564182Y-115041400D01*
X167207818Y-115041400D01*
X166762528Y-115129974D01*
X166385029Y-115382211D01*
X166132792Y-115759710D01*
X166044218Y-116205000D01*
X162087200Y-116205000D01*
X162087200Y-114251767D01*
X162193752Y-114230572D01*
X162615337Y-113948878D01*
X162897031Y-113527293D01*
X162911510Y-113454502D01*
X162911510Y-114089163D01*
X162957182Y-114199426D01*
X163041573Y-114283818D01*
X163151836Y-114329490D01*
X163982000Y-114329490D01*
X164057000Y-114254490D01*
X164057000Y-113184000D01*
X164365000Y-113184000D01*
X164365000Y-114254490D01*
X164440000Y-114329490D01*
X165270164Y-114329490D01*
X165380427Y-114283818D01*
X165464818Y-114199426D01*
X165510490Y-114089163D01*
X165510490Y-113259000D01*
X165435490Y-113184000D01*
X164365000Y-113184000D01*
X164057000Y-113184000D01*
X164037000Y-113184000D01*
X164037000Y-112876000D01*
X164057000Y-112876000D01*
X164057000Y-111805510D01*
X164365000Y-111805510D01*
X164365000Y-112876000D01*
X165435490Y-112876000D01*
X165510090Y-112801400D01*
X166064123Y-112801400D01*
X166064123Y-114528600D01*
X166085042Y-114639773D01*
X166150745Y-114741879D01*
X166250997Y-114810378D01*
X166370000Y-114834477D01*
X168402000Y-114834477D01*
X168513173Y-114813558D01*
X168615279Y-114747855D01*
X168683778Y-114647603D01*
X168707877Y-114528600D01*
X168707877Y-112801400D01*
X168686958Y-112690227D01*
X168621255Y-112588121D01*
X168521003Y-112519622D01*
X168402000Y-112495523D01*
X166370000Y-112495523D01*
X166258827Y-112516442D01*
X166156721Y-112582145D01*
X166088222Y-112682397D01*
X166064123Y-112801400D01*
X165510090Y-112801400D01*
X165510490Y-112801000D01*
X165510490Y-111970837D01*
X165464818Y-111860574D01*
X165380427Y-111776182D01*
X165270164Y-111730510D01*
X164440000Y-111730510D01*
X164365000Y-111805510D01*
X164057000Y-111805510D01*
X163982000Y-111730510D01*
X163151836Y-111730510D01*
X163041573Y-111776182D01*
X162957182Y-111860574D01*
X162911510Y-111970837D01*
X162911510Y-112605498D01*
X162897031Y-112532707D01*
X162615337Y-112111122D01*
X162193752Y-111829428D01*
X161696459Y-111730510D01*
X161645541Y-111730510D01*
X161148248Y-111829428D01*
X160726663Y-112111122D01*
X160444969Y-112532707D01*
X160346051Y-113030000D01*
X152932027Y-113030000D01*
X153174011Y-112788016D01*
X153174014Y-112788014D01*
X153255563Y-112665966D01*
X153284200Y-112522000D01*
X153284200Y-110260862D01*
X153452706Y-110092649D01*
X153550788Y-109856442D01*
X153551011Y-109600680D01*
X153453342Y-109364302D01*
X153272649Y-109183294D01*
X153036442Y-109085212D01*
X152780680Y-109084989D01*
X152544302Y-109182658D01*
X152363294Y-109363351D01*
X152265212Y-109599558D01*
X152264989Y-109855320D01*
X152362658Y-110091698D01*
X152531800Y-110261135D01*
X152531800Y-112366173D01*
X151748776Y-113149197D01*
X151510680Y-113148989D01*
X151274302Y-113246658D01*
X151093294Y-113427351D01*
X150995212Y-113663558D01*
X150994989Y-113919320D01*
X149847789Y-113919320D01*
X149734957Y-113806292D01*
X149498750Y-113708210D01*
X149242988Y-113707987D01*
X149006610Y-113805656D01*
X148825602Y-113986349D01*
X148727520Y-114222556D01*
X148727297Y-114478318D01*
X143916970Y-114478318D01*
X146682955Y-110052743D01*
X147337327Y-110052743D01*
X147489019Y-110419866D01*
X147769657Y-110700994D01*
X148136515Y-110853327D01*
X148533743Y-110853673D01*
X148900866Y-110701981D01*
X149181994Y-110421343D01*
X149334327Y-110054485D01*
X149334328Y-110052743D01*
X149877327Y-110052743D01*
X150029019Y-110419866D01*
X150309657Y-110700994D01*
X150676515Y-110853327D01*
X151073743Y-110853673D01*
X151440866Y-110701981D01*
X151721994Y-110421343D01*
X151874327Y-110054485D01*
X151874673Y-109657257D01*
X151722981Y-109290134D01*
X151442343Y-109009006D01*
X151075485Y-108856673D01*
X150678257Y-108856327D01*
X150311134Y-109008019D01*
X150030006Y-109288657D01*
X149877673Y-109655515D01*
X149877327Y-110052743D01*
X149334328Y-110052743D01*
X149334673Y-109657257D01*
X149182981Y-109290134D01*
X148902343Y-109009006D01*
X148535485Y-108856673D01*
X148138257Y-108856327D01*
X147771134Y-109008019D01*
X147490006Y-109288657D01*
X147337673Y-109655515D01*
X147337327Y-110052743D01*
X146682955Y-110052743D01*
X147489045Y-108763000D01*
X167470955Y-108763000D01*
X173634201Y-118624196D01*
M02*
