G04 #@! TF.FileFunction,Copper,L2,Bot,Signal*
%FSLAX46Y46*%
G04 Gerber Fmt 4.6, Leading zero omitted, Abs format (unit mm)*
G04 Created by KiCad (PCBNEW 4.0.2-stable) date Monday, April 10, 2017 'pmt' 04:49:55 pm*
%MOMM*%
G01*
G04 APERTURE LIST*
%ADD10C,0.100000*%
%ADD11R,1.300000X1.300000*%
%ADD12C,1.300000*%
%ADD13R,2.032000X1.727200*%
%ADD14O,2.032000X1.727200*%
%ADD15C,1.524000*%
%ADD16C,0.400000*%
%ADD17C,0.250000*%
%ADD18C,0.254000*%
G04 APERTURE END LIST*
D10*
D11*
X147320000Y-102957000D03*
D12*
X147320000Y-100457000D03*
D11*
X151130000Y-102830000D03*
D12*
X151130000Y-100330000D03*
D13*
X139700000Y-100330000D03*
D14*
X139700000Y-102870000D03*
X139700000Y-105410000D03*
X139700000Y-107950000D03*
X139700000Y-110490000D03*
D15*
X142240000Y-110490000D03*
X142240000Y-100330000D03*
X144780000Y-110490000D03*
X144780000Y-100330000D03*
X156210000Y-110490000D03*
X156210000Y-100330000D03*
X153670000Y-110490000D03*
X153670000Y-100330000D03*
D13*
X158750000Y-100330000D03*
D14*
X158750000Y-102870000D03*
X158750000Y-105410000D03*
X158750000Y-107950000D03*
X158750000Y-110490000D03*
D16*
X144780000Y-108712004D03*
X152781000Y-107315000D03*
X145669000Y-107315000D03*
X154940000Y-101854000D03*
X143510000Y-101854000D03*
X152654000Y-102870000D03*
X145796000Y-102870000D03*
X156845002Y-104140000D03*
X156845000Y-107950000D03*
X154940000Y-107950000D03*
X154940000Y-106172000D03*
X143510000Y-107950000D03*
X141605000Y-107950000D03*
X143510000Y-106172000D03*
X141605000Y-104140000D03*
X149225000Y-100330000D03*
X149225000Y-102870000D03*
X149225000Y-105410000D03*
X146685000Y-110871000D03*
X148336000Y-110871000D03*
X150114000Y-110871000D03*
X151765000Y-110871000D03*
X160782000Y-110490000D03*
X160782000Y-107950000D03*
X160782000Y-100330000D03*
X160782000Y-102870000D03*
X160782000Y-105410000D03*
X137541000Y-110490000D03*
X137541000Y-107950000D03*
X137541000Y-100330000D03*
X137541000Y-102870000D03*
X137541000Y-105410000D03*
X149225000Y-107061000D03*
X153670000Y-108712000D03*
D17*
X144780000Y-110490000D02*
X144780000Y-108712004D01*
X144780000Y-110490000D02*
X143702370Y-110490000D01*
X143702370Y-110490000D02*
X142240000Y-110490000D01*
X147320000Y-102957000D02*
X147320000Y-107950000D01*
X147320000Y-107950000D02*
X144780000Y-110490000D01*
X152980999Y-107115001D02*
X152781000Y-107315000D01*
X153924000Y-106172000D02*
X152980999Y-107115001D01*
X154940000Y-106172000D02*
X153924000Y-106172000D01*
X151130000Y-100330000D02*
X152217001Y-99242999D01*
X152217001Y-99242999D02*
X154191761Y-99242999D01*
X154191761Y-99242999D02*
X154940000Y-99991238D01*
X154940000Y-99991238D02*
X154940000Y-101854000D01*
X143510000Y-101854000D02*
X143510000Y-102235000D01*
X143510000Y-102235000D02*
X141605000Y-104140000D01*
X147320000Y-100457000D02*
X145796000Y-101981000D01*
X145796000Y-101981000D02*
X145796000Y-102870000D01*
X154940000Y-106172000D02*
X154940000Y-107950000D01*
X143510000Y-106172000D02*
X141732000Y-107950000D01*
X141732000Y-107950000D02*
X141605000Y-107950000D01*
X149225000Y-105410000D02*
X149225000Y-102870000D01*
X149225000Y-102870000D02*
X149225000Y-102362000D01*
X149225000Y-107061000D02*
X149225000Y-105410000D01*
X160782000Y-110490000D02*
X159512000Y-111760000D01*
X159512000Y-111760000D02*
X152654000Y-111760000D01*
X152654000Y-111760000D02*
X151765000Y-110871000D01*
X150114000Y-110871000D02*
X148336000Y-110871000D01*
X160782000Y-100330000D02*
X160782000Y-107950000D01*
X158750000Y-105410000D02*
X160782000Y-105410000D01*
X137541000Y-110490000D02*
X137541000Y-110998000D01*
X137541000Y-100330000D02*
X137541000Y-107950000D01*
X137541000Y-105410000D02*
X137541000Y-102870000D01*
X149225000Y-102362000D02*
X147320000Y-100457000D01*
X153670000Y-110490000D02*
X153670000Y-108712000D01*
X153670000Y-110490000D02*
X154747630Y-110490000D01*
X154747630Y-110490000D02*
X156210000Y-110490000D01*
X151130000Y-102830000D02*
X151130000Y-107950000D01*
X151130000Y-107950000D02*
X153670000Y-110490000D01*
X153670000Y-100330000D02*
X153670000Y-103022400D01*
X153670000Y-103022400D02*
X158597600Y-107950000D01*
X158597600Y-107950000D02*
X158750000Y-107950000D01*
X144780000Y-100330000D02*
X144780000Y-103022400D01*
X144780000Y-103022400D02*
X139852400Y-107950000D01*
X139852400Y-107950000D02*
X139700000Y-107950000D01*
D18*
G36*
X161469000Y-111939000D02*
X136981000Y-111939000D01*
X136981000Y-110490000D01*
X138275631Y-110490000D01*
X138370371Y-110966288D01*
X138640166Y-111370065D01*
X139043943Y-111639860D01*
X139520231Y-111734600D01*
X139879769Y-111734600D01*
X140356057Y-111639860D01*
X140759834Y-111370065D01*
X141029629Y-110966288D01*
X141096879Y-110628201D01*
X141096802Y-110716359D01*
X141270446Y-111136612D01*
X141591697Y-111458423D01*
X142011646Y-111632801D01*
X142466359Y-111633198D01*
X142886612Y-111459554D01*
X143208423Y-111138303D01*
X143267512Y-110996000D01*
X143752347Y-110996000D01*
X143810446Y-111136612D01*
X144131697Y-111458423D01*
X144551646Y-111632801D01*
X145006359Y-111633198D01*
X145426612Y-111459554D01*
X145748423Y-111138303D01*
X145922801Y-110718354D01*
X145923198Y-110263641D01*
X145864357Y-110121235D01*
X147677796Y-108307796D01*
X147787483Y-108143638D01*
X147826000Y-107950000D01*
X147826000Y-103995464D01*
X147970000Y-103995464D01*
X148111190Y-103968897D01*
X148240865Y-103885454D01*
X148327859Y-103758134D01*
X148358464Y-103607000D01*
X148358464Y-102307000D01*
X148334568Y-102180000D01*
X150091536Y-102180000D01*
X150091536Y-103480000D01*
X150118103Y-103621190D01*
X150201546Y-103750865D01*
X150328866Y-103837859D01*
X150480000Y-103868464D01*
X150624000Y-103868464D01*
X150624000Y-107950000D01*
X150662517Y-108143638D01*
X150772204Y-108307796D01*
X152585544Y-110121136D01*
X152527199Y-110261646D01*
X152526802Y-110716359D01*
X152700446Y-111136612D01*
X153021697Y-111458423D01*
X153441646Y-111632801D01*
X153896359Y-111633198D01*
X154316612Y-111459554D01*
X154638423Y-111138303D01*
X154697512Y-110996000D01*
X155182347Y-110996000D01*
X155240446Y-111136612D01*
X155561697Y-111458423D01*
X155981646Y-111632801D01*
X156436359Y-111633198D01*
X156856612Y-111459554D01*
X157178423Y-111138303D01*
X157352801Y-110718354D01*
X157352881Y-110626993D01*
X157420371Y-110966288D01*
X157690166Y-111370065D01*
X158093943Y-111639860D01*
X158570231Y-111734600D01*
X158929769Y-111734600D01*
X159406057Y-111639860D01*
X159809834Y-111370065D01*
X160079629Y-110966288D01*
X160174369Y-110490000D01*
X160079629Y-110013712D01*
X159809834Y-109609935D01*
X159406057Y-109340140D01*
X158929769Y-109245400D01*
X158570231Y-109245400D01*
X158093943Y-109340140D01*
X157690166Y-109609935D01*
X157420371Y-110013712D01*
X157353121Y-110351799D01*
X157353198Y-110263641D01*
X157179554Y-109843388D01*
X156858303Y-109521577D01*
X156438354Y-109347199D01*
X155983641Y-109346802D01*
X155563388Y-109520446D01*
X155241577Y-109841697D01*
X155182488Y-109984000D01*
X154697653Y-109984000D01*
X154639554Y-109843388D01*
X154318303Y-109521577D01*
X154176000Y-109462488D01*
X154176000Y-109008450D01*
X154250898Y-108828075D01*
X154251100Y-108596939D01*
X154162835Y-108383320D01*
X153999540Y-108219740D01*
X153786075Y-108131102D01*
X153554939Y-108130900D01*
X153341320Y-108219165D01*
X153177740Y-108382460D01*
X153089102Y-108595925D01*
X153088900Y-108827061D01*
X153164000Y-109008818D01*
X153164000Y-109268408D01*
X151636000Y-107740408D01*
X151636000Y-103868464D01*
X151780000Y-103868464D01*
X151921190Y-103841897D01*
X152050865Y-103758454D01*
X152137859Y-103631134D01*
X152168464Y-103480000D01*
X152168464Y-102180000D01*
X152141897Y-102038810D01*
X152058454Y-101909135D01*
X151931134Y-101822141D01*
X151780000Y-101791536D01*
X150480000Y-101791536D01*
X150338810Y-101818103D01*
X150209135Y-101901546D01*
X150122141Y-102028866D01*
X150091536Y-102180000D01*
X148334568Y-102180000D01*
X148331897Y-102165810D01*
X148248454Y-102036135D01*
X148121134Y-101949141D01*
X147970000Y-101918536D01*
X146670000Y-101918536D01*
X146528810Y-101945103D01*
X146399135Y-102028546D01*
X146312141Y-102155866D01*
X146281536Y-102307000D01*
X146281536Y-103607000D01*
X146308103Y-103748190D01*
X146391546Y-103877865D01*
X146518866Y-103964859D01*
X146670000Y-103995464D01*
X146814000Y-103995464D01*
X146814000Y-107740408D01*
X145286000Y-109268408D01*
X145286000Y-109008454D01*
X145360898Y-108828079D01*
X145361100Y-108596943D01*
X145272835Y-108383324D01*
X145109540Y-108219744D01*
X144896075Y-108131106D01*
X144664939Y-108130904D01*
X144451320Y-108219169D01*
X144287740Y-108382464D01*
X144199102Y-108595929D01*
X144198900Y-108827065D01*
X144274000Y-109008822D01*
X144274000Y-109462347D01*
X144133388Y-109520446D01*
X143811577Y-109841697D01*
X143752488Y-109984000D01*
X143267653Y-109984000D01*
X143209554Y-109843388D01*
X142888303Y-109521577D01*
X142468354Y-109347199D01*
X142013641Y-109346802D01*
X141593388Y-109520446D01*
X141271577Y-109841697D01*
X141097199Y-110261646D01*
X141097119Y-110353007D01*
X141029629Y-110013712D01*
X140759834Y-109609935D01*
X140356057Y-109340140D01*
X139879769Y-109245400D01*
X139520231Y-109245400D01*
X139043943Y-109340140D01*
X138640166Y-109609935D01*
X138370371Y-110013712D01*
X138275631Y-110490000D01*
X136981000Y-110490000D01*
X136981000Y-105769026D01*
X138092642Y-105769026D01*
X138095291Y-105784791D01*
X138349268Y-106312036D01*
X138785680Y-106701954D01*
X139058243Y-106797296D01*
X139043943Y-106800140D01*
X138640166Y-107069935D01*
X138370371Y-107473712D01*
X138275631Y-107950000D01*
X138370371Y-108426288D01*
X138640166Y-108830065D01*
X139043943Y-109099860D01*
X139520231Y-109194600D01*
X139879769Y-109194600D01*
X140356057Y-109099860D01*
X140759834Y-108830065D01*
X141029629Y-108426288D01*
X141124369Y-107950000D01*
X141032060Y-107485932D01*
X145137796Y-103380196D01*
X145247483Y-103216038D01*
X145286000Y-103022400D01*
X145286000Y-101357653D01*
X145289961Y-101356016D01*
X146600590Y-101356016D01*
X146656271Y-101586611D01*
X147139078Y-101754622D01*
X147649428Y-101725083D01*
X147983729Y-101586611D01*
X148039410Y-101356016D01*
X147912411Y-101229016D01*
X150410590Y-101229016D01*
X150466271Y-101459611D01*
X150949078Y-101627622D01*
X151459428Y-101598083D01*
X151793729Y-101459611D01*
X151849410Y-101229016D01*
X151130000Y-100509605D01*
X150410590Y-101229016D01*
X147912411Y-101229016D01*
X147320000Y-100636605D01*
X146600590Y-101356016D01*
X145289961Y-101356016D01*
X145426612Y-101299554D01*
X145748423Y-100978303D01*
X145922801Y-100558354D01*
X145923047Y-100276078D01*
X146022378Y-100276078D01*
X146051917Y-100786428D01*
X146190389Y-101120729D01*
X146420984Y-101176410D01*
X147140395Y-100457000D01*
X147499605Y-100457000D01*
X148219016Y-101176410D01*
X148449611Y-101120729D01*
X148617622Y-100637922D01*
X148589328Y-100149078D01*
X149832378Y-100149078D01*
X149861917Y-100659428D01*
X150000389Y-100993729D01*
X150230984Y-101049410D01*
X150950395Y-100330000D01*
X151309605Y-100330000D01*
X152029016Y-101049410D01*
X152259611Y-100993729D01*
X152411810Y-100556359D01*
X152526802Y-100556359D01*
X152700446Y-100976612D01*
X153021697Y-101298423D01*
X153164000Y-101357512D01*
X153164000Y-103022400D01*
X153202517Y-103216038D01*
X153312204Y-103380196D01*
X157417940Y-107485932D01*
X157325631Y-107950000D01*
X157420371Y-108426288D01*
X157690166Y-108830065D01*
X158093943Y-109099860D01*
X158570231Y-109194600D01*
X158929769Y-109194600D01*
X159406057Y-109099860D01*
X159809834Y-108830065D01*
X160079629Y-108426288D01*
X160174369Y-107950000D01*
X160079629Y-107473712D01*
X159809834Y-107069935D01*
X159406057Y-106800140D01*
X159391757Y-106797296D01*
X159664320Y-106701954D01*
X160100732Y-106312036D01*
X160354709Y-105784791D01*
X160357358Y-105769026D01*
X160236217Y-105537000D01*
X158877000Y-105537000D01*
X158877000Y-105557000D01*
X158623000Y-105557000D01*
X158623000Y-105537000D01*
X157263783Y-105537000D01*
X157142642Y-105769026D01*
X157144747Y-105781555D01*
X156414166Y-105050974D01*
X157142642Y-105050974D01*
X157263783Y-105283000D01*
X158623000Y-105283000D01*
X158623000Y-105263000D01*
X158877000Y-105263000D01*
X158877000Y-105283000D01*
X160236217Y-105283000D01*
X160357358Y-105050974D01*
X160354709Y-105035209D01*
X160100732Y-104507964D01*
X159664320Y-104118046D01*
X159391757Y-104022704D01*
X159406057Y-104019860D01*
X159809834Y-103750065D01*
X160079629Y-103346288D01*
X160174369Y-102870000D01*
X160079629Y-102393712D01*
X159809834Y-101989935D01*
X159406057Y-101720140D01*
X158929769Y-101625400D01*
X158570231Y-101625400D01*
X158093943Y-101720140D01*
X157690166Y-101989935D01*
X157420371Y-102393712D01*
X157325631Y-102870000D01*
X157420371Y-103346288D01*
X157690166Y-103750065D01*
X158093943Y-104019860D01*
X158108243Y-104022704D01*
X157835680Y-104118046D01*
X157399268Y-104507964D01*
X157145291Y-105035209D01*
X157142642Y-105050974D01*
X156414166Y-105050974D01*
X154176000Y-102812808D01*
X154176000Y-101357653D01*
X154316612Y-101299554D01*
X154638423Y-100978303D01*
X154812801Y-100558354D01*
X154812802Y-100556359D01*
X155066802Y-100556359D01*
X155240446Y-100976612D01*
X155561697Y-101298423D01*
X155981646Y-101472801D01*
X156436359Y-101473198D01*
X156856612Y-101299554D01*
X157178423Y-100978303D01*
X157345536Y-100575850D01*
X157345536Y-101193600D01*
X157372103Y-101334790D01*
X157455546Y-101464465D01*
X157582866Y-101551459D01*
X157734000Y-101582064D01*
X159766000Y-101582064D01*
X159907190Y-101555497D01*
X160036865Y-101472054D01*
X160123859Y-101344734D01*
X160154464Y-101193600D01*
X160154464Y-99466400D01*
X160127897Y-99325210D01*
X160044454Y-99195535D01*
X159917134Y-99108541D01*
X159766000Y-99077936D01*
X157734000Y-99077936D01*
X157592810Y-99104503D01*
X157463135Y-99187946D01*
X157376141Y-99315266D01*
X157345536Y-99466400D01*
X157345536Y-100085097D01*
X157179554Y-99683388D01*
X156858303Y-99361577D01*
X156438354Y-99187199D01*
X155983641Y-99186802D01*
X155563388Y-99360446D01*
X155241577Y-99681697D01*
X155067199Y-100101646D01*
X155066802Y-100556359D01*
X154812802Y-100556359D01*
X154813198Y-100103641D01*
X154639554Y-99683388D01*
X154318303Y-99361577D01*
X153898354Y-99187199D01*
X153443641Y-99186802D01*
X153023388Y-99360446D01*
X152701577Y-99681697D01*
X152527199Y-100101646D01*
X152526802Y-100556359D01*
X152411810Y-100556359D01*
X152427622Y-100510922D01*
X152398083Y-100000572D01*
X152259611Y-99666271D01*
X152029016Y-99610590D01*
X151309605Y-100330000D01*
X150950395Y-100330000D01*
X150230984Y-99610590D01*
X150000389Y-99666271D01*
X149832378Y-100149078D01*
X148589328Y-100149078D01*
X148588083Y-100127572D01*
X148449611Y-99793271D01*
X148219016Y-99737590D01*
X147499605Y-100457000D01*
X147140395Y-100457000D01*
X146420984Y-99737590D01*
X146190389Y-99793271D01*
X146022378Y-100276078D01*
X145923047Y-100276078D01*
X145923198Y-100103641D01*
X145749554Y-99683388D01*
X145624369Y-99557984D01*
X146600590Y-99557984D01*
X147320000Y-100277395D01*
X148039410Y-99557984D01*
X148008744Y-99430984D01*
X150410590Y-99430984D01*
X151130000Y-100150395D01*
X151849410Y-99430984D01*
X151793729Y-99200389D01*
X151310922Y-99032378D01*
X150800572Y-99061917D01*
X150466271Y-99200389D01*
X150410590Y-99430984D01*
X148008744Y-99430984D01*
X147983729Y-99327389D01*
X147500922Y-99159378D01*
X146990572Y-99188917D01*
X146656271Y-99327389D01*
X146600590Y-99557984D01*
X145624369Y-99557984D01*
X145428303Y-99361577D01*
X145008354Y-99187199D01*
X144553641Y-99186802D01*
X144133388Y-99360446D01*
X143811577Y-99681697D01*
X143637199Y-100101646D01*
X143636802Y-100556359D01*
X143810446Y-100976612D01*
X144131697Y-101298423D01*
X144274000Y-101357512D01*
X144274000Y-102812808D01*
X141305253Y-105781555D01*
X141307358Y-105769026D01*
X141186217Y-105537000D01*
X139827000Y-105537000D01*
X139827000Y-105557000D01*
X139573000Y-105557000D01*
X139573000Y-105537000D01*
X138213783Y-105537000D01*
X138092642Y-105769026D01*
X136981000Y-105769026D01*
X136981000Y-105050974D01*
X138092642Y-105050974D01*
X138213783Y-105283000D01*
X139573000Y-105283000D01*
X139573000Y-105263000D01*
X139827000Y-105263000D01*
X139827000Y-105283000D01*
X141186217Y-105283000D01*
X141307358Y-105050974D01*
X141304709Y-105035209D01*
X141050732Y-104507964D01*
X140614320Y-104118046D01*
X140341757Y-104022704D01*
X140356057Y-104019860D01*
X140759834Y-103750065D01*
X141029629Y-103346288D01*
X141124369Y-102870000D01*
X141029629Y-102393712D01*
X140759834Y-101989935D01*
X140356057Y-101720140D01*
X139879769Y-101625400D01*
X139520231Y-101625400D01*
X139043943Y-101720140D01*
X138640166Y-101989935D01*
X138370371Y-102393712D01*
X138275631Y-102870000D01*
X138370371Y-103346288D01*
X138640166Y-103750065D01*
X139043943Y-104019860D01*
X139058243Y-104022704D01*
X138785680Y-104118046D01*
X138349268Y-104507964D01*
X138095291Y-105035209D01*
X138092642Y-105050974D01*
X136981000Y-105050974D01*
X136981000Y-99466400D01*
X138295536Y-99466400D01*
X138295536Y-101193600D01*
X138322103Y-101334790D01*
X138405546Y-101464465D01*
X138532866Y-101551459D01*
X138684000Y-101582064D01*
X140716000Y-101582064D01*
X140857190Y-101555497D01*
X140986865Y-101472054D01*
X141073859Y-101344734D01*
X141104464Y-101193600D01*
X141104464Y-100574903D01*
X141270446Y-100976612D01*
X141591697Y-101298423D01*
X142011646Y-101472801D01*
X142466359Y-101473198D01*
X142886612Y-101299554D01*
X143208423Y-100978303D01*
X143382801Y-100558354D01*
X143383198Y-100103641D01*
X143209554Y-99683388D01*
X142888303Y-99361577D01*
X142468354Y-99187199D01*
X142013641Y-99186802D01*
X141593388Y-99360446D01*
X141271577Y-99681697D01*
X141104464Y-100084150D01*
X141104464Y-99466400D01*
X141077897Y-99325210D01*
X140994454Y-99195535D01*
X140867134Y-99108541D01*
X140716000Y-99077936D01*
X138684000Y-99077936D01*
X138542810Y-99104503D01*
X138413135Y-99187946D01*
X138326141Y-99315266D01*
X138295536Y-99466400D01*
X136981000Y-99466400D01*
X136981000Y-98881000D01*
X161469000Y-98881000D01*
X161469000Y-111939000D01*
X161469000Y-111939000D01*
G37*
X161469000Y-111939000D02*
X136981000Y-111939000D01*
X136981000Y-110490000D01*
X138275631Y-110490000D01*
X138370371Y-110966288D01*
X138640166Y-111370065D01*
X139043943Y-111639860D01*
X139520231Y-111734600D01*
X139879769Y-111734600D01*
X140356057Y-111639860D01*
X140759834Y-111370065D01*
X141029629Y-110966288D01*
X141096879Y-110628201D01*
X141096802Y-110716359D01*
X141270446Y-111136612D01*
X141591697Y-111458423D01*
X142011646Y-111632801D01*
X142466359Y-111633198D01*
X142886612Y-111459554D01*
X143208423Y-111138303D01*
X143267512Y-110996000D01*
X143752347Y-110996000D01*
X143810446Y-111136612D01*
X144131697Y-111458423D01*
X144551646Y-111632801D01*
X145006359Y-111633198D01*
X145426612Y-111459554D01*
X145748423Y-111138303D01*
X145922801Y-110718354D01*
X145923198Y-110263641D01*
X145864357Y-110121235D01*
X147677796Y-108307796D01*
X147787483Y-108143638D01*
X147826000Y-107950000D01*
X147826000Y-103995464D01*
X147970000Y-103995464D01*
X148111190Y-103968897D01*
X148240865Y-103885454D01*
X148327859Y-103758134D01*
X148358464Y-103607000D01*
X148358464Y-102307000D01*
X148334568Y-102180000D01*
X150091536Y-102180000D01*
X150091536Y-103480000D01*
X150118103Y-103621190D01*
X150201546Y-103750865D01*
X150328866Y-103837859D01*
X150480000Y-103868464D01*
X150624000Y-103868464D01*
X150624000Y-107950000D01*
X150662517Y-108143638D01*
X150772204Y-108307796D01*
X152585544Y-110121136D01*
X152527199Y-110261646D01*
X152526802Y-110716359D01*
X152700446Y-111136612D01*
X153021697Y-111458423D01*
X153441646Y-111632801D01*
X153896359Y-111633198D01*
X154316612Y-111459554D01*
X154638423Y-111138303D01*
X154697512Y-110996000D01*
X155182347Y-110996000D01*
X155240446Y-111136612D01*
X155561697Y-111458423D01*
X155981646Y-111632801D01*
X156436359Y-111633198D01*
X156856612Y-111459554D01*
X157178423Y-111138303D01*
X157352801Y-110718354D01*
X157352881Y-110626993D01*
X157420371Y-110966288D01*
X157690166Y-111370065D01*
X158093943Y-111639860D01*
X158570231Y-111734600D01*
X158929769Y-111734600D01*
X159406057Y-111639860D01*
X159809834Y-111370065D01*
X160079629Y-110966288D01*
X160174369Y-110490000D01*
X160079629Y-110013712D01*
X159809834Y-109609935D01*
X159406057Y-109340140D01*
X158929769Y-109245400D01*
X158570231Y-109245400D01*
X158093943Y-109340140D01*
X157690166Y-109609935D01*
X157420371Y-110013712D01*
X157353121Y-110351799D01*
X157353198Y-110263641D01*
X157179554Y-109843388D01*
X156858303Y-109521577D01*
X156438354Y-109347199D01*
X155983641Y-109346802D01*
X155563388Y-109520446D01*
X155241577Y-109841697D01*
X155182488Y-109984000D01*
X154697653Y-109984000D01*
X154639554Y-109843388D01*
X154318303Y-109521577D01*
X154176000Y-109462488D01*
X154176000Y-109008450D01*
X154250898Y-108828075D01*
X154251100Y-108596939D01*
X154162835Y-108383320D01*
X153999540Y-108219740D01*
X153786075Y-108131102D01*
X153554939Y-108130900D01*
X153341320Y-108219165D01*
X153177740Y-108382460D01*
X153089102Y-108595925D01*
X153088900Y-108827061D01*
X153164000Y-109008818D01*
X153164000Y-109268408D01*
X151636000Y-107740408D01*
X151636000Y-103868464D01*
X151780000Y-103868464D01*
X151921190Y-103841897D01*
X152050865Y-103758454D01*
X152137859Y-103631134D01*
X152168464Y-103480000D01*
X152168464Y-102180000D01*
X152141897Y-102038810D01*
X152058454Y-101909135D01*
X151931134Y-101822141D01*
X151780000Y-101791536D01*
X150480000Y-101791536D01*
X150338810Y-101818103D01*
X150209135Y-101901546D01*
X150122141Y-102028866D01*
X150091536Y-102180000D01*
X148334568Y-102180000D01*
X148331897Y-102165810D01*
X148248454Y-102036135D01*
X148121134Y-101949141D01*
X147970000Y-101918536D01*
X146670000Y-101918536D01*
X146528810Y-101945103D01*
X146399135Y-102028546D01*
X146312141Y-102155866D01*
X146281536Y-102307000D01*
X146281536Y-103607000D01*
X146308103Y-103748190D01*
X146391546Y-103877865D01*
X146518866Y-103964859D01*
X146670000Y-103995464D01*
X146814000Y-103995464D01*
X146814000Y-107740408D01*
X145286000Y-109268408D01*
X145286000Y-109008454D01*
X145360898Y-108828079D01*
X145361100Y-108596943D01*
X145272835Y-108383324D01*
X145109540Y-108219744D01*
X144896075Y-108131106D01*
X144664939Y-108130904D01*
X144451320Y-108219169D01*
X144287740Y-108382464D01*
X144199102Y-108595929D01*
X144198900Y-108827065D01*
X144274000Y-109008822D01*
X144274000Y-109462347D01*
X144133388Y-109520446D01*
X143811577Y-109841697D01*
X143752488Y-109984000D01*
X143267653Y-109984000D01*
X143209554Y-109843388D01*
X142888303Y-109521577D01*
X142468354Y-109347199D01*
X142013641Y-109346802D01*
X141593388Y-109520446D01*
X141271577Y-109841697D01*
X141097199Y-110261646D01*
X141097119Y-110353007D01*
X141029629Y-110013712D01*
X140759834Y-109609935D01*
X140356057Y-109340140D01*
X139879769Y-109245400D01*
X139520231Y-109245400D01*
X139043943Y-109340140D01*
X138640166Y-109609935D01*
X138370371Y-110013712D01*
X138275631Y-110490000D01*
X136981000Y-110490000D01*
X136981000Y-105769026D01*
X138092642Y-105769026D01*
X138095291Y-105784791D01*
X138349268Y-106312036D01*
X138785680Y-106701954D01*
X139058243Y-106797296D01*
X139043943Y-106800140D01*
X138640166Y-107069935D01*
X138370371Y-107473712D01*
X138275631Y-107950000D01*
X138370371Y-108426288D01*
X138640166Y-108830065D01*
X139043943Y-109099860D01*
X139520231Y-109194600D01*
X139879769Y-109194600D01*
X140356057Y-109099860D01*
X140759834Y-108830065D01*
X141029629Y-108426288D01*
X141124369Y-107950000D01*
X141032060Y-107485932D01*
X145137796Y-103380196D01*
X145247483Y-103216038D01*
X145286000Y-103022400D01*
X145286000Y-101357653D01*
X145289961Y-101356016D01*
X146600590Y-101356016D01*
X146656271Y-101586611D01*
X147139078Y-101754622D01*
X147649428Y-101725083D01*
X147983729Y-101586611D01*
X148039410Y-101356016D01*
X147912411Y-101229016D01*
X150410590Y-101229016D01*
X150466271Y-101459611D01*
X150949078Y-101627622D01*
X151459428Y-101598083D01*
X151793729Y-101459611D01*
X151849410Y-101229016D01*
X151130000Y-100509605D01*
X150410590Y-101229016D01*
X147912411Y-101229016D01*
X147320000Y-100636605D01*
X146600590Y-101356016D01*
X145289961Y-101356016D01*
X145426612Y-101299554D01*
X145748423Y-100978303D01*
X145922801Y-100558354D01*
X145923047Y-100276078D01*
X146022378Y-100276078D01*
X146051917Y-100786428D01*
X146190389Y-101120729D01*
X146420984Y-101176410D01*
X147140395Y-100457000D01*
X147499605Y-100457000D01*
X148219016Y-101176410D01*
X148449611Y-101120729D01*
X148617622Y-100637922D01*
X148589328Y-100149078D01*
X149832378Y-100149078D01*
X149861917Y-100659428D01*
X150000389Y-100993729D01*
X150230984Y-101049410D01*
X150950395Y-100330000D01*
X151309605Y-100330000D01*
X152029016Y-101049410D01*
X152259611Y-100993729D01*
X152411810Y-100556359D01*
X152526802Y-100556359D01*
X152700446Y-100976612D01*
X153021697Y-101298423D01*
X153164000Y-101357512D01*
X153164000Y-103022400D01*
X153202517Y-103216038D01*
X153312204Y-103380196D01*
X157417940Y-107485932D01*
X157325631Y-107950000D01*
X157420371Y-108426288D01*
X157690166Y-108830065D01*
X158093943Y-109099860D01*
X158570231Y-109194600D01*
X158929769Y-109194600D01*
X159406057Y-109099860D01*
X159809834Y-108830065D01*
X160079629Y-108426288D01*
X160174369Y-107950000D01*
X160079629Y-107473712D01*
X159809834Y-107069935D01*
X159406057Y-106800140D01*
X159391757Y-106797296D01*
X159664320Y-106701954D01*
X160100732Y-106312036D01*
X160354709Y-105784791D01*
X160357358Y-105769026D01*
X160236217Y-105537000D01*
X158877000Y-105537000D01*
X158877000Y-105557000D01*
X158623000Y-105557000D01*
X158623000Y-105537000D01*
X157263783Y-105537000D01*
X157142642Y-105769026D01*
X157144747Y-105781555D01*
X156414166Y-105050974D01*
X157142642Y-105050974D01*
X157263783Y-105283000D01*
X158623000Y-105283000D01*
X158623000Y-105263000D01*
X158877000Y-105263000D01*
X158877000Y-105283000D01*
X160236217Y-105283000D01*
X160357358Y-105050974D01*
X160354709Y-105035209D01*
X160100732Y-104507964D01*
X159664320Y-104118046D01*
X159391757Y-104022704D01*
X159406057Y-104019860D01*
X159809834Y-103750065D01*
X160079629Y-103346288D01*
X160174369Y-102870000D01*
X160079629Y-102393712D01*
X159809834Y-101989935D01*
X159406057Y-101720140D01*
X158929769Y-101625400D01*
X158570231Y-101625400D01*
X158093943Y-101720140D01*
X157690166Y-101989935D01*
X157420371Y-102393712D01*
X157325631Y-102870000D01*
X157420371Y-103346288D01*
X157690166Y-103750065D01*
X158093943Y-104019860D01*
X158108243Y-104022704D01*
X157835680Y-104118046D01*
X157399268Y-104507964D01*
X157145291Y-105035209D01*
X157142642Y-105050974D01*
X156414166Y-105050974D01*
X154176000Y-102812808D01*
X154176000Y-101357653D01*
X154316612Y-101299554D01*
X154638423Y-100978303D01*
X154812801Y-100558354D01*
X154812802Y-100556359D01*
X155066802Y-100556359D01*
X155240446Y-100976612D01*
X155561697Y-101298423D01*
X155981646Y-101472801D01*
X156436359Y-101473198D01*
X156856612Y-101299554D01*
X157178423Y-100978303D01*
X157345536Y-100575850D01*
X157345536Y-101193600D01*
X157372103Y-101334790D01*
X157455546Y-101464465D01*
X157582866Y-101551459D01*
X157734000Y-101582064D01*
X159766000Y-101582064D01*
X159907190Y-101555497D01*
X160036865Y-101472054D01*
X160123859Y-101344734D01*
X160154464Y-101193600D01*
X160154464Y-99466400D01*
X160127897Y-99325210D01*
X160044454Y-99195535D01*
X159917134Y-99108541D01*
X159766000Y-99077936D01*
X157734000Y-99077936D01*
X157592810Y-99104503D01*
X157463135Y-99187946D01*
X157376141Y-99315266D01*
X157345536Y-99466400D01*
X157345536Y-100085097D01*
X157179554Y-99683388D01*
X156858303Y-99361577D01*
X156438354Y-99187199D01*
X155983641Y-99186802D01*
X155563388Y-99360446D01*
X155241577Y-99681697D01*
X155067199Y-100101646D01*
X155066802Y-100556359D01*
X154812802Y-100556359D01*
X154813198Y-100103641D01*
X154639554Y-99683388D01*
X154318303Y-99361577D01*
X153898354Y-99187199D01*
X153443641Y-99186802D01*
X153023388Y-99360446D01*
X152701577Y-99681697D01*
X152527199Y-100101646D01*
X152526802Y-100556359D01*
X152411810Y-100556359D01*
X152427622Y-100510922D01*
X152398083Y-100000572D01*
X152259611Y-99666271D01*
X152029016Y-99610590D01*
X151309605Y-100330000D01*
X150950395Y-100330000D01*
X150230984Y-99610590D01*
X150000389Y-99666271D01*
X149832378Y-100149078D01*
X148589328Y-100149078D01*
X148588083Y-100127572D01*
X148449611Y-99793271D01*
X148219016Y-99737590D01*
X147499605Y-100457000D01*
X147140395Y-100457000D01*
X146420984Y-99737590D01*
X146190389Y-99793271D01*
X146022378Y-100276078D01*
X145923047Y-100276078D01*
X145923198Y-100103641D01*
X145749554Y-99683388D01*
X145624369Y-99557984D01*
X146600590Y-99557984D01*
X147320000Y-100277395D01*
X148039410Y-99557984D01*
X148008744Y-99430984D01*
X150410590Y-99430984D01*
X151130000Y-100150395D01*
X151849410Y-99430984D01*
X151793729Y-99200389D01*
X151310922Y-99032378D01*
X150800572Y-99061917D01*
X150466271Y-99200389D01*
X150410590Y-99430984D01*
X148008744Y-99430984D01*
X147983729Y-99327389D01*
X147500922Y-99159378D01*
X146990572Y-99188917D01*
X146656271Y-99327389D01*
X146600590Y-99557984D01*
X145624369Y-99557984D01*
X145428303Y-99361577D01*
X145008354Y-99187199D01*
X144553641Y-99186802D01*
X144133388Y-99360446D01*
X143811577Y-99681697D01*
X143637199Y-100101646D01*
X143636802Y-100556359D01*
X143810446Y-100976612D01*
X144131697Y-101298423D01*
X144274000Y-101357512D01*
X144274000Y-102812808D01*
X141305253Y-105781555D01*
X141307358Y-105769026D01*
X141186217Y-105537000D01*
X139827000Y-105537000D01*
X139827000Y-105557000D01*
X139573000Y-105557000D01*
X139573000Y-105537000D01*
X138213783Y-105537000D01*
X138092642Y-105769026D01*
X136981000Y-105769026D01*
X136981000Y-105050974D01*
X138092642Y-105050974D01*
X138213783Y-105283000D01*
X139573000Y-105283000D01*
X139573000Y-105263000D01*
X139827000Y-105263000D01*
X139827000Y-105283000D01*
X141186217Y-105283000D01*
X141307358Y-105050974D01*
X141304709Y-105035209D01*
X141050732Y-104507964D01*
X140614320Y-104118046D01*
X140341757Y-104022704D01*
X140356057Y-104019860D01*
X140759834Y-103750065D01*
X141029629Y-103346288D01*
X141124369Y-102870000D01*
X141029629Y-102393712D01*
X140759834Y-101989935D01*
X140356057Y-101720140D01*
X139879769Y-101625400D01*
X139520231Y-101625400D01*
X139043943Y-101720140D01*
X138640166Y-101989935D01*
X138370371Y-102393712D01*
X138275631Y-102870000D01*
X138370371Y-103346288D01*
X138640166Y-103750065D01*
X139043943Y-104019860D01*
X139058243Y-104022704D01*
X138785680Y-104118046D01*
X138349268Y-104507964D01*
X138095291Y-105035209D01*
X138092642Y-105050974D01*
X136981000Y-105050974D01*
X136981000Y-99466400D01*
X138295536Y-99466400D01*
X138295536Y-101193600D01*
X138322103Y-101334790D01*
X138405546Y-101464465D01*
X138532866Y-101551459D01*
X138684000Y-101582064D01*
X140716000Y-101582064D01*
X140857190Y-101555497D01*
X140986865Y-101472054D01*
X141073859Y-101344734D01*
X141104464Y-101193600D01*
X141104464Y-100574903D01*
X141270446Y-100976612D01*
X141591697Y-101298423D01*
X142011646Y-101472801D01*
X142466359Y-101473198D01*
X142886612Y-101299554D01*
X143208423Y-100978303D01*
X143382801Y-100558354D01*
X143383198Y-100103641D01*
X143209554Y-99683388D01*
X142888303Y-99361577D01*
X142468354Y-99187199D01*
X142013641Y-99186802D01*
X141593388Y-99360446D01*
X141271577Y-99681697D01*
X141104464Y-100084150D01*
X141104464Y-99466400D01*
X141077897Y-99325210D01*
X140994454Y-99195535D01*
X140867134Y-99108541D01*
X140716000Y-99077936D01*
X138684000Y-99077936D01*
X138542810Y-99104503D01*
X138413135Y-99187946D01*
X138326141Y-99315266D01*
X138295536Y-99466400D01*
X136981000Y-99466400D01*
X136981000Y-98881000D01*
X161469000Y-98881000D01*
X161469000Y-111939000D01*
M02*
