M48
INCH,TZ
T1C0.012
T2C0.031
T3C0.032
T4C0.032
T5C0.040
%
G90
G05
T1
X54150Y-39500
X54150Y-40500
X54150Y-41500
X54150Y-42500
X54150Y-43500
X55750Y-41000
X55750Y-42500
X56500Y-40100
X56500Y-41800
X56500Y-42500
X57000Y-42800
X57350Y-42250
X57400Y-40500
X57750Y-43650
X58400Y-43650
X58750Y-39500
X58750Y-40500
X58750Y-41500
X58750Y-42150
X59100Y-43650
X59750Y-43650
X60100Y-40500
X60150Y-42250
X60500Y-42800
X61000Y-40100
X61000Y-41800
X61000Y-42500
X61750Y-42500
X61750Y-41000
X63300Y-39500
X63300Y-40500
X63300Y-41500
X63300Y-42500
X63300Y-43500
T2
X58000Y-40534
X59500Y-40484
T3
X58000Y-39550
X59500Y-39500
T4
X56000Y-39500
X56000Y-43500
X57000Y-39500
X57000Y-43500
X60500Y-39500
X60500Y-43500
X61500Y-39500
X61500Y-43500
T5
X55000Y-39500
X55000Y-40500
X55000Y-41500
X55000Y-42500
X55000Y-43500
X62500Y-39500
X62500Y-40500
X62500Y-41500
X62500Y-42500
X62500Y-43500
T0
M30
